<?xml version="1.0" encoding="UTF-8" standalone="no"?>
<!-- Created with Inkscape (http://www.inkscape.org/) -->

<svg
   width="88.012161mm"
   height="77.48185mm"
   viewBox="0 0 88.012164 77.481851"
   version="1.1"
   id="svg1"
   inkscape:version="1.4 (86a8ad7, 2024-10-11)"
   sodipodi:docname="envelope.svg"
   xml:space="preserve"
   xmlns:inkscape="http://www.inkscape.org/namespaces/inkscape"
   xmlns:sodipodi="http://sodipodi.sourceforge.net/DTD/sodipodi-0.dtd"
   xmlns="http://www.w3.org/2000/svg"
   xmlns:svg="http://www.w3.org/2000/svg"><sodipodi:namedview
     id="namedview1"
     pagecolor="#ffffff"
     bordercolor="#000000"
     borderopacity="0.25"
     inkscape:showpageshadow="2"
     inkscape:pageopacity="0.0"
     inkscape:pagecheckerboard="0"
     inkscape:deskcolor="#d1d1d1"
     inkscape:document-units="mm"
     inkscape:zoom="1.2562944"
     inkscape:cx="245.96146"
     inkscape:cy="115.8168"
     inkscape:window-width="1920"
     inkscape:window-height="1009"
     inkscape:window-x="-8"
     inkscape:window-y="-8"
     inkscape:window-maximized="1"
     inkscape:current-layer="layer1"
     showguides="true" /><defs
     id="defs1"><linearGradient
       id="swatch1"
       inkscape:swatch="solid"><stop
         style="stop-color:#000000;stop-opacity:1;"
         offset="0"
         id="stop1" /></linearGradient></defs><g
     inkscape:label="Layer 1"
     inkscape:groupmode="layer"
     id="layer1"
     transform="translate(-1.1323743,-157.95543)"><path
       id="rect6-4-8"
       style="stroke-width:2.30323"
       d="M -58.690335,84.747621 H 143.30868 c 0.61477,0 1.10969,0.421535 1.10969,0.945147 0,0.523612 -0.49492,0.945147 -1.10969,0.945147 H -58.690335 c -0.614765,0 -1.109683,-0.421535 -1.109683,-0.945147 0,-0.523612 0.494918,-0.945147 1.109683,-0.945147 z" /><path
       id="rect6-4-8-7"
       style="stroke-width:1.21823"
       d="m -59.025148,20.181572 c 0.451414,0 0.814826,0.52779 0.814826,1.183387 v 63.902757 c 0,0.655597 -0.363412,1.183387 -0.814826,1.183387 -0.451413,0 -0.814825,-0.52779 -0.814825,-1.183387 V 21.364959 c 0,-0.655597 0.363412,-1.183387 0.814825,-1.183387 z" /><path
       id="rect6-4-8-7-3"
       style="stroke-width:0.146836"
       d="m -57.020276,85.782382 h 0.445283 c 0.04056,0 0.07321,0.02112 0.07321,0.04735 v 2.556961 c 0,0.02623 -0.03265,0.04735 -0.07321,0.04735 h -0.445283 c -0.04056,0 -0.07321,-0.02112 -0.07321,-0.04735 v -2.556961 c 0,-0.02623 0.03265,-0.04735 0.07321,-0.04735 z" /><path
       id="rect6-4-8-7-3-9"
       style="stroke-width:0.146836"
       d="m -59.11799,71.63697 v 0.445283 c 0,0.04056 -0.02112,0.07321 -0.04735,0.07321 h -2.556961 c -0.02623,0 -0.04735,-0.03265 -0.04735,-0.07321 V 71.63697 c 0,-0.04056 0.02112,-0.07321 0.04735,-0.07321 h 2.556961 c 0.02623,0 0.04735,0.03265 0.04735,0.07321 z" /><path
       id="rect6-4-8-7-3-9-3"
       style="stroke-width:0.146836"
       d="M -59.451043,57.634217 V 58.0795 c 0,0.04056 -0.02112,0.07321 -0.04735,0.07321 h -2.556961 c -0.02623,0 -0.04735,-0.03265 -0.04735,-0.07321 v -0.445283 c 0,-0.04056 0.02112,-0.07321 0.04735,-0.07321 h 2.556961 c 0.02623,0 0.04735,0.03265 0.04735,0.07321 z" /><path
       id="rect6-4-8-7-3-9-8-9"
       style="stroke-width:0.146836"
       d="m -59.055604,45.006912 v 0.445283 c 0,0.04056 -0.02112,0.07321 -0.04735,0.07321 h -2.556961 c -0.02623,0 -0.04735,-0.03265 -0.04735,-0.07321 v -0.445283 c 0,-0.04056 0.02112,-0.07321 0.04735,-0.07321 h 2.556961 c 0.02623,0 0.04735,0.03265 0.04735,0.07321 z" /><path
       id="rect6-4-8-7-3-2"
       style="stroke-width:0.155337"
       d="m -26.238483,85.366493 h 0.485712 c 0.02936,0 0.05299,0.02363 0.05299,0.05299 v 2.861586 c 0,0.02936 -0.02363,0.05299 -0.05299,0.05299 h -0.485712 c -0.02936,0 -0.05299,-0.02363 -0.05299,-0.05299 v -2.861586 c 0,-0.02936 0.02363,-0.05299 0.05299,-0.05299 z" /><path
       id="rect6-4-8-7-3-2-5"
       style="stroke-width:0.160087"
       d="M 5.4747907,84.936043 H 5.953921 c 0.031181,0 0.056283,0.0251 0.056283,0.05628 v 3.039285 c 0,0.03118 -0.025102,0.05628 -0.056283,0.05628 H 5.4747907 c -0.031181,0 -0.056283,-0.0251 -0.056283,-0.05628 v -3.039285 c 0,-0.03118 0.025102,-0.05628 0.056283,-0.05628 z" /><path
       id="rect6-4-8-7-3-2-5-0"
       style="stroke-width:0.182576"
       d="m 34.315219,84.808578 h 0.445283 c 0.04056,0 0.07321,0.03265 0.07321,0.07321 v 3.953165 c 0,0.04056 -0.03265,0.07321 -0.07321,0.07321 h -0.445283 c -0.04056,0 -0.07321,-0.03265 -0.07321,-0.07321 v -3.953165 c 0,-0.04056 0.03265,-0.07321 0.07321,-0.07321 z" /><path
       id="rect6-4-8-7-3-2-5-0-6"
       style="stroke-width:0.161419"
       d="m 64.160373,84.874963 h 0.445283 c 0.04056,0 0.07321,0.02552 0.07321,0.05723 v 3.090057 c 0,0.03171 -0.03265,0.05723 -0.07321,0.05723 h -0.445283 c -0.04056,0 -0.07321,-0.02552 -0.07321,-0.05723 v -3.090057 c 0,-0.0317 0.03265,-0.05723 0.07321,-0.05723 z" /><path
       id="path6"
       style="stroke:#000000;stroke-width:1.28433"
       d="m -23.745843,71.383095 a 2.704879,2.704879 0 0 1 -2.704879,2.704879 2.704879,2.704879 0 0 1 -2.704879,-2.704879 2.704879,2.704879 0 0 1 2.704879,-2.704879 2.704879,2.704879 0 0 1 2.704879,2.704879 z" /><path
       id="path6-5"
       style="stroke-width:1.28433"
       d="m 36.617201,64.405129 a 2.704879,2.704879 0 0 1 -2.704879,2.704879 2.704879,2.704879 0 0 1 -2.704879,-2.704879 2.704879,2.704879 0 0 1 2.704879,-2.704879 2.704879,2.704879 0 0 1 2.704879,2.704879 z" /><path
       id="path6-5-9"
       style="stroke-width:1.28433"
       d="m 67.621995,41.093363 a 2.704879,2.704879 0 0 1 -2.704879,2.704879 2.704879,2.704879 0 0 1 -2.704879,-2.704879 2.704879,2.704879 0 0 1 2.704879,-2.704879 2.704879,2.704879 0 0 1 2.704879,2.704879 z" /><path
       id="path6-5-6"
       style="stroke-width:1.28433"
       d="m 100.78919,41.092312 a 2.704879,2.704879 0 0 1 -2.704878,2.704879 2.704879,2.704879 0 0 1 -2.704879,-2.704879 2.704879,2.704879 0 0 1 2.704879,-2.704879 2.704879,2.704879 0 0 1 2.704878,2.704879 z" /><path
       id="path6-5-6-8"
       style="stroke-width:1.28433"
       d="m 129.64886,20.504673 a 2.704879,2.704879 0 0 1 -2.70488,2.704879 2.704879,2.704879 0 0 1 -2.70488,-2.704879 2.704879,2.704879 0 0 1 2.70488,-2.704879 2.704879,2.704879 0 0 1 2.70488,2.704879 z" /><path
       style="fill:none;fill-opacity:1;stroke:#000000;stroke-width:1.28433;stroke-dasharray:none"
       d="M -58.828263,85.775999 C -25.467599,72.312591 -25.467599,72.312591 -25.467599,72.312591"
       id="path7" /><path
       style="fill:none;fill-opacity:1;stroke:#000000;stroke-width:1.28433;stroke-dasharray:none"
       d="M 5.1664146,85.461342 C -27.943208,71.391851 -27.943208,71.391851 -27.943208,71.391851"
       id="path7-1" /><path
       style="fill:none;fill-opacity:1;stroke:#000000;stroke-width:1.28433;stroke-dasharray:none"
       d="M 34.552705,64.20707 C 5.8133569,85.846096 5.8133569,85.846096 5.8133569,85.846096"
       id="path7-1-8" /><path
       style="fill:none;fill-opacity:1;stroke:#000000;stroke-width:1.28433;stroke-dasharray:none"
       d="M 64.031568,41.675269 C 35.29222,63.314296 35.29222,63.314296 35.29222,63.314296"
       id="path7-1-8-1" /><path
       style="fill:none;fill-opacity:1;stroke:#000000;stroke-width:1.28433;stroke-dasharray:none"
       d="M 126.36213,20.315549 C 97.622776,41.954575 97.622776,41.954575 97.622776,41.954575"
       id="path7-1-8-1-0" /><path
       style="fill:none;fill-opacity:1;stroke:#000000;stroke-width:1.28433;stroke-dasharray:none"
       d="m 63.197874,41.190091 c 35.974889,-0.07125 35.974889,-0.07125 35.974889,-0.07125"
       id="path7-1-8-1-3" /><path
       style="font-weight:800;font-size:4.23333px;line-height:150%;font-family:suse;-inkscape-font-specification:'suse Ultra-Bold';stroke-width:1.28433"
       d="m -59.826494,92.82917 v -0.613833 h 0.550333 q 0.09313,0 0.1524,-0.05927 0.0635,-0.0635 0.0635,-0.156633 v -1.803399 l 0.283633,0.283633 h -0.922866 v -0.613833 h 1.320799 V 91.9317 q 0,0.448733 -0.2413,0.6731 -0.237067,0.224366 -0.719666,0.224366 z m 1.680637,0 1.041399,-2.963331 h 0.842432 l 1.037166,2.963331 h -0.694266 l -0.808566,-2.451098 h 0.0889 l -0.812799,2.451098 z m 0.486833,-0.647699 0.215899,-0.567266 h 1.528232 l 0.220134,0.567266 z m 2.738967,0.647699 v -2.963331 h 0.605367 l 1.507065,2.188632 -0.2921,0.04657 v -2.235199 h 0.677333 v 2.963331 h -0.588433 l -1.498599,-2.158998 0.2667,-0.04657 v 2.205565 z"
       id="text7"
       aria-label="JAN" /><path
       style="font-weight:800;font-size:4.23333px;line-height:150%;font-family:suse;-inkscape-font-specification:'suse Ultra-Bold';stroke-width:1.28433"
       d="m -29.530029,92.299141 v -2.446865 q 0,-0.224366 0.143933,-0.368299 0.148166,-0.148167 0.372533,-0.148167 h 1.481665 v 0.613833 h -1.236132 q -0.03387,0 -0.05927,0.0254 -0.0254,0.0254 -0.0254,0.05927 v 2.264831 z m 0.347133,-1.062566 v -0.605366 h 1.545165 v 0.605366 z m 2.565396,1.062566 q -0.224366,0 -0.372533,-0.143933 -0.143933,-0.148167 -0.143933,-0.372533 v -1.930399 q 0,-0.224366 0.143933,-0.368299 0.148167,-0.148167 0.372533,-0.148167 h 1.519766 v 0.613833 h -1.282699 q -0.03387,0 -0.05927,0.0254 -0.0254,0.0254 -0.0254,0.05927 v 1.566332 q 0,0.03387 0.0254,0.05927 0.0254,0.0254 0.05927,0.0254 h 1.282699 v 0.613833 z m -0.194733,-1.198032 v -0.5842 h 1.625599 v 0.5842 z m 2.222495,1.198032 V 89.33581 h 1.159933 q 0.457199,0 0.723899,0.207433 0.2667,0.207433 0.2667,0.563033 0,0.169333 -0.06773,0.338666 -0.0635,0.1651 -0.211667,0.275167 -0.143933,0.110066 -0.385233,0.110066 l 0.0127,-0.09313 q 0.258233,0 0.427566,0.105833 0.173567,0.1016 0.258234,0.270934 0.0889,0.165099 0.0889,0.355599 0,0.381 -0.279399,0.605366 -0.275167,0.224367 -0.753533,0.224367 z m 0.664633,-0.321733 -0.2667,-0.232833 h 0.728133 q 0.207433,0 0.325966,-0.0889 0.118534,-0.09313 0.118534,-0.249767 0,-0.09737 -0.04657,-0.1778 -0.04233,-0.08043 -0.127,-0.126999 -0.08467,-0.0508 -0.2159,-0.0508 h -0.736599 v -0.529167 h 0.643466 q 0.173567,0 0.275167,-0.08467 0.101599,-0.08467 0.101599,-0.237067 0,-0.143933 -0.105833,-0.224366 -0.1016,-0.08467 -0.283633,-0.08467 h -0.677333 l 0.2667,-0.232833 z"
       id="text7-2"
       aria-label="FEB" /><path
       style="font-weight:800;font-size:4.23333px;line-height:150%;font-family:suse;-inkscape-font-specification:'suse Ultra-Bold';stroke-width:1.28433"
       d="m 1.0308033,92.277519 v -2.963331 h 0.9101659 l 0.7577661,1.824566 H 2.3812355 l 0.7577661,-1.824566 h 0.9101659 v 2.963331 H 3.388768 V 89.623221 H 3.6343011 L 2.7876352,91.727186 H 2.2923356 L 1.4456697,89.623221 h 0.2455331 v 2.654298 z m 3.3189332,0 1.0413992,-2.963331 h 0.8424326 l 1.0371658,2.963331 H 6.576468 L 5.767902,89.826421 h 0.0889 l -0.8127993,2.451098 z m 0.486833,-0.647699 0.2158998,-0.567266 h 1.528232 l 0.2201332,0.567266 z m 2.7389678,0.647699 v -2.963331 h 1.1683991 q 0.4868329,0 0.7789326,0.254 0.2963331,0.249767 0.2963331,0.719666 0,0.478366 -0.2963331,0.732366 -0.2920997,0.254 -0.7789326,0.254 h -0.859366 v -0.563033 h 0.8254993 q 0.1862665,0 0.3005664,-0.1143 0.1142999,-0.1143 0.1142999,-0.296333 0,-0.182033 -0.1142999,-0.300566 Q 8.8963362,89.881455 8.7100697,89.881455 H 7.9734703 l 0.2793998,-0.254 v 2.650064 z m 1.5620987,0 -0.6476994,-1.295399 h 0.7281327 l 0.6900327,1.295399 z"
       id="text7-2-7"
       aria-label="MAR" /><path
       style="font-weight:800;font-size:4.23333px;line-height:150%;font-family:suse;-inkscape-font-specification:'suse Ultra-Bold';stroke-width:1.28433"
       d="m 30.385545,92.704147 1.041399,-2.963331 h 0.842432 l 1.037166,2.963331 H 32.612276 L 31.80371,90.253049 h 0.0889 l -0.812799,2.451098 z m 0.486833,-0.647699 0.215899,-0.567266 h 1.528233 l 0.220133,0.567266 z m 2.738967,0.647699 v -2.963331 h 1.071033 q 0.334433,0 0.575733,0.118534 0.245533,0.1143 0.380999,0.330199 0.135467,0.2159 0.135467,0.5207 0,0.300566 -0.135467,0.516466 -0.135466,0.2159 -0.380999,0.3302 -0.2413,0.1143 -0.575733,0.1143 h -0.757766 v -0.5588 h 0.791632 q 0.186267,0 0.287867,-0.1143 0.1016,-0.118533 0.1016,-0.287866 0,-0.169333 -0.1016,-0.283633 -0.1016,-0.1143 -0.287867,-0.1143 h -0.706966 l 0.2794,-0.258233 v 2.650064 z m 2.544231,0 v -2.963331 h 1.168399 q 0.486832,0 0.778932,0.254 0.296333,0.249767 0.296333,0.719666 0,0.478367 -0.296333,0.732366 -0.2921,0.254 -0.778932,0.254 h -0.859366 v -0.563033 h 0.825499 q 0.186266,0 0.300566,-0.1143 0.1143,-0.114299 0.1143,-0.296333 0,-0.182033 -0.1143,-0.300566 -0.1143,-0.118533 -0.300566,-0.118533 h -0.736599 l 0.279399,-0.254 v 2.650064 z m 1.562098,0 -0.647699,-1.295399 h 0.728132 l 0.690033,1.295399 z"
       id="text7-2-7-6"
       aria-label="APR" /><path
       style="font-weight:800;font-size:4.23333px;line-height:150%;font-family:suse;-inkscape-font-specification:'suse Ultra-Bold';stroke-width:1.29771"
       d="m 60.361625,91.743782 v -2.963331 h 0.910166 l 0.757766,1.824565 h -0.317499 l 0.757766,-1.824565 h 0.910166 v 2.963331 h -0.6604 v -2.654298 h 0.245533 l -0.846666,2.103965 h -0.495299 l -0.846666,-2.103965 h 0.245533 v 2.654298 z m 3.318934,0 1.041399,-2.963331 h 0.842432 l 1.037166,2.963331 H 65.90729 l -0.808566,-2.451098 h 0.0889 l -0.812799,2.451098 z m 0.486833,-0.647699 0.215899,-0.567267 h 1.528232 l 0.220134,0.567267 z m 3.594103,-0.986366 h -0.266699 l 0.761999,-1.329266 h 0.732366 l -1.020232,1.761065 v 1.202266 H 67.287362 V 90.541516 L 66.26713,88.780451 h 0.732366 z"
       id="text7-2-7-6-1"
       transform="scale(0.98969177,1.0104156)"
       aria-label="MAY" /><path
       id="rect6-4-8-7-3-2-5-0-6-4"
       style="stroke-width:0.182576"
       d="m 96.713862,84.565819 h 0.445283 c 0.04056,0 0.07321,0.03265 0.07321,0.07321 v 3.953165 c 0,0.04056 -0.03265,0.07321 -0.07321,0.07321 h -0.445283 c -0.04056,0 -0.07321,-0.03265 -0.07321,-0.07321 v -3.953165 c 0,-0.04056 0.03265,-0.07321 0.07321,-0.07321 z" /><path
       style="font-weight:800;font-size:4.23333px;line-height:150%;font-family:suse;-inkscape-font-specification:'suse Ultra-Bold';stroke-width:1.28433"
       d="m 93.024668,92.35743 v -0.613833 h 0.550333 q 0.09313,0 0.1524,-0.05927 0.0635,-0.0635 0.0635,-0.156633 v -1.803399 l 0.283634,0.283633 h -0.922866 v -0.613832 h 1.320799 v 2.065865 q 0,0.448733 -0.2413,0.673099 -0.237067,0.224367 -0.719666,0.224367 z m 3.191932,0.0635 q -0.541867,0 -0.867833,-0.266699 -0.325966,-0.270933 -0.325966,-0.846666 V 89.3941 h 0.681566 v 1.858431 q 0,0.287867 0.1397,0.414867 0.139699,0.127 0.372533,0.127 0.232833,0 0.372533,-0.127 0.1397,-0.127 0.1397,-0.414867 V 89.3941 h 0.681566 v 1.913465 q 0,0.380999 -0.1524,0.630766 -0.148167,0.245533 -0.414867,0.364066 -0.266699,0.118533 -0.626532,0.118533 z m 1.761062,-0.0635 v -2.963331 h 0.605366 l 1.507062,2.188631 -0.292096,0.04657 v -2.235198 h 0.677336 v 2.963331 h -0.588436 l -1.498599,-2.158999 0.2667,-0.04657 v 2.205565 z"
       id="text7-2-7-6-1-6"
       aria-label="JUN" /><path
       id="rect6-4-8-7-3-2-5-0-6-4-7"
       style="stroke-width:0.182576"
       d="m 128.58288,85.15139 h 0.44528 c 0.0406,0 0.0732,0.03265 0.0732,0.07321 v 3.953165 c 0,0.04056 -0.0326,0.07321 -0.0732,0.07321 h -0.44528 c -0.0406,0 -0.0732,-0.03265 -0.0732,-0.07321 V 85.2246 c 0,-0.04056 0.0326,-0.07321 0.0732,-0.07321 z" /><path
       style="font-weight:800;font-size:4.23333px;line-height:150%;font-family:suse;-inkscape-font-specification:'suse Ultra-Bold';stroke-width:1.28433"
       d="m 124.81045,92.666328 v -0.613832 h 0.55033 q 0.0931,0 0.1524,-0.05927 0.0635,-0.0635 0.0635,-0.156633 v -1.803399 l 0.28364,0.283633 h -0.92287 v -0.613832 h 1.3208 v 2.065865 q 0,0.448732 -0.2413,0.673099 -0.23707,0.224366 -0.71967,0.224366 z m 3.19193,0.0635 q -0.54186,0 -0.86783,-0.266699 -0.32597,-0.270934 -0.32597,-0.846666 v -1.913465 h 0.68157 v 1.858431 q 0,0.287867 0.1397,0.414867 0.1397,0.127 0.37253,0.127 0.23283,0 0.37253,-0.127 0.1397,-0.127 0.1397,-0.414867 v -1.858431 h 0.68157 v 1.913465 q 0,0.380999 -0.1524,0.630766 -0.14817,0.245533 -0.41487,0.364066 -0.2667,0.118533 -0.62653,0.118533 z m 2.26906,-0.0635 q -0.22436,0 -0.37253,-0.143933 -0.14393,-0.148166 -0.14393,-0.372533 v -2.446864 h 0.67733 v 2.243664 q 0,0.03387 0.0254,0.05927 0.0254,0.0254 0.0593,0.0254 h 1.20226 v 0.634999 z"
       id="text7-2-7-6-1-6-7"
       aria-label="JUL" /><path
       style="fill:#000000;stroke-width:0.372034"
       d="m 35.954657,207.97323 c -0.312156,-0.0692 -0.538289,-0.22134 -0.707118,-0.47569 -0.219244,-0.3303 -0.206349,0.029 -0.206349,-5.75122 0,-3.40521 0.01112,-5.27658 0.03203,-5.38683 0.08884,-0.46848 0.447792,-0.82018 0.926589,-0.90789 0.263798,-0.0483 16.718297,-0.0483 16.982095,0 0.478799,0.0877 0.837745,0.43941 0.926591,0.90789 0.02091,0.11025 0.03204,1.98162 0.03204,5.38683 0,5.78021 0.01289,5.42092 -0.206349,5.75122 -0.175289,0.26408 -0.423844,0.42412 -0.753278,0.48502 -0.281716,0.0521 -16.790112,0.043 -17.026253,-0.009 z m 16.441717,-0.88104 c -0.04292,-0.0409 -1.013549,-0.88026 -2.156959,-1.86534 -1.143411,-0.98509 -2.404943,-2.07308 -2.803404,-2.41775 -0.398461,-0.34467 -0.741511,-0.6334 -0.762333,-0.64161 -0.02082,-0.008 -0.415771,0.31148 -0.877666,0.71043 -0.461895,0.39895 -0.891356,0.7508 -0.954358,0.78188 -0.158576,0.0782 -0.544286,0.0776 -0.704075,-10e-4 -0.06437,-0.0317 -0.493907,-0.38355 -0.95452,-0.78182 -0.460613,-0.39826 -0.854441,-0.71729 -0.875174,-0.70895 -0.03398,0.0137 -5.589709,4.79532 -5.738125,4.93863 -0.06109,0.059 0.0708,0.06 7.921262,0.06 h 7.983384 z M 37.994816,205.0324 c 1.139192,-0.98316 2.464419,-2.1267 2.944948,-2.5412 0.48053,-0.4145 0.873691,-0.76314 0.873691,-0.77476 0,-0.0116 -1.172782,-1.03324 -2.606183,-2.27026 -1.4334,-1.23702 -2.757121,-2.38024 -2.941602,-2.5405 -0.18448,-0.16025 -0.344102,-0.29136 -0.354716,-0.29136 -0.0106,0 -0.01931,2.29627 -0.01931,5.10282 0,2.80656 0.0072,5.10283 0.01596,5.10283 0.0088,0 0.948014,-0.80441 2.08721,-1.78757 z m 15.095251,-3.31526 c 0,-2.80655 -0.0076,-5.10282 -0.01696,-5.10282 -0.0275,0 -5.904837,5.07823 -5.904837,5.10199 0,0.0119 0.688915,0.61587 1.530923,1.34209 0.842007,0.72622 2.16378,1.86864 2.937273,2.53871 0.773494,0.67006 1.416983,1.21932 1.429976,1.22058 0.013,0.001 0.02362,-2.29399 0.02362,-5.10055 z m -8.42596,1.29269 c 0.16657,-0.14416 5.522484,-4.76174 6.503062,-5.60659 0.614212,-0.52919 1.15993,-1.00073 1.212708,-1.04786 l 0.09596,-0.0857 -7.984976,3.7e-4 -7.984976,3.7e-4 0.170432,0.14823 c 0.233195,0.20283 6.821647,5.88893 7.304279,6.30389 0.213099,0.18322 0.411543,0.34263 0.440985,0.35424 0.06937,0.0273 0.16345,10e-4 0.242525,-0.0671 z"
       id="path8"
       sodipodi:nodetypes="sssssssssssscssssscssssccsssssssssssssscsscsscccssscc" /><path
       style="fill:#000000;stroke-width:0.213763"
       d="m 40.068756,221.17455 c -0.179359,-0.0398 -0.30929,-0.12718 -0.406296,-0.27332 -0.125973,-0.18979 -0.118564,0.0167 -0.118564,-3.30454 0,-1.95656 0.0064,-3.03181 0.0184,-3.09516 0.05105,-0.26918 0.257292,-0.47126 0.532399,-0.52165 0.151573,-0.0277 9.605989,-0.0277 9.757562,0 0.275108,0.0504 0.481351,0.25247 0.5324,0.52165 0.01201,0.0633 0.01841,1.1386 0.01841,3.09516 0,3.32119 0.0074,3.11475 -0.118563,3.30454 -0.100718,0.15173 -0.243532,0.24369 -0.432818,0.27868 -0.161869,0.0299 -9.647253,0.0247 -9.782934,-0.005 z m 9.447071,-0.50623 c -0.02466,-0.0235 -0.582364,-0.50578 -1.239344,-1.07179 -0.65698,-0.56601 -1.38183,-1.19114 -1.610778,-1.38918 -0.228947,-0.19804 -0.426057,-0.36394 -0.438021,-0.36866 -0.01196,-0.005 -0.238893,0.17897 -0.504289,0.4082 -0.265395,0.22923 -0.512154,0.43139 -0.548354,0.44925 -0.09111,0.0449 -0.312735,0.0446 -0.404547,-5.7e-4 -0.03699,-0.0182 -0.283789,-0.22038 -0.548447,-0.44922 -0.264659,-0.22883 -0.490945,-0.41214 -0.502857,-0.40735 -0.01953,0.008 -3.211732,2.75529 -3.297009,2.83764 -0.0351,0.0339 0.04068,0.0345 4.551394,0.0345 h 4.587088 z m -8.274838,-1.18351 c 0.654556,-0.56491 1.416004,-1.22196 1.692106,-1.46012 0.276103,-0.23817 0.502005,-0.43849 0.502005,-0.44516 0,-0.007 -0.673856,-0.59368 -1.497459,-1.30445 -0.823602,-0.71077 -1.584185,-1.36764 -1.690184,-1.45972 -0.105998,-0.0921 -0.197713,-0.16741 -0.203812,-0.16741 -0.0061,0 -0.01109,1.31939 -0.01109,2.93198 0,1.61259 0.0041,2.93198 0.0092,2.93198 0.0051,0 0.544709,-0.4622 1.199268,-1.0271 z m 8.67342,-1.90488 c 0,-1.61259 -0.0044,-2.93198 -0.0097,-2.93198 -0.0158,0 -3.392797,2.91785 -3.392797,2.9315 0,0.007 0.395836,0.35387 0.879636,0.77114 0.4838,0.41727 1.243264,1.07368 1.687697,1.45869 0.444434,0.385 0.814169,0.70059 0.821635,0.70132 0.0075,5.7e-4 0.01357,-1.31808 0.01357,-2.93067 z m -4.841383,0.74275 c 0.09571,-0.0828 3.173106,-2.736 3.736526,-3.22143 0.352913,-0.30406 0.666471,-0.575 0.696797,-0.60208 l 0.05514,-0.0492 -4.588002,2.1e-4 -4.588003,2.1e-4 0.09793,0.0852 c 0.133989,0.11655 3.919577,3.38366 4.196888,3.62209 0.122442,0.10527 0.236464,0.19687 0.253381,0.20354 0.03986,0.0157 0.09392,5.7e-4 0.13935,-0.0386 z"
       id="path8-4"
       sodipodi:nodetypes="sssssssssssscssssscssssccsssssssssssssscsscsscccssscc" /><path
       style="fill:#000000;stroke-width:0.506882"
       d="m 33.527522,189.82583 c -0.4253,-0.0943 -0.733397,-0.30157 -0.96342,-0.64811 -0.298711,-0.45002 -0.281142,0.0395 -0.281142,-7.83581 0,-4.63946 0.01515,-7.18913 0.04364,-7.33934 0.121041,-0.63829 0.610099,-1.11746 1.262441,-1.23697 0.359415,-0.0658 22.778018,-0.0658 23.137432,0 0.652345,0.11949 1.141395,0.59868 1.262444,1.23697 0.02849,0.15021 0.04365,2.69988 0.04365,7.33934 0,7.87531 0.01756,7.38579 -0.281142,7.83581 -0.238824,0.3598 -0.577471,0.57785 -1.026312,0.66082 -0.383826,0.071 -22.875862,0.0586 -23.197595,-0.0123 z m 22.401189,-1.20038 c -0.05848,-0.0557 -1.38092,-1.19932 -2.938771,-2.54145 -1.557852,-1.34215 -3.27664,-2.82449 -3.819527,-3.29409 -0.542888,-0.4696 -1.01028,-0.86299 -1.038649,-0.87417 -0.02837,-0.0109 -0.566471,0.42438 -1.195785,0.96793 -0.629314,0.54355 -1.214437,1.02294 -1.300275,1.06528 -0.216053,0.10655 -0.741568,0.10573 -0.959274,-0.001 -0.0877,-0.0432 -0.672929,-0.52257 -1.300496,-1.0652 -0.627567,-0.54261 -1.164142,-0.97728 -1.19239,-0.96592 -0.0463,0.0187 -7.615757,6.53344 -7.817968,6.72869 -0.08323,0.0804 0.09646,0.0817 10.792406,0.0817 h 10.877044 z m -19.621553,-2.80639 c 1.552104,-1.33951 3.357674,-2.89754 4.012375,-3.46228 0.654704,-0.56474 1.19037,-1.03975 1.19037,-1.05558 0,-0.0158 -1.597869,-1.40775 -3.550821,-3.09314 -1.952951,-1.68539 -3.756469,-3.24298 -4.007817,-3.46133 -0.251346,-0.21833 -0.468825,-0.39697 -0.483286,-0.39697 -0.01444,0 -0.02631,3.12858 -0.02631,6.95239 0,3.82383 0.0098,6.95241 0.02175,6.95241 0.01199,0 1.291631,-1.09598 2.843741,-2.4355 z m 20.566682,-4.51691 c 0,-3.82381 -0.01035,-6.95239 -0.02311,-6.95239 -0.03747,0 -8.045107,6.91889 -8.045107,6.95126 0,0.0162 0.93862,0.8391 2.085822,1.82855 1.147201,0.98944 2.948065,2.54595 4.001918,3.45889 1.053855,0.91293 1.930584,1.66128 1.948286,1.66299 0.01771,0.001 0.03218,-3.12547 0.03218,-6.9493 z m -11.480037,1.76124 c 0.226945,-0.19641 7.524166,-6.48768 8.860165,-7.63875 0.836839,-0.721 1.580359,-1.36346 1.652266,-1.42767 l 0.130742,-0.11676 -10.879214,5e-4 -10.879213,5e-4 0.232207,0.20196 c 0.317719,0.27635 9.294224,8.02344 9.951791,8.5888 0.290339,0.24963 0.560711,0.46682 0.600824,0.48264 0.09451,0.0372 0.222694,0.001 0.330431,-0.0914 z"
       id="path8-4-8"
       sodipodi:nodetypes="sssssssssssscssssscssssccsssssssssssssscsscsscccssscc" /><path
       sodipodi:type="star"
       style="fill:#000000;fill-opacity:1;stroke:none;stroke-width:0.4;stroke-dasharray:none"
       id="path9"
       inkscape:flatsided="true"
       sodipodi:sides="3"
       sodipodi:cx="-87.922409"
       sodipodi:cy="-30.87645"
       sodipodi:r1="18.804193"
       sodipodi:r2="9.4020967"
       sodipodi:arg1="0.52359878"
       sodipodi:arg2="1.5707963"
       inkscape:rounded="0.01"
       inkscape:randomized="0"
       d="m -71.6375,-21.474353 c -0.162849,0.282063 -32.40697,0.282063 -32.56982,0 -0.16285,-0.282063 15.959213,-28.20629 16.284911,-28.20629 0.325698,0 16.447758,27.924227 16.284909,28.20629 z"
       inkscape:transform-center-y="0.35540743"
       transform="matrix(0.03785686,0.09424576,-0.09424576,0.03785686,-40.627406,81.172386)"
       inkscape:transform-center-x="-0.13470742" /><rect
       style="fill:#000000;fill-opacity:1;stroke:none;stroke-width:0.0766281;stroke-dasharray:none"
       id="rect9"
       width="1.7214226"
       height="7.6098623"
       x="50.389057"
       y="65.606453"
       ry="0.025799114"
       transform="rotate(68.115542)" /><rect
       style="fill:#000000;fill-opacity:1;stroke:none;stroke-width:0.249314;stroke-dasharray:none"
       id="rect10"
       width="21.742472"
       height="0.82280755"
       x="6.9614615"
       y="177.17682"
       ry="0.41140378" /><rect
       style="fill:#000000;fill-opacity:1;stroke:none;stroke-width:0.169535;stroke-dasharray:none"
       id="rect11"
       width="10.05383"
       height="0.82280755"
       x="18.492149"
       y="180.38858"
       ry="0.41140378" /><rect
       style="fill:#000000;fill-opacity:1;stroke:none;stroke-width:0.204542;stroke-dasharray:none"
       id="rect11-8"
       width="14.634514"
       height="0.82280755"
       x="13.664189"
       y="183.45277"
       ry="0.41140378" /><rect
       style="fill:#000000;fill-opacity:1;stroke:none;stroke-width:0.249314;stroke-dasharray:none"
       id="rect12"
       width="21.742472"
       height="0.82280755"
       x="6.9614615"
       y="177.17682"
       ry="0.41140378" /><rect
       style="fill:#000000;fill-opacity:1;stroke:none;stroke-width:0.169535;stroke-dasharray:none"
       id="rect13"
       width="10.05383"
       height="0.82280755"
       x="18.492149"
       y="180.38858"
       ry="0.41140378" /><rect
       style="fill:#000000;fill-opacity:1;stroke:none;stroke-width:0.204542;stroke-dasharray:none"
       id="rect14"
       width="14.634514"
       height="0.82280755"
       x="13.664189"
       y="183.45277"
       ry="0.41140378" /><rect
       style="fill:#000000;fill-opacity:1;stroke:none;stroke-width:0.182744;stroke-dasharray:none"
       id="rect15"
       width="15.936969"
       height="0.60310799"
       x="16.498306"
       y="201.50182"
       ry="0.30155399" /><rect
       style="fill:#000000;fill-opacity:1;stroke:none;stroke-width:0.124267;stroke-dasharray:none"
       id="rect16"
       width="7.3693361"
       height="0.60310799"
       x="24.950161"
       y="199.32797"
       ry="0.30155399" /><rect
       style="fill:#000000;fill-opacity:1;stroke:none;stroke-width:0.149927;stroke-dasharray:none"
       id="rect17"
       width="10.726922"
       height="0.60310799"
       x="21.411325"
       y="203.78535"
       ry="0.30155399" /></g></svg>
