<svg width="61" height="61" viewBox="0 0 61 61" fill="none" xmlns="http://www.w3.org/2000/svg">
<g clip-path="url(#clip0_304_78)">
<path d="M61 30.5C61 38.5891 57.7866 46.3469 52.0667 52.0668C46.3469 57.7866 38.5891 61 30.5 61C22.4109 61 14.6531 57.7866 8.93324 52.0668C3.21338 46.3469 0 38.5891 0 30.5C5.955e-07 22.4109 3.21338 14.6531 8.93324 8.93324C14.6531 3.21338 22.4109 5.955e-07 30.5 0C38.5891 0 46.3469 3.21338 52.0667 8.93324C57.7866 14.6531 61 22.4109 61 30.5Z" fill="#721904"/>
<path d="M60.0521 30.5375C60.0521 30.5375 51.3408 30.6774 50.037 30.68C50.0502 31.2429 50.0301 31.8063 49.9787 32.3682C49.9398 32.7942 49.8829 33.2193 49.8088 33.6428C53.0163 34.3041 56.2167 34.9968 59.4099 35.7208C59.4099 35.7208 59.8809 34.2596 60.0052 33.2669C60.1512 32.1002 60.0521 30.5375 60.0521 30.5375ZM59.2021 36.9442C59.2021 36.9442 50.8078 35.0293 49.5546 34.7258C49.4189 35.2788 49.2546 35.8275 49.0636 36.3701C48.9188 36.7815 48.7587 37.1894 48.584 37.5928C51.5652 38.9518 54.5351 40.3379 57.4934 41.7508C57.4934 41.7508 58.2542 40.4486 58.5813 39.5303C58.9665 38.4485 59.2021 36.9442 59.2021 36.9442ZM57.0395 42.8854C57.0395 42.8854 49.2391 39.1823 48.0777 38.6129C47.8154 39.1335 47.5291 39.6453 47.2206 40.1461C46.9868 40.5259 46.7402 40.8994 46.4817 41.2659C49.1357 43.2171 51.7741 45.191 54.3965 47.1874C54.3965 47.1874 55.4031 46.0773 55.9076 45.2565C56.5026 44.2883 57.0395 42.8854 57.0395 42.8854ZM53.7255 48.1997C53.7255 48.1997 46.796 42.9751 45.7676 42.18C45.4009 42.6458 45.0148 43.0981 44.6111 43.5348C44.305 43.866 43.9888 44.1882 43.6634 44.5007C45.8891 46.9385 48.0949 49.3947 50.2805 51.869C50.2805 51.869 51.4886 50.984 52.1455 50.2843C52.9209 49.4585 53.7255 48.1997 53.7255 48.1997ZM49.4217 52.7258C49.4217 52.7258 43.6398 46.2464 42.7857 45.2656C42.3368 45.6542 41.873 46.0247 41.3963 46.3749C41.0348 46.6404 40.6659 46.8943 40.2904 47.1358C41.9867 49.9548 43.659 52.7878 45.3067 55.6345C45.3067 55.6345 46.672 55.0069 47.4565 54.4524C48.3827 53.7977 49.4217 52.7258 49.4217 52.7258ZM44.2893 56.3024C44.2893 56.3024 39.9319 48.8347 39.2934 47.7085C38.7845 47.9975 38.2653 48.2636 37.7377 48.5049C37.3376 48.6878 36.9328 48.8564 36.5239 49.0099C37.59 52.1045 38.6276 55.2088 39.6365 58.3224C39.6365 58.3224 41.1148 57.9844 42.0017 57.5993C43.0493 57.1444 44.2893 56.3024 44.2893 56.3024ZM38.4897 58.768C38.4897 58.768 35.8337 50.5788 35.452 49.3473C34.9053 49.5143 34.3528 49.6536 33.7965 49.7635C33.3748 49.8468 32.9508 49.9131 32.5255 49.9616C32.8602 53.2264 33.1623 56.4964 33.4313 59.7713C33.4313 59.7713 34.9788 59.7552 35.9426 59.5637C37.0821 59.3373 38.4897 58.768 38.4897 58.768ZM32.1842 59.9613C32.1842 59.9613 31.5064 51.3173 31.4229 50.0206C31.1314 50.0322 30.8396 50.0353 30.5477 50.0293C30.2765 50.0383 30.0052 50.0396 29.7339 50.0334C29.3069 50.0235 28.8801 49.995 28.4543 49.9487C27.9839 53.197 27.481 56.4393 26.9457 59.6754C26.9457 59.6754 28.4416 60.0672 29.4491 60.1367C29.8014 60.1611 30.1779 60.166 30.5477 60.1571C31.4242 60.0981 32.1842 59.9613 32.1842 59.9613ZM25.7053 59.5337C25.7053 59.5337 27.1315 51.0342 27.3623 49.7645C26.8047 49.6639 26.2502 49.5336 25.7007 49.3755C25.2841 49.2556 24.8703 49.1196 24.4603 48.9685C23.2658 52.0158 22.0431 55.0528 20.7925 58.0793C20.7925 58.0793 22.1376 58.7717 23.0767 59.0505C24.1824 59.3787 25.7053 59.5337 25.7053 59.5337ZM19.6326 57.6841C19.6326 57.6841 22.9137 49.7093 23.4204 48.5211C22.8896 48.2884 22.3665 48.0305 21.8531 47.7493C21.4638 47.5362 21.0801 47.3096 20.7028 47.0705C18.8898 49.8158 17.0529 52.5465 15.1925 55.2624C15.1925 55.2624 16.3537 56.2116 17.2011 56.6741C18.2003 57.2195 19.6326 57.6841 19.6326 57.6841ZM14.1465 54.6429C14.1465 54.6429 19.0157 47.4697 19.7582 46.4042C19.2765 46.0615 18.8073 45.6982 18.3524 45.3163C18.0075 45.0267 17.6709 44.7263 17.3433 44.4161C15.0172 46.7583 12.6717 49.0817 10.307 51.386C10.307 51.386 11.2513 52.5479 11.9835 53.169C12.8476 53.9021 14.1465 54.6429 14.1465 54.6429ZM9.40817 50.5714C9.40817 50.5714 15.5989 44.4766 16.5371 43.5751C16.127 43.1447 15.734 42.6982 15.3601 42.2377C15.0766 41.8885 14.804 41.5312 14.5432 41.1666C11.8095 43.0047 9.06086 44.8198 6.29736 46.6115C6.29736 46.6115 6.99231 47.9417 7.58541 48.6966C8.2856 49.5878 9.40817 50.5714 9.40817 50.5714ZM5.57913 45.631C5.57913 45.631 12.8247 40.8915 13.9184 40.1953C13.6023 39.6993 13.308 39.1918 13.0375 38.6749C12.8323 38.2829 12.6407 37.8855 12.4637 37.4833C9.42805 38.7165 6.38173 39.9222 3.32497 41.1003C3.32497 41.1003 3.7383 42.5544 4.1681 43.4181C4.67567 44.4381 5.57913 45.631 5.57913 45.631ZM2.82067 39.9831C2.82067 39.9831 10.8544 36.8757 12.0634 36.426C11.8638 35.8866 11.6907 35.3404 11.5458 34.7892C11.4361 34.3713 11.3426 33.9506 11.2662 33.5278C8.03412 34.0548 4.79567 34.5502 1.55118 35.0137C1.55118 35.0137 1.65075 36.5479 1.89293 37.495C2.17916 38.6143 2.82067 39.9831 2.82067 39.9831ZM1.29416 33.7889C1.29416 33.7889 9.84941 32.5906 11.1336 32.4287C11.0729 31.8681 11.0432 31.3053 11.0466 30.7421C11.047 30.6739 11.048 30.6057 11.0493 30.5375C11.0374 30.1786 11.0391 29.8195 11.0537 29.4607C7.77095 29.1878 4.4931 28.8813 1.22045 28.5413C1.22045 28.5413 0.995902 29.5911 0.923584 30.5375C0.917119 30.7314 0.916077 30.9178 0.92129 31.0885C0.957455 32.2776 1.29416 33.7889 1.29416 33.7889ZM1.29417 27.286C1.29417 27.286 9.88161 28.2068 11.1652 28.3623C11.2293 27.8015 11.3242 27.2427 11.4482 26.6877C11.5422 26.2668 11.6528 25.8482 11.7793 25.4327C8.6723 24.4093 5.57449 23.3567 2.48615 22.275C2.48615 22.275 1.86481 23.6609 1.63593 24.6193C1.3666 25.7472 1.29417 27.286 1.29417 27.286ZM2.82068 21.0919C2.82068 21.0919 10.9526 23.9342 12.1651 24.3757C12.3668 23.8361 12.5949 23.303 12.8474 22.7785C13.0388 22.3808 13.2443 21.988 13.463 21.6009C10.6328 19.9326 7.816 18.2394 5.01299 16.5216C5.01299 16.5216 4.12381 17.7318 3.7049 18.6044C3.21106 19.6329 2.82068 21.0919 2.82068 21.0919ZM5.57914 15.444C5.57914 15.444 12.9787 19.9412 14.0788 20.6284C14.396 20.1324 14.735 19.6476 15.0939 19.176C15.3659 18.8184 15.6494 18.4684 15.9435 18.1268C13.491 15.9191 11.0563 13.6908 8.63964 11.4423C8.63964 11.4423 7.52672 12.4439 6.94292 13.2072C6.25405 14.1077 5.57914 15.444 5.57914 15.444ZM9.4082 10.5036C9.4082 10.5036 15.7985 16.3889 16.7449 17.2819C17.1555 16.8519 17.5832 16.4377 18.0262 16.0415C18.3621 15.741 18.7067 15.4508 19.0593 15.1717C17.0857 12.5301 15.134 9.87228 13.2047 7.19859C13.2047 7.19859 11.9125 7.95892 11.1887 8.58905C10.3342 9.33291 9.4082 10.5036 9.4082 10.5036ZM14.1465 6.43208C14.1465 6.43208 19.2507 13.439 20.0022 14.4975C20.4839 14.1559 20.9781 13.8348 21.4831 13.5363C21.8659 13.3099 22.2549 13.0965 22.6492 12.8969C21.2554 9.92691 19.8878 6.9451 18.5469 3.95177C18.5469 3.95177 17.1196 4.43851 16.2808 4.91141C15.2902 5.46983 14.1465 6.43208 14.1465 6.43208ZM19.6327 3.39085C19.6327 3.39085 23.174 11.2526 23.6892 12.4365C24.2198 12.2057 24.7584 12.0001 25.3031 11.8218C25.7161 11.6865 26.1326 11.5669 26.5518 11.4638C25.8388 8.27095 25.1564 5.07065 24.5048 1.8632C24.5048 1.8632 22.9865 2.04423 22.0579 2.33558C20.9606 2.67984 19.6327 3.39085 19.6327 3.39085ZM25.7054 1.54123C25.7054 1.54123 27.4069 9.99111 27.6446 11.2603C28.202 11.1627 28.7627 11.0951 29.325 11.0593C29.732 11.0335 30.1398 11.0243 30.5477 11.0325C30.5671 11.0319 30.5864 11.0313 30.6058 11.0307C30.6746 7.71978 30.7781 4.41271 30.9161 1.10975C30.9161 1.10975 30.7744 1.08662 30.5477 1.05665C29.972 1.0049 29.0994 0.958981 28.3586 1.02293C27.1842 1.1243 25.7054 1.54123 25.7054 1.54123ZM32.1842 1.1137C32.1842 1.1137 31.7855 9.77176 31.7078 11.0667C32.2703 11.0929 32.8321 11.1511 33.3913 11.2394C33.8152 11.3064 34.2376 11.3907 34.6577 11.4916C35.5033 8.33113 36.3793 5.17884 37.2854 2.03495C37.2854 2.03495 35.8608 1.48741 34.8845 1.31003C33.7364 1.10142 32.1842 1.1137 32.1842 1.1137ZM38.4897 2.30702C38.4897 2.30702 36.1027 10.5788 35.729 11.8129C36.276 11.9823 36.8176 12.1792 37.3519 12.4016C37.7569 12.5703 38.1578 12.7536 38.5536 12.9508C40.0705 10.0419 41.6135 7.14545 43.1822 4.26164C43.1822 4.26164 41.9249 3.4353 41.0287 3.06152C39.9726 2.62105 38.4897 2.30702 38.4897 2.30702ZM44.2893 4.77262C44.2893 4.77262 40.1808 12.3812 39.5512 13.5133C40.0603 13.8037 40.5592 14.1171 41.0462 14.4514C41.4154 14.7049 41.7777 14.9704 42.1322 15.2472C44.215 12.6909 46.3194 10.1512 48.4451 7.62846C48.4451 7.62846 47.3882 6.56733 46.5955 6.02241C45.6602 5.37953 44.2893 4.77262 44.2893 4.77262ZM49.4217 8.34916C49.4217 8.34916 43.8584 15.0177 43.0131 16.0064C43.4617 16.3957 43.8956 16.8034 44.3128 17.2274C44.6292 17.5489 44.9359 17.8798 45.2322 18.2194C47.7753 16.1165 50.3356 14.0347 52.9128 11.9741C52.9128 11.9741 52.0892 10.7225 51.4235 10.0313C50.6378 9.21553 49.4217 8.34916 49.4217 8.34916ZM53.7255 12.8753C53.7255 12.8753 46.974 18.327 45.9531 19.131C46.319 19.597 46.6654 20.0767 46.9905 20.5683C47.2369 20.941 47.4711 21.3204 47.6922 21.7059C50.59 20.1576 53.5007 18.6346 56.424 17.1371C56.424 17.1371 55.8659 15.7394 55.3514 14.927C54.7439 13.9677 53.7255 12.8753 53.7255 12.8753ZM57.0395 18.1896C57.0395 18.1896 49.3665 22.1476 48.2101 22.7257C48.4707 23.2462 48.7073 23.7758 48.9178 24.3127C49.0774 24.7197 49.222 25.1309 49.3508 25.5455C52.4979 24.6527 55.6535 23.7896 58.8173 22.9562C58.8173 22.9562 58.5568 21.4565 58.2178 20.548C57.8173 19.4746 57.0395 18.1896 57.0395 18.1896ZM59.2021 24.1308C59.2021 24.1308 50.8743 26.3182 49.6226 26.6292C49.7556 27.1819 49.8598 27.7392 49.9333 28.2992C49.9891 28.7238 50.0272 29.1499 50.0468 29.5767C53.3375 29.4406 56.6325 29.3382 59.9313 29.27C59.9313 29.27 60.0007 27.7119 59.8614 26.7329C59.6966 25.575 59.2021 24.1308 59.2021 24.1308Z" fill="#C93922"/>
<path d="M28.331 0.701858C27.1041 0.807758 25.6185 1.22996 25.6185 1.22996L25.3293 1.31142L25.3891 1.60466C25.3891 1.60466 27.0935 10.0695 27.3277 11.3196L27.3861 11.6332L27.701 11.5789C28.2471 11.4833 28.795 11.417 29.3451 11.382C29.7433 11.3567 30.1424 11.3468 30.5411 11.3549H30.5493H30.5588C30.5778 11.3542 30.597 11.354 30.6158 11.3535L30.9226 11.344L30.928 11.0372C30.9967 7.7285 31.101 4.42338 31.2389 1.12268L31.2511 0.837584L30.9688 0.791423C30.9688 0.791423 30.8207 0.76763 30.59 0.737115L30.5832 0.735725L30.5764 0.734335C29.9887 0.681509 29.1066 0.6349 28.331 0.701858ZM32.1825 0.791459L31.8756 0.792849L31.8621 1.09831C31.8621 1.09831 31.462 9.77305 31.3855 11.0481L31.3665 11.3739L31.6924 11.3888C32.2427 11.4144 32.7927 11.472 33.3405 11.5585C33.7558 11.6242 34.1707 11.7067 34.5827 11.8056L34.8881 11.8789L34.9696 11.5748C35.8147 8.41641 36.6896 5.26655 37.5952 2.12464L37.678 1.83955L37.401 1.73366C37.401 1.73366 35.9793 1.1808 34.9424 0.992411C33.7417 0.774252 32.1825 0.791459 32.1825 0.791459ZM28.3866 1.344C29.0912 1.28318 29.9516 1.32739 30.5153 1.37794C30.5164 1.37804 30.5183 1.37784 30.5194 1.37794C30.5587 1.38322 30.5515 1.3828 30.5846 1.38744C30.4567 4.49353 30.3594 7.60231 30.2927 10.7155C29.9631 10.7147 29.6331 10.7163 29.3044 10.7372C28.8346 10.7671 28.3681 10.8319 27.902 10.9042C27.5952 9.30155 26.1864 2.29552 26.0855 1.79472C26.359 1.72085 27.3909 1.42995 28.3866 1.344ZM32.4906 1.45804C32.782 1.45894 33.8576 1.45157 34.827 1.62773C35.6329 1.77416 36.6127 2.14944 36.8892 2.25223C36.0418 5.1995 35.2223 8.15414 34.4279 11.1159C34.1002 11.0436 33.7725 10.9726 33.4423 10.9204C32.979 10.8472 32.5117 10.8082 32.0453 10.7765C32.137 9.13422 32.4667 1.97754 32.4906 1.45804ZM24.7619 1.50691L24.4673 1.5422C24.4673 1.5422 22.9492 1.71686 21.9611 2.02686C20.8138 2.38686 19.4808 3.10615 19.4808 3.10615L19.2147 3.2487L19.3383 3.52293C19.3383 3.52293 22.8855 11.3987 23.3934 12.5658L23.5224 12.8618L23.8183 12.7328C24.34 12.5059 24.8692 12.3038 25.404 12.1287C25.8095 11.9959 26.2174 11.8782 26.6285 11.7771L26.9354 11.7024L26.8675 11.3929C26.1549 8.20202 25.4727 5.0042 24.8216 1.79879L24.7619 1.50691ZM38.2631 1.92912L38.1789 2.21693C38.1789 2.21693 35.7886 10.5026 35.4203 11.7187L35.3266 12.0269L35.6334 12.1219C36.1704 12.2882 36.7021 12.4816 37.2273 12.7002C37.6255 12.866 38.0203 13.0452 38.4097 13.2392L38.6935 13.3818L38.8401 13.1007C40.3561 10.1935 41.8976 7.29838 43.4654 4.41622L43.6079 4.15557L43.3595 3.9913C43.3595 3.9913 42.1066 3.1616 41.1534 2.76404C40.0485 2.30322 38.5563 1.99157 38.5563 1.99157L38.2631 1.92912ZM24.2555 2.24001C24.868 5.24538 25.506 8.24418 26.1724 11.2368C25.8479 11.3229 25.5235 11.4101 25.2031 11.5151C24.7493 11.6636 24.303 11.8425 23.8591 12.0269C23.2006 10.5293 20.2713 4.02346 20.0605 3.55551C20.313 3.42393 21.2299 2.93356 22.1553 2.64321C22.9197 2.40339 23.961 2.27839 24.2555 2.24001ZM38.7084 2.70702C38.9854 2.76887 40.0133 2.98814 40.905 3.36002C41.6417 3.6673 42.5003 4.22984 42.7486 4.38907C41.2803 7.09192 39.8339 9.80703 38.4111 12.5319C38.1012 12.3835 37.7912 12.2343 37.4757 12.1029C37.0307 11.9176 36.5779 11.7623 36.1235 11.6128C36.5904 10.0491 38.5668 3.19762 38.7084 2.70702ZM18.7219 3.55144L18.4423 3.64647C18.4423 3.64647 17.0149 4.12743 16.1221 4.63073C15.086 5.21485 13.9391 6.18517 13.9391 6.18517L13.7084 6.3793L13.8862 6.62231C13.8862 6.62231 18.9975 13.6409 19.7388 14.685L19.9261 14.9471L20.1895 14.7611C20.664 14.4245 21.1504 14.1087 21.6475 13.8148C22.0245 13.592 22.4068 13.3813 22.7947 13.1849L23.0744 13.0437L22.9413 12.76C21.5483 9.79168 20.1816 6.81184 18.8414 3.82024L18.7219 3.55144ZM44.1469 4.35649L44.0057 4.61986C44.0057 4.61986 39.89 12.2396 39.2691 13.356L39.1143 13.6356L39.3913 13.7931C39.8924 14.0791 40.3832 14.3883 40.8629 14.7176C41.2266 14.9673 41.5846 15.2295 41.934 15.5023L42.1825 15.6964L42.382 15.4507C44.4637 12.8957 46.5675 10.3574 48.6921 7.836L48.8822 7.61064L48.6745 7.40021C48.6745 7.40021 47.6215 6.33604 46.7779 5.75617C45.7994 5.0836 44.4198 4.47732 44.4198 4.47732L44.1469 4.35649ZM18.3839 4.37007C19.643 7.17635 20.9257 9.97284 22.2313 12.7586C21.9249 12.9197 21.6183 13.0813 21.319 13.2582C20.8975 13.5074 20.4892 13.7817 20.0836 14.0606C19.1273 12.7238 14.9012 6.92047 14.5989 6.50556C14.8185 6.325 15.6055 5.6631 16.4398 5.19277C17.1299 4.80374 18.1072 4.46782 18.3839 4.37007ZM44.4198 5.20906C44.6767 5.32621 45.6238 5.74609 46.4127 6.28834C47.0638 6.73588 47.7857 7.45878 47.9957 7.66494C46.0041 10.031 44.0317 12.4116 42.0779 14.8072C41.7981 14.595 41.5181 14.3836 41.2294 14.1854C40.8224 13.906 40.4018 13.6504 39.9791 13.4008C40.7698 11.9666 44.1788 5.65532 44.4198 5.20906ZM13.2943 6.77165L13.0404 6.92098C13.0404 6.92098 11.7472 7.67446 10.9769 8.34509C10.083 9.12325 9.15499 10.3027 9.15499 10.3027L8.969 10.5376L9.18893 10.7412C9.18893 10.7412 15.5903 16.6359 16.524 17.517L16.7575 17.7369L16.9788 17.5048C17.3835 17.0808 17.8047 16.6722 18.2413 16.2816C18.5724 15.9854 18.9121 15.7 19.2595 15.4249L19.5066 15.2294L19.3179 14.9783C17.3453 12.3381 15.395 9.68147 13.4667 7.00923L13.2943 6.77165ZM13.1287 7.64186C14.9395 10.1486 16.7703 12.641 18.6201 15.1195C18.3468 15.342 18.074 15.5657 17.811 15.801C17.4406 16.1323 17.0881 16.4834 16.7399 16.8382C15.5383 15.7125 10.2373 10.8288 9.86365 10.4847C10.0416 10.2647 10.6804 9.4593 11.4004 8.83247C11.995 8.31483 12.8769 7.79375 13.1287 7.64186ZM49.3655 7.91202L49.1741 8.14281C49.1741 8.14281 43.6016 14.8215 42.7676 15.7969L42.5599 16.0399L42.8015 16.2503C43.2437 16.6341 43.6718 17.0365 44.0831 17.4545C44.3949 17.7715 44.6965 18.0973 44.9886 18.432L45.1963 18.6682L45.438 18.4686C47.9796 16.3669 50.5392 14.286 53.1152 12.2264L53.3446 12.0418L53.183 11.7961C53.183 11.7961 52.3642 10.5428 51.6557 9.80722C50.8338 8.95378 49.6085 8.08579 49.6085 8.08579L49.3655 7.91202ZM49.4619 8.8026C49.6893 8.96847 50.5288 9.56716 51.1914 10.2552C51.7385 10.8233 52.3024 11.678 52.4662 11.921C50.0503 13.8546 47.6486 15.8069 45.2628 17.7776C45.0272 17.515 44.7909 17.2527 44.5433 17.0011C44.1943 16.6464 43.8268 16.3112 43.4559 15.9802C44.5203 14.7262 49.1356 9.19372 49.4619 8.8026ZM8.64318 11.0046L8.42325 11.2028C8.42325 11.2028 7.30817 12.1989 6.68689 13.0111C5.96621 13.9533 5.29129 15.2987 5.29129 15.2987L5.15688 15.5648L5.41211 15.7195C5.41211 15.7195 12.8229 20.2249 13.9079 20.9028L14.1781 21.0712L14.3505 20.8023C14.663 20.3138 14.9974 19.8362 15.351 19.3714C15.6191 19.0191 15.8988 18.6737 16.1887 18.337L16.3937 18.098L16.1602 17.8862C13.709 15.6797 11.2744 13.4529 8.85904 11.2055L8.64318 11.0046ZM8.65268 11.8938C10.9197 14.0009 13.2032 16.0892 15.5017 18.1605C15.2756 18.4306 15.0493 18.7008 14.8365 18.9805C14.5366 19.3747 14.261 19.7841 13.9894 20.1955C12.5961 19.332 6.45476 15.5986 6.02167 15.3353C6.15197 15.0843 6.6193 14.1627 7.20006 13.4035C7.67918 12.7771 8.43544 12.0938 8.65268 11.8938ZM53.7573 12.4355L53.5224 12.6242C53.5224 12.6242 46.7601 18.0841 45.7529 18.8773L45.5004 19.0769L45.6986 19.3307C46.0591 19.7899 46.4007 20.2626 46.7209 20.7467C46.9636 21.1138 47.1943 21.4873 47.4119 21.8667L47.568 22.1382L47.845 21.9902C50.7411 20.4428 53.6499 18.9213 56.5716 17.4247L56.8336 17.2903L56.7236 17.0174C56.7236 17.0174 56.1715 15.619 55.624 14.7543C54.9885 13.7508 53.9623 12.6554 53.9623 12.6554L53.7573 12.4355ZM53.6758 13.3302C53.8673 13.5402 54.5666 14.2912 55.0782 15.0991C55.5015 15.7675 55.8871 16.7251 55.9987 16.9957C53.258 18.4015 50.5279 19.8297 47.8097 21.2802C47.6319 20.9806 47.4528 20.6813 47.2599 20.3896C46.9886 19.9795 46.6944 19.5836 46.3951 19.1909C47.6846 18.1677 53.2778 13.6515 53.6758 13.3302ZM4.92881 16.0915L4.75232 16.3304C4.75232 16.3304 3.85939 17.5364 3.41374 18.4646C2.89708 19.5407 2.50822 21.0087 2.50822 21.0087L2.43084 21.2979L2.71458 21.397C2.71458 21.397 10.8598 24.2445 12.0548 24.6796L12.3548 24.7882L12.4675 24.4882C12.6657 23.958 12.8898 23.4348 13.1382 22.9188C13.3265 22.5276 13.5284 22.1405 13.7436 21.7595L13.8998 21.4839L13.6269 21.3223C10.7983 19.655 7.98276 17.9632 5.18132 16.2463L4.92881 16.0915ZM5.11751 16.9617C7.74493 18.57 10.385 20.1553 13.0363 21.7201C12.8707 22.0238 12.7064 22.3277 12.5571 22.6378C12.3466 23.0751 12.1645 23.5227 11.9883 23.971C10.4523 23.4184 3.71498 21.0631 3.23318 20.8947C3.30973 20.6207 3.57961 19.6118 3.99614 18.7442C4.34036 18.0273 4.9456 17.2013 5.11751 16.9617ZM57.1594 17.7641L56.892 17.9025C56.892 17.9025 49.2064 21.8669 48.0663 22.4369L47.7771 22.5808L47.921 22.87C48.1774 23.382 48.4106 23.9037 48.6175 24.4312C48.7743 24.8312 48.9159 25.2339 49.0424 25.6408L49.1361 25.9422L49.4388 25.8567C52.5839 24.9645 55.738 24.1006 58.8998 23.2677L59.1863 23.1931L59.136 22.9012C59.136 22.9012 58.8805 21.4013 58.5197 20.4344C58.1008 19.3119 57.3155 18.022 57.3155 18.022L57.1594 17.7641ZM56.8974 18.6261C57.0422 18.8715 57.578 19.7565 57.9156 20.6612C58.1947 21.4093 58.3751 22.4388 58.4288 22.7288C55.464 23.5117 52.5056 24.3198 49.5555 25.1548C49.4494 24.8331 49.3431 24.5118 49.2189 24.195C49.0434 23.7476 48.8394 23.3087 48.6297 22.8727C50.0929 22.1342 56.4401 18.862 56.8974 18.6261ZM2.31273 21.8721L2.19191 22.1423C2.19191 22.1423 1.5649 23.5254 1.32169 24.5439C1.03998 25.7235 0.971429 27.2713 0.971428 27.2713L0.957855 27.574L1.25924 27.6066C1.25924 27.6066 9.86212 28.5301 11.1262 28.6832L11.4493 28.7225L11.486 28.3994C11.5487 27.8504 11.6414 27.3024 11.7629 26.7581C11.8551 26.3454 11.9646 25.9347 12.0887 25.5268L12.1797 25.2254L11.881 25.1263C8.77594 24.1036 5.67884 23.0509 2.59239 21.9699L2.31273 21.8721ZM2.68064 22.6826C5.57559 23.6946 8.47959 24.6814 11.3909 25.6422C11.2986 25.9659 11.206 26.2899 11.133 26.6169C11.0301 27.0776 10.9608 27.5431 10.8981 28.0084C9.27143 27.8181 2.16762 27.0548 1.6543 26.9998C1.67114 26.7102 1.72299 25.6462 1.95025 24.6946C2.13894 23.9044 2.563 22.953 2.68064 22.6826ZM59.4103 23.7429L59.1198 23.8189C59.1198 23.8189 50.7777 26.0092 49.5447 26.3155L49.2338 26.3929L49.3085 26.7052C49.4389 27.2472 49.5419 27.7927 49.6139 28.341C49.6685 28.7568 49.7047 29.1739 49.7239 29.5914L49.7388 29.9131L50.0606 29.8996C53.3492 29.7635 56.6418 29.661 59.9384 29.5927L60.2398 29.5859L60.2534 29.2846C60.2534 29.2846 60.3296 27.7286 60.1814 26.6875C60.0092 25.4775 59.508 24.0266 59.508 24.0266L59.4103 23.7429ZM58.9704 24.5249C59.0594 24.7943 59.4025 25.7984 59.542 26.7785C59.6567 27.5843 59.6105 28.6523 59.6004 28.956C56.5103 29.0221 53.4233 29.1196 50.3402 29.2452C50.3182 28.9152 50.2965 28.5852 50.2534 28.2569C50.1921 27.7901 50.0973 27.327 49.9954 26.8654C51.5771 26.4657 58.4764 24.6546 58.9704 24.5249ZM0.965998 28.1904L0.904909 28.4741C0.904909 28.4741 0.676972 29.5342 0.602166 30.5132L0.600774 30.52V30.5268C0.594101 30.7265 0.592587 30.9191 0.598064 31.0984C0.635828 32.34 0.979548 33.8597 0.979548 33.8597L1.25378 33.5176L1.29451 34.1122H1.69635L1.68549 34.0606C2.24859 33.9818 9.95356 32.903 11.1737 32.7492L11.4887 32.7098L11.4547 32.3935C11.3953 31.8448 11.3659 31.2946 11.3692 30.744C11.3696 30.6774 11.3706 30.6112 11.3719 30.5445V30.535V30.5268C11.3603 30.1761 11.3616 29.8244 11.376 29.4733L11.3896 29.1652L11.08 29.1394C7.79948 28.8667 4.52426 28.56 1.2538 28.2203L0.965998 28.1904ZM1.4941 28.8909C4.56822 29.2082 7.64675 29.4975 10.7298 29.7557C10.7245 30.0139 10.7188 30.2725 10.7271 30.5308C10.7257 30.6006 10.7248 30.6701 10.7244 30.7399C10.7215 31.2106 10.7552 31.6805 10.7963 32.1491C9.17796 32.3597 2.07202 33.3547 1.56878 33.4252C1.51032 33.1488 1.27504 32.0896 1.24431 31.0793C1.23938 30.9183 1.24091 30.7392 1.24702 30.5526C1.24707 30.5511 1.24698 30.5499 1.24702 30.5485C1.30803 29.7716 1.44652 29.1252 1.4941 28.8909ZM60.047 30.2145C60.047 30.2145 51.3196 30.3545 50.0361 30.3571L49.7062 30.3585L49.7144 30.687C49.7272 31.2372 49.7074 31.7892 49.6574 32.3392C49.6193 32.7562 49.563 33.1719 49.4904 33.5868L49.4374 33.8963L49.7442 33.9588C52.9497 34.6197 56.1473 35.3124 59.3383 36.0359L59.6261 36.1011L59.7171 35.82C59.7171 35.82 60.1934 34.3608 60.3253 33.3072C60.478 32.0873 60.3742 30.5173 60.3742 30.5173L60.3552 30.2146H60.0497L60.047 30.2145ZM59.7253 30.8648C59.7406 31.1579 59.8079 32.2414 59.6845 33.227C59.5817 34.0487 59.2583 35.0594 59.1714 35.3394C56.1762 34.6623 53.1756 34.0119 50.1678 33.3899C50.2191 33.0597 50.2705 32.7295 50.3009 32.3975C50.3434 31.9326 50.3489 31.4656 50.3484 30.9992C52.0009 30.989 59.2016 30.8732 59.7253 30.8648ZM11.5281 33.1578L11.2145 33.2094C7.98444 33.7361 4.74735 34.2314 1.50496 34.6946L1.21036 34.7367L1.22937 35.034C1.22937 35.034 1.32198 36.5678 1.57963 37.5754C1.87889 38.7456 2.52858 40.1195 2.52858 40.1195L2.6562 40.3924L2.93722 40.2838C2.93722 40.2838 10.9841 37.1715 12.1756 36.7283L12.4784 36.6169L12.3657 36.3142C12.1696 35.7843 12 35.2475 11.8579 34.7068C11.7502 34.2968 11.6585 33.8843 11.5837 33.47L11.5281 33.1578ZM11.0162 33.8922C11.0818 34.2197 11.1483 34.5468 11.2335 34.8711C11.3541 35.3302 11.5058 35.7832 11.6638 36.2341C10.1335 36.81 3.48946 39.3799 3.00917 39.5656C2.89134 39.3067 2.44711 38.3601 2.20548 37.4152C2.00596 36.635 1.93474 35.5803 1.91224 35.2838C4.95258 34.8475 7.98678 34.3844 11.0162 33.8922ZM49.318 34.3362L49.2406 34.6484C49.1075 35.1908 48.9462 35.7296 48.7586 36.2626C48.6164 36.6667 48.4593 37.0674 48.2876 37.4641L48.1613 37.7546L48.4505 37.8863C51.43 39.2445 54.3983 40.6297 57.3549 42.0419L57.6224 42.1708L57.7717 41.9142C57.7717 41.9142 58.5371 40.6155 58.8849 39.6389C59.288 38.5072 59.5216 36.9943 59.5216 36.9943L59.5678 36.697L59.2745 36.6291C59.2745 36.6291 50.8648 34.7112 49.6302 34.4122L49.318 34.3362ZM49.7768 35.1086C51.3654 35.4867 58.3122 37.0715 58.813 37.1858C58.7655 37.4683 58.6017 38.509 58.2767 39.4217C58.0076 40.1774 57.4899 41.0689 57.344 41.3251C54.5712 40.0026 51.7879 38.7025 48.9949 37.4274C49.1253 37.1122 49.2555 36.7971 49.3682 36.4771C49.5271 36.0256 49.6552 35.5679 49.7768 35.1086ZM12.6331 37.0663L12.3426 37.1844C9.30878 38.4168 6.26368 39.6223 3.20874 40.7997L2.93451 40.9056L3.01461 41.1879C3.01461 41.1879 3.42198 42.6432 3.87939 43.5624C4.41031 44.6293 5.32251 45.8255 5.32251 45.8255L5.50443 46.0658L5.75558 45.9015C5.75558 45.9015 13.0125 41.1538 14.0912 40.4671L14.3641 40.2946L14.1903 40.0218C13.8791 39.5333 13.5904 39.0344 13.3242 38.5257C13.1223 38.14 12.9335 37.7481 12.7594 37.3527L12.6331 37.0663ZM12.3046 37.8944C12.448 38.2066 12.5912 38.5186 12.7512 38.8244C12.9769 39.2555 13.2289 39.6756 13.4857 40.0924C12.1031 40.9797 6.1051 44.9023 5.67548 45.1833C5.50641 44.9548 4.88533 44.1339 4.45772 43.2746C4.10403 42.5638 3.81749 41.5658 3.73413 41.2843C6.5999 40.1779 9.45741 39.0492 12.3046 37.8944ZM47.9332 38.1822L47.7893 38.4673C47.5313 38.9795 47.25 39.4837 46.9463 39.977C46.716 40.3509 46.4732 40.7183 46.2186 41.0793L46.0353 41.3386L46.2905 41.526C48.9431 43.4761 51.5802 45.4484 54.2012 47.4437L54.4374 47.6243L54.6357 47.4043C54.6357 47.4043 55.6465 46.2984 56.1833 45.425C56.8058 44.4121 57.3413 43.0003 57.3413 43.0003L57.4472 42.722L57.1784 42.5944C57.1784 42.5944 49.3649 38.8848 48.2197 38.3234L47.9332 38.1822ZM48.2115 39.0348C49.6829 39.7494 56.1523 42.8206 56.6109 43.0383C56.5068 43.3018 56.1339 44.2705 55.6321 45.0869C55.2176 45.7614 54.5333 46.5206 54.3383 46.7405C51.879 44.8703 49.4062 43.0198 46.9191 41.1893C47.1164 40.901 47.3136 40.6113 47.4961 40.315C47.7535 39.8969 47.9854 39.4669 48.2115 39.0348ZM14.6234 40.7236L14.3627 40.8988C11.6306 42.7359 8.88411 44.5493 6.12213 46.34L5.87505 46.5002L6.01081 46.7608C6.01081 46.7608 6.70052 48.0929 7.33174 48.8963C8.06421 49.8287 9.19572 50.8146 9.19572 50.8146L9.42108 51.0115L9.63422 50.801C9.63422 50.801 15.8346 44.6976 16.7602 43.8081L16.9924 43.5854L16.7711 43.3519C16.3669 42.9276 15.9789 42.4876 15.6103 42.0337C15.3309 41.6896 15.0622 41.3381 14.8053 40.9789L14.6234 40.7236ZM14.47 41.602C14.6785 41.8851 14.8872 42.1674 15.1094 42.441C15.4219 42.8259 15.7561 43.194 16.0936 43.5583C14.911 44.7029 9.77669 49.756 9.41293 50.1141C9.20183 49.925 8.42933 49.248 7.83948 48.4972C7.35184 47.8765 6.87423 46.9673 6.73576 46.7093C9.32697 45.0273 11.905 43.3248 14.47 41.602ZM45.7122 41.7283L45.514 41.9808C45.1526 42.4399 44.7716 42.8847 44.3736 43.3153C44.0719 43.6417 43.7604 43.9603 43.4396 44.2683L43.2129 44.4855L43.4247 44.719C45.6492 47.1556 47.8544 49.6096 50.0388 52.0826L50.2343 52.3039L50.4719 52.1301C50.4719 52.1301 51.6816 51.2497 52.3807 50.5051C53.1918 49.6412 53.9976 48.3737 53.9976 48.3737L54.1591 48.1225L53.9202 47.942C53.9202 47.942 46.9793 42.7096 45.9647 41.9251L45.7122 41.7283ZM45.8154 42.6216C47.1201 43.6229 52.8664 47.955 53.274 48.2623C53.1195 48.4983 52.5634 49.3675 51.9096 50.0639C51.3698 50.6388 50.5463 51.2442 50.3117 51.4201C48.2606 49.1005 46.1925 46.7975 44.1062 44.51C44.3576 44.2618 44.6091 44.0131 44.8488 43.7538C45.1862 43.3887 45.5032 43.0069 45.8154 42.6216ZM17.3372 43.9642L17.1145 44.1882C14.7897 46.5292 12.4457 48.8523 10.0822 51.1554L9.87044 51.3604L10.0564 51.5898C10.0564 51.5898 10.9959 52.7547 11.7751 53.4158C12.6791 54.1826 13.9867 54.9227 13.9867 54.9227L14.246 55.0707L14.4143 54.8236C14.4143 54.8236 19.2901 47.6395 20.0225 46.5884L20.2058 46.3264L19.9451 46.1404C19.4706 45.8028 19.0087 45.4458 18.5604 45.0693C18.2204 44.7839 17.8882 44.4873 17.5653 44.1814L17.3372 43.9642ZM42.8178 44.8113L42.5748 45.0218C42.1323 45.4048 41.6747 45.7696 41.205 46.1146C40.8489 46.3763 40.4861 46.6262 40.1162 46.864L39.8528 47.0337L40.0144 47.3025C41.7098 50.12 43.3811 52.9505 45.028 55.7956L45.1746 56.0508L45.442 55.9273C45.442 55.9273 46.8078 55.3065 47.6427 54.7163C48.6116 54.0314 49.6533 52.9501 49.6533 52.9501L49.8624 52.7356L49.6628 52.5102C49.6628 52.5102 43.8722 46.0206 43.0296 45.053L42.8178 44.8113ZM17.3548 44.8589C17.6144 45.0981 17.875 45.3368 18.145 45.5635C18.5254 45.8829 18.9214 46.1804 19.3206 46.473C18.3866 47.8238 14.347 53.7742 14.0613 54.195C13.8175 54.0523 12.9204 53.541 12.1919 52.923C11.5906 52.4128 10.9449 51.6217 10.7569 51.3957C12.9735 49.2335 15.1723 47.0544 17.3548 44.8589ZM42.7472 45.7087C43.8325 46.946 48.6247 52.3176 48.965 52.699C48.7647 52.901 48.0505 53.637 47.2707 54.1882C46.6255 54.6443 45.6903 55.0758 45.4258 55.201C43.8789 52.5319 42.3113 49.8753 40.7217 47.2306C41.0134 47.0371 41.3049 46.8425 41.5878 46.6346C41.9859 46.3422 42.3682 46.0276 42.7472 45.7087ZM20.6076 46.6278L20.4339 46.8925C18.6218 49.6363 16.7855 52.3658 14.9261 55.0802L14.7591 55.3245L14.9886 55.5119C14.9886 55.5119 16.1451 56.4657 17.0467 56.9577C18.0921 57.5283 19.5338 57.9908 19.5338 57.9908L19.8175 58.0832L19.9315 57.8076C19.9315 57.8076 23.2184 49.8193 23.7179 48.6479L23.8428 48.3533L23.5495 48.2257C23.0276 47.9969 22.514 47.7435 22.0087 47.4668C21.6255 47.257 21.2467 47.033 20.8751 46.7975L20.6076 46.6278ZM39.4157 47.2686L39.1347 47.4274C38.6337 47.7119 38.1221 47.9735 37.6033 48.2108C37.21 48.3906 36.8117 48.5569 36.41 48.7076L36.1168 48.8176L36.2186 49.1149C37.284 52.2077 38.3205 55.3109 39.3288 58.4226L39.4211 58.7036L39.7089 58.6371C39.7089 58.6371 41.187 58.3057 42.1309 57.8958C43.2266 57.42 44.4714 56.5695 44.4714 56.5695L44.7198 56.3997L44.5678 56.1391C44.5678 56.1391 40.2042 48.6603 39.5745 47.5496L39.4157 47.2686ZM20.8018 47.5035C21.0981 47.6852 21.3943 47.8667 21.6978 48.0329C22.1263 48.2676 22.5654 48.4746 23.0065 48.6764C22.3712 50.1819 19.6517 56.7919 19.4578 57.2632C19.1894 57.1728 18.1992 56.8503 17.3562 56.3902C16.6602 56.0104 15.8678 55.3647 15.6375 55.1806C17.3795 52.6346 19.1013 50.0753 20.8018 47.5035ZM39.1686 48.1347C39.9832 49.5592 43.5884 55.7408 43.8469 56.1839C43.6099 56.341 42.7558 56.9192 41.8729 57.3025C41.1431 57.6195 40.1299 57.8528 39.8433 57.9216C38.8959 55.0037 37.9235 52.0936 36.9259 49.1923C37.2434 49.0671 37.5602 48.9412 37.8721 48.7986C38.3122 48.5974 38.7414 48.3687 39.1686 48.1347ZM24.2758 48.5556L24.1591 48.8502C22.9653 51.8956 21.7434 54.9309 20.4936 57.9556L20.3809 58.2298L20.6443 58.3669C20.6443 58.3669 21.9865 59.0643 22.9848 59.3607C24.1414 59.704 25.6728 59.8548 25.6728 59.8548L25.9742 59.886L26.0244 59.5874C26.0244 59.5874 27.4534 51.0728 27.6807 49.8222L27.7377 49.5045L27.42 49.4462C26.8736 49.3476 26.3289 49.2199 25.7896 49.0647C25.3806 48.947 24.9747 48.814 24.5718 48.6656L24.2758 48.5556ZM35.6647 48.9452L35.3579 49.0389C34.8212 49.2028 34.2794 49.3385 33.7342 49.4462C33.3208 49.5278 32.9057 49.5928 32.4893 49.6403L32.1716 49.677L32.2042 49.9946C32.5387 53.2572 32.8409 56.525 33.1097 59.7978L33.1341 60.0978L33.4342 60.0937C33.4342 60.0937 34.9802 60.0842 36.0054 59.8805C37.1966 59.6439 38.6106 59.0673 38.6106 59.0673L38.8903 58.9546L38.7966 58.6682C38.7966 58.6682 36.1371 50.4655 35.7611 49.2519L35.6647 48.9452ZM24.6465 49.3688C24.9668 49.4808 25.2873 49.5917 25.6117 49.6851C26.0686 49.8166 26.5306 49.9168 26.9937 50.0096C26.7079 51.6193 25.5271 58.6514 25.442 59.1584C25.1565 59.1261 24.1014 59.0186 23.168 58.7416C22.3949 58.5121 21.4744 58.0402 21.2104 57.908C22.3808 55.0709 23.5253 52.2242 24.6465 49.3688ZM28.1789 49.5941L28.1355 49.9023C27.6654 53.1485 27.1621 56.3888 26.6272 59.6227L26.5797 59.9132L26.8634 59.9879C26.8634 59.9879 28.3578 60.3852 29.4265 60.459C29.7916 60.4842 30.1781 60.4884 30.5561 60.4793H30.5629H30.5697C31.467 60.4189 32.2409 60.2797 32.2409 60.2797L32.507 60.2309V59.9485L32.5056 59.9363C32.5056 59.9363 31.8276 51.2768 31.7453 50.0001L31.725 49.6851L31.41 49.6973C31.1249 49.7087 30.84 49.7126 30.5547 49.7068H30.5452H30.5371C30.272 49.7156 30.0068 49.717 29.7415 49.7109C29.3239 49.7013 28.9067 49.6734 28.4898 49.6281L28.1789 49.5941ZM35.237 49.734C35.7259 51.2903 37.9243 58.0705 38.0825 58.5583C37.8173 58.6622 36.8419 59.0553 35.8792 59.2466C35.0857 59.4043 34.0241 59.418 33.7233 59.4245C33.4693 56.3566 33.1865 53.2925 32.8748 50.2336C33.2038 50.1894 33.5325 50.1447 33.8591 50.0802C34.3224 49.9887 34.7805 49.8644 35.237 49.734ZM28.7274 50.2906C29.06 50.3201 29.393 50.3481 29.7266 50.3558C29.9979 50.362 30.2697 50.3603 30.5411 50.3517C30.7354 50.3556 30.9294 50.3499 31.1235 50.3462C31.2361 51.9887 31.8006 59.1876 31.839 59.677C31.6362 59.7108 31.2284 59.7871 30.5275 59.8344C30.1698 59.8427 29.807 59.8372 29.4713 59.8141C28.6355 59.7564 27.5968 59.4874 27.3128 59.4163C27.813 56.3801 28.2843 53.3376 28.7274 50.2906Z" fill="white"/>
<path d="M19.7301 20.0366C19.7301 20.0816 19.7213 20.1261 19.7041 20.1676C19.6869 20.2092 19.6616 20.2469 19.6299 20.2787C19.5981 20.3105 19.5603 20.3357 19.5188 20.3529C19.4772 20.3701 19.4327 20.379 19.3878 20.379C19.3428 20.379 19.2983 20.3701 19.2567 20.3529C19.2152 20.3357 19.1775 20.3105 19.1457 20.2787C19.1139 20.2469 19.0887 20.2092 19.0715 20.1676C19.0543 20.1261 19.0454 20.0816 19.0454 20.0366C19.0454 19.9916 19.0543 19.9471 19.0715 19.9056C19.0887 19.8641 19.1139 19.8263 19.1457 19.7945C19.1775 19.7627 19.2152 19.7375 19.2567 19.7203C19.2983 19.7031 19.3428 19.6942 19.3878 19.6942C19.4786 19.6942 19.5656 19.7303 19.6299 19.7945C19.6941 19.8587 19.7301 19.9458 19.7301 20.0366Z" fill="black"/>
<path d="M20.776 19.4342C20.776 19.525 20.74 19.6121 20.6758 19.6763C20.6115 19.7405 20.5245 19.7766 20.4337 19.7766C20.3887 19.7766 20.3442 19.7677 20.3026 19.7505C20.2611 19.7333 20.2234 19.7081 20.1916 19.6763C20.1598 19.6445 20.1346 19.6068 20.1174 19.5652C20.1002 19.5237 20.0913 19.4792 20.0913 19.4342C20.0913 19.3893 20.1002 19.3447 20.1174 19.3032C20.1346 19.2617 20.1598 19.2239 20.1916 19.1921C20.2234 19.1603 20.2611 19.1351 20.3026 19.1179C20.3442 19.1007 20.3887 19.0919 20.4337 19.0919C20.4786 19.0919 20.5231 19.1007 20.5647 19.1179C20.6062 19.1351 20.644 19.1603 20.6758 19.1921C20.7075 19.2239 20.7328 19.2617 20.75 19.3032C20.7672 19.3447 20.776 19.3893 20.776 19.4342Z" fill="black"/>
<path d="M20.7924 20.5467C20.7924 20.5917 20.7835 20.6362 20.7663 20.6777C20.7491 20.7193 20.7239 20.757 20.6921 20.7888C20.6603 20.8206 20.6226 20.8458 20.581 20.863C20.5395 20.8802 20.495 20.8891 20.45 20.8891C20.4051 20.8891 20.3605 20.8802 20.319 20.863C20.2775 20.8458 20.2397 20.8206 20.2079 20.7888C20.1761 20.757 20.1509 20.7193 20.1337 20.6777C20.1165 20.6362 20.1077 20.5917 20.1077 20.5467C20.1077 20.4559 20.1437 20.3688 20.2079 20.3046C20.2721 20.2404 20.3592 20.2043 20.45 20.2043C20.5408 20.2043 20.6279 20.2404 20.6921 20.3046C20.7563 20.3688 20.7924 20.4559 20.7924 20.5467Z" fill="black"/>
<path d="M27.993 23.9208C27.753 23.9208 27.5153 23.9682 27.2935 24.0601C27.0718 24.152 26.8703 24.2867 26.7007 24.4565C26.531 24.6263 26.3964 24.8279 26.3047 25.0497C26.213 25.2716 26.1658 25.5093 26.166 25.7493C26.1661 26.2339 26.3586 26.6986 26.7012 27.0412C27.0438 27.3838 27.5085 27.5763 27.993 27.5764C28.0244 27.5762 28.0557 27.5752 28.087 27.5735C27.6566 27.5062 27.2645 27.2874 26.9811 26.9565C26.6978 26.6256 26.5421 26.2044 26.5419 25.7688C26.543 25.2989 26.7251 24.8475 27.0503 24.5084C27.3756 24.1693 27.819 23.9685 28.2884 23.9477C28.1908 23.9307 28.0921 23.9218 27.993 23.9208Z" fill="black"/>
<path d="M30.8887 20.8414C30.1587 20.8387 29.1125 20.8942 28.6496 20.9737C28.5708 20.9876 28.3943 21.0176 28.2566 21.0407C27.0934 21.2376 25.7276 21.7075 24.6124 22.2945C23.6162 22.8188 23.2636 23.0559 22.2575 23.8721C21.9549 24.1176 21.6751 24.332 21.6361 24.3494C21.5842 24.3729 21.5946 24.4483 21.6754 24.6313C21.7363 24.7692 21.8838 25.1069 22.0038 25.3811C22.1239 25.6555 22.2337 25.9045 22.259 25.9159C23.7429 29.1841 24.8031 31.7973 26.1836 35.0291C26.2609 35.2149 26.4138 35.57 26.5231 35.8175C26.664 36.1367 27.9642 39.0804 29.0221 41.5764C29.1114 41.7853 29.2307 42.0628 29.3442 42.3191C29.4826 42.6315 29.6586 43.0382 29.7356 43.224C30.1292 44.1728 30.3748 44.6885 30.4547 44.7299C30.6119 44.8114 30.7379 44.7364 30.8651 44.481C30.9285 44.3544 31.0004 44.1892 31.0242 44.114C31.0477 44.0386 31.0795 43.9642 31.095 43.9486C31.1205 43.9212 39.3033 25.1474 39.3537 25.0645C39.5557 24.7326 39.72 24.4773 39.4727 24.31C39.3359 24.2176 38.8507 23.8456 38.5614 23.6106C37.9336 23.1005 36.6695 22.3062 36.1553 22.0992C36.0576 22.0598 35.8314 21.9591 35.6521 21.8755C35.2492 21.6878 34.1356 21.3204 33.5547 21.1832C32.8882 21.026 32.6772 20.9936 31.4794 20.8643C31.3396 20.8492 31.132 20.8425 30.8887 20.8414ZM39.375 23.1309C39.5093 23.241 39.6222 23.3391 39.6995 23.416L39.7049 23.4198C39.6246 23.341 39.5116 23.2422 39.375 23.1309Z" fill="#FCD258"/>
<path d="M30.6575 20.604C29.9276 20.6013 28.8816 20.6575 28.4187 20.737C28.3399 20.751 28.1622 20.7805 28.0244 20.8036C26.8612 21.0005 25.4952 21.4708 24.38 22.0578C23.3838 22.582 23.0324 22.8184 22.0263 23.6346C21.7237 23.8801 21.4432 24.0946 21.4042 24.112C21.3523 24.1355 21.3633 24.2118 21.4441 24.3948C21.505 24.5327 21.6517 24.8691 21.7718 25.1433C21.8918 25.4177 22.0026 25.6675 22.0279 25.6789C23.5118 28.9471 24.5714 31.5608 25.9519 34.7926C26.0291 34.9783 26.1819 35.3319 26.2912 35.5794C26.4322 35.8986 27.7334 38.8437 28.7912 41.3397C28.8806 41.5486 28.9988 41.8253 29.1122 42.0815C29.2506 42.3939 29.426 42.8006 29.5031 42.9864C29.8967 43.9352 30.1435 44.4503 30.2234 44.4918C30.3805 44.5733 30.5054 44.4992 30.6326 44.2439C30.6638 44.1815 30.6821 44.1283 30.7108 44.0626C30.5996 43.8885 30.3935 43.4396 30.0903 42.7086C30.0164 42.5305 29.847 42.1414 29.7144 41.842C29.6056 41.5964 29.4923 41.3303 29.4067 41.1301C28.3926 38.7375 27.1449 35.9153 27.0097 35.6093C26.905 35.3721 26.7594 35.0322 26.6854 34.8541C25.3621 31.7563 24.3452 29.2508 22.9228 26.1181C22.8987 26.107 22.7934 25.8687 22.6783 25.6057C22.5632 25.3429 22.4353 25.1387 22.3639 24.8872C22.3391 24.7993 22.2971 24.7027 22.3257 24.616C22.4484 24.2432 22.8607 24.0114 23.1507 23.776C24.021 23.1018 24.2235 23.1492 25.1784 22.6466C26.2474 22.0839 27.5565 21.6327 28.6715 21.444C28.8036 21.4217 28.9735 21.3943 29.0491 21.3808C29.4928 21.3045 30.4951 21.2518 31.1948 21.2543C31.428 21.255 31.628 21.2615 31.762 21.2759C32.9102 21.3999 33.1125 21.4313 33.7514 21.5819C34.3083 21.7134 35.3746 22.0656 35.7608 22.2456C35.9327 22.3257 36.1495 22.4207 36.2432 22.4585C36.736 22.6569 37.9485 23.4184 38.5503 23.9073C38.7849 24.098 39.118 24.3545 39.3055 24.4912C39.3815 24.3203 39.3953 24.1767 39.2406 24.072C39.1038 23.9797 38.6183 23.6084 38.3291 23.3734C37.7012 22.8633 36.438 22.0684 35.9238 21.8614C35.8261 21.822 35.5992 21.722 35.4198 21.6385C35.0169 21.4507 33.9032 21.0836 33.3223 20.9465C32.6558 20.7893 32.4459 20.7565 31.2481 20.6272C31.1082 20.6121 30.9009 20.6049 30.6575 20.604Z" fill="#C5A549"/>
<path d="M30.4824 14.7093C30.0321 14.709 29.5957 14.7212 29.2002 14.7495C28.8748 14.7726 28.5427 14.8115 28.2102 14.8534C28.1149 14.8651 28.018 14.8763 27.929 14.8881C27.3128 14.9751 26.6987 15.098 26.0971 15.2417C25.9672 15.2739 25.8071 15.3137 25.7568 15.3244C25.6949 15.3379 25.6283 15.3537 25.5608 15.3709C25.2752 15.448 24.9985 15.5337 24.7267 15.6221C23.6115 16.0022 22.2045 16.6222 21.1818 17.2036C20.7167 17.468 20.2518 17.7642 19.7964 18.0794C19.573 18.2386 19.3378 18.4101 19.0442 18.6276C18.4332 19.0801 18.3144 19.2152 18.233 19.5569C18.1579 19.8724 18.1789 20.0585 18.322 20.35C18.4413 20.6458 18.5948 20.9136 18.7418 21.2109C19.0782 21.8783 19.5538 22.8197 19.6326 22.9664C19.94 23.5383 20.4201 23.7657 20.9723 23.6004C21.2094 23.5295 21.3312 23.4522 21.7465 23.1129C22.3668 22.6059 22.7846 22.2901 22.9578 22.2001C23.0319 22.1617 23.2406 22.032 23.4209 21.9119C23.7994 21.6596 24.8362 21.1355 25.2953 20.9644C25.4683 20.8999 25.6165 20.8402 25.6246 20.8321C25.6548 20.8015 26.6922 20.4569 26.9816 20.3808C27.243 20.3119 27.6753 20.2195 28.4323 20.0681C29.4895 19.8569 31.7427 19.8691 32.8531 20.0916C32.9313 20.1087 33.1509 20.1488 33.3414 20.1837C34.83 20.4561 36.457 21.1061 37.9275 22.0165C38.5265 22.3873 39.4071 23.0454 39.7185 23.3554C39.8807 23.5167 40.2818 23.674 40.5439 23.6791C40.6414 23.6809 40.8178 23.6391 40.9362 23.5861C41.2818 23.4317 41.477 23.1546 42.0537 22.0031C42.3358 21.44 42.6307 20.8593 42.7098 20.713C43.0569 20.0716 43.0933 19.5785 42.8216 19.1914C42.7311 19.0623 41.8034 18.2972 41.7111 18.2754C41.6925 18.2723 41.4591 18.1148 41.1937 17.9297C40.4864 17.4361 38.6598 16.4243 38.2615 16.3049C38.2107 16.2909 38.0037 16.2046 37.8007 16.1166C37.3535 15.9231 36.1783 15.52 35.7294 15.4054C35.5498 15.3595 35.3455 15.3027 35.2757 15.2786C35.2059 15.2551 34.9565 15.1964 34.7212 15.1502C34.486 15.1037 34.2234 15.0493 34.1384 15.029C33.3045 14.8306 31.8333 14.7101 30.4824 14.7093Z" fill="#C27742"/>
<path d="M30.7313 13.9084C29.9506 13.9016 29.1726 13.9426 28.4008 14.0288V14.0253C28.1482 14.0533 27.9131 14.0835 27.6847 14.1167C27.6458 14.1221 27.5239 14.136 27.5095 14.1389C27.4738 14.1454 27.3079 14.1744 27.189 14.1953C27.1744 14.1978 27.1597 14.2005 27.1454 14.2029C27.0495 14.2198 27.0078 14.2271 26.9002 14.2457C26.8119 14.2612 26.7068 14.2878 26.613 14.3064C26.5928 14.3106 26.5718 14.3147 26.5515 14.3191C25.6702 14.4976 24.6311 14.7877 24.086 15.0054C23.4182 15.2371 22.7658 15.5025 22.1316 15.801C21.9468 15.8657 21.6803 15.9954 21.2086 16.2479C20.1104 16.8361 19.1356 17.4765 18.2766 18.175C17.7773 18.5809 17.5073 18.9146 17.3921 19.2697C17.2967 19.5637 17.2883 20.0999 17.3734 20.4055C17.4159 20.5581 17.7908 21.3568 18.2067 22.1804C18.9554 23.6636 18.9651 23.681 19.2868 24.0015C19.6759 24.3894 19.9932 24.5477 20.4457 24.5749L20.7379 24.592L21.1763 25.6072C21.4176 26.1658 21.7977 27.0402 22.0207 27.5497C22.2436 28.0592 22.4653 28.5743 22.5137 28.6948C22.5622 28.8155 22.7379 29.2241 22.9043 29.6024C23.0706 29.9806 23.4481 30.8483 23.7426 31.5303C24.0371 32.2124 24.3908 33.0259 24.5288 33.3386C24.6669 33.6512 24.8513 34.0815 24.939 34.294C25.0268 34.5069 25.1256 34.7306 25.1587 34.7914C25.1916 34.8525 25.2531 34.9912 25.2945 35.0999C25.3869 35.3426 25.9949 36.706 26.696 38.2644C26.7395 38.4173 26.8093 38.604 26.9353 38.8882C27.1027 39.2655 27.2564 39.6186 27.2763 39.6736C27.2965 39.7285 27.4726 40.1369 27.6669 40.5812C27.8611 41.0254 28.055 41.4823 28.0984 41.5964C28.1418 41.7105 28.1863 41.8136 28.1975 41.8237C28.2155 41.8417 28.6962 42.9424 29.3504 44.4635C29.6071 45.0605 29.7963 45.3242 30.087 45.4916C30.3391 45.6374 30.7761 45.6341 31.0724 45.4848V45.4875C31.1972 45.4247 31.3266 45.3488 31.3603 45.3183C31.4266 45.2591 31.7698 44.5426 32.097 43.7801C32.2097 43.5172 32.3537 43.1855 32.4174 43.0426C32.4811 42.8998 32.5729 42.6844 32.6209 42.5632C32.6688 42.4421 32.8208 42.0876 32.9593 41.7752C33.3513 40.891 34.1963 38.9478 34.2941 38.7047C34.3426 38.5842 34.5823 38.0255 34.8274 37.463C35.6496 35.5762 39.9651 25.6058 39.9651 25.6058L40.4027 24.5862L40.6171 24.5835C40.7352 24.5819 40.981 24.5291 41.1624 24.4673C41.4278 24.3768 41.5496 24.3032 41.7888 24.0896C42.1214 23.7927 42.0549 23.9069 43.1381 21.7634C43.7826 20.4883 43.8025 20.4397 43.8286 20.0244C43.8643 19.4597 43.6604 18.9092 43.2715 18.5203C42.3512 17.5999 39.6772 15.979 38.0628 15.3625C36.7098 14.8458 35.8644 14.5875 34.7436 14.3498C33.4113 14.0671 32.0677 13.9199 30.7313 13.9084ZM30.4638 14.7698C31.8146 14.7706 33.2858 14.891 34.1197 15.0894C34.2047 15.1096 34.4672 15.1642 34.7025 15.2108C34.9378 15.2569 35.1872 15.3154 35.2571 15.339C35.3269 15.3631 35.5313 15.4204 35.7109 15.4663C36.1598 15.5809 37.3343 15.9838 37.7815 16.1773C37.9845 16.2653 38.1922 16.3516 38.243 16.3653C38.6413 16.4847 40.4678 17.4972 41.1751 17.9907C41.4405 18.1759 41.6735 18.3327 41.6921 18.336C41.7844 18.3578 42.7125 19.1231 42.803 19.2521C43.0747 19.6392 43.0382 20.1327 42.6911 20.7741C42.6119 20.9203 42.3168 21.5006 42.0347 22.0637C41.458 23.2152 41.2626 23.4927 40.917 23.6472C40.7986 23.7002 40.6222 23.7413 40.5247 23.7395C40.2625 23.7343 39.8623 23.5777 39.7 23.4164C39.3886 23.1065 38.5078 22.4481 37.9089 22.0773C36.4383 21.167 34.811 20.5166 33.3223 20.2442C33.1318 20.2093 32.9126 20.169 32.8344 20.152C31.7239 19.9294 29.4708 19.9177 28.4136 20.1288C27.6566 20.2802 27.2239 20.3726 26.9625 20.4416C26.6731 20.5177 25.6356 20.8623 25.6055 20.8928C25.5974 20.9009 25.4494 20.9607 25.2765 21.0252C24.8173 21.1963 23.7809 21.7198 23.4024 21.9721C23.2221 22.0923 23.0133 22.2226 22.9392 22.261C22.766 22.351 22.3477 22.6666 21.7274 23.1736C21.3122 23.5129 21.1903 23.5898 20.9532 23.6608C20.401 23.826 19.9214 23.5985 19.614 23.0267C19.5353 22.88 19.0591 21.9387 18.7227 21.2714C18.5758 20.9741 18.4224 20.7065 18.3031 20.4108C18.16 20.1193 18.1391 19.9332 18.2142 19.6178C18.2956 19.276 18.4142 19.1405 19.0252 18.688C19.3188 18.4705 19.5538 18.2994 19.7773 18.1402C20.2327 17.825 20.6975 17.5286 21.1625 17.2642C22.1853 16.6828 23.593 16.0625 24.7082 15.6824C24.98 15.594 25.2567 15.5083 25.5423 15.4312C25.6098 15.4141 25.676 15.3984 25.738 15.385C25.7882 15.374 25.9482 15.3343 26.0781 15.3021C26.6797 15.1584 27.294 15.0353 27.9103 14.9484C27.9993 14.9365 28.0961 14.9258 28.1914 14.9142C28.5239 14.8722 28.8556 14.8329 29.1811 14.8099C29.5766 14.7819 30.0135 14.7695 30.4638 14.7698ZM30.8885 20.8416C31.1318 20.8424 31.34 20.8496 31.4799 20.8647C32.6777 20.9941 32.8883 21.0263 33.5548 21.1835C34.1357 21.3206 35.249 21.6879 35.6519 21.8757C35.8313 21.9592 36.0575 22.0602 36.1553 22.0996C36.6694 22.3066 37.9339 23.1004 38.5618 23.6105C38.851 23.8455 39.336 24.218 39.4727 24.3104C39.72 24.4777 39.5559 24.733 39.354 25.065C39.3035 25.1479 31.1207 43.9214 31.0953 43.9486C31.0798 43.9641 31.048 44.039 31.0244 44.1144C31.0005 44.1896 30.9289 44.3544 30.8654 44.481C30.7383 44.7362 30.6123 44.8112 30.4552 44.7297C30.3753 44.6883 30.1292 44.1727 29.7357 43.2239C29.6586 43.0381 29.4826 42.6313 29.3443 42.3189C29.2308 42.0627 29.1114 41.7852 29.0221 41.5763C27.9642 39.0803 26.6643 36.1365 26.5233 35.8173C26.414 35.5698 26.2613 35.2151 26.184 35.0294C24.8035 31.7976 23.7428 29.1844 22.259 25.9162C22.2335 25.9049 22.1243 25.6556 22.0043 25.3812C21.8842 25.107 21.7362 24.7696 21.6753 24.6317C21.5945 24.4487 21.5841 24.3733 21.636 24.3497C21.675 24.3324 21.9547 24.1175 22.2572 23.872C23.2634 23.0558 23.6164 22.8188 24.6125 22.2945C25.7277 21.7075 27.0932 21.2378 28.2564 21.0408C28.3942 21.0176 28.5707 20.9878 28.6495 20.9741C29.1124 20.8946 30.1585 20.839 30.8885 20.8416Z" fill="black"/>
<path d="M33.8328 32.5845C33.8328 32.7713 33.796 32.9562 33.7245 33.1287C33.6531 33.3013 33.5483 33.4581 33.4163 33.5901C33.2842 33.7222 33.1274 33.8269 32.9549 33.8984C32.7823 33.9699 32.5974 34.0067 32.4107 34.0067C32.2239 34.0067 32.039 33.9699 31.8664 33.8984C31.6939 33.8269 31.5371 33.7222 31.4051 33.5901C31.273 33.4581 31.1682 33.3013 31.0968 33.1287C31.0253 32.9562 30.9885 32.7713 30.9885 32.5845C30.9885 32.2073 31.1384 31.8456 31.4051 31.5789C31.6718 31.3122 32.0335 31.1624 32.4107 31.1624C32.5974 31.1624 32.7823 31.1992 32.9549 31.2706C33.1274 31.3421 33.2842 31.4469 33.4163 31.5789C33.5483 31.711 33.6531 31.8677 33.7245 32.0403C33.796 32.2128 33.8328 32.3978 33.8328 32.5845Z" fill="#E64341"/>
<path d="M32.409 30.9551C31.5115 30.9551 30.782 31.689 30.782 32.5865C30.782 33.4839 31.5115 34.2135 32.409 34.2135C33.3064 34.2135 34.0404 33.4839 34.0404 32.5865C34.0404 31.689 33.3064 30.9551 32.409 30.9551ZM32.409 31.3717C33.0824 31.3717 33.6237 31.9131 33.6237 32.5865C33.6237 33.2599 33.0824 33.8012 32.409 33.8012C31.7356 33.8012 31.1942 33.2599 31.1942 32.5865C31.1942 31.9131 31.7356 31.3717 32.409 31.3717Z" fill="black"/>
<path d="M31.6665 37.9946C31.6665 38.0836 31.649 38.1717 31.6149 38.2539C31.5809 38.3361 31.531 38.4107 31.4681 38.4737C31.4051 38.5366 31.3305 38.5865 31.2483 38.6205C31.1661 38.6546 31.078 38.6721 30.989 38.6721C30.9 38.6721 30.8119 38.6546 30.7297 38.6205C30.6476 38.5865 30.5729 38.5366 30.5099 38.4737C30.447 38.4107 30.3971 38.3361 30.3631 38.2539C30.329 38.1717 30.3115 38.0836 30.3115 37.9946C30.3115 37.8149 30.3829 37.6426 30.5099 37.5155C30.637 37.3885 30.8093 37.3171 30.989 37.3171C31.078 37.3171 31.1661 37.3346 31.2483 37.3687C31.3305 37.4027 31.4051 37.4526 31.4681 37.5155C31.531 37.5785 31.5809 37.6531 31.6149 37.7353C31.649 37.8175 31.6665 37.9056 31.6665 37.9946Z" fill="#008000"/>
<path d="M30.9881 37.1035C30.4989 37.1035 30.0979 37.5045 30.0979 37.9937C30.0979 38.483 30.4989 38.884 30.9881 38.884C31.4774 38.884 31.8784 38.483 31.8784 37.9937C31.8784 37.5045 31.4774 37.1035 30.9881 37.1035ZM30.9881 37.5289C31.2472 37.5289 31.453 37.7346 31.453 37.9937C31.453 38.2528 31.2472 38.4586 30.9881 38.4586C30.729 38.4586 30.5233 38.2528 30.5233 37.9937C30.5233 37.7346 30.729 37.5289 30.9881 37.5289Z" fill="black"/>
<path d="M30.0865 25.7529C30.0865 26.0205 30.0337 26.2855 29.9313 26.5327C29.8289 26.78 29.6788 27.0046 29.4896 27.1939C29.3003 27.3831 29.0757 27.5332 28.8285 27.6356C28.5812 27.738 28.3162 27.7907 28.0486 27.7907C27.781 27.7907 27.516 27.738 27.2687 27.6356C27.0215 27.5332 26.7969 27.3831 26.6076 27.1939C26.4184 27.0046 26.2683 26.78 26.1659 26.5327C26.0634 26.2855 26.0107 26.0205 26.0107 25.7529C26.0107 25.2124 26.2255 24.6941 26.6076 24.3119C26.9898 23.9297 27.5081 23.715 28.0486 23.715C28.3162 23.715 28.5812 23.7677 28.8284 23.8701C29.0757 23.9726 29.3003 24.1227 29.4896 24.3119C29.6788 24.5011 29.8289 24.7258 29.9313 24.973C30.0337 25.2203 30.0865 25.4853 30.0865 25.7529Z" fill="#E64341"/>
<path d="M28.0498 23.4166C26.7638 23.4166 25.7124 24.468 25.7124 25.754C25.7124 27.04 26.7638 28.087 28.0498 28.087C29.3358 28.087 30.3829 27.04 30.3829 25.754C30.3829 24.468 29.3358 23.4166 28.0498 23.4166ZM28.0498 24.013C29.0148 24.013 29.7908 24.7891 29.7908 25.754C29.7908 26.7189 29.0148 27.495 28.0498 27.495C27.0849 27.495 26.3088 26.7189 26.3088 25.754C26.3088 24.7891 27.0849 24.013 28.0498 24.013Z" fill="black"/>
<path d="M32.3717 31.306C32.2042 31.306 32.0383 31.339 31.8836 31.4031C31.7288 31.4673 31.5882 31.5613 31.4698 31.6798C31.3514 31.7983 31.2575 31.939 31.1935 32.0938C31.1295 32.2486 31.0966 32.4145 31.0967 32.582C31.0967 32.9202 31.2311 33.2444 31.4702 33.4835C31.7093 33.7226 32.0336 33.857 32.3717 33.857C32.3936 33.8569 32.4154 33.8562 32.4373 33.855C32.1369 33.8081 31.8632 33.6554 31.6655 33.4245C31.4678 33.1935 31.3591 32.8996 31.359 32.5956C31.3598 32.2677 31.4869 31.9527 31.7138 31.716C31.9408 31.4794 32.2502 31.3392 32.5778 31.3247C32.5097 31.3129 32.4408 31.3066 32.3717 31.306Z" fill="black"/>
<path d="M30.7313 13.9084C29.9506 13.9017 29.1726 13.9427 28.4008 14.0289V14.0253C28.1482 14.0533 27.9131 14.0836 27.6847 14.1167C27.6458 14.1221 27.5239 14.136 27.5095 14.139C27.4738 14.1455 27.3079 14.1745 27.189 14.1954C27.1744 14.1978 27.1597 14.2005 27.1454 14.203C27.0495 14.2198 27.0078 14.2271 26.9002 14.2457C26.8119 14.2612 26.7068 14.2879 26.613 14.3064C26.5928 14.3107 26.5718 14.3147 26.5514 14.3192C25.6702 14.4977 24.6311 14.7877 24.086 15.0054C23.4182 15.2371 22.7658 15.5026 22.1316 15.801C21.9468 15.8658 21.6803 15.9954 21.2086 16.248C20.1104 16.8362 19.1356 17.4765 18.2766 18.1751C17.7773 18.581 17.5073 18.9147 17.3921 19.2698C17.2967 19.5637 17.2883 20.0999 17.3734 20.4055C17.4159 20.5582 17.7908 21.3568 18.2067 22.1805C18.9554 23.6637 18.9651 23.681 19.2868 24.0016C19.6759 24.3895 19.9932 24.5478 20.4457 24.575L20.7379 24.5921L21.1763 25.6073C21.4176 26.1658 21.7977 27.0403 22.0207 27.5498C22.2436 28.0593 22.4653 28.5744 22.5137 28.6949C22.5622 28.8155 22.7379 29.2242 22.9043 29.6025C23.0706 29.9807 23.4481 30.8483 23.7426 31.5304C24.0371 32.2124 24.3908 33.0259 24.5288 33.3387C24.6669 33.6513 24.8513 34.0815 24.939 34.2941C25.0268 34.507 25.1256 34.7307 25.1587 34.7915C25.1916 34.8526 25.2531 34.9913 25.2945 35.1C25.3869 35.3427 25.9949 36.706 26.696 38.2645C26.7395 38.4174 26.8093 38.6041 26.9353 38.8883C27.1027 39.2655 27.2564 39.6187 27.2763 39.6737C27.2965 39.7286 27.4726 40.137 27.6669 40.5812C27.8611 41.0254 28.055 41.4824 28.0984 41.5965C28.1418 41.7105 28.1863 41.8137 28.1975 41.8238C28.2155 41.8417 28.6962 42.9425 29.3504 44.4636C29.6071 45.0606 29.7963 45.3242 30.087 45.4916C30.3391 45.6375 30.7761 45.6342 31.0724 45.4849V45.4876C31.1972 45.4248 31.3266 45.3489 31.3603 45.3184C31.4266 45.2591 31.7698 44.5426 32.097 43.7801C32.2097 43.5173 32.3537 43.1856 32.4174 43.0426C32.4811 42.8999 32.5729 42.6844 32.6209 42.5632C32.6688 42.4421 32.8208 42.0877 32.9593 41.7753C33.3513 40.8911 34.1963 38.9479 34.2941 38.7048C34.3426 38.5842 34.5823 38.0255 34.8274 37.4631C35.6496 35.5763 39.9651 25.6058 39.9651 25.6058L40.4027 24.5863L40.6171 24.5836C40.7352 24.5819 40.981 24.5292 41.1624 24.4674C41.4278 24.3769 41.5496 24.3032 41.7888 24.0896C42.1213 23.7928 42.0549 23.9069 43.1381 21.7635C43.7826 20.4883 43.8025 20.4397 43.8286 20.0244C43.8643 19.4598 43.6604 18.9093 43.2715 18.5204C42.3512 17.5999 39.6772 15.979 38.0628 15.3625C36.7098 14.8459 35.8644 14.5875 34.7436 14.3499C33.4113 14.0672 32.0677 13.92 30.7313 13.9084ZM30.4638 14.7698C31.8146 14.7707 33.2858 14.8911 34.1197 15.0895C34.2047 15.1097 34.4672 15.1643 34.7025 15.2108C34.9378 15.257 35.1872 15.3154 35.2571 15.339C35.3269 15.3632 35.5313 15.4205 35.7109 15.4664C36.1598 15.5809 37.3343 15.9838 37.7815 16.1774C37.9845 16.2654 38.1922 16.3516 38.243 16.3654C38.6413 16.4848 40.4678 17.4972 41.1751 17.9908C41.4405 18.176 41.6735 18.3327 41.6921 18.336C41.7844 18.3578 42.7125 19.1231 42.803 19.2522C43.0747 19.6392 43.0382 20.1328 42.6911 20.7741C42.6119 20.9204 42.3168 21.5006 42.0347 22.0637C41.458 23.2152 41.2626 23.4928 40.917 23.6472C40.7986 23.7002 40.6222 23.7414 40.5247 23.7395C40.2625 23.7344 39.8623 23.5778 39.7 23.4165C39.3886 23.1065 38.5078 22.4482 37.9089 22.0774C36.4383 21.167 34.811 20.5166 33.3223 20.2443C33.1318 20.2093 32.9126 20.1691 32.8344 20.152C31.7239 19.9294 29.4708 19.9177 28.4136 20.1288C27.6566 20.2803 27.2239 20.3727 26.9625 20.4416C26.6731 20.5177 25.6356 20.8623 25.6055 20.8928C25.5974 20.9009 25.4494 20.9608 25.2765 21.0253C24.8173 21.1964 23.7809 21.7199 23.4024 21.9722C23.2221 22.0924 23.0133 22.2226 22.9392 22.261C22.766 22.3511 22.3477 22.6667 21.7274 23.1737C21.3122 23.513 21.1903 23.5898 20.9532 23.6608C20.401 23.8261 19.9214 23.5986 19.614 23.0267C19.5353 22.88 19.0591 21.9388 18.7227 21.2714C18.5758 20.9742 18.4224 20.7066 18.3031 20.4109C18.16 20.1193 18.1391 19.9333 18.2142 19.6178C18.2956 19.276 18.4142 19.1406 19.0252 18.688C19.3188 18.4706 19.5538 18.2994 19.7773 18.1402C20.2327 17.8251 20.6975 17.5287 21.1625 17.2643C22.1853 16.6829 23.593 16.0625 24.7082 15.6825C24.98 15.5941 25.2567 15.5083 25.5423 15.4312C25.6098 15.4142 25.676 15.3985 25.738 15.3851C25.7882 15.3741 25.9482 15.3343 26.0781 15.3022C26.6797 15.1585 27.294 15.0354 27.9103 14.9484C27.9993 14.9365 28.0961 14.9259 28.1914 14.9142C28.5239 14.8723 28.8556 14.833 29.1811 14.81C29.5766 14.782 30.0135 14.7695 30.4638 14.7698ZM30.8885 20.8416C31.1318 20.8425 31.34 20.8497 31.4799 20.8648C32.6777 20.9941 32.8883 21.0263 33.5548 21.1836C34.1357 21.3207 35.249 21.688 35.6519 21.8758C35.8313 21.9593 36.0575 22.0603 36.1553 22.0997C36.6694 22.3067 37.9339 23.1005 38.5618 23.6106C38.851 23.8456 39.336 24.2181 39.4727 24.3105C39.72 24.4778 39.5559 24.7331 39.354 25.065C39.3035 25.1479 31.1207 43.9214 31.0953 43.9487C31.0798 43.9642 31.048 44.0391 31.0244 44.1145C31.0005 44.1897 30.9289 44.3544 30.8654 44.4811C30.7382 44.7362 30.6123 44.8113 30.4552 44.7298C30.3753 44.6883 30.1292 44.1728 29.7357 43.224C29.6586 43.0382 29.4826 42.6314 29.3443 42.319C29.2308 42.0627 29.1114 41.7853 29.0221 41.5764C27.9642 39.0804 26.6643 36.1366 26.5233 35.8174C26.414 35.5699 26.2613 35.2152 26.184 35.0294C24.8035 31.7977 23.7428 29.1844 22.259 25.9162C22.2335 25.905 22.1243 25.6556 22.0043 25.3812C21.8842 25.107 21.7362 24.7696 21.6753 24.6318C21.5945 24.4488 21.5841 24.3734 21.636 24.3498C21.675 24.3325 21.9547 24.1176 22.2572 23.8721C23.2634 23.0559 23.6163 22.8188 24.6125 22.2945C25.7277 21.7075 27.0932 21.2378 28.2564 21.0409C28.3942 21.0177 28.5707 20.9879 28.6495 20.9742C29.1124 20.8947 30.1585 20.839 30.8885 20.8416Z" fill="black"/>
<path d="M30.7315 13.9084C29.9509 13.9017 29.1728 13.9427 28.4011 14.0289V14.0253C28.1485 14.0533 27.9133 14.0836 27.6849 14.1167C27.646 14.1221 27.5241 14.136 27.5097 14.139C27.474 14.1455 27.3082 14.1745 27.1893 14.1954C27.1747 14.1978 27.1599 14.2005 27.1457 14.203C27.0497 14.2198 27.008 14.2271 26.9004 14.2457C26.8121 14.2612 26.707 14.2879 26.6132 14.3064C26.593 14.3107 26.5721 14.3147 26.5517 14.3192C25.6704 14.4977 24.6313 14.7877 24.0862 15.0054C23.4185 15.2371 22.766 15.5026 22.1318 15.801C21.947 15.8658 21.6805 15.9954 21.2089 16.248C20.1106 16.8362 19.1358 17.4765 18.2768 18.1751C17.7776 18.581 17.5075 18.9147 17.3923 19.2698C17.297 19.5637 17.2885 20.0999 17.3737 20.4055C17.4162 20.5582 17.7911 21.3568 18.2069 22.1805C18.9557 23.6637 18.9653 23.681 19.2871 24.0016C19.6762 24.3895 19.9934 24.5478 20.4459 24.575L20.7382 24.5921L21.1766 25.6073C21.4178 26.1658 21.798 27.0403 22.0209 27.5498C22.2438 28.0593 22.4655 28.5744 22.514 28.6949C22.5624 28.8155 22.7382 29.2242 22.9045 29.6025C23.0709 29.9807 23.4484 30.8483 23.7429 31.5304C24.0374 32.2124 24.391 33.0259 24.5291 33.3387C24.6672 33.6513 24.8515 34.0815 24.9393 34.2941C25.027 34.507 25.1259 34.7307 25.1589 34.7915C25.1919 34.8526 25.2534 34.9913 25.2948 35.1C25.3872 35.3427 25.9952 36.706 26.6963 38.2645C26.7398 38.4174 26.8095 38.6041 26.9356 38.8883C27.1029 39.2655 27.2566 39.6187 27.2766 39.6737C27.2968 39.7286 27.4728 40.137 27.6671 40.5812C27.8614 41.0254 28.0552 41.4824 28.0987 41.5965C28.1421 41.7105 28.1865 41.8137 28.1978 41.8238C28.2157 41.8417 28.6965 42.9425 29.3506 44.4636C29.6074 45.0606 29.7965 45.3242 30.0873 45.4916C30.3394 45.6375 30.7764 45.6342 31.0726 45.4849V45.4876C31.1975 45.4248 31.3268 45.3489 31.3606 45.3184C31.4269 45.2591 31.77 44.5426 32.0972 43.7801C32.21 43.5173 32.354 43.1856 32.4177 43.0426C32.4814 42.8999 32.5732 42.6844 32.6211 42.5632C32.6691 42.4421 32.8211 42.0877 32.9595 41.7753C33.3516 40.8911 34.1965 38.9479 34.2944 38.7048C34.3428 38.5842 34.5825 38.0255 34.8276 37.4631C35.6498 35.5763 39.9653 25.6058 39.9653 25.6058L40.4029 24.5863L40.6174 24.5836C40.7354 24.5819 40.9812 24.5292 41.1626 24.4674C41.4281 24.3769 41.5498 24.3032 41.789 24.0896C42.1216 23.7928 42.0551 23.9069 43.1384 21.7635C43.7829 20.4883 43.8027 20.4397 43.8289 20.0244C43.8645 19.4598 43.6606 18.9093 43.2717 18.5204C42.3514 17.5999 39.6775 15.979 38.063 15.3625C36.71 14.8459 35.8646 14.5875 34.7439 14.3499C33.4115 14.0672 32.068 13.92 30.7315 13.9084ZM30.464 14.7698C31.8149 14.7707 33.286 14.8911 34.1199 15.0895C34.2049 15.1097 34.4675 15.1643 34.7027 15.2108C34.938 15.257 35.1875 15.3154 35.2573 15.339C35.3272 15.3632 35.5316 15.4205 35.7111 15.4664C36.1601 15.5809 37.3345 15.9838 37.7818 16.1774C37.9848 16.2654 38.1924 16.3516 38.2432 16.3654C38.6416 16.4848 40.468 17.4972 41.1753 17.9908C41.4408 18.176 41.6738 18.3327 41.6923 18.336C41.7846 18.3578 42.7128 19.1231 42.8033 19.2522C43.075 19.6392 43.0384 20.1328 42.6913 20.7741C42.6122 20.9204 42.317 21.5006 42.035 22.0637C41.4582 23.2152 41.2628 23.4928 40.9172 23.6472C40.7989 23.7002 40.6225 23.7414 40.525 23.7395C40.2628 23.7344 39.8625 23.5778 39.7003 23.4165C39.3888 23.1065 38.5081 22.4482 37.9091 22.0774C36.4385 21.167 34.8112 20.5166 33.3226 20.2443C33.1321 20.2093 32.9128 20.1691 32.8346 20.152C31.7242 19.9294 29.471 19.9177 28.4139 20.1288C27.6569 20.2803 27.2242 20.3727 26.9628 20.4416C26.6734 20.5177 25.6359 20.8623 25.6057 20.8928C25.5976 20.9009 25.4497 20.9608 25.2767 21.0253C24.8175 21.1964 23.7812 21.7199 23.4026 21.9722C23.2223 22.0924 23.0135 22.2226 22.9394 22.261C22.7663 22.3511 22.3479 22.6667 21.7276 23.1737C21.3124 23.513 21.1905 23.5898 20.9534 23.6608C20.4013 23.8261 19.9217 23.5986 19.6143 23.0267C19.5355 22.88 19.0594 21.9388 18.7229 21.2714C18.576 20.9742 18.4226 20.7066 18.3034 20.4109C18.1603 20.1193 18.1394 19.9333 18.2145 19.6178C18.2959 19.276 18.4145 19.1406 19.0255 18.688C19.3191 18.4706 19.5541 18.2994 19.7775 18.1402C20.233 17.8251 20.6977 17.5287 21.1628 17.2643C22.1856 16.6829 23.5933 16.0625 24.7084 15.6825C24.9803 15.5941 25.2569 15.5083 25.5425 15.4312C25.6101 15.4142 25.6762 15.3985 25.7382 15.3851C25.7884 15.3741 25.9485 15.3343 26.0783 15.3022C26.68 15.1585 27.2943 15.0354 27.9105 14.9484C27.9995 14.9365 28.0964 14.9259 28.1917 14.9142C28.5242 14.8723 28.8559 14.833 29.1813 14.81C29.5768 14.782 30.0137 14.7695 30.464 14.7698ZM30.8887 20.8416C31.1321 20.8425 31.3403 20.8497 31.4801 20.8648C32.6779 20.9941 32.8885 21.0263 33.555 21.1836C34.136 21.3207 35.2493 21.688 35.6521 21.8758C35.8315 21.9593 36.0578 22.0603 36.1555 22.0997C36.6696 22.3067 37.9342 23.1005 38.562 23.6106C38.8512 23.8456 39.3363 24.2181 39.473 24.3105C39.7203 24.4778 39.5561 24.7331 39.3542 25.065C39.3038 25.1479 31.121 43.9214 31.0956 43.9487C31.0801 43.9642 31.0482 44.0391 31.0246 44.1145C31.0008 44.1897 30.9291 44.3544 30.8656 44.4811C30.7385 44.7362 30.6126 44.8113 30.4555 44.7298C30.3755 44.6883 30.1294 44.1728 29.7359 43.224C29.6588 43.0382 29.4829 42.6314 29.3445 42.319C29.231 42.0627 29.1117 41.7853 29.0223 41.5764C27.9645 39.0804 26.6645 36.1366 26.5235 35.8174C26.4143 35.5699 26.2615 35.2152 26.1843 35.0294C24.8038 31.7977 23.7431 29.1844 22.2592 25.9162C22.2338 25.905 22.1246 25.6556 22.0045 25.3812C21.8845 25.107 21.7364 24.7696 21.6755 24.6318C21.5948 24.4488 21.5844 24.3734 21.6362 24.3498C21.6753 24.3325 21.9549 24.1176 22.2575 23.8721C23.2636 23.0559 23.6166 22.8188 24.6127 22.2945C25.7279 21.7075 27.0934 21.2378 28.2566 21.0409C28.3944 21.0177 28.5709 20.9879 28.6497 20.9742C29.1127 20.8947 30.1588 20.839 30.8887 20.8416Z" fill="black"/>
<path d="M30.7315 13.9084C29.9509 13.9017 29.1728 13.9427 28.4011 14.0289V14.0253C28.1485 14.0533 27.9133 14.0836 27.6849 14.1167C27.646 14.1221 27.5241 14.136 27.5097 14.139C27.474 14.1455 27.3082 14.1745 27.1893 14.1954C27.1747 14.1978 27.1599 14.2005 27.1457 14.203C27.0497 14.2198 27.008 14.2271 26.9004 14.2457C26.8121 14.2612 26.707 14.2879 26.6132 14.3064C26.593 14.3107 26.5721 14.3147 26.5517 14.3192C25.6704 14.4977 24.6313 14.7877 24.0862 15.0054C23.4185 15.2371 22.766 15.5026 22.1318 15.801C21.947 15.8658 21.6805 15.9954 21.2089 16.248C20.1106 16.8362 19.1358 17.4765 18.2768 18.1751C17.7776 18.581 17.5075 18.9147 17.3923 19.2698C17.297 19.5637 17.2885 20.0999 17.3737 20.4055C17.4162 20.5582 17.7911 21.3568 18.2069 22.1805C18.9557 23.6637 18.9653 23.681 19.2871 24.0016C19.6762 24.3895 19.9934 24.5478 20.4459 24.575L20.7382 24.5921L21.1766 25.6073C21.4178 26.1658 21.798 27.0403 22.0209 27.5498C22.2438 28.0593 22.4655 28.5744 22.514 28.6949C22.5624 28.8155 22.7382 29.2242 22.9045 29.6025C23.0709 29.9807 23.4484 30.8483 23.7429 31.5304C24.0374 32.2124 24.391 33.0259 24.5291 33.3387C24.6672 33.6513 24.8515 34.0815 24.9393 34.2941C25.027 34.507 25.1259 34.7307 25.1589 34.7915C25.1919 34.8526 25.2534 34.9913 25.2948 35.1C25.3872 35.3427 25.9952 36.706 26.6963 38.2645C26.7398 38.4174 26.8095 38.6041 26.9356 38.8883C27.1029 39.2655 27.2566 39.6187 27.2766 39.6737C27.2968 39.7286 27.4728 40.137 27.6671 40.5812C27.8614 41.0254 28.0552 41.4824 28.0987 41.5965C28.1421 41.7105 28.1865 41.8137 28.1978 41.8238C28.2157 41.8417 28.6965 42.9425 29.3506 44.4636C29.6074 45.0606 29.7965 45.3242 30.0873 45.4916C30.3394 45.6375 30.7764 45.6342 31.0726 45.4849V45.4876C31.1975 45.4248 31.3268 45.3489 31.3606 45.3184C31.4269 45.2591 31.77 44.5426 32.0972 43.7801C32.21 43.5173 32.354 43.1856 32.4177 43.0426C32.4814 42.8999 32.5732 42.6844 32.6211 42.5632C32.6691 42.4421 32.8211 42.0877 32.9595 41.7753C33.3516 40.8911 34.1965 38.9479 34.2944 38.7048C34.3428 38.5842 34.5825 38.0255 34.8276 37.4631C35.6498 35.5763 39.9653 25.6058 39.9653 25.6058L40.4029 24.5863L40.6174 24.5836C40.7354 24.5819 40.9812 24.5292 41.1626 24.4674C41.4281 24.3769 41.5498 24.3032 41.789 24.0896C42.1216 23.7928 42.0551 23.9069 43.1384 21.7635C43.7829 20.4883 43.8027 20.4397 43.8289 20.0244C43.8645 19.4598 43.6606 18.9093 43.2717 18.5204C42.3514 17.5999 39.6775 15.979 38.063 15.3625C36.71 14.8459 35.8646 14.5875 34.7439 14.3499C33.4115 14.0672 32.068 13.92 30.7315 13.9084ZM30.464 14.7698C31.8149 14.7707 33.286 14.8911 34.1199 15.0895C34.2049 15.1097 34.4675 15.1643 34.7027 15.2108C34.938 15.257 35.1875 15.3154 35.2573 15.339C35.3272 15.3632 35.5316 15.4205 35.7111 15.4664C36.1601 15.5809 37.3345 15.9838 37.7818 16.1774C37.9848 16.2654 38.1924 16.3516 38.2432 16.3654C38.6416 16.4848 40.468 17.4972 41.1753 17.9908C41.4408 18.176 41.6738 18.3327 41.6923 18.336C41.7846 18.3578 42.7128 19.1231 42.8033 19.2522C43.075 19.6392 43.0384 20.1328 42.6913 20.7741C42.6122 20.9204 42.317 21.5006 42.035 22.0637C41.4582 23.2152 41.2628 23.4928 40.9172 23.6472C40.7989 23.7002 40.6225 23.7414 40.525 23.7395C40.2628 23.7344 39.8625 23.5778 39.7003 23.4165C39.3888 23.1065 38.5081 22.4482 37.9091 22.0774C36.4385 21.167 34.8112 20.5166 33.3226 20.2443C33.1321 20.2093 32.9128 20.1691 32.8346 20.152C31.7242 19.9294 29.471 19.9177 28.4139 20.1288C27.6569 20.2803 27.2242 20.3727 26.9628 20.4416C26.6734 20.5177 25.6359 20.8623 25.6057 20.8928C25.5976 20.9009 25.4497 20.9608 25.2767 21.0253C24.8175 21.1964 23.7812 21.7199 23.4026 21.9722C23.2223 22.0924 23.0135 22.2226 22.9394 22.261C22.7663 22.3511 22.3479 22.6667 21.7276 23.1737C21.3124 23.513 21.1905 23.5898 20.9534 23.6608C20.4013 23.8261 19.9217 23.5986 19.6143 23.0267C19.5355 22.88 19.0594 21.9388 18.7229 21.2714C18.576 20.9742 18.4226 20.7066 18.3034 20.4109C18.1603 20.1193 18.1394 19.9333 18.2145 19.6178C18.2959 19.276 18.4145 19.1406 19.0255 18.688C19.3191 18.4706 19.5541 18.2994 19.7775 18.1402C20.233 17.8251 20.6977 17.5287 21.1628 17.2643C22.1856 16.6829 23.5933 16.0625 24.7084 15.6825C24.9803 15.5941 25.2569 15.5083 25.5425 15.4312C25.6101 15.4142 25.6762 15.3985 25.7382 15.3851C25.7884 15.3741 25.9485 15.3343 26.0783 15.3022C26.68 15.1585 27.2943 15.0354 27.9105 14.9484C27.9995 14.9365 28.0964 14.9259 28.1917 14.9142C28.5242 14.8723 28.8559 14.833 29.1813 14.81C29.5768 14.782 30.0137 14.7695 30.464 14.7698ZM30.8887 20.8416C31.1321 20.8425 31.3403 20.8497 31.4801 20.8648C32.6779 20.9941 32.8885 21.0263 33.555 21.1836C34.136 21.3207 35.2493 21.688 35.6521 21.8758C35.8315 21.9593 36.0578 22.0603 36.1555 22.0997C36.6696 22.3067 37.9342 23.1005 38.562 23.6106C38.8512 23.8456 39.3363 24.2181 39.473 24.3105C39.7203 24.4778 39.5561 24.7331 39.3542 25.065C39.3038 25.1479 31.121 43.9214 31.0956 43.9487C31.0801 43.9642 31.0482 44.0391 31.0246 44.1145C31.0008 44.1897 30.9291 44.3544 30.8656 44.4811C30.7385 44.7362 30.6126 44.8113 30.4555 44.7298C30.3755 44.6883 30.1294 44.1728 29.7359 43.224C29.6588 43.0382 29.4829 42.6314 29.3445 42.319C29.231 42.0627 29.1117 41.7853 29.0223 41.5764C27.9645 39.0804 26.6645 36.1366 26.5235 35.8174C26.4143 35.5699 26.2615 35.2152 26.1843 35.0294C24.8038 31.7977 23.7431 29.1844 22.2592 25.9162C22.2338 25.905 22.1246 25.6556 22.0045 25.3812C21.8845 25.107 21.7364 24.7696 21.6755 24.6318C21.5948 24.4488 21.5844 24.3734 21.6362 24.3498C21.6753 24.3325 21.9549 24.1176 22.2575 23.8721C23.2636 23.0559 23.6166 22.8188 24.6127 22.2945C25.7279 21.7075 27.0934 21.2378 28.2566 21.0409C28.3944 21.0177 28.5709 20.9879 28.6497 20.9742C29.1127 20.8947 30.1588 20.839 30.8887 20.8416Z" fill="black"/>
<path d="M30.7315 13.9084C29.9509 13.9017 29.1728 13.9427 28.4011 14.0289V14.0253C28.1485 14.0533 27.9133 14.0836 27.6849 14.1167C27.646 14.1221 27.5241 14.136 27.5097 14.139C27.474 14.1455 27.3082 14.1745 27.1893 14.1954C27.1747 14.1978 27.1599 14.2005 27.1457 14.203C27.0497 14.2198 27.008 14.2271 26.9004 14.2457C26.8121 14.2612 26.707 14.2879 26.6132 14.3064C26.593 14.3107 26.5721 14.3147 26.5517 14.3192C25.6704 14.4977 24.6313 14.7877 24.0862 15.0054C23.4185 15.2371 22.766 15.5026 22.1318 15.801C21.947 15.8658 21.6805 15.9954 21.2089 16.248C20.1106 16.8362 19.1358 17.4765 18.2768 18.1751C17.7776 18.581 17.5075 18.9147 17.3923 19.2698C17.297 19.5637 17.2885 20.0999 17.3737 20.4055C17.4162 20.5582 17.7911 21.3568 18.2069 22.1805C18.9557 23.6637 18.9653 23.681 19.2871 24.0016C19.6762 24.3895 19.9934 24.5478 20.4459 24.575L20.7382 24.5921L21.1766 25.6073C21.4178 26.1658 21.798 27.0403 22.0209 27.5498C22.2438 28.0593 22.4655 28.5744 22.514 28.6949C22.5624 28.8155 22.7382 29.2242 22.9045 29.6025C23.0709 29.9807 23.4484 30.8483 23.7429 31.5304C24.0374 32.2124 24.391 33.0259 24.5291 33.3387C24.6672 33.6513 24.8515 34.0815 24.9393 34.2941C25.027 34.507 25.1259 34.7307 25.1589 34.7915C25.1919 34.8526 25.2534 34.9913 25.2948 35.1C25.3872 35.3427 25.9952 36.706 26.6963 38.2645C26.7398 38.4174 26.8095 38.6041 26.9356 38.8883C27.1029 39.2655 27.2566 39.6187 27.2766 39.6737C27.2968 39.7286 27.4728 40.137 27.6671 40.5812C27.8614 41.0254 28.0552 41.4824 28.0987 41.5965C28.1421 41.7105 28.1865 41.8137 28.1978 41.8238C28.2157 41.8417 28.6965 42.9425 29.3506 44.4636C29.6074 45.0606 29.7965 45.3242 30.0873 45.4916C30.3394 45.6375 30.7764 45.6342 31.0726 45.4849V45.4876C31.1975 45.4248 31.3268 45.3489 31.3606 45.3184C31.4269 45.2591 31.77 44.5426 32.0972 43.7801C32.21 43.5173 32.354 43.1856 32.4177 43.0426C32.4814 42.8999 32.5732 42.6844 32.6211 42.5632C32.6691 42.4421 32.8211 42.0877 32.9595 41.7753C33.3516 40.8911 34.1965 38.9479 34.2944 38.7048C34.3428 38.5842 34.5825 38.0255 34.8276 37.4631C35.6498 35.5763 39.9653 25.6058 39.9653 25.6058L40.4029 24.5863L40.6174 24.5836C40.7354 24.5819 40.9812 24.5292 41.1626 24.4674C41.4281 24.3769 41.5498 24.3032 41.789 24.0896C42.1216 23.7928 42.0551 23.9069 43.1384 21.7635C43.7829 20.4883 43.8027 20.4397 43.8289 20.0244C43.8645 19.4598 43.6606 18.9093 43.2717 18.5204C42.3514 17.5999 39.6775 15.979 38.063 15.3625C36.71 14.8459 35.8646 14.5875 34.7439 14.3499C33.4115 14.0672 32.068 13.92 30.7315 13.9084ZM30.464 14.7698C31.8149 14.7707 33.286 14.8911 34.1199 15.0895C34.2049 15.1097 34.4675 15.1643 34.7027 15.2108C34.938 15.257 35.1875 15.3154 35.2573 15.339C35.3272 15.3632 35.5316 15.4205 35.7111 15.4664C36.1601 15.5809 37.3345 15.9838 37.7818 16.1774C37.9848 16.2654 38.1924 16.3516 38.2432 16.3654C38.6416 16.4848 40.468 17.4972 41.1753 17.9908C41.4408 18.176 41.6738 18.3327 41.6923 18.336C41.7846 18.3578 42.7128 19.1231 42.8033 19.2522C43.075 19.6392 43.0384 20.1328 42.6913 20.7741C42.6122 20.9204 42.317 21.5006 42.035 22.0637C41.4582 23.2152 41.2628 23.4928 40.9172 23.6472C40.7989 23.7002 40.6225 23.7414 40.525 23.7395C40.2628 23.7344 39.8625 23.5778 39.7003 23.4165C39.3888 23.1065 38.5081 22.4482 37.9091 22.0774C36.4385 21.167 34.8112 20.5166 33.3226 20.2443C33.1321 20.2093 32.9128 20.1691 32.8346 20.152C31.7242 19.9294 29.471 19.9177 28.4139 20.1288C27.6569 20.2803 27.2242 20.3727 26.9628 20.4416C26.6734 20.5177 25.6359 20.8623 25.6057 20.8928C25.5976 20.9009 25.4497 20.9608 25.2767 21.0253C24.8175 21.1964 23.7812 21.7199 23.4026 21.9722C23.2223 22.0924 23.0135 22.2226 22.9394 22.261C22.7663 22.3511 22.3479 22.6667 21.7276 23.1737C21.3124 23.513 21.1905 23.5898 20.9534 23.6608C20.4013 23.8261 19.9217 23.5986 19.6143 23.0267C19.5355 22.88 19.0594 21.9388 18.7229 21.2714C18.576 20.9742 18.4226 20.7066 18.3034 20.4109C18.1603 20.1193 18.1394 19.9333 18.2145 19.6178C18.2959 19.276 18.4145 19.1406 19.0255 18.688C19.3191 18.4706 19.5541 18.2994 19.7775 18.1402C20.233 17.8251 20.6977 17.5287 21.1628 17.2643C22.1856 16.6829 23.5933 16.0625 24.7084 15.6825C24.9803 15.5941 25.2569 15.5083 25.5425 15.4312C25.6101 15.4142 25.6762 15.3985 25.7382 15.3851C25.7884 15.3741 25.9485 15.3343 26.0783 15.3022C26.68 15.1585 27.2943 15.0354 27.9105 14.9484C27.9995 14.9365 28.0964 14.9259 28.1917 14.9142C28.5242 14.8723 28.8559 14.833 29.1813 14.81C29.5768 14.782 30.0137 14.7695 30.464 14.7698ZM30.8887 20.8416C31.1321 20.8425 31.3403 20.8497 31.4801 20.8648C32.6779 20.9941 32.8885 21.0263 33.555 21.1836C34.136 21.3207 35.2493 21.688 35.6521 21.8758C35.8315 21.9593 36.0578 22.0603 36.1555 22.0997C36.6696 22.3067 37.9342 23.1005 38.562 23.6106C38.8512 23.8456 39.3363 24.2181 39.473 24.3105C39.7203 24.4778 39.5561 24.7331 39.3542 25.065C39.3038 25.1479 31.121 43.9214 31.0956 43.9487C31.0801 43.9642 31.0482 44.0391 31.0246 44.1145C31.0008 44.1897 30.9291 44.3544 30.8656 44.4811C30.7385 44.7362 30.6126 44.8113 30.4555 44.7298C30.3755 44.6883 30.1294 44.1728 29.7359 43.224C29.6588 43.0382 29.4829 42.6314 29.3445 42.319C29.231 42.0627 29.1117 41.7853 29.0223 41.5764C27.9645 39.0804 26.6645 36.1366 26.5235 35.8174C26.4143 35.5699 26.2615 35.2152 26.1843 35.0294C24.8038 31.7977 23.7431 29.1844 22.2592 25.9162C22.2338 25.905 22.1246 25.6556 22.0045 25.3812C21.8845 25.107 21.7364 24.7696 21.6755 24.6318C21.5948 24.4488 21.5844 24.3734 21.6362 24.3498C21.6753 24.3325 21.9549 24.1176 22.2575 23.8721C23.2636 23.0559 23.6166 22.8188 24.6127 22.2945C25.7279 21.7075 27.0934 21.2378 28.2566 21.0409C28.3944 21.0177 28.5709 20.9879 28.6497 20.9742C29.1127 20.8947 30.1588 20.839 30.8887 20.8416Z" fill="black"/>
</g>
<defs>
<clipPath id="clip0_304_78">
<rect width="61" height="61" fill="white"/>
</clipPath>
</defs>
</svg>
