<?xml version="1.0" encoding="UTF-8" standalone="no"?>
<!-- Created with Inkscape (http://www.inkscape.org/) -->

<svg
   width="8.0346184mm"
   height="8.0335493mm"
   viewBox="0 0 8.0346184 8.0335492"
   version="1.1"
   id="svg1"
   xml:space="preserve"
   inkscape:version="1.4 (86a8ad7, 2024-10-11)"
   sodipodi:docname="gear.svg"
   xmlns:inkscape="http://www.inkscape.org/namespaces/inkscape"
   xmlns:sodipodi="http://sodipodi.sourceforge.net/DTD/sodipodi-0.dtd"
   xmlns="http://www.w3.org/2000/svg"
   xmlns:svg="http://www.w3.org/2000/svg"><sodipodi:namedview
     id="namedview1"
     pagecolor="#ffffff"
     bordercolor="#000000"
     borderopacity="0.25"
     inkscape:showpageshadow="2"
     inkscape:pageopacity="0.0"
     inkscape:pagecheckerboard="0"
     inkscape:deskcolor="#d1d1d1"
     inkscape:document-units="mm"
     inkscape:zoom="2.0334082"
     inkscape:cx="62.456718"
     inkscape:cy="97.619358"
     inkscape:window-width="1920"
     inkscape:window-height="1009"
     inkscape:window-x="-8"
     inkscape:window-y="-8"
     inkscape:window-maximized="1"
     inkscape:current-layer="layer1" /><defs
     id="defs1" /><g
     inkscape:label="Layer 1"
     inkscape:groupmode="layer"
     id="layer1"
     transform="translate(-87.508619,-97.306668)"><g
       style="fill:#000000"
       id="g1"
       transform="matrix(0.53464322,0,0,0.53464322,86.981461,96.20156)"><path
         d="m 16.014,8.86 v 1.44 a 0.587,0.587 0 0 1 -0.468,0.556 l -1.182,0.204 a 0.463,0.463 0 0 1 -0.114,0.006 5.902,5.902 0 0 1 -0.634,1.528 0.455,0.455 0 0 1 0.078,0.084 l 0.691,0.98 a 0.586,0.586 0 0 1 -0.062,0.725 l -1.02,1.02 a 0.586,0.586 0 0 1 -0.724,0.061 l -0.98,-0.69 a 0.444,0.444 0 0 1 -0.085,-0.078 5.908,5.908 0 0 1 -1.544,0.637 0.502,0.502 0 0 1 0,0.175 L 9.788,16.561 A 0.667,0.667 0 0 1 9.155,17.093 H 7.845 A 0.667,0.667 0 0 1 7.212,16.561 L 7.03,15.508 a 0.495,0.495 0 0 1 0,-0.175 5.908,5.908 0 0 1 -1.544,-0.637 0.444,0.444 0 0 1 -0.085,0.077 l -0.98,0.691 A 0.586,0.586 0 0 1 3.696,15.402 l -1.02,-1.02 A 0.586,0.586 0 0 1 2.615,13.659 l 0.691,-0.98 A 0.454,0.454 0 0 1 3.383,12.594 5.901,5.901 0 0 1 2.75,11.066 0.466,0.466 0 0 1 2.636,11.06 L 1.454,10.856 A 0.586,0.586 0 0 1 0.986,10.3 V 8.86 A 0.586,0.586 0 0 1 1.454,8.304 L 2.636,8.1 A 0.437,0.437 0 0 1 2.75,8.095 5.912,5.912 0 0 1 3.383,6.567 0.466,0.466 0 0 1 3.306,6.482 L 2.615,5.502 A 0.587,0.587 0 0 1 2.676,4.778 l 1.02,-1.02 A 0.587,0.587 0 0 1 4.421,3.696 l 0.98,0.691 A 0.444,0.444 0 0 1 5.486,4.465 5.903,5.903 0 0 1 7.014,3.831 0.433,0.433 0 0 1 7.019,3.717 L 7.223,2.535 A 0.586,0.586 0 0 1 7.779,2.067 h 1.442 a 0.586,0.586 0 0 1 0.556,0.468 l 0.204,1.182 a 0.448,0.448 0 0 1 0.005,0.114 5.908,5.908 0 0 1 1.528,0.634 0.444,0.444 0 0 1 0.085,-0.078 l 0.98,-0.691 a 0.586,0.586 0 0 1 0.724,0.062 l 1.02,1.02 a 0.586,0.586 0 0 1 0.062,0.724 l -0.691,0.98 A 0.467,0.467 0 0 1 13.616,6.567 5.902,5.902 0 0 1 14.25,8.095 0.434,0.434 0 0 1 14.364,8.1 l 1.182,0.204 a 0.587,0.587 0 0 1 0.468,0.556 z m -4.955,0.72 a 2.559,2.559 0 1 0 -2.56,2.56 2.559,2.559 0 0 0 2.56,-2.56 z"
         id="path1" /></g><g
       style="fill:#000000"
       id="g3"
       transform="matrix(0.05080607,0,0,0.05080607,94.04082,137.69707)"><g
         id="g2">
	<path
   d="m 419.061,11.643 c -2.223,-2.127 -5.45,-3.139 -9.544,-3.139 -32.927,0 -122.005,65.392 -196.859,141.77 -42.696,43.557 -64.478,74.066 -72.961,96.074 6.455,2.162 13.001,5.199 19.671,9.167 5.219,3.105 10.092,6.77 14.468,10.88 0.006,0.002 0.008,0.004 0.014,0.006 8.528,8.007 14.971,17.444 19.188,27.578 21.773,-9.709 51.271,-32.1 92.405,-74.059 C 369.608,134.048 439.164,30.877 419.061,11.643 Z"
   id="path1-8" />
	<path
   d="m 150.175,266.736 c -11.455,-6.818 -22.257,-10.794 -32.808,-12.057 -2.466,-0.295 -4.918,-0.443 -7.361,-0.443 -8.065,0 -16.189,1.62 -24.149,4.817 -30.825,12.389 -33.835,41.568 -36.491,67.315 -3.306,32.045 -6.979,52.036 -39.43,58.957 -5.942,1.268 -10.125,6.608 -9.93,12.682 0.195,6.074 4.711,11.136 10.723,12.02 18.16,2.67 35.401,4.023 51.246,4.024 0.004,0 0.007,0 0.011,0 34.558,0 63.052,-6.296 84.689,-18.712 19.855,-11.393 33.144,-27.572 38.43,-46.788 2.911,-10.582 3.135,-21.488 1.005,-31.951 -4.085,-20.066 -16.834,-38.497 -35.935,-49.864 z"
   id="path2" />
</g></g></g></svg>
