<?xml version="1.0" encoding="UTF-8" standalone="no"?>
<!-- Created with Inkscape (http://www.inkscape.org/) -->

<svg
   width="13.929167mm"
   height="13.929167mm"
   viewBox="0 0 13.929167 13.929167"
   version="1.1"
   id="svg1"
   inkscape:version="1.4 (86a8ad7, 2024-10-11)"
   sodipodi:docname="logo.svg"
   xml:space="preserve"
   xmlns:inkscape="http://www.inkscape.org/namespaces/inkscape"
   xmlns:sodipodi="http://sodipodi.sourceforge.net/DTD/sodipodi-0.dtd"
   xmlns="http://www.w3.org/2000/svg"
   xmlns:svg="http://www.w3.org/2000/svg"><sodipodi:namedview
     id="namedview1"
     pagecolor="#ffffff"
     bordercolor="#000000"
     borderopacity="0.25"
     inkscape:showpageshadow="2"
     inkscape:pageopacity="0.0"
     inkscape:pagecheckerboard="0"
     inkscape:deskcolor="#d1d1d1"
     inkscape:document-units="mm"
     inkscape:zoom="5.0251776"
     inkscape:cx="0.99498971"
     inkscape:cy="29.153198"
     inkscape:window-width="1920"
     inkscape:window-height="1009"
     inkscape:window-x="-8"
     inkscape:window-y="-8"
     inkscape:window-maximized="1"
     inkscape:current-layer="layer1-1"
     showguides="true" /><defs
     id="defs1"><linearGradient
       id="swatch1"
       inkscape:swatch="solid"><stop
         style="stop-color:#000000;stop-opacity:1;"
         offset="0"
         id="stop1" /></linearGradient></defs><g
     inkscape:label="Layer 1"
     inkscape:groupmode="layer"
     id="layer1"
     transform="translate(-188.84549,-334.45483)"><g
       inkscape:label="Layer 1"
       id="layer1-1"
       transform="translate(74.838245,117.76729)"><rect
         style="opacity:1;fill:none;stroke:#1a1a1a;stroke-width:0.7;stroke-linecap:round;stroke-dasharray:none;paint-order:fill markers stroke"
         id="rect2"
         width="13.229167"
         height="13.229167"
         x="114.35725"
         y="217.03754"
         ry="0.63255113" /><path
         style="font-weight:800;font-size:4.79576px;font-family:SUSE;-inkscape-font-specification:'SUSE Ultra-Bold';stroke:#1a1a1a;stroke-width:0;stroke-linecap:round;paint-order:fill markers stroke"
         d="m 117.90301,225.33064 v -3.35703 h 1.32363 q 0.55151,0 0.88242,0.28775 0.3357,0.28295 0.3357,0.81528 0,0.54192 -0.3357,0.82966 -0.33091,0.28775 -0.88242,0.28775 h -0.97354 v -0.63784 h 0.93517 q 0.21102,0 0.3405,-0.12948 0.12949,-0.12949 0.12949,-0.33571 0,-0.20621 -0.12949,-0.3405 -0.12948,-0.13428 -0.3405,-0.13428 h -0.83446 l 0.31652,-0.28774 v 3.00214 z m 1.76964,0 -0.73376,-1.4675 h 0.82487 l 0.78171,1.4675 z m 2.85347,0.0719 q -0.50835,0 -0.9016,-0.22061 -0.38845,-0.2206 -0.60906,-0.60906 -0.2206,-0.39325 -0.2206,-0.9016 v -0.0336 q 0,-0.51315 0.2206,-0.9016 0.2254,-0.39326 0.62345,-0.61386 0.39805,-0.22061 0.91119,-0.22061 0.40285,0 0.71937,0.14388 0.31652,0.13907 0.55631,0.38845 l -0.53713,0.53233 q -0.14867,-0.17744 -0.33091,-0.25417 -0.18224,-0.0815 -0.39325,-0.0815 -0.28774,0 -0.51315,0.12949 -0.2206,0.12948 -0.34529,0.35488 -0.12469,0.2254 -0.12469,0.52274 v 0.0336 q 0,0.29734 0.12469,0.52753 0.12469,0.2254 0.3405,0.35489 0.2206,0.12949 0.49876,0.12949 0.19183,0 0.34529,-0.0624 0.15826,-0.0623 0.26377,-0.17265 0.10551,-0.1103 0.14867,-0.26376 0.0432,-0.15347 0.005,-0.33091 l 0.33091,0.20142 h -1.03588 v -0.62345 h 1.4675 q 0.0576,0.4508 -0.0288,0.81528 -0.0815,0.35968 -0.28775,0.61865 -0.20622,0.25898 -0.51794,0.39805 -0.31173,0.13908 -0.70978,0.13908 z"
         id="text2"
         aria-label="RG" /></g></g></svg>
