<?xml version="1.0" encoding="UTF-8" standalone="no"?>
<!-- Created with Inkscape (http://www.inkscape.org/) -->

<svg
   width="23.8125mm"
   height="23.8125mm"
   viewBox="0 0 23.8125 23.812501"
   version="1.1"
   id="svg1"
   xml:space="preserve"
   inkscape:export-filename="phone.svg"
   inkscape:export-xdpi="96"
   inkscape:export-ydpi="96"
   inkscape:version="1.4 (86a8ad7, 2024-10-11)"
   sodipodi:docname="cms.svg"
   xmlns:inkscape="http://www.inkscape.org/namespaces/inkscape"
   xmlns:sodipodi="http://sodipodi.sourceforge.net/DTD/sodipodi-0.dtd"
   xmlns="http://www.w3.org/2000/svg"
   xmlns:svg="http://www.w3.org/2000/svg"><sodipodi:namedview
     id="namedview1"
     pagecolor="#000000"
     bordercolor="#000000"
     borderopacity="1"
     inkscape:showpageshadow="2"
     inkscape:pageopacity="0.0"
     inkscape:pagecheckerboard="0"
     inkscape:deskcolor="#d1d1d1"
     inkscape:document-units="px"
     showborder="false"
     inkscape:zoom="2.9540685"
     inkscape:cx="127.6206"
     inkscape:cy="152.84006"
     inkscape:window-width="1920"
     inkscape:window-height="1009"
     inkscape:window-x="-8"
     inkscape:window-y="-8"
     inkscape:window-maximized="1"
     inkscape:current-layer="g136"><inkscape:page
       x="0"
       y="0"
       width="23.8125"
       height="23.812502"
       id="page2"
       margin="0"
       bleed="0" /></sodipodi:namedview><defs
     id="defs1"><style
       id="style1">
      .cls-1 {
        fill: #0678be;
      }

      .cls-2 {
        fill: none;
      }
    </style><style
       id="style1-1">
      .cls-1 {
        fill: #0678be;
      }

      .cls-2 {
        fill: none;
      }
    </style></defs><g
     inkscape:label="Layer 1"
     inkscape:groupmode="layer"
     id="layer1"
     transform="translate(-176.56725,-94.631636)"><g
       inkscape:label="Layer 1"
       id="layer1-8"
       transform="translate(28.52184,-50.139464)"><g
         id="g136"><path
           id="rect113-7-8-7"
           style="baseline-shift:baseline;display:inline;overflow:visible;vector-effect:none;fill:#ffffff;enable-background:accumulate;stop-color:#000000;stop-opacity:1"
           d="m 149.63291,144.7711 h 20.6375 c 0.87947,0 1.5875,0.70803 1.5875,1.5875 v 20.6375 c 0,0.87948 -0.70803,1.5875 -1.5875,1.5875 h -20.6375 c -0.87947,0 -1.5875,-0.70802 -1.5875,-1.5875 v -20.6375 c 0,-0.87947 0.70803,-1.5875 1.5875,-1.5875 z" /><path
           id="rect5-3-6-3-5-5-9"
           style="baseline-shift:baseline;display:inline;overflow:visible;vector-effect:none;enable-background:accumulate;stop-color:#000000;stop-opacity:1"
           transform="scale(1,-1)"
           d="m 167.13809,-145.99615 h 0.60554 c 0.10421,0 0.1881,0.0839 0.1881,0.1881 0,0.10421 -0.0839,0.1881 -0.1881,0.1881 h -0.60554 c -0.10421,0 -0.18811,-0.0839 -0.18811,-0.1881 0,-0.10421 0.0839,-0.1881 0.18811,-0.1881 z" /><g
           id="rect1-6-8-0"
           transform="scale(-1,1)"><path
             style="fill:#ffffff;stroke-linecap:round;stroke-linejoin:bevel"
             d="m -155.76336,147.90945 h 2.15708 c 0.35999,0 0.6498,0.28981 0.6498,0.6498 v 5.57677 c 0,0.35999 -0.28981,0.6498 -0.6498,0.6498 h -2.15708 c -0.35999,0 -0.6498,-0.28981 -0.6498,-0.6498 v -5.57677 c 0,-0.35999 0.28981,-0.6498 0.6498,-0.6498 z"
             id="path39" /><path
             style="stroke-linecap:round;stroke-linejoin:bevel"
             d="m -155.76367,147.71094 c -0.46649,0 -0.84766,0.38116 -0.84766,0.84765 v 5.57813 c 0,0.46649 0.38117,0.84765 0.84766,0.84765 h 2.1582 c 0.46649,0 0.84766,-0.38116 0.84766,-0.84765 v -5.57813 c 0,-0.46649 -0.38117,-0.84765 -0.84766,-0.84765 z m 0,0.39648 h 2.1582 c 0.25349,0 0.45117,0.19769 0.45117,0.45117 v 5.57813 c 0,0.25348 -0.19768,0.45117 -0.45117,0.45117 h -2.1582 c -0.25349,0 -0.45117,-0.19769 -0.45117,-0.45117 v -5.57813 c 0,-0.25348 0.19768,-0.45117 0.45117,-0.45117 z"
             id="path40" /></g><path
           id="rect5-3-0-0"
           style="baseline-shift:baseline;display:inline;overflow:visible;vector-effect:none;enable-background:accumulate;stop-color:#000000;stop-opacity:1"
           transform="scale(-1,1)"
           d="m -155.03917,148.31439 h 0.70871 c 0.0915,0 0.16523,0.0737 0.16523,0.16523 0,0.0915 -0.0737,0.16524 -0.16523,0.16524 h -0.70871 c -0.0915,0 -0.16524,-0.0737 -0.16524,-0.16524 0,-0.0915 0.0737,-0.16523 0.16524,-0.16523 z" /><path
           id="rect5-3-6-8-6"
           style="baseline-shift:baseline;display:inline;overflow:visible;vector-effect:none;enable-background:accumulate;stop-color:#000000;stop-opacity:1"
           transform="matrix(0,-1,-1,0,0,0)"
           d="m -150.33641,-156.71274 h 0.61333 c 0.0544,0 0.0983,0.0438 0.0983,0.0983 0,0.0545 -0.0438,0.0983 -0.0983,0.0983 h -0.61333 c -0.0544,0 -0.0983,-0.0438 -0.0983,-0.0983 0,-0.0544 0.0438,-0.0983 0.0983,-0.0983 z" /><path
           id="rect5-3-6-3-8-1"
           style="baseline-shift:baseline;display:inline;overflow:visible;vector-effect:none;enable-background:accumulate;stop-color:#000000;stop-opacity:1"
           transform="matrix(0,-1,-1,0,0,0)"
           d="m -149.86857,-152.85158 h 0.61332 c 0.0544,0 0.0983,0.0438 0.0983,0.0983 0,0.0545 -0.0438,0.0983 -0.0983,0.0983 h -0.61332 c -0.0544,0 -0.0983,-0.0438 -0.0983,-0.0983 0,-0.0544 0.0438,-0.0983 0.0983,-0.0983 z" /><path
           id="rect5-3-6-3-4-0-3"
           style="baseline-shift:baseline;display:inline;overflow:visible;vector-effect:none;enable-background:accumulate;stop-color:#000000;stop-opacity:1"
           transform="matrix(0,-1,-1,0,0,0)"
           d="m -150.80311,-152.85158 h 0.61332 c 0.0544,0 0.0983,0.0438 0.0983,0.0983 0,0.0545 -0.0438,0.0983 -0.0983,0.0983 h -0.61332 c -0.0544,0 -0.0983,-0.0438 -0.0983,-0.0983 0,-0.0544 0.0438,-0.0983 0.0983,-0.0983 z" /><g
           id="rect1-6-7-1-8"
           transform="scale(-1,1)"><path
             style="fill:#ffffff;stroke-linecap:round;stroke-linejoin:bevel"
             d="m -167.25575,156.79132 h 14.18099 c 0.28039,0 0.50613,0.22574 0.50613,0.50614 v 9.68888 c 0,0.2804 -0.22574,0.50613 -0.50613,0.50613 h -14.18099 c -0.2804,0 -0.50614,-0.22573 -0.50614,-0.50613 v -9.68888 c 0,-0.2804 0.22574,-0.50614 0.50614,-0.50614 z"
             id="path37" /><path
             style="stroke-linecap:round;stroke-linejoin:bevel"
             d="m -167.25586,156.56055 c -0.40465,0 -0.73828,0.33167 -0.73828,0.73632 v 9.68946 c 0,0.40465 0.33363,0.73828 0.73828,0.73828 h 14.18164 c 0.40465,0 0.73633,-0.33363 0.73633,-0.73828 v -9.68946 c 0,-0.40465 -0.33168,-0.73632 -0.73633,-0.73632 z m 0,0.46289 h 14.18164 c 0.15615,0 0.27344,0.11729 0.27344,0.27343 v 9.68946 c 0,0.15614 -0.11729,0.27539 -0.27344,0.27539 h -14.18164 c -0.15615,0 -0.27539,-0.11925 -0.27539,-0.27539 v -9.68946 c 0,-0.15614 0.11924,-0.27343 0.27539,-0.27343 z"
             id="path38" /></g><g
           id="rect1-6-7-1-6-9"
           transform="scale(-1,1)"><path
             style="fill:#ffffff;stroke-linecap:round;stroke-linejoin:bevel"
             d="m -168.27101,145.97432 h 6.40874 c 0.24591,0 0.44388,0.19797 0.44388,0.44388 v 8.49709 c 0,0.2459 -0.19797,0.44387 -0.44388,0.44387 h -6.40874 c -0.24591,0 -0.44388,-0.19797 -0.44388,-0.44387 v -8.49709 c 0,-0.24591 0.19797,-0.44388 0.44388,-0.44388 z"
             id="path35" /><path
             style="stroke-linecap:round;stroke-linejoin:bevel"
             d="m -168.27148,145.76172 c -0.35972,0 -0.65625,0.29653 -0.65625,0.65625 v 8.49805 c 0,0.35971 0.29653,0.65429 0.65625,0.65429 h 6.41015 c 0.35972,0 0.6543,-0.29458 0.6543,-0.65429 v -8.49805 c 0,-0.35972 -0.29458,-0.65625 -0.6543,-0.65625 z m 0,0.42383 h 6.41015 c 0.1321,0 0.23047,0.10032 0.23047,0.23242 v 8.49805 c 0,0.1321 -0.0984,0.23046 -0.23047,0.23046 h -6.41015 c -0.13211,0 -0.23047,-0.0984 -0.23047,-0.23046 v -8.49805 c 0,-0.1321 0.0984,-0.23242 0.23047,-0.23242 z"
             id="path36" /></g><path
           id="rect2-3"
           style="baseline-shift:baseline;display:inline;overflow:visible;vector-effect:none;enable-background:accumulate;stop-color:#000000;stop-opacity:1"
           d="m 152.80309,164.63553 h 14.72432 c 0.12826,0 0.23151,0.10325 0.23151,0.23151 0,0.12826 -0.10325,0.23151 -0.23151,0.23151 h -14.72432 c -0.12826,0 -0.23151,-0.10325 -0.23151,-0.23151 0,-0.12826 0.10325,-0.23151 0.23151,-0.23151 z" /><path
           id="path3-4"
           style="baseline-shift:baseline;display:inline;overflow:visible;vector-effect:none;stroke-linecap:round;paint-order:fill markers stroke;enable-background:accumulate;stop-color:#000000;stop-opacity:1"
           d="m 160.4882,166.08592 a 0.32294425,0.32294425 0 0 1 -0.32295,0.32295 0.32294425,0.32294425 0 0 1 -0.32294,-0.32295 0.32294425,0.32294425 0 0 1 0.32294,-0.32294 0.32294425,0.32294425 0 0 1 0.32295,0.32294 z" /></g></g></g></svg>
