<?xml version="1.0" encoding="UTF-8" standalone="no"?>
<!-- Created with Inkscape (http://www.inkscape.org/) -->

<svg
   width="20.305475mm"
   height="31.779114mm"
   viewBox="0 0 20.305475 31.779113"
   version="1.1"
   id="svg1"
   xml:space="preserve"
   inkscape:version="1.4 (86a8ad7, 2024-10-11)"
   sodipodi:docname="seo.svg"
   xmlns:inkscape="http://www.inkscape.org/namespaces/inkscape"
   xmlns:sodipodi="http://sodipodi.sourceforge.net/DTD/sodipodi-0.dtd"
   xmlns="http://www.w3.org/2000/svg"
   xmlns:svg="http://www.w3.org/2000/svg"><sodipodi:namedview
     id="namedview1"
     pagecolor="#ffffff"
     bordercolor="#000000"
     borderopacity="0.25"
     inkscape:showpageshadow="2"
     inkscape:pageopacity="0.0"
     inkscape:pagecheckerboard="0"
     inkscape:deskcolor="#d1d1d1"
     inkscape:document-units="mm"
     inkscape:zoom="1.4378367"
     inkscape:cx="95.28203"
     inkscape:cy="99.802711"
     inkscape:window-width="1920"
     inkscape:window-height="1009"
     inkscape:window-x="-8"
     inkscape:window-y="-8"
     inkscape:window-maximized="1"
     inkscape:current-layer="layer1" /><defs
     id="defs1" /><g
     inkscape:label="Layer 1"
     inkscape:groupmode="layer"
     id="layer1"
     transform="translate(-94.632033,-70.169673)"><g
       id="g1"
       transform="matrix(0.30155236,0,0,0.30155236,73.186676,60.107866)"><path
         style="fill:#000000"
         d="M 100.76831,132.34158 C 84.764371,105.90127 73.749373,83.03566 71.55131,71.69116 70.640824,66.99201 71.187548,60.75335 72.93634,55.88663 77.00754,44.55685 86.403811,36.41534 98.236871,33.9647 c 5.448139,-1.12831 12.477099,-0.6318 17.718439,1.2516 13.40923,4.81843 22.41421,17.35316 22.49713,31.31549 0.0212,3.57503 -0.54256,6.4476 -2.32714,11.85691 -4.13346,12.52911 -14.41248,32.73552 -28.11852,55.27514 -1.70143,2.798 -3.15303,5.08757 -3.22579,5.08792 -0.0728,3.6e-4 -1.87847,-2.88422 -4.01268,-6.41018 z m 10.59091,-40.6538 c 2.92765,-0.85381 4.9596,-1.77713 7.3877,-3.35696 5.02775,-3.27128 8.68552,-8.2226 10.54879,-14.27929 0.67421,-2.19159 0.72613,-2.69147 0.72613,-6.99058 0,-4.28362 -0.0536,-4.80426 -0.71596,-6.95545 -2.68545,-8.72163 -8.85764,-14.8935 -17.56751,-17.56659 -2.1264,-0.6526 -2.71522,-0.71557 -6.82509,-0.72994 -3.50585,-0.0123 -4.86715,0.0863 -6.171959,0.44705 -9.57113,2.64584 -16.124309,9.19927 -18.764535,18.76526 -0.353165,1.27958 -0.462211,2.70274 -0.462772,6.03967 -6.3e-4,3.75222 0.08347,4.65618 0.598535,6.43352 0.880976,3.03997 1.798037,5.0725 3.398564,7.53241 3.669448,5.6397 9.309418,9.46637 16.272688,11.04087 2.553339,0.57735 9.020769,0.36505 11.575419,-0.37997 z"
         id="path1" /><text
         xml:space="preserve"
         style="font-weight:bold;font-size:14.1111px;font-family:'Ananda Black Personal Use';-inkscape-font-specification:'Ananda Black Personal Use Bold';text-align:start;writing-mode:lr-tb;direction:ltr;text-anchor:start;fill:#000000;stroke-width:1.00012"
         x="91.434654"
         y="69.494476"
         id="text1"><tspan
           sodipodi:role="line"
           id="tspan1"
           x="91.434654"
           y="69.494476"
           style="font-style:normal;font-variant:normal;font-weight:bold;font-stretch:normal;font-size:14.1111px;font-family:suse;-inkscape-font-specification:'suse Bold';stroke-width:1.00012">SEO</tspan></text></g></g></svg>
