<?xml version="1.0" encoding="UTF-8" standalone="no"?>
<!-- Created with Inkscape (http://www.inkscape.org/) -->

<svg
   width="137.77571"
   height="24.72282"
   viewBox="0 0 36.453155 6.5412464"
   version="1.1"
   id="svg1"
   sodipodi:docname="logo.svg"
   inkscape:version="1.4 (86a8ad7, 2024-10-11)"
   xmlns:inkscape="http://www.inkscape.org/namespaces/inkscape"
   xmlns:sodipodi="http://sodipodi.sourceforge.net/DTD/sodipodi-0.dtd"
   xmlns="http://www.w3.org/2000/svg"
   xmlns:svg="http://www.w3.org/2000/svg">
  <sodipodi:namedview
     id="namedview1"
     pagecolor="#ffffff"
     bordercolor="#000000"
     borderopacity="0.25"
     inkscape:showpageshadow="2"
     inkscape:pageopacity="0.0"
     inkscape:pagecheckerboard="0"
     inkscape:deskcolor="#d1d1d1"
     inkscape:document-units="mm"
     showguides="false"
     inkscape:zoom="2.8756734"
     inkscape:cx="91.282967"
     inkscape:cy="46.423909"
     inkscape:window-width="1920"
     inkscape:window-height="1009"
     inkscape:window-x="-8"
     inkscape:window-y="-8"
     inkscape:window-maximized="1"
     inkscape:current-layer="layer1" />
  <defs
     id="defs1" />
  <g
     inkscape:label="Layer 1"
     inkscape:groupmode="layer"
     id="layer1"
     transform="translate(-1.6171719,-3.3439603)">
    <g
       id="text1"
       style="font-weight:600;font-size:4.90557px;font-family:SUSE;-inkscape-font-specification:'SUSE Semi-Bold';stroke-width:1.54525"
       aria-label="Ruben Gutierrez.">
      <path
         style="font-weight:bold;font-family:'Ananda Black Personal Use';-inkscape-font-specification:'Ananda Black Personal Use Bold'"
         d="m 4.5850417,3.8758832 q 0.024528,-0.034339 0.1226393,-0.00981 0.098111,0.024528 0.1962228,0.093206 0.103017,0.063772 0.171695,0.1569782 0.068678,0.093206 0.034339,0.1864117 Q 4.8940927,4.562663 4.6831531,4.8766195 4.4771192,5.1905759 4.2759908,5.5290603 4.079768,5.8675446 3.8982619,6.2256512 3.7216614,6.5788523 3.5695888,6.9222422 h 0.019622 q 0.024528,0 0.049056,0 0.029434,0 0.058867,-0.00491 0.034339,-0.014717 0.083395,-0.00491 Q 4.0307123,6.8829976 4.3005187,6.7848862 4.570325,6.6867748 4.8303202,6.5297966 5.0903155,6.3728183 5.3208773,6.1716899 5.5563446,5.965656 5.7329451,5.7252831 5.9095457,5.4800046 6.0174682,5.2101982 6.1302963,4.9403919 6.145013,4.6558688 q 0,-0.137356 -0.049056,-0.3041453 Q 6.0469016,4.1849341 5.9095457,4.0426726 5.7721897,3.900411 5.5318168,3.8072052 5.2914438,3.7090938 4.9088094,3.7041882 4.5801362,3.7238105 4.2416518,3.9053166 3.9080731,4.0868227 3.5941166,4.3664402 3.2801601,4.6460577 3.0054482,4.9894476 2.7307363,5.3279319 2.5296079,5.6664162 2.3333851,6.0049006 2.220557,6.3090459 2.1126345,6.6082857 2.1273512,6.8045085 2.1322567,6.8879032 2.0537676,6.878092 1.9752785,6.8682809 1.8771671,6.7996029 1.7790557,6.7260194 1.695661,6.6082857 1.6171719,6.4856464 1.6171719,6.3482905 q 0,-0.024528 0.00491,-0.058867 0.00491,-0.039244 0.019622,-0.078489 h -0.00491 Q 1.7741501,5.7154719 2.0782955,5.2445372 2.3824408,4.7686969 2.8092254,4.3958736 3.23601,4.0181447 3.7658116,3.7826773 4.3005187,3.5423044 4.8891871,3.512871 h -0.00491 q 0.103017,-0.014717 0.2011284,-0.019622 0.098111,-0.00491 0.1962228,-0.00491 0.4022567,0 0.6818742,0.103017 0.2845231,0.103017 0.4611236,0.2698064 0.1766005,0.1618838 0.2550896,0.3728233 0.083395,0.2109395 0.083395,0.4316901 0,0.3433899 -0.1275448,0.6475353 Q 6.5080252,5.6173605 6.2921801,5.8773557 6.076335,6.137351 5.791812,6.3482905 5.5072889,6.55923 5.1933324,6.7162082 4.8842815,6.8682809 4.5654195,6.9663923 4.2465574,7.0645037 3.9571288,7.0939371 q 0.078489,0.1226393 0.1864116,0.2796175 0.1079226,0.1520727 0.240373,0.3139565 0.1373559,0.1618838 0.2943342,0.318862 0.1618838,0.1569783 0.3433899,0.274712 0.1815061,0.1226392 0.3826344,0.1962228 0.2011284,0.073583 0.4218791,0.073583 0.1275448,0 0.2747119,-0.029433 0.034339,0 0.019622,0.068678 -0.00981,0.073583 -0.053961,0.1618838 -0.04415,0.093206 -0.1128281,0.1716949 -0.068678,0.078489 -0.1422615,0.0883 Q 5.5318168,8.9972983 5.2963494,8.908998 5.0657876,8.8206978 4.8695648,8.6784362 4.673342,8.5410803 4.5065526,8.3595742 4.3446688,8.1780681 4.2073129,7.9769397 4.0699569,7.7807169 3.9473176,7.574683 3.829584,7.368649 3.726567,7.1724262 L 3.692228,7.1135594 q -0.024528,0 -0.04415,0 -0.014717,-0.00491 -0.034339,-0.00491 -0.034339,0 -0.063772,0 -0.029433,0 -0.058867,-0.00491 Q 3.304688,7.5501551 3.1771431,7.9426007 3.0545039,8.3350463 3.0152593,8.6293805 3.0054482,8.658814 2.9465814,8.6146638 2.8877145,8.5754193 2.8190365,8.5067413 2.7503586,8.4380633 2.6914917,8.3595742 2.6326249,8.2810851 2.6326249,8.2418405 2.6473416,7.9916564 2.7356418,7.6629832 2.8288477,7.3294045 2.9711092,6.9565812 2.7601697,6.8486586 2.6326249,6.6867748 2.5099856,6.524891 2.4805522,6.3384793 q 0.00491,-0.039245 0.063772,-0.0883 0.058867,-0.049056 0.1667894,-0.098111 0.063772,0.2354673 0.1471671,0.3826344 0.0883,0.1471671 0.1913172,0.2305618 Q 3.2065766,6.3777239 3.3978938,5.9754671 3.5941166,5.5683048 3.8001505,5.1856704 4.0061845,4.8030359 4.2073129,4.4645516 4.4084412,4.1260672 4.5850417,3.8758832 Z m 3.6055967,1.6041214 q 0.058867,-0.029433 0.1520726,0.00491 0.098111,0.029434 0.1864117,0.093206 0.0883,0.058867 0.1422615,0.1471671 0.053961,0.083395 0.024528,0.1667894 -0.014717,0.039244 -0.049056,0.1079225 -0.029433,0.068678 -0.073584,0.1618838 -0.068678,0.1471671 -0.1520726,0.3384843 -0.083395,0.1864117 -0.1569783,0.3728234 -0.073584,0.1864116 -0.1275448,0.353201 -0.049056,0.1667894 -0.049056,0.2747119 0,0.1324504 0.029433,0.1324504 h 0.04415 Q 8.2936553,7.5893997 8.4162946,7.4814771 8.5438394,7.368649 8.6566675,7.2312931 8.7744012,7.0890315 8.8725126,6.9320533 8.9755296,6.7750751 9.0589243,6.6328135 l 0.073584,-0.1275448 q 0.024528,-0.039245 0.073584,-0.049056 0.049056,-0.00981 0.0883,0.00491 0.04415,0.00981 0.063772,0.04415 0.019622,0.034339 -0.00981,0.083395 L 9.2306192,6.7750751 Q 9.0785465,7.0203536 8.8970405,7.2754432 8.7204399,7.5305328 8.4849726,7.7365668 q -0.034339,0.029433 -0.0883,0.068678 -0.053961,0.039245 -0.1275448,0.073584 -0.068678,0.029433 -0.1569782,0.053961 -0.0883,0.019622 -0.1864117,0.019622 -0.1962228,-0.00981 -0.2943342,-0.137356 -0.093206,-0.1275448 -0.093206,-0.3139565 0,-0.083395 0.014717,-0.1667894 -0.0883,0.1128282 -0.1815061,0.2158451 -0.093206,0.103017 -0.1962228,0.1864117 -0.034339,0.029433 -0.0883,0.068678 -0.053961,0.039245 -0.1275448,0.073584 -0.068678,0.029433 -0.1569782,0.053961 -0.0883,0.019622 -0.1864117,0.019622 Q 6.4246332,7.9426007 6.3265218,7.8199615 6.2333159,7.6924167 6.2333159,7.506005 q 0,-0.103017 0.019622,-0.1962228 0.019622,-0.0883 0.053961,-0.2060339 Q 6.3412385,6.981109 6.3853886,6.843753 6.4344443,6.7063971 6.4835,6.55923 6.5374613,6.4120629 6.5914225,6.2698013 6.6650061,6.0637674 6.7336841,5.8675446 6.8023621,5.6664162 6.8514178,5.4800046 h 0.034339 q 0.058867,-0.029433 0.1520727,0.00491 0.098111,0.029434 0.1815061,0.093206 0.0883,0.058867 0.1422615,0.1471671 0.053961,0.083395 0.024528,0.1667894 L 7.2536745,6.1864067 Q 7.1849965,6.3335738 7.1016018,6.5199854 7.0231127,6.7014915 6.9495292,6.8879032 6.8808512,7.0694093 6.8317955,7.2361986 q -0.049056,0.1618839 -0.049056,0.2649008 0,0.1324504 0.029433,0.1324504 h 0.039245 Q 6.9838681,7.5844941 7.1065074,7.4814771 7.2291466,7.3735546 7.3370692,7.2411042 7.4498973,7.1037483 7.5480087,6.9516756 7.6510257,6.7996029 7.7344204,6.6573414 h -0.00491 q 0.00981,-0.024528 0.024528,-0.04415 0.019622,-0.019622 0.034339,-0.04415 0.024528,-0.068678 0.049056,-0.1373559 0.024528,-0.068678 0.049056,-0.137356 Q 7.9649821,6.0833897 8.0336601,5.8773557 8.1072437,5.6664162 8.1562994,5.4800046 Z M 10.06457,5.8233945 q 0.215845,-0.1569783 0.451312,-0.2550897 0.240373,-0.098111 0.461124,-0.073583 0.147167,0.019622 0.245278,0.078489 0.103017,0.053961 0.161884,0.1324504 0.06377,0.078489 0.0883,0.1766005 0.02453,0.098111 0.02453,0.2011284 0,0.083395 -0.01962,0.1815061 -0.01472,0.098111 -0.04415,0.1913172 -0.08339,0.2747119 -0.240373,0.5396127 -0.152073,0.2599952 -0.358107,0.4660292 -0.206034,0.2060339 -0.456218,0.3335787 -0.250184,0.1275448 -0.5199904,0.1324504 -0.206034,0.00491 -0.3384843,-0.058867 -0.1324504,-0.063772 -0.206034,-0.1569783 -0.00981,0.049056 -0.014717,0.098111 0,0.049056 -0.00491,0.103017 -0.00491,0.04415 -0.078489,0.034339 -0.073583,-0.00981 -0.1569782,-0.04415 Q 8.975533,7.8641116 8.9019494,7.8101503 8.8283659,7.7561891 8.8234603,7.7071334 8.838177,7.4520437 8.906855,7.1871429 8.975533,6.9173366 9.0785499,6.6475302 9.1864725,6.3728183 9.3189229,6.0981064 9.4513733,5.8233945 9.5838237,5.5535881 L 9.7260852,5.2641595 Q 9.887969,4.9305807 10.030231,4.5920964 q 0.142261,-0.3384843 0.210939,-0.593574 0.06377,-0.029433 0.161884,-0.00491 0.103017,0.024528 0.191317,0.083395 0.09321,0.058867 0.152073,0.1422616 0.05887,0.083395 0.03434,0.1667894 -0.02453,0.063772 -0.08339,0.1864116 -0.05887,0.1226393 -0.13245,0.2747119 -0.07358,0.1520727 -0.156979,0.3188621 -0.08339,0.1667894 -0.161883,0.318862 z M 9.7653298,6.387535 Q 9.6181627,6.6818692 9.500429,6.9909201 q -0.014717,0.083395 -0.014717,0.1766006 0,0.1422615 0.053961,0.2649007 0.053961,0.1226393 0.1962228,0.1324504 0.1128281,0.00981 0.2452785,-0.068678 0.1373562,-0.078489 0.2698062,-0.206034 0.137356,-0.1324504 0.259995,-0.3041453 0.127545,-0.171695 0.225657,-0.3433899 0.09811,-0.1766006 0.156978,-0.3433899 0.05887,-0.1667894 0.05887,-0.2894287 0,-0.1128281 -0.03924,-0.1716949 -0.03924,-0.063772 -0.122639,-0.068678 -0.112828,-0.00491 -0.250184,0.04415 -0.137356,0.04415 -0.274712,0.1275449 Q 10.128342,6.0245228 9.9958915,6.1422565 9.8683467,6.2550846 9.7653298,6.387535 Z M 13.39545,6.137351 q -0.21094,0.3826344 -0.564141,0.6426296 -0.353201,0.2550897 -0.794702,0.3826345 v 0.039245 q 0,0.1569782 0.05887,0.3090509 0.06377,0.1471671 0.196222,0.1913172 0.09321,0.019622 0.225657,-0.014717 0.13245,-0.039245 0.279617,-0.1324504 0.147167,-0.098111 0.304145,-0.2501841 0.156979,-0.1569782 0.304146,-0.3728233 0.07849,-0.1128281 0.142261,-0.2207507 0.06377,-0.1079225 0.117734,-0.2060339 0.02943,-0.039245 0.07849,-0.049056 0.04906,-0.00981 0.0883,0.00491 0.04415,0.00981 0.05887,0.04415 0.01962,0.034339 -0.0098,0.083395 l -0.09321,0.1520727 q -0.117733,0.1913172 -0.289428,0.4316901 -0.171695,0.2354674 -0.416974,0.4660292 -0.137356,0.1177337 -0.274712,0.1815061 -0.137356,0.063772 -0.264901,0.098111 -0.122639,0.029433 -0.225656,0.034339 -0.103017,0.00491 -0.161884,0.00491 -0.363012,0 -0.56414,-0.1766005 -0.201128,-0.1766005 -0.215845,-0.4807458 -0.0098,-0.2796175 0.103017,-0.5494239 0.112828,-0.2747119 0.363012,-0.6082907 0.07849,-0.1030169 0.210939,-0.2256562 0.137356,-0.1226392 0.304146,-0.2207506 0.171695,-0.103017 0.363012,-0.1667894 0.191317,-0.063772 0.382634,-0.058867 0.186412,0.00491 0.29924,0.098111 0.112828,0.093206 0.112828,0.2452785 0,0.1422616 -0.117733,0.3237677 z M 13.101115,5.7203775 q -0.191317,0.039245 -0.367917,0.1864117 -0.171695,0.1422615 -0.309051,0.3335787 -0.132451,0.1913173 -0.230562,0.3973512 -0.09321,0.2060339 -0.13245,0.3630122 0.353201,-0.1226393 0.637724,-0.3630122 0.289428,-0.2452785 0.47584,-0.5984795 0.03924,-0.0883 0.03924,-0.1766006 0,-0.073583 -0.02943,-0.1128281 -0.02453,-0.039244 -0.08339,-0.029433 z m 3.031643,1.2950705 q -0.06868,0.1079225 -0.186411,0.2698063 -0.117734,0.1569783 -0.264901,0.3041454 -0.147167,0.1471671 -0.313957,0.2550896 -0.161883,0.103017 -0.328673,0.103017 -0.09811,0 -0.186411,-0.029433 -0.0883,-0.029433 -0.156979,-0.0883 -0.06868,-0.058867 -0.107922,-0.1520727 -0.03924,-0.093206 -0.03434,-0.2207506 0.0049,-0.1226393 0.03434,-0.2452785 0.02943,-0.1226393 0.07849,-0.2599952 0.04906,-0.1422615 0.112828,-0.3090509 0.06868,-0.1667894 0.156978,-0.3728234 0.03925,-0.098111 0.06377,-0.181506 0.02943,-0.0883 0.02943,-0.1569783 0,-0.049056 -0.06377,-0.029433 -0.05887,0.014717 -0.201129,0.1422615 -0.171695,0.1520727 -0.313956,0.3090509 -0.142262,0.1520727 -0.294334,0.3384844 -0.127545,0.2894286 -0.215845,0.5935739 -0.0883,0.3041454 -0.112829,0.627913 -0.0049,0.04415 -0.07849,0.034339 -0.07358,-0.00981 -0.156978,-0.04415 -0.08339,-0.039245 -0.156978,-0.093206 -0.07358,-0.053961 -0.07849,-0.1030169 0.01962,-0.3679178 0.137356,-0.7260244 0.122639,-0.3630122 0.259995,-0.7309299 0.06868,-0.171695 0.13245,-0.3532011 0.06868,-0.1815061 0.127545,-0.3973511 0.05887,-0.029433 0.161884,0 0.103017,0.024528 0.196223,0.083395 0.09321,0.058867 0.152072,0.1422616 0.05887,0.083395 0.02943,0.1667894 h 0.0049 q 0,0.00981 -0.0049,0.014717 0.181506,-0.171695 0.38754,-0.2894287 0.206034,-0.1226392 0.43169,-0.1373559 0.05887,0 0.127545,0.04415 0.06868,0.039245 0.122639,0.103017 0.05887,0.058867 0.0883,0.1275448 0.03434,0.068678 0.01962,0.1226392 -0.08339,0.2256563 -0.171695,0.4267846 -0.08339,0.1962228 -0.147167,0.3384844 -0.05396,0.1275448 -0.103017,0.2354673 -0.04415,0.1079226 -0.0834,0.2158451 -0.03434,0.103017 -0.05887,0.2158451 -0.01962,0.1128281 -0.02943,0.2501841 -0.0049,0.024528 0.0098,0.049056 0.01962,0.024528 0.07358,0.00981 0.127545,-0.063772 0.318862,-0.2305618 0.191318,-0.1716949 0.38754,-0.4660291 0.09321,-0.137356 0.176601,-0.2796175 l 0.07849,-0.137356 q 0.01472,-0.024528 0.05396,-0.024528 0.04415,-0.00491 0.08339,0.00981 0.03925,0.014717 0.06377,0.039245 0.02453,0.024528 0.0049,0.058867 l -0.25509,0.4267846 z"
         id="path2" />
      <path
         style="font-weight:bold;font-family:'Ananda Black Personal Use';-inkscape-font-specification:'Ananda Black Personal Use Bold'"
         d="m 21.465113,5.4849101 q 0.01962,-0.029433 0.103017,0.014717 0.0883,0.039244 0.181506,0.1128281 0.09321,0.073584 0.166789,0.1520726 0.07358,0.078489 0.06868,0.1128281 L 21.833031,6.2992348 Q 21.680958,6.7162082 21.514168,7.1478984 21.347379,7.574683 21.141345,7.9720341 20.935311,8.3693853 20.680222,8.7176808 20.430037,9.0659763 20.101364,9.3259715 19.772691,9.5859667 19.360623,9.7331338 18.948555,9.8852065 18.428565,9.8852065 18.055742,9.8803009 17.776124,9.7920006 17.501412,9.7037004 17.319906,9.5565333 17.1384,9.4142717 17.0501,9.2229545 q -0.0883,-0.1913172 -0.0883,-0.4022567 0,-0.2943342 0.161884,-0.593574 0.161884,-0.2943342 0.480746,-0.5298016 -0.107922,-0.2256562 -0.117734,-0.490557 -0.01962,-0.4120679 0.103017,-0.8633803 0.127545,-0.456218 0.372824,-0.8928137 0.250184,-0.4365958 0.613196,-0.8241358 0.363012,-0.3924456 0.824136,-0.6818742 0.461123,-0.2943342 1.005642,-0.4562181 0.549423,-0.1618838 1.167525,-0.1422615 0.25509,0.00981 0.43169,0.073584 0.176601,0.063772 0.284524,0.1716949 0.112828,0.1079226 0.161883,0.2452785 0.04906,0.1324504 0.04906,0.2796175 0,0.137356 -0.03925,0.2845231 -0.03434,0.1422615 -0.103016,0.2796175 -0.06377,0.1373559 -0.152073,0.2599952 -0.08339,0.1177336 -0.181506,0.2060339 h 0.0098 q -0.01962,0.024528 -0.152073,0.039245 -0.127545,0.014717 -0.269806,0.014717 -0.132451,0 -0.235467,-0.00491 -0.09811,-0.00981 -0.09321,-0.024528 l 0.05887,-0.053961 q 0.07849,-0.073584 0.186411,-0.1766005 0.107923,-0.1079226 0.201129,-0.2452785 0.09811,-0.137356 0.161883,-0.3041454 0.06377,-0.1667894 0.05887,-0.3679177 0,-0.063772 -0.02453,-0.137356 -0.01962,-0.073583 -0.06377,-0.1373559 -0.04415,-0.063773 -0.117734,-0.1079226 -0.06868,-0.04415 -0.1766,-0.053961 -0.416974,-0.00981 -0.829042,0.137356 -0.407162,0.1422615 -0.784891,0.4022567 -0.372823,0.2550897 -0.701496,0.6082907 -0.323768,0.3482955 -0.569046,0.7456467 -0.240373,0.3973511 -0.38754,0.8241357 -0.147168,0.4267846 -0.16679,0.8388525 0,0.1324504 0.02943,0.2550897 0.240373,-0.093206 0.524896,-0.1422616 0.284523,-0.053961 0.618101,-0.053961 0.03924,0 0.09321,0 0.05396,0 0.09321,0.00491 0.03434,0.00491 0.09811,0.053961 0.06377,0.049056 0.117734,0.1079225 0.05396,0.053961 0.07849,0.103017 0.02943,0.04415 -0.0049,0.049056 -0.161884,-0.024528 -0.313957,-0.034339 -0.147167,-0.014717 -0.284523,-0.014717 -0.279617,0 -0.515085,0.049056 -0.230562,0.04415 -0.416973,0.1275448 0.09811,0.2158451 0.279617,0.3630122 0.186412,0.1471671 0.436596,0.1569782 0.250184,0.00491 0.51999,-0.078489 0.269807,-0.078489 0.519991,-0.2158451 0.250184,-0.1373559 0.466029,-0.3139564 0.215845,-0.1815061 0.358107,-0.3728234 l 0.147167,-0.3482954 q 0.103017,-0.2501841 0.196223,-0.4758403 0.09321,-0.2305618 0.156978,-0.4120679 0.06868,-0.1815061 0.103017,-0.3041453 0.03434,-0.1226393 0.02453,-0.1618839 z M 18.9878,8.3890076 q -0.446407,0 -0.740741,-0.1226393 -0.294334,-0.1177336 -0.470935,-0.3139564 -0.186412,0.1766005 -0.279617,0.38754 -0.09321,0.2109395 -0.09321,0.4169735 0,0.1716949 0.06377,0.3237676 0.06377,0.1569782 0.186412,0.2747119 0.127545,0.1177337 0.313956,0.1864117 0.191318,0.073583 0.441502,0.073583 0.367917,0 0.672063,-0.1422615 0.309051,-0.137356 0.56414,-0.3826345 0.259995,-0.2403729 0.475841,-0.5690461 0.22075,-0.3237676 0.412067,-0.7014965 -0.166789,0.1128281 -0.353201,0.2109395 -0.186411,0.103017 -0.38754,0.1815061 -0.196222,0.083395 -0.402256,0.1275448 -0.206034,0.049056 -0.402257,0.049056 z m 4.699535,-2.909003 q 0.05887,-0.029433 0.152073,0.00491 0.09811,0.029434 0.186411,0.093206 0.0883,0.058867 0.142262,0.1471671 0.05396,0.083395 0.02453,0.1667894 -0.01472,0.039244 -0.04906,0.1079225 -0.02943,0.068678 -0.07358,0.1618838 -0.06868,0.1471671 -0.152072,0.3384843 -0.08339,0.1864117 -0.156979,0.3728234 -0.07358,0.1864116 -0.127544,0.353201 -0.04906,0.1667894 -0.04906,0.2747119 0,0.1324504 0.02943,0.1324504 h 0.04415 q 0.132451,-0.04415 0.25509,-0.1520727 0.127545,-0.1128281 0.240373,-0.250184 0.117734,-0.1422616 0.215845,-0.2992398 0.103017,-0.1569782 0.186412,-0.2992398 l 0.07358,-0.1275448 q 0.02453,-0.039245 0.07358,-0.049056 0.04906,-0.00981 0.0883,0.00491 0.04415,0.00981 0.06377,0.04415 0.01962,0.034339 -0.0098,0.083395 l -0.117733,0.1864117 q -0.152073,0.2452785 -0.333579,0.5003681 -0.176601,0.2550896 -0.412068,0.4611236 -0.03434,0.029433 -0.0883,0.068678 -0.05396,0.039245 -0.127545,0.073584 -0.06868,0.029433 -0.156978,0.053961 -0.0883,0.019622 -0.186412,0.019622 -0.196223,-0.00981 -0.294334,-0.137356 -0.09321,-0.1275448 -0.09321,-0.3139565 0,-0.083395 0.01472,-0.1667894 -0.0883,0.1128282 -0.181506,0.2158451 -0.09321,0.103017 -0.196223,0.1864117 -0.03434,0.029433 -0.0883,0.068678 -0.05396,0.039245 -0.127545,0.073584 -0.06868,0.029433 -0.156978,0.053961 -0.0883,0.019622 -0.186412,0.019622 -0.191317,-0.00981 -0.289429,-0.1324504 -0.09321,-0.1275448 -0.09321,-0.3139565 0,-0.103017 0.01962,-0.1962228 0.01962,-0.0883 0.05396,-0.2060339 0.03434,-0.1226393 0.07849,-0.2599953 0.04906,-0.1373559 0.09811,-0.284523 0.05396,-0.1471671 0.107923,-0.2894287 0.07358,-0.2060339 0.142262,-0.4022567 0.06868,-0.2011284 0.117733,-0.38754 h 0.03434 q 0.05887,-0.029433 0.152073,0.00491 0.09811,0.029434 0.181506,0.093206 0.0883,0.058867 0.142262,0.1471671 0.05396,0.083395 0.02453,0.1667894 l -0.13245,0.2943342 q -0.06868,0.1471671 -0.152073,0.3335787 -0.07849,0.1815061 -0.152072,0.3679178 -0.06868,0.1815061 -0.117734,0.3482954 -0.04906,0.1618839 -0.04906,0.2649008 0,0.1324504 0.02943,0.1324504 h 0.03924 q 0.132451,-0.049056 0.25509,-0.1520727 0.122639,-0.1079225 0.230562,-0.2403729 0.112828,-0.1373559 0.210939,-0.2894286 0.103017,-0.1520727 0.186412,-0.2943342 h -0.0049 q 0.0098,-0.024528 0.02453,-0.04415 0.01962,-0.019622 0.03434,-0.04415 0.02453,-0.068678 0.04906,-0.1373559 0.02453,-0.068678 0.04906,-0.137356 0.07849,-0.2109395 0.147167,-0.4169735 0.07358,-0.2109395 0.122639,-0.3973511 z m 1.064512,0.014717 q -0.04415,0.014717 -0.07849,0.00491 -0.03434,-0.00981 -0.05396,-0.029433 -0.01962,-0.024528 -0.01472,-0.049056 0.0049,-0.029433 0.03924,-0.053961 0.348296,-0.2256563 0.711308,-0.3728234 0.269806,-0.5788572 0.382635,-0.9958307 0.05887,-0.029433 0.161883,-0.00491 0.103017,0.024528 0.196223,0.083395 0.09321,0.058867 0.152073,0.1422616 0.05887,0.083395 0.02943,0.1667894 -0.01962,0.049056 -0.06377,0.1520726 -0.04415,0.098111 -0.107923,0.2256562 0.367918,-0.073584 0.740741,-0.073584 0.04906,0 0.117734,0.00491 0.07358,0 0.122639,0.00491 0.01472,0.039245 0,0.0883 -0.01472,0.049056 -0.04906,0.093206 -0.02943,0.039245 -0.07358,0.068678 -0.04415,0.024528 -0.0883,0.014717 -0.05887,-0.00491 -0.112828,-0.00491 -0.05396,-0.00491 -0.107923,-0.00491 -0.171695,0 -0.34339,0.019622 -0.166789,0.019622 -0.338484,0.058867 l -0.230562,0.4513124 -0.02943,0.058867 q -0.04415,0.083395 -0.12264,0.2354673 -0.07358,0.1471671 -0.161883,0.3335788 -0.0883,0.1815061 -0.181506,0.3826345 -0.0883,0.2011283 -0.161884,0.3924456 -0.07358,0.1864116 -0.12264,0.3482954 -0.04415,0.1618839 -0.04415,0.2649008 0,0.1079226 0.02453,0.1324504 h 0.03925 q 0.13245,-0.049056 0.255089,-0.1520727 0.12264,-0.1079225 0.230562,-0.2403729 0.112828,-0.1373559 0.21094,-0.2894286 0.103017,-0.1520727 0.186411,-0.2943342 h -0.0049 q 0.02453,-0.039245 0.04905,-0.073584 0.02453,-0.039244 0.04906,-0.078489 0.01472,-0.024528 0.05396,-0.024528 0.04415,-0.00491 0.08339,0.00981 0.03924,0.014717 0.06377,0.039245 0.02453,0.024528 0.0098,0.058867 l -0.12264,0.2011284 q -0.07358,0.1177337 -0.156978,0.2452785 -0.07849,0.1275448 -0.171695,0.2550896 -0.09321,0.1226393 -0.196223,0.2403729 -0.103017,0.1128282 -0.215845,0.206034 -0.03434,0.029433 -0.0883,0.068678 -0.05396,0.039245 -0.127545,0.073584 -0.06868,0.029433 -0.156978,0.053961 -0.0883,0.019622 -0.186412,0.019622 -0.201128,-0.00981 -0.294334,-0.137356 -0.0883,-0.1275448 -0.0883,-0.3139565 0,-0.039245 0.0049,-0.093206 0.0049,-0.053961 0.01472,-0.098111 0.03434,-0.2207507 0.103017,-0.4415013 0.07358,-0.2207507 0.161884,-0.4365957 0.09321,-0.2207507 0.201128,-0.4365958 0.107923,-0.2158451 0.220751,-0.4316901 l 0.142262,-0.2845231 q -0.112829,0.049056 -0.225657,0.103017 -0.112828,0.049056 -0.225656,0.1128281 z m 1.672796,-0.014717 q 0.05396,-0.024528 0.137356,0 0.0883,0.024528 0.16679,0.083395 0.07849,0.053961 0.127544,0.1373559 0.05396,0.078489 0.03925,0.1569783 l -0.1766,0.3237676 q -0.07358,0.1275448 -0.161884,0.284523 -0.0883,0.1569783 -0.171695,0.3188621 -0.08339,0.1569782 -0.156978,0.3090509 -0.07358,0.1520727 -0.117734,0.2747119 -0.03924,0.1177337 -0.04415,0.1913173 0,0.073583 0.05887,0.073583 h 0.03924 Q 26.302004,7.5844941 26.434454,7.4814771 26.57181,7.3735546 26.69445,7.2361986 26.821994,7.0988427 26.934823,6.9516756 27.052556,6.7996029 27.150668,6.6622469 L 27.224251,6.55923 q 0.01962,-0.024528 0.06377,-0.024528 0.04415,-0.00491 0.07849,0.00981 0.03924,0.00981 0.05887,0.039244 0.01962,0.024528 -0.0098,0.058867 h 0.0049 q -0.196223,0.3041453 -0.421879,0.5788572 -0.225656,0.274712 -0.529802,0.5150849 -0.03924,0.029433 -0.09811,0.068678 -0.05887,0.039245 -0.13245,0.073584 -0.07358,0.029433 -0.161884,0.053961 -0.08339,0.019622 -0.171695,0.019622 -0.176601,-0.00491 -0.259995,-0.1079226 -0.08339,-0.1079225 -0.08339,-0.2599952 0,-0.1226392 0.04906,-0.2747119 h -0.0049 q 0.02453,-0.093206 0.07358,-0.2158451 0.04906,-0.1275448 0.107922,-0.2698063 0.06377,-0.1422616 0.132451,-0.2943342 0.07358,-0.1520727 0.147167,-0.3041454 0.09811,-0.2109395 0.186411,-0.4022567 0.0883,-0.1913173 0.142262,-0.3433899 z m 0.461124,0.4120679 0.0098,-0.034339 q 0.03925,-0.068678 0.03925,-0.073584 0.0049,-0.00981 -0.04906,0.1079226 z m 0.02453,-1.7660053 q 0.05396,-0.00981 0.137356,0.04415 0.0883,0.053961 0.166789,0.1324504 0.08339,0.073583 0.137356,0.1520726 0.05887,0.073584 0.05887,0.103017 -0.01962,0.078489 -0.07358,0.1815061 -0.04905,0.103017 -0.103017,0.2060339 -0.04906,0.098111 -0.09321,0.1962228 -0.04415,0.093206 -0.07849,0.2109396 -0.05396,-0.00981 -0.122639,-0.049056 -0.06377,-0.04415 -0.122639,-0.098111 -0.05396,-0.053961 -0.09321,-0.1079226 -0.03924,-0.053961 -0.03924,-0.0883 0.0049,-0.083395 0.02453,-0.181506 0.02453,-0.103017 0.05396,-0.2158451 0.03434,-0.1226393 0.05887,-0.2452785 0.02943,-0.1275448 0.03925,-0.240373 z m 2.084869,2.0112838 q -0.21094,0.3826344 -0.564141,0.6426296 -0.353201,0.2550897 -0.794702,0.3826345 v 0.039245 q 0,0.1569782 0.05887,0.3090509 0.06377,0.1471671 0.196223,0.1913172 0.09321,0.019622 0.225656,-0.014717 0.13245,-0.039245 0.279617,-0.1324504 0.147168,-0.098111 0.304146,-0.2501841 0.156978,-0.1569782 0.304145,-0.3728233 0.07849,-0.1128281 0.142262,-0.2207507 0.06377,-0.1079225 0.117733,-0.2060339 0.02943,-0.039245 0.07849,-0.049056 0.04906,-0.00981 0.0883,0.00491 0.04415,0.00981 0.05887,0.04415 0.01962,0.034339 -0.0098,0.083395 l -0.09321,0.1520727 q -0.117734,0.1913172 -0.289429,0.4316901 -0.171695,0.2354674 -0.416974,0.4660292 -0.137355,0.1177337 -0.274711,0.1815061 -0.137356,0.063772 -0.264901,0.098111 -0.122639,0.029433 -0.225656,0.034339 -0.103017,0.00491 -0.161884,0.00491 -0.363012,0 -0.564141,-0.1766005 -0.201128,-0.1766005 -0.215845,-0.4807458 -0.0098,-0.2796175 0.103017,-0.5494239 0.112828,-0.2747119 0.363012,-0.6082907 0.07849,-0.1030169 0.21094,-0.2256562 0.137356,-0.1226392 0.304145,-0.2207506 0.171695,-0.103017 0.363012,-0.1667894 0.191318,-0.063772 0.382635,-0.058867 0.186411,0.00491 0.29924,0.098111 0.112828,0.093206 0.112828,0.2452785 0,0.1422616 -0.117734,0.3237677 z M 28.70083,5.7203775 q -0.191317,0.039245 -0.367918,0.1864117 -0.171695,0.1422615 -0.309051,0.3335787 -0.13245,0.1913173 -0.230562,0.3973512 -0.09321,0.2060339 -0.13245,0.3630122 0.353201,-0.1226393 0.637724,-0.3630122 0.289429,-0.2452785 0.47584,-0.5984795 0.03925,-0.0883 0.03925,-0.1766006 0,-0.073583 -0.02943,-0.1128281 -0.02453,-0.039244 -0.08339,-0.029433 z m 2.379202,1.3833708 q -0.103017,0.1471671 -0.240373,0.2992397 -0.132451,0.1520727 -0.289429,0.2747119 -0.156978,0.1226393 -0.338484,0.2011284 -0.181506,0.073584 -0.377729,0.063772 -0.215845,-0.00981 -0.318862,-0.1373559 -0.103017,-0.1275449 -0.09811,-0.2943342 0.0049,-0.1226393 0.04905,-0.240373 0.04415,-0.1177336 0.103017,-0.2305618 0.06377,-0.1177336 0.142262,-0.2256562 0.07849,-0.1128281 0.156978,-0.2207506 0.01962,-0.024528 0.04415,-0.063772 0.02453,-0.039245 0.04906,-0.063772 L 30.07439,6.3139515 q 0.0883,-0.1226393 0.161884,-0.2109395 0.07358,-0.093206 0.09811,-0.1079226 -0.05887,0.00981 -0.107922,0.019622 -0.04415,0.00981 -0.0883,0.024528 -0.05396,0.014717 -0.112828,0.024528 -0.05396,0.00981 -0.147167,0.00491 H 29.8193 q -0.107922,0.1471671 -0.210939,0.3090509 -0.103017,0.1569782 -0.191317,0.3041453 -0.01962,0.024528 -0.06377,0.024528 -0.03924,0 -0.07849,-0.00981 -0.03924,-0.014717 -0.06377,-0.039244 -0.01962,-0.024528 0.0049,-0.058867 0.03925,-0.063772 0.08339,-0.1373559 0.04415,-0.073584 0.0834,-0.137356 0.04415,-0.073583 0.0932,-0.1520727 0.05396,-0.083395 0.107923,-0.1667893 -0.07358,-0.053961 -0.07358,-0.1471671 0,-0.053961 0.02453,-0.1226393 0.02453,-0.073583 0.05887,-0.1471671 0.03924,-0.073583 0.08339,-0.1471671 0.04415,-0.078489 0.0883,-0.1471671 0.03924,-0.058867 0.06868,-0.1226392 0.03434,-0.063772 0.05887,-0.1324504 0.13245,0.053961 0.250184,0.1373559 0.122639,0.078489 0.122639,0.1962228 0,0.053961 -0.03434,0.137356 L 30.010618,5.8283 q -0.01962,0.029434 0.02453,0.019622 0.04906,-0.00981 0.137356,-0.039244 0.0883,-0.034339 0.196223,-0.078489 0.112828,-0.049056 0.21094,-0.098111 0.103017,-0.049056 0.181506,-0.093206 0.08339,-0.049056 0.107922,-0.078489 0.02943,0 0.07358,0.019622 0.04415,0.019622 0.0883,0.04415 0.04415,0.024528 0.07849,0.049056 0.03434,0.024528 0.03925,0.029433 0.03924,0.053961 0.01472,0.1422616 -0.02453,0.0883 -0.09321,0.2011283 -0.06868,0.1079226 -0.171695,0.240373 -0.09811,0.1275448 -0.206034,0.2649007 -0.06377,0.083395 -0.127545,0.1667894 -0.06377,0.078489 -0.127545,0.1618838 -0.04906,0.058867 -0.107922,0.1422616 -0.05887,0.083395 -0.112829,0.1766005 -0.05396,0.0883 -0.0932,0.1766005 -0.03434,0.0883 -0.03434,0.1618838 0,0.1226393 0.09321,0.1275448 0.05396,0 0.137356,-0.039244 0.08339,-0.04415 0.176601,-0.1177337 0.09321,-0.078489 0.191317,-0.1766005 0.09811,-0.103017 0.181506,-0.2207507 0.0883,-0.1324504 0.171695,-0.2698063 0.0883,-0.1422616 0.142262,-0.2354674 0.01962,-0.024528 0.05887,-0.024528 0.04415,-0.00491 0.08339,0.00981 0.03924,0.014717 0.06377,0.039245 0.02453,0.024528 0.0049,0.058867 -0.03434,0.053961 -0.06868,0.1128281 -0.02943,0.053961 -0.06377,0.1079226 -0.04415,0.078489 -0.0883,0.1520726 -0.04415,0.073584 -0.09321,0.1422616 z m 1.913168,0 q -0.103017,0.1471671 -0.240373,0.2992397 -0.132451,0.1520727 -0.289429,0.2747119 -0.156978,0.1226393 -0.338484,0.2011284 -0.181506,0.073584 -0.377729,0.063772 -0.215845,-0.00981 -0.318862,-0.1373559 -0.103017,-0.1275449 -0.09811,-0.2943342 0.0049,-0.1226393 0.04906,-0.240373 0.04415,-0.1177336 0.103017,-0.2305618 0.06377,-0.1177336 0.142262,-0.2256562 0.07849,-0.1128281 0.156978,-0.2207506 0.01962,-0.024528 0.04415,-0.063772 0.02453,-0.039245 0.04906,-0.063772 l 0.112828,-0.1520726 q 0.0883,-0.1226393 0.161884,-0.2109395 0.07358,-0.093206 0.09811,-0.1079226 -0.05887,0.00981 -0.107922,0.019622 -0.04415,0.00981 -0.0883,0.024528 -0.05396,0.014717 -0.112828,0.024528 -0.05396,0.00981 -0.147167,0.00491 h -0.05887 q -0.107922,0.1471671 -0.210939,0.3090509 -0.103017,0.1569782 -0.191318,0.3041453 -0.01962,0.024528 -0.06377,0.024528 -0.03924,0 -0.07849,-0.00981 -0.03925,-0.014717 -0.06377,-0.039244 -0.01962,-0.024528 0.0049,-0.058867 0.03924,-0.063772 0.08339,-0.1373559 0.04415,-0.073584 0.08339,-0.137356 0.04415,-0.073583 0.09321,-0.1520727 0.05396,-0.083395 0.107923,-0.1667893 -0.07358,-0.053961 -0.07358,-0.1471671 0,-0.053961 0.02453,-0.1226393 0.02453,-0.073583 0.05887,-0.1471671 0.03925,-0.073583 0.08339,-0.1471671 0.04415,-0.078489 0.0883,-0.1471671 0.03925,-0.058867 0.06868,-0.1226392 0.03434,-0.063772 0.05887,-0.1324504 0.13245,0.053961 0.250184,0.1373559 0.122639,0.078489 0.122639,0.1962228 0,0.053961 -0.03434,0.137356 L 31.923785,5.8283 q -0.01962,0.029434 0.02453,0.019622 0.04906,-0.00981 0.137356,-0.039244 0.0883,-0.034339 0.196223,-0.078489 0.112828,-0.049056 0.21094,-0.098111 0.103017,-0.049056 0.181506,-0.093206 0.08339,-0.049056 0.107922,-0.078489 0.02943,0 0.07358,0.019622 0.04415,0.019622 0.0883,0.04415 0.04415,0.024528 0.07849,0.049056 0.03434,0.024528 0.03925,0.029433 0.03924,0.053961 0.01472,0.1422616 -0.02453,0.0883 -0.0932,0.2011283 -0.06868,0.1079226 -0.171695,0.240373 -0.09811,0.1275448 -0.206034,0.2649007 -0.06377,0.083395 -0.127545,0.1667894 -0.06377,0.078489 -0.127545,0.1618838 -0.04906,0.058867 -0.107922,0.1422616 -0.05887,0.083395 -0.112829,0.1766005 -0.05396,0.0883 -0.0932,0.1766005 -0.03434,0.0883 -0.03434,0.1618838 0,0.1226393 0.09321,0.1275448 0.05396,0 0.137356,-0.039244 0.0834,-0.04415 0.176601,-0.1177337 0.09321,-0.078489 0.191317,-0.1766005 0.09811,-0.103017 0.181506,-0.2207507 0.0883,-0.1324504 0.171695,-0.2698063 0.0883,-0.1422616 0.142262,-0.2354674 0.01962,-0.024528 0.05887,-0.024528 0.04415,-0.00491 0.08339,0.00981 0.03925,0.014717 0.06377,0.039245 0.02453,0.024528 0.0049,0.058867 -0.03434,0.053961 -0.06868,0.1128281 -0.02943,0.053961 -0.06377,0.1079226 -0.04415,0.078489 -0.0883,0.1520726 -0.04415,0.073584 -0.09321,0.1422616 z M 34.847503,6.137351 q -0.21094,0.3826344 -0.564141,0.6426296 -0.353201,0.2550897 -0.794702,0.3826345 v 0.039245 q 0,0.1569782 0.05887,0.3090509 0.06377,0.1471671 0.196222,0.1913172 0.09321,0.019622 0.225657,-0.014717 0.13245,-0.039245 0.279617,-0.1324504 0.147167,-0.098111 0.304146,-0.2501841 0.156978,-0.1569782 0.304145,-0.3728233 0.07849,-0.1128281 0.142261,-0.2207507 0.06377,-0.1079225 0.117734,-0.2060339 0.02943,-0.039245 0.07849,-0.049056 0.04906,-0.00981 0.0883,0.00491 0.04415,0.00981 0.05887,0.04415 0.01962,0.034339 -0.0098,0.083395 l -0.09321,0.1520727 q -0.117733,0.1913172 -0.289428,0.4316901 -0.171695,0.2354674 -0.416974,0.4660292 -0.137356,0.1177337 -0.274712,0.1815061 -0.137356,0.063772 -0.2649,0.098111 -0.12264,0.029433 -0.225657,0.034339 -0.103017,0.00491 -0.161883,0.00491 -0.363013,0 -0.564141,-0.1766005 -0.201128,-0.1766005 -0.215845,-0.4807458 -0.0098,-0.2796175 0.103017,-0.5494239 0.112828,-0.2747119 0.363012,-0.6082907 0.07849,-0.1030169 0.21094,-0.2256562 0.137356,-0.1226392 0.304145,-0.2207506 0.171695,-0.103017 0.363012,-0.1667894 0.191317,-0.063772 0.382635,-0.058867 0.186411,0.00491 0.299239,0.098111 0.112828,0.093206 0.112828,0.2452785 0,0.1422616 -0.117733,0.3237677 z M 34.553169,5.7203775 q -0.191318,0.039245 -0.367918,0.1864117 -0.171695,0.1422615 -0.309051,0.3335787 -0.132451,0.1913173 -0.230562,0.3973512 -0.09321,0.2060339 -0.13245,0.3630122 0.353201,-0.1226393 0.637724,-0.3630122 0.289428,-0.2452785 0.47584,-0.5984795 0.03924,-0.0883 0.03924,-0.1766006 0,-0.073583 -0.02943,-0.1128281 -0.02453,-0.039244 -0.08339,-0.029433 z m 1.353937,3.2622041 q -0.142261,0.2060339 -0.304145,0.3679177 -0.161884,0.1618838 -0.358107,0.2698064 -0.191317,0.1128281 -0.421879,0.1667894 -0.235467,0.058867 -0.51999,0.058867 -0.166789,0 -0.328673,-0.034339 -0.161884,-0.029433 -0.289429,-0.098111 -0.13245,-0.068678 -0.210939,-0.1815061 -0.0834,-0.1079225 -0.0834,-0.2698063 0,-0.2158451 0.112828,-0.4022568 0.107923,-0.1815061 0.294334,-0.318862 0.181506,-0.1324504 0.426785,-0.2109395 0.240373,-0.073584 0.505274,-0.073584 0.152072,0 0.269806,0.00981 0.117734,0.00981 0.215845,0.029433 0.103017,0.019622 0.191317,0.04415 0.09321,0.024528 0.191318,0.058867 0.03434,-0.1079225 0.05396,-0.215845 0.01962,-0.103017 0.01962,-0.2011284 0,-0.1275448 -0.03434,-0.2403729 -0.02943,-0.1128282 -0.09811,-0.1962228 -0.01472,-0.019622 -0.05887,-0.039245 -0.04415,-0.024528 -0.107923,-0.024528 -0.06868,0 -0.186411,0.039245 -0.112828,0.034339 -0.29924,0.1324504 -0.0098,-0.014717 -0.01472,-0.049056 -0.0049,-0.039245 0.0049,-0.078489 0.0049,-0.04415 0.02453,-0.078489 0.01962,-0.039245 0.05396,-0.053961 h -0.0098 q 0.191317,-0.1226393 0.333578,-0.2452785 0.147168,-0.1275448 0.25509,-0.2403729 0.107923,-0.1177337 0.186412,-0.2207507 0.07849,-0.103017 0.137356,-0.1864117 0.07849,-0.1226392 0.147167,-0.250184 0.06868,-0.1275449 0.09321,-0.1864117 0.0098,-0.019622 0.03924,-0.039245 0.02943,-0.019622 0.05396,-0.029433 -0.107922,0.014717 -0.201128,0.04415 -0.05396,0.014717 -0.112828,0.024528 -0.05396,0.00981 -0.152073,0.00491 h -0.04906 q -0.112828,0.1569782 -0.220751,0.3335787 -0.107923,0.171695 -0.201128,0.3188621 -0.01962,0.024528 -0.06377,0.029433 -0.03924,0 -0.07849,-0.00981 -0.03924,-0.014717 -0.06377,-0.039245 -0.02453,-0.029433 -0.0049,-0.058867 l 0.04415,-0.078489 q 0.08339,-0.1373559 0.16679,-0.2747119 0.0883,-0.1422615 0.181506,-0.284523 -0.07358,-0.053961 -0.07358,-0.1471671 0,-0.053961 0.02453,-0.1226393 0.02453,-0.073583 0.05887,-0.1471671 0.03924,-0.073583 0.0834,-0.1471671 0.04415,-0.078489 0.0883,-0.1471671 0.03924,-0.058867 0.06868,-0.1226392 0.03434,-0.063772 0.05887,-0.1324504 0.13245,0.053961 0.250184,0.1373559 0.122639,0.078489 0.122639,0.1962228 0,0.053961 -0.03434,0.137356 L 35.862956,5.8283 q -0.01962,0.029434 0.02453,0.019622 0.04906,-0.00981 0.137356,-0.039244 0.0883,-0.034339 0.196223,-0.078489 0.112828,-0.049056 0.210939,-0.098111 0.103017,-0.049056 0.181507,-0.093206 0.08339,-0.049056 0.107922,-0.078489 0.02943,0 0.07358,0.019622 0.04415,0.019622 0.0883,0.04415 0.04415,0.024528 0.07849,0.049056 0.03434,0.024528 0.03925,0.029433 0.04415,0.063772 0.0098,0.1667894 -0.02943,0.103017 -0.112828,0.2354674 -0.07849,0.1324504 -0.196223,0.284523 -0.112828,0.1520727 -0.240373,0.3139565 h 0.0049 l -0.137356,0.1766005 q -0.02453,0.029433 -0.08339,0.0883 -0.05396,0.058867 -0.127545,0.1275448 -0.07358,0.068678 -0.156978,0.1422615 -0.07849,0.068678 -0.152073,0.1226393 h -0.01962 q 0.245278,0.1422615 0.348295,0.353201 0.107923,0.206034 0.107923,0.4365958 0,0.2943342 -0.127545,0.5788572 0.191317,0.098111 0.363012,0.2109395 0.171695,0.1177337 0.34339,0.2354674 h -0.0049 q 0.01962,0.00981 0.03434,0.024528 0.01962,0.019622 0.03925,0.029433 0.05887,0.04415 0.0049,0.0883 -0.04906,0.049056 -0.147168,0.083395 -0.0932,0.034339 -0.196222,0.049056 -0.09811,0.014717 -0.132451,-0.00491 L 36.221063,9.2033322 Z m -1.68261,0.7014965 q 0.1766,0 0.34339,-0.073584 0.166789,-0.068678 0.318862,-0.1962228 0.152073,-0.1275448 0.294334,-0.3041453 0.142262,-0.171695 0.274712,-0.3826345 -0.156978,-0.068678 -0.333579,-0.1079225 -0.171695,-0.034339 -0.38754,-0.039245 -0.171695,0 -0.363012,0.039245 -0.191317,0.039245 -0.348295,0.1177337 -0.156979,0.083395 -0.259996,0.2109395 -0.103017,0.1275448 -0.09321,0.2992398 0,0.1324503 0.05396,0.215845 0.05396,0.083395 0.137356,0.1324504 0.07849,0.049056 0.1766,0.068678 0.09811,0.019622 0.186412,0.019622 z m 3.845832,-1.7414774 h -0.895841 v -0.941352 h 0.895841 z"
         id="path3" />
    </g>
  </g>
</svg>
