<?xml version="1.0" encoding="UTF-8" standalone="no"?>
<svg
   width="66.56282"
   height="66.56282"
   viewBox="0 0 17.611412 17.611412"
   version="1.1"
   id="svg1"
   inkscape:version="1.4 (86a8ad7, 2024-10-11)"
   sodipodi:docname="three.svg"
   xml:space="preserve"
   xmlns:inkscape="http://www.inkscape.org/namespaces/inkscape"
   xmlns:sodipodi="http://sodipodi.sourceforge.net/DTD/sodipodi-0.dtd"
   xmlns="http://www.w3.org/2000/svg"
   xmlns:svg="http://www.w3.org/2000/svg"><sodipodi:namedview
     id="namedview1"
     pagecolor="#ffffff"
     bordercolor="#000000"
     borderopacity="0.25"
     inkscape:showpageshadow="2"
     inkscape:pageopacity="0.0"
     inkscape:pagecheckerboard="0"
     inkscape:deskcolor="#ffffff"
     inkscape:document-units="px"
     inkscape:zoom="16"
     inkscape:cx="-254.5"
     inkscape:cy="149.34375"
     inkscape:window-width="1920"
     inkscape:window-height="991"
     inkscape:window-x="-9"
     inkscape:window-y="-9"
     inkscape:window-maximized="1"
     inkscape:current-layer="layer1"
     showborder="false" /><defs
     id="defs1" /><g
     inkscape:label="Layer 1"
     inkscape:groupmode="layer"
     id="layer1"
     transform="translate(-126.60433,-119.32695)"><rect
       style="fill:#f2f2f2;fill-opacity:1;stroke:none;stroke-width:0.53759;stroke-dasharray:none;stroke-opacity:0.8"
       id="rect11-1-2-6"
       width="21.166666"
       height="21.166666"
       x="25.121248"
       y="150.14796"
       ry="1.3501071" /><rect
       style="fill:#f2f2f2;fill-opacity:1;stroke:none;stroke-width:0.53759;stroke-dasharray:none;stroke-opacity:0.8"
       id="rect11-0-1-0-4"
       width="21.166666"
       height="21.166666"
       x="49.691422"
       y="150.38892"
       ry="1.3501071" /><rect
       style="fill:#f2f2f2;fill-opacity:1;stroke:none;stroke-width:0.537589;stroke-dasharray:none;stroke-opacity:0.8"
       id="rect11"
       width="21.166666"
       height="21.166666"
       x="24.709602"
       y="103.08701"
       ry="1.3501071" /><rect
       style="fill:#ffffff;fill-opacity:1;stroke:#000000;stroke-width:0.396875;stroke-dasharray:none"
       id="rect1-3-9-4-8-9"
       width="7.1318498"
       height="10.681086"
       x="-38.707874"
       y="107.97585"
       ry="0.50518656"
       transform="scale(-1,1)" /><rect
       style="fill:#ffffff;fill-opacity:1;stroke:#000000;stroke-width:0.396875;stroke-dasharray:none"
       id="rect1-3-9-4-8-1-8"
       width="4.4127474"
       height="2.3992403"
       x="-37.34832"
       y="109.71359"
       ry="0.1134776"
       transform="scale(-1,1)" /><rect
       style="fill:#1a1a1a;fill-opacity:1;stroke:none;stroke-width:0.500472;stroke-dasharray:none"
       id="rect5-8-96-2-8-4-4"
       width="4.1969042"
       height="0.39687499"
       x="-37.364071"
       y="113.22981"
       ry="0.1984375"
       transform="scale(-1,1)" /><rect
       style="fill:#1a1a1a;fill-opacity:1;stroke:none;stroke-width:0.500472;stroke-dasharray:none"
       id="rect5-8-8-5-5-0-2-0"
       width="4.1969042"
       height="0.39687499"
       x="-37.378189"
       y="115.36049"
       ry="0.1984375"
       transform="scale(-1,1)" /><rect
       style="fill:#f2f2f2;fill-opacity:1;stroke:none;stroke-width:0.53759;stroke-dasharray:none;stroke-opacity:0.8"
       id="rect11-1-2"
       width="21.166666"
       height="21.166666"
       x="24.709602"
       y="126.97672"
       ry="1.3501071" /><rect
       style="fill:#ffffff;fill-opacity:1;stroke:#000000;stroke-width:0.30427082;stroke-linecap:round;stroke-linejoin:bevel;stroke-dasharray:none"
       id="rect1-6"
       width="6.2039928"
       height="11.561502"
       x="-39.119801"
       y="155.43013"
       ry="1.0925304"
       transform="scale(-1,1)" /><rect
       style="fill:#ffffff;fill-opacity:1;stroke:#000000;stroke-width:0.188526;stroke-linecap:round;stroke-linejoin:bevel;stroke-dasharray:none"
       id="rect1-6-8"
       width="2.2667489"
       height="4.3370295"
       x="-55.708252"
       y="154.75052"
       ry="0.40983745"
       transform="scale(-1,1)" /><rect
       style="fill:#000000;fill-opacity:1;stroke:none;stroke-width:0.14769;stroke-dasharray:none"
       id="rect5-3-0"
       width="0.61187804"
       height="0.23706013"
       x="-54.933708"
       y="155.03354"
       ry="0.11853006"
       transform="scale(-1,1)" /><rect
       style="fill:#000000;fill-opacity:1;stroke:none;stroke-width:0.116422;stroke-dasharray:none"
       id="rect5-3-6-3-5"
       width="0.5737108"
       height="0.15710489"
       x="-156.2551"
       y="-53.412647"
       ry="0.078552447"
       transform="matrix(0,-1,-1,0,0,0)" /><rect
       style="fill:#000000;fill-opacity:1;stroke:none;stroke-width:0.116422;stroke-dasharray:none"
       id="rect5-3-6-3-5-5"
       width="0.5737108"
       height="0.15710489"
       x="-155.08443"
       y="-63.857178"
       ry="0.078552447"
       transform="matrix(0,-1,-1,0,0,0)" /><rect
       style="fill:#000000;fill-opacity:1;stroke:none;stroke-width:0.116422;stroke-dasharray:none"
       id="rect5-3-6-3-5-5-9"
       width="0.5737108"
       height="0.15710489"
       x="-157.20691"
       y="-55.853107"
       ry="0.078552447"
       transform="matrix(0,-1,-1,0,0,0)" /><rect
       style="fill:#000000;fill-opacity:1;stroke:none;stroke-width:0.116422;stroke-dasharray:none"
       id="rect5-3-6-3-4-0"
       width="0.5737108"
       height="0.15710489"
       x="-156.9171"
       y="-53.412647"
       ry="0.078552447"
       transform="matrix(0,-1,-1,0,0,0)" /><rect
       style="fill:#000000;fill-opacity:1;stroke:none;stroke-width:0.352273;stroke-dasharray:none"
       id="rect5-3"
       width="1.7486528"
       height="0.47192764"
       x="-36.927246"
       y="156.01172"
       ry="0.23596382"
       transform="scale(-1,1)" /><rect
       style="fill:#000000;fill-opacity:1;stroke:none;stroke-width:0.26034;stroke-dasharray:none"
       id="rect5-3-6"
       width="1.3627825"
       height="0.33072916"
       x="-160.09557"
       y="-39.401409"
       ry="0.16536458"
       transform="matrix(0,-1,-1,0,0,0)" /><rect
       style="fill:#000000;fill-opacity:1;stroke:none;stroke-width:0.26034;stroke-dasharray:none"
       id="rect5-3-6-3"
       width="1.3627825"
       height="0.33072916"
       x="-158.88736"
       y="-32.831211"
       ry="0.16536458"
       transform="matrix(0,-1,-1,0,0,0)" /><rect
       style="fill:#000000;fill-opacity:1;stroke:none;stroke-width:0.26034;stroke-dasharray:none"
       id="rect5-3-6-3-4"
       width="1.3627825"
       height="0.33072916"
       x="-160.45992"
       y="-32.831211"
       ry="0.16536458"
       transform="matrix(0,-1,-1,0,0,0)" /><rect
       style="fill:#000000;fill-opacity:1;stroke:none;stroke-width:0.26034;stroke-dasharray:none"
       id="rect5-3-6-1"
       width="1.3627825"
       height="0.33072916"
       x="58.957237"
       y="-162.79477"
       ry="0.16536458"
       transform="scale(1,-1)" /><rect
       style="fill:#ffffff;fill-opacity:1;stroke:#000000;stroke-width:0.264583;stroke-linecap:round;stroke-linejoin:bevel;stroke-dasharray:none"
       id="rect1-6-7-1"
       width="9.6857767"
       height="6.8220382"
       x="-64.588432"
       y="161.50615"
       ry="0.32266399"
       transform="scale(-1,1)" /><rect
       style="fill:#ffffff;fill-opacity:1;stroke:#000000;stroke-width:0.231437;stroke-linecap:round;stroke-linejoin:bevel;stroke-dasharray:none"
       id="rect1-6-7-1-6"
       width="4.5850053"
       height="5.8972878"
       x="-66.247581"
       y="153.30725"
       ry="0.27892578"
       transform="scale(-1,1)" /><g
       id="g2"
       transform="matrix(0.70677982,0,0,0.70677982,6.8260647,36.801227)"><path
         d="m 34.112031,139.02473 -0.465378,-5.21991 h 5.113848 l -0.465887,5.21909 -2.094175,0.58058 z"
         id="path1-0-0"
         style="fill:#000000;stroke:#000000;stroke-width:0.015394;stroke-dasharray:none" /><path
         d="m 36.20357,139.16071 1.692195,-0.46912 0.39813,-4.45997 H 36.20357 Z"
         id="path2-1-5"
         style="fill:#000000;stroke:#1a1a1a;stroke-width:0.015394;stroke-dasharray:none" /><path
         d="m 36.203572,136.16761 h -0.847156 l -0.05851,-0.65558 h 0.905663 v -0.64021 h -1.605325 l 0.01532,0.17176 0.15735,1.76422 h 1.43265 z m 0,1.66267 -0.0028,7.1e-4 -0.713012,-0.19252 -0.04558,-0.51059 h -0.642663 l 0.08969,1.00521 1.311407,0.36405 0.003,-7e-4 z"
         id="path3-6-6"
         style="fill:#f9f9f9;stroke:#ffffff;stroke-width:0.015394;stroke-dasharray:none" /><path
         d="m 34.122436,132.38626 h 0.325341 v 0.32144 h 0.297611 v -0.32144 h 0.325356 v 0.97339 h -0.325341 v -0.32595 h -0.297611 v 0.32595 h -0.325329 v -0.97339 z m 1.376144,0.32279 h -0.286403 v -0.32279 h 0.898331 v 0.32279 h -0.286544 v 0.6506 h -0.325356 z m 0.754488,-0.32279 h 0.339228 l 0.208681,0.34202 0.208482,-0.34202 h 0.33937 v 0.97339 h -0.324003 v -0.48246 l -0.223835,0.34609 h -0.0055 l -0.224006,-0.34609 v 0.48246 h -0.31832 v -0.97339 z m 1.257678,0 h 0.325441 v 0.65164 h 0.457526 v 0.32175 h -0.782967 z"
         id="path4-4-3"
         style="fill:#000000;stroke:none;stroke-width:0.015394;stroke-dasharray:none" /><path
         d="m 36.20137,136.16762 v 0.64019 h 0.788325 l -0.07431,0.83029 -0.714013,0.19272 v 0.66605 l 1.312436,-0.36374 0.0096,-0.10816 0.150441,-1.68545 0.01562,-0.1719 h -0.172517 z m 0,-1.2958 v 0.64022 h 1.546379 l 0.01284,-0.1439 0.02917,-0.32456 0.01531,-0.17176 z"
         id="path5-6-2"
         style="fill:#f9f9f9;stroke:#ffffff;stroke-width:0.015394;stroke-dasharray:none" /></g><rect
       style="fill:#f2f2f2;fill-opacity:1;stroke:none;stroke-width:0.537589;stroke-dasharray:none;stroke-opacity:0.8"
       id="rect11-0"
       width="21.166666"
       height="21.166666"
       x="49.913265"
       y="103.08701"
       ry="1.3501071" /><rect
       style="fill:#f2f2f2;fill-opacity:1;stroke:none;stroke-width:0.537589;stroke-dasharray:none;stroke-opacity:0.8"
       id="rect11-0-1"
       width="21.166666"
       height="21.166666"
       x="75.116928"
       y="103.08701"
       ry="1.3501071" /><rect
       style="fill:#ffffff;fill-opacity:1;stroke:#000000;stroke-width:0.26458332;stroke-dasharray:none"
       id="rect1-3-9-4-8"
       width="4.16994"
       height="6.245152"
       x="-83.233528"
       y="106.57771"
       ry="0.29537886"
       transform="scale(-1,1)" /><rect
       style="fill:#ffffff;fill-opacity:1;stroke:#000000;stroke-width:0.27595;stroke-dasharray:none"
       id="rect1-3-9-4-8-1"
       width="2.5801008"
       height="1.4028181"
       x="-82.438606"
       y="107.59373"
       ry="0.066349514"
       transform="scale(-1,1)" /><rect
       style="fill:#1a1a1a;fill-opacity:1;stroke:none;stroke-width:0.332719;stroke-dasharray:none"
       id="rect5-8-96-2-8-4"
       width="2.4538989"
       height="0.30000001"
       x="-82.447815"
       y="109.64965"
       ry="0.15000001"
       transform="scale(-1,1)" /><rect
       style="fill:#1a1a1a;fill-opacity:1;stroke:none;stroke-width:0.332719;stroke-dasharray:none"
       id="rect5-8-8-5-5-0-2"
       width="2.4538989"
       height="0.30000001"
       x="-82.45607"
       y="110.89544"
       ry="0.15000001"
       transform="scale(-1,1)" /><rect
       style="fill:#ffffff;fill-opacity:1;stroke:#000000;stroke-width:0.26458332;stroke-dasharray:none"
       id="rect1-3-9-4-8-6"
       width="4.16994"
       height="6.245152"
       x="-87.933609"
       y="115.05441"
       ry="0.29537886"
       transform="scale(-1,1)" /><rect
       style="fill:#ffffff;fill-opacity:1;stroke:#000000;stroke-width:0.27595;stroke-dasharray:none"
       id="rect1-3-9-4-8-1-5"
       width="2.5801008"
       height="1.4028181"
       x="-87.185463"
       y="117.14619"
       ry="0.066349514"
       transform="scale(-1,1)" /><rect
       style="fill:#1a1a1a;fill-opacity:1;stroke:none;stroke-width:0.332719;stroke-dasharray:none"
       id="rect5-8-96-2-8-4-0"
       width="2.4538989"
       height="0.30000001"
       x="-87.147896"
       y="115.92808"
       ry="0.15000001"
       transform="scale(-1,1)" /><rect
       style="fill:#1a1a1a;fill-opacity:1;stroke:none;stroke-width:0.332719;stroke-dasharray:none"
       id="rect5-8-8-5-5-0-2-9"
       width="2.4538989"
       height="0.30000001"
       x="-87.156151"
       y="119.37214"
       ry="0.15000001"
       transform="scale(-1,1)" /><rect
       style="fill:#ffffff;fill-opacity:1;stroke:#000000;stroke-width:0.26458332;stroke-dasharray:none"
       id="rect1-3-9-4-8-0"
       width="4.16994"
       height="6.245152"
       x="-92.265594"
       y="106.3462"
       ry="0.29537886"
       transform="scale(-1,1)" /><rect
       style="fill:#ffffff;fill-opacity:1;stroke:#000000;stroke-width:0.27595;stroke-dasharray:none"
       id="rect1-3-9-4-8-1-2"
       width="2.5801008"
       height="1.4028181"
       x="-91.512527"
       y="109.84743"
       ry="0.066349514"
       transform="scale(-1,1)" /><rect
       style="fill:#1a1a1a;fill-opacity:1;stroke:none;stroke-width:0.332719;stroke-dasharray:none"
       id="rect5-8-96-2-8-4-8"
       width="2.4538989"
       height="0.30000001"
       x="-91.446808"
       y="107.43925"
       ry="0.15000001"
       transform="scale(-1,1)" /><rect
       style="fill:#1a1a1a;fill-opacity:1;stroke:none;stroke-width:0.332719;stroke-dasharray:none"
       id="rect5-8-8-5-5-0-2-6"
       width="2.4538989"
       height="0.30000001"
       x="-91.43853"
       y="108.56379"
       ry="0.15000001"
       transform="scale(-1,1)" /><rect
       style="fill:#f2f2f2;fill-opacity:1;stroke:none;stroke-width:0.53759;stroke-dasharray:none;stroke-opacity:0.8"
       id="rect11-0-1-0"
       width="21.166666"
       height="21.166666"
       x="49.279774"
       y="127.21768"
       ry="1.3501071" /><g
       id="g1"
       transform="matrix(0.48487393,0,0,0.48487393,26.176564,66.07016)"><path
         d="m 54.829804,137.24853 c 0,1.91815 1.114722,3.5758 2.731157,4.36133 l -2.311603,-6.33351 c -0.268883,0.60268 -0.419554,1.26964 -0.419554,1.97218 z"
         id="path1-9-9"
         style="fill:#000000;stroke:#1a1a1a;stroke-width:0.100686;stroke-dasharray:none" /><path
         d="m 62.947203,137.00399 c 0,-0.5989 -0.215125,-1.01366 -0.399637,-1.33649 -0.245646,-0.39917 -0.475894,-0.73721 -0.475894,-1.13639 0,-0.44546 0.337856,-0.86013 0.81375,-0.86013 0.02148,0 0.04186,0.003 0.0628,0.004 -0.86216,-0.78986 -2.010815,-1.27212 -3.272428,-1.27212 -1.692969,0 -3.182431,0.86862 -4.048925,2.18426 0.113695,0.003 0.220842,0.006 0.311853,0.006 0.506877,0 1.291488,-0.0615 1.291488,-0.0615 0.26123,-0.0154 0.292028,0.36828 0.03108,0.39917 0,0 -0.262521,0.0309 -0.554641,0.0462 l 1.764708,5.24903 1.060503,-3.18058 -0.755012,-2.06863 c -0.260954,-0.0153 -0.508168,-0.0462 -0.508168,-0.0462 -0.261137,-0.0153 -0.230524,-0.41458 0.03061,-0.39918 0,0 0.800287,0.0615 1.276458,0.0615 0.506784,0 1.291488,-0.0615 1.291488,-0.0615 0.261414,-0.0154 0.29212,0.36829 0.03108,0.39918 0,0 -0.263074,0.0309 -0.554641,0.0462 l 1.751245,5.20929 0.483363,-1.61524 c 0.2095,-0.67027 0.368931,-1.1517 0.368931,-1.56655 z"
         id="path2-8"
         style="fill:#000000;stroke:#000000;stroke-width:0.100686;stroke-dasharray:none" /><path
         d="m 59.760807,137.67242 -1.453962,4.22495 c 0.434123,0.12762 0.893235,0.19742 1.368944,0.19742 0.564323,0 1.105502,-0.0975 1.609243,-0.27469 -0.013,-0.0207 -0.02481,-0.0428 -0.03449,-0.0668 z"
         id="path3-2"
         style="fill:#000000;stroke:#000000;stroke-width:0.100686;stroke-dasharray:none" /><path
         d="m 63.927944,134.92356 c 0.02084,0.15436 0.03264,0.32006 0.03264,0.4983 0,0.49175 -0.09184,1.04455 -0.36847,1.73575 l -1.480241,4.27973 c 1.440683,-0.84012 2.409714,-2.40096 2.409714,-4.18872 9.2e-5,-0.84252 -0.215125,-1.63478 -0.593646,-2.32506 z"
         id="path4-5"
         style="fill:#000000;stroke:#000000;stroke-width:0.100686;stroke-dasharray:none" /><path
         d="m 59.675789,131.59977 c -3.114749,0 -5.648946,2.53401 -5.648946,5.64876 0,3.11512 2.534197,5.64904 5.648946,5.64904 3.114657,0 5.649223,-2.53392 5.649223,-5.64904 -9.2e-5,-3.11475 -2.534566,-5.64876 -5.649223,-5.64876 z m 0,11.03888 c -2.971916,0 -5.389929,-2.41802 -5.389929,-5.39012 0,-2.97192 2.417921,-5.38974 5.389929,-5.38974 2.971825,0 5.389653,2.41782 5.389653,5.38974 0,2.9721 -2.417828,5.39012 -5.389653,5.39012 z"
         id="path5-5"
         style="fill:#000000;stroke:#000000;stroke-width:0.100686;stroke-dasharray:none" /></g><rect
       style="fill:#000000;fill-opacity:1;stroke:none;stroke-width:0.260085;stroke-dasharray:none"
       id="rect2"
       width="9.6820049"
       height="0.26458332"
       x="54.877201"
       y="166.51801"
       ry="0.13229166" /></g></svg>
