<?xml version="1.0" encoding="UTF-8" standalone="no"?>
<!-- Created with Inkscape (http://www.inkscape.org/) -->

<svg
   width="56.635918"
   height="81.889755"
   viewBox="0 0 14.98492 21.666664"
   version="1.1"
   id="svg1"
   xml:space="preserve"
   inkscape:version="1.4 (86a8ad7, 2024-10-11)"
   sodipodi:docname="websites.svg"
   xmlns:inkscape="http://www.inkscape.org/namespaces/inkscape"
   xmlns:sodipodi="http://sodipodi.sourceforge.net/DTD/sodipodi-0.dtd"
   xmlns="http://www.w3.org/2000/svg"
   xmlns:svg="http://www.w3.org/2000/svg"><sodipodi:namedview
     id="namedview1"
     pagecolor="#ffffff"
     bordercolor="#000000"
     borderopacity="0.25"
     inkscape:showpageshadow="2"
     inkscape:pageopacity="0.0"
     inkscape:pagecheckerboard="0"
     inkscape:deskcolor="#d1d1d1"
     inkscape:document-units="px"
     inkscape:zoom="2.8756734"
     inkscape:cx="107.10535"
     inkscape:cy="49.205866"
     inkscape:window-width="1920"
     inkscape:window-height="1009"
     inkscape:window-x="-8"
     inkscape:window-y="-8"
     inkscape:window-maximized="1"
     inkscape:current-layer="layer1" /><defs
     id="defs1" /><g
     inkscape:label="Layer 1"
     inkscape:groupmode="layer"
     id="layer1"
     transform="translate(-135.68963,-75.210755)"><g
       id="g1"
       transform="matrix(0.19289941,0,0,0.19289941,84.571851,69.458455)"><path
         style="fill:#000000"
         d="M 100.76831,132.34158 C 84.764371,105.90127 73.749373,83.03566 71.55131,71.69116 70.640824,66.99201 71.187548,60.75335 72.93634,55.88663 77.00754,44.55685 86.403811,36.41534 98.236871,33.9647 c 5.448139,-1.12831 12.477099,-0.6318 17.718439,1.2516 13.40923,4.81843 22.41421,17.35316 22.49713,31.31549 0.0212,3.57503 -0.54256,6.4476 -2.32714,11.85691 -4.13346,12.52911 -14.41248,32.73552 -28.11852,55.27514 -1.70143,2.798 -3.15303,5.08757 -3.22579,5.08792 -0.0728,3.6e-4 -1.87847,-2.88422 -4.01268,-6.41018 z m 10.59091,-40.6538 c 2.92765,-0.85381 4.9596,-1.77713 7.3877,-3.35696 5.02775,-3.27128 8.68552,-8.2226 10.54879,-14.27929 0.67421,-2.19159 0.72613,-2.69147 0.72613,-6.99058 0,-4.28362 -0.0536,-4.80426 -0.71596,-6.95545 -2.68545,-8.72163 -8.85764,-14.8935 -17.56751,-17.56659 -2.1264,-0.6526 -2.71522,-0.71557 -6.82509,-0.72994 -3.50585,-0.0123 -4.86715,0.0863 -6.171959,0.44705 -9.57113,2.64584 -16.124309,9.19927 -18.764535,18.76526 -0.353165,1.27958 -0.462211,2.70274 -0.462772,6.03967 -6.3e-4,3.75222 0.08347,4.65618 0.598535,6.43352 0.880976,3.03997 1.798037,5.0725 3.398564,7.53241 3.669448,5.6397 9.309418,9.46637 16.272688,11.04087 2.553339,0.57735 9.020769,0.36505 11.575419,-0.37997 z"
         id="path1" /><text
         xml:space="preserve"
         style="font-weight:bold;font-size:14.1111px;font-family:'Ananda Black Personal Use';-inkscape-font-specification:'Ananda Black Personal Use Bold';text-align:start;writing-mode:lr-tb;direction:ltr;text-anchor:start;fill:#000000;stroke-width:1.00012"
         x="91.434654"
         y="69.494476"
         id="text1"><tspan
           sodipodi:role="line"
           id="tspan1"
           x="91.434654"
           y="69.494476"
           style="font-style:normal;font-variant:normal;font-weight:bold;font-stretch:normal;font-size:14.1111px;font-family:suse;-inkscape-font-specification:'suse Bold';stroke-width:1.00012">SEO</tspan></text></g><path
       style="fill:none;stroke:#000000;stroke-width:0.529167;stroke-dasharray:none"
       d="m 167.40092,96.37552 c -0.80689,-0.07414 -1.45362,-0.563854 -1.75155,-1.326297 -0.0854,-0.218521 -0.11034,-0.380305 -0.11061,-0.717184 -2.3e-4,-0.275952 0.007,-0.349373 0.0535,-0.521909 0.0636,-0.237299 0.18767,-0.499529 0.31905,-0.674202 0.0846,-0.112444 1.82247,-1.860893 5.66297,-5.697361 l 1.2858,-1.284446 1.44509,1.444968 1.44508,1.444968 -3.44143,3.441898 c -2.43977,2.440101 -3.48354,3.470238 -3.58611,3.539266 -0.27864,0.187529 -0.62808,0.316758 -0.92575,0.342359 -0.0707,0.0061 -0.15253,0.01367 -0.18197,0.01687 -0.0294,0.0032 -0.12578,-8.16e-4 -0.21409,-0.0089 z m 15.32124,-0.05396 c -1.49182,-0.232052 -2.70809,-1.218496 -3.23175,-2.621073 -0.22495,-0.602527 -0.32282,-1.391083 -0.24179,-1.948172 0.0348,-0.239101 0.1254,-0.618323 0.19423,-0.812814 l 0.0338,-0.09563 -4.20979,-4.209832 -4.20979,-4.209832 -0.21741,0.0705 c -0.72021,0.233541 -1.42111,0.245848 -2.24825,0.03948 -0.42677,-0.106478 -0.95235,-0.35249 -1.34545,-0.629774 -0.2235,-0.157654 -0.60439,-0.515328 -0.78654,-0.738593 -0.87232,-1.069267 -1.14451,-2.509244 -0.71953,-3.806597 0.0923,-0.28175 0.18833,-0.506673 0.21647,-0.506977 0.0121,-1.31e-4 0.6552,0.633866 1.42917,1.408882 1.51461,1.516642 1.51147,1.51388 1.84578,1.624351 0.24075,0.07955 0.59334,0.08372 0.81352,0.0096 0.42274,-0.142275 0.76355,-0.478903 0.89144,-0.8805 0.0258,-0.08089 0.0491,-0.226049 0.0556,-0.345579 0.0141,-0.260616 -0.0293,-0.46824 -0.14855,-0.709905 -0.0852,-0.172774 -0.11169,-0.200846 -1.52264,-1.614844 -0.78976,-0.791457 -1.43159,-1.442983 -1.42629,-1.447836 0.0309,-0.02832 0.30081,-0.137359 0.5139,-0.207605 1.30945,-0.431677 2.7615,-0.151112 3.82968,0.739973 0.95813,0.799276 1.49151,1.970925 1.48606,3.264342 -0.002,0.392559 -0.053,0.706232 -0.18113,1.106169 l -0.0661,0.206303 4.21251,4.212549 4.21251,4.212548 0.0766,-0.02981 c 0.15858,-0.06171 0.54718,-0.159337 0.75756,-0.190321 0.40845,-0.06015 0.89123,-0.0411 1.37426,0.05425 1.53413,0.302823 2.76327,1.455215 3.15959,2.962294 0.0881,0.334921 0.13143,0.678273 0.13256,1.049705 0.001,0.366712 -0.0248,0.580858 -0.11304,0.932245 -0.0819,0.326476 -0.25542,0.791138 -0.29538,0.791138 -0.008,0 -0.64129,-0.626692 -1.40661,-1.392648 -1.50234,-1.503592 -1.52662,-1.524947 -1.86248,-1.637919 -0.34327,-0.115467 -0.70098,-0.08878 -1.03006,0.07685 -0.31111,0.156582 -0.54803,0.424065 -0.66925,0.755576 -0.0507,0.138488 -0.0562,0.183172 -0.0562,0.453349 0,0.271702 0.005,0.314397 0.0574,0.456742 0.11494,0.314659 0.12046,0.320881 1.61758,1.823829 l 1.4187,1.42423 -0.13386,0.05828 c -0.30847,0.13431 -0.69721,0.247357 -1.04371,0.303512 -0.25414,0.04119 -0.89725,0.04094 -1.16331,-4.48e-4 z m -4.08181,-13.079157 -0.71698,-0.717221 1.79167,-1.792925 1.79166,-1.792925 0.19924,-0.386052 c 0.10958,-0.212328 0.44802,-0.867438 0.75208,-1.4558 l 0.55285,-1.06975 0.24997,-0.13105 c 0.86181,-0.451802 2.7007,-1.399611 2.71546,-1.399611 0.0282,0 1.42016,1.399278 1.42016,1.427631 0,0.03136 -1.49422,2.919271 -1.52801,2.953211 -0.0245,0.02465 -1.23013,0.653365 -2.31481,1.207171 l -0.59944,0.306055 -1.78778,1.784243 c -0.98328,0.981334 -1.79258,1.784243 -1.79844,1.784243 -0.006,0 -0.33329,-0.322749 -0.72763,-0.71722 z"
       id="path2" /><g
       id="g2"
       transform="matrix(0.66690057,0,0,0.66690057,47.693873,28.661236)"
       style="stroke-width:1;stroke-dasharray:none"><rect
         style="fill:none;stroke:#000000;stroke-width:1;stroke-dasharray:none"
         id="rect1"
         width="21.469496"
         height="31.488596"
         x="132.44734"
         y="70.299789"
         ry="0.23001859" /><rect
         style="fill:none;stroke:#000000;stroke-width:1;stroke-dasharray:none"
         id="rect1-2"
         width="14.761359"
         height="7.0193286"
         x="135.80141"
         y="73.089142"
         ry="0.053241957" /><rect
         style="fill:#000000;stroke:none;stroke-width:1;stroke-dasharray:none"
         id="rect2"
         width="13.141934"
         height="0.78070897"
         x="136.61113"
         y="82.98822"
         ry="0.07077495" /><rect
         style="fill:#000000;stroke:none;stroke-width:1;stroke-dasharray:none"
         id="rect2-6"
         width="13.141934"
         height="0.78070897"
         x="136.61113"
         y="85.7733"
         ry="0.07077495" /><rect
         style="fill:#000000;stroke:none;stroke-width:1;stroke-dasharray:none"
         id="rect2-6-7"
         width="13.141934"
         height="0.78070897"
         x="136.61113"
         y="88.688065"
         ry="0.07077495" /><rect
         style="fill:#000000;stroke:none;stroke-width:1;stroke-dasharray:none"
         id="rect2-6-7-1"
         width="13.141934"
         height="0.78070897"
         x="136.61113"
         y="91.524727"
         ry="0.07077495" /></g></g></svg>
