<svg width="38.621" height="38.621" viewBox="0 0 10.219 10.219" xml:space="preserve">
  <g transform="matrix(-.33532 0 0 .33532 -48.718 -31.385)" style="stroke:#000;stroke-width:1.09192;stroke-dasharray:none">
    <circle style="fill:#666;fill-opacity:0;stroke:#000;stroke-width:1.09192;stroke-dasharray:none" cx="-43.469" cy="109.896" r="14.691" fill="none"/>
    <rect style="fill:#666;fill-opacity:0;stroke:#000;stroke-width:1.19287;stroke-dasharray:none" width="10.936" height="16.659" x="-48.844" y="101.799" ry=".788" fill="none"/>
    <rect style="fill:#1a1a1a;fill-opacity:1;stroke:none;stroke-width:1.19287;stroke-dasharray:none" width="4.456" height=".861" x="-45.752" y="106.337" ry=".43" stroke="none"/>
    <rect style="fill:#1a1a1a;fill-opacity:1;stroke:none;stroke-width:1.19287;stroke-dasharray:none" width="4.456" height=".861" x="-45.786" y="109.046" ry=".43" stroke="none"/>
    <rect style="fill:#1a1a1a;fill-opacity:1;stroke:none;stroke-width:1.19287;stroke-dasharray:none" width="4.456" height=".861" x="-45.798" y="111.704" ry=".43" stroke="none"/>
  </g>
  <g transform="matrix(.33532 0 0 .33532 -35.532 -31.206)" style="stroke:#000;stroke-width:1.09192;stroke-dasharray:none">
    <circle style="fill:#666;fill-opacity:0;stroke:#000;stroke-width:1.09192;stroke-dasharray:none" cx="-43.469" cy="109.896" r="14.691" transform="scale(-1 1)" fill="none"/>
    <rect style="fill:#666;fill-opacity:0;stroke:#000;stroke-width:.857167;stroke-dasharray:none" width="7.859" height="11.971" x="-52.876" y="103.992" ry=".566" transform="scale(-1 1)" fill="none"/>
    <rect style="fill:#1a1a1a;fill-opacity:1;stroke:none;stroke-width:.857167;stroke-dasharray:none" width="3.202" height=".619" x="-50.654" y="107.252" ry=".309" transform="scale(-1 1)" stroke="none"/>
    <rect style="fill:#1a1a1a;fill-opacity:1;stroke:none;stroke-width:.857167;stroke-dasharray:none" width="3.202" height=".619" x="-50.678" y="109.199" ry=".309" transform="scale(-1 1)" stroke="none"/>
    <rect style="fill:#1a1a1a;fill-opacity:1;stroke:none;stroke-width:.857167;stroke-dasharray:none" width="3.202" height=".619" x="-50.687" y="111.109" ry=".309" transform="scale(-1 1)" stroke="none"/>
    <rect style="fill:#666;fill-opacity:0;stroke:#000;stroke-width:.857167;stroke-dasharray:none" width="7.859" height="11.971" x="-41.772" y="103.68" ry=".566" transform="scale(-1 1)" fill="none"/>
    <rect style="fill:#1a1a1a;fill-opacity:1;stroke:none;stroke-width:.857167;stroke-dasharray:none" width="3.202" height=".619" x="-39.55" y="106.94" ry=".309" transform="scale(-1 1)" stroke="none"/>
    <rect style="fill:#1a1a1a;fill-opacity:1;stroke:none;stroke-width:.857167;stroke-dasharray:none" width="3.202" height=".619" x="-39.574" y="108.886" ry=".309" transform="scale(-1 1)" stroke="none"/>
    <rect style="fill:#1a1a1a;fill-opacity:1;stroke:none;stroke-width:.857167;stroke-dasharray:none" width="3.202" height=".619" x="-39.583" y="110.796" ry=".309" transform="scale(-1 1)" stroke="none"/>
    <circle style="fill:#666;fill-opacity:0;stroke:#000;stroke-width:1.09192;stroke-dasharray:none" cx="-83.265" cy="108.014" r="14.691" transform="scale(-1 1)" fill="none"/>
    <rect style="fill:#666;fill-opacity:0;stroke:#000;stroke-width:.840532;stroke-dasharray:none" width="6.409" height="9.822" x="84.982" y="107.669" ry=".465" fill="none"/>
    <rect style="fill:#1a1a1a;fill-opacity:1;stroke:none;stroke-width:.840532;stroke-dasharray:none" width="2.611" height=".508" x="86.84" y="110.62" ry=".254" stroke="none"/>
    <rect style="fill:#666;fill-opacity:0;stroke:#000;stroke-width:.840532;stroke-dasharray:none" width="6.409" height="9.822" x="75.576" y="107.81" ry=".465" fill="none"/>
    <rect style="fill:#1a1a1a;fill-opacity:1;stroke:none;stroke-width:.840532;stroke-dasharray:none" width="2.611" height=".508" x="77.434" y="110.761" ry=".254" stroke="none"/>
    <rect style="fill:#1a1a1a;fill-opacity:1;stroke:none;stroke-width:.840532;stroke-dasharray:none" width="2.611" height=".508" x="77.414" y="112.358" ry=".254" stroke="none"/>
    <rect style="fill:#1a1a1a;fill-opacity:1;stroke:none;stroke-width:.840532;stroke-dasharray:none" width="2.611" height=".508" x="77.407" y="113.925" ry=".254" stroke="none"/>
    <rect style="fill:#666;fill-opacity:0;stroke:#000;stroke-width:.840532;stroke-dasharray:none" width="6.409" height="9.822" x="79.681" y="96.049" ry=".465" fill="none"/>
    <rect style="fill:#1a1a1a;fill-opacity:1;stroke:none;stroke-width:.840532;stroke-dasharray:none" width="2.611" height=".508" x="81.539" y="99" ry=".254" stroke="none"/>
    <rect style="fill:#1a1a1a;fill-opacity:1;stroke:none;stroke-width:.840532;stroke-dasharray:none" width="2.611" height=".508" x="81.52" y="100.597" ry=".254" stroke="none"/>
    <rect style="fill:#1a1a1a;fill-opacity:1;stroke:none;stroke-width:.840532;stroke-dasharray:none" width="2.611" height=".508" x="81.512" y="102.165" ry=".254" stroke="none"/>
    <rect style="fill:#1a1a1a;fill-opacity:1;stroke:none;stroke-width:.840532;stroke-dasharray:none" width="2.611" height=".508" x="86.82" y="112.217" ry=".254" stroke="none"/>
    <rect style="fill:#1a1a1a;fill-opacity:1;stroke:none;stroke-width:.840532;stroke-dasharray:none" width="2.611" height=".508" x="86.813" y="113.784" ry=".254" stroke="none"/>
    <g transform="matrix(-.15657 0 0 .15657 131.3 98.603)" fill="#464342">
      <circle style="fill:#666;fill-opacity:0;stroke:#000;stroke-width:1.09192;stroke-dasharray:none" cx="121.199" cy="108.298" r="14.691" transform="matrix(-6.387 0 0 6.387 838.611 -629.779)" fill="none"/>
      <path d="M19.708 61.26c0 16.448 9.56 30.662 23.42 37.398L23.306 44.35a41.396 41.396 0 0 0-3.598 16.911zM89.314 59.163c0-5.135-1.844-8.692-3.426-11.46-2.107-3.423-4.081-6.321-4.081-9.744 0-3.82 2.897-7.376 6.978-7.376.184 0 .359.023.538.033-7.393-6.773-17.242-10.908-28.06-10.908-14.518 0-27.29 7.448-34.72 18.73.975.03 1.894.05 2.674.05 4.347 0 11.075-.528 11.075-.528 2.24-.132 2.504 3.158.266 3.423 0 0-2.251.265-4.756.396l15.132 45.01 9.094-27.273-6.474-17.738a75.714 75.714 0 0 1-4.358-.396c-2.239-.132-1.976-3.555.263-3.423 0 0 6.862.527 10.945.527 4.346 0 11.075-.527 11.075-.527 2.241-.132 2.505 3.158.266 3.423 0 0-2.256.264-4.756.396l15.017 44.669 4.145-13.85c1.796-5.748 3.163-9.876 3.163-13.434z" style="fill:#000;stroke-width:.863369" transform="matrix(-1 0 0 1 126.816 0)"/>
      <path d="m61.991 64.895-12.467 36.229a41.552 41.552 0 0 0 25.537-.663 3.65 3.65 0 0 1-.295-.572zM97.724 41.324c.179 1.324.28 2.744.28 4.273 0 4.217-.787 8.957-3.16 14.884L82.152 97.179c12.353-7.204 20.663-20.588 20.663-35.918a41.329 41.329 0 0 0-5.09-19.937z" style="fill:#000;stroke-width:.863369" transform="matrix(-1 0 0 1 126.816 0)"/>
      <path d="M61.262 12.823c-26.708 0-48.439 21.729-48.439 48.437 0 26.712 21.73 48.44 48.44 48.44 26.707 0 48.44-21.728 48.44-48.44 0-26.708-21.733-48.437-48.44-48.437Zm0 94.657c-25.484 0-46.218-20.734-46.218-46.22 0-25.484 20.734-46.216 46.218-46.216 25.483 0 46.216 20.732 46.216 46.216 0 25.486-20.733 46.22-46.216 46.22z" style="fill:#000;stroke-width:.863369" transform="matrix(-1 0 0 1 126.816 0)"/>
    </g>
  </g>
</svg>
