<?xml version="1.0" encoding="UTF-8" standalone="no"?>
<!-- Created with Inkscape (http://www.inkscape.org/) -->

<svg
   width="23.8125mm"
   height="23.8125mm"
   viewBox="0 0 23.8125 23.812501"
   version="1.1"
   id="svg1"
   xml:space="preserve"
   inkscape:export-filename="html-css-js.svg"
   inkscape:export-xdpi="96"
   inkscape:export-ydpi="96"
   inkscape:version="1.4 (86a8ad7, 2024-10-11)"
   sodipodi:docname="cms.svg"
   xmlns:inkscape="http://www.inkscape.org/namespaces/inkscape"
   xmlns:sodipodi="http://sodipodi.sourceforge.net/DTD/sodipodi-0.dtd"
   xmlns="http://www.w3.org/2000/svg"
   xmlns:svg="http://www.w3.org/2000/svg"><sodipodi:namedview
     id="namedview1"
     pagecolor="#000000"
     bordercolor="#000000"
     borderopacity="1"
     inkscape:showpageshadow="2"
     inkscape:pageopacity="0.0"
     inkscape:pagecheckerboard="0"
     inkscape:deskcolor="#d1d1d1"
     inkscape:document-units="px"
     showborder="false"
     inkscape:zoom="2.9540685"
     inkscape:cx="127.6206"
     inkscape:cy="-9.6477114"
     inkscape:window-width="1920"
     inkscape:window-height="1009"
     inkscape:window-x="-8"
     inkscape:window-y="-8"
     inkscape:window-maximized="1"
     inkscape:current-layer="g136"><inkscape:page
       x="0"
       y="0"
       width="23.8125"
       height="23.812502"
       id="page2"
       margin="0"
       bleed="0" /></sodipodi:namedview><defs
     id="defs1"><style
       id="style1">
      .cls-1 {
        fill: #0678be;
      }

      .cls-2 {
        fill: none;
      }
    </style><style
       id="style1-1">
      .cls-1 {
        fill: #0678be;
      }

      .cls-2 {
        fill: none;
      }
    </style></defs><g
     inkscape:label="Layer 1"
     inkscape:groupmode="layer"
     id="layer1"
     transform="translate(-176.43497,-67.974876)"><g
       inkscape:label="Layer 1"
       id="layer1-8"
       transform="translate(28.52184,-50.139464)"><g
         id="g136"><g
           id="g80"><path
             id="rect11-1-2-5"
             style="baseline-shift:baseline;display:inline;overflow:visible;vector-effect:none;fill:#e6e6e6;enable-background:accumulate;stop-color:#000000;stop-opacity:1"
             d="m 149.50063,118.11434 h 20.6375 c 0.87947,0 1.5875,0.70803 1.5875,1.5875 v 20.6375 c 0,0.87947 -0.70803,1.5875 -1.5875,1.5875 h -20.6375 c -0.87947,0 -1.5875,-0.70803 -1.5875,-1.5875 v -20.6375 c 0,-0.87947 0.70803,-1.5875 1.5875,-1.5875 z" /><path
             id="path6-0"
             style="baseline-shift:baseline;display:inline;overflow:visible;vector-effect:none;fill:#ffffff;enable-background:accumulate;stop-color:#000000;stop-opacity:1"
             transform="rotate(90)"
             d="m 128.62446,-165.09126 a 3.1013269,3.1013269 0 0 1 -3.10133,3.10132 3.1013269,3.1013269 0 0 1 -3.10132,-3.10132 3.1013269,3.1013269 0 0 1 3.10132,-3.10133 3.1013269,3.1013269 0 0 1 3.10133,3.10133 z" /><path
             id="path5-9"
             style="baseline-shift:baseline;display:inline;overflow:visible;vector-effect:none;fill:#ffffff;enable-background:accumulate;stop-color:#000000;stop-opacity:1"
             d="m 158.7716,125.12849 a 4.2765913,4.2765913 0 0 1 -4.27659,4.27659 4.2765913,4.2765913 0 0 1 -4.27659,-4.27659 4.2765913,4.2765913 0 0 1 4.27659,-4.27659 4.2765913,4.2765913 0 0 1 4.27659,4.27659 z" /><g
             id="path1-9-9-4"><path
               d="m 151.12689,125.41672 c 0,1.3902 0.80791,2.5916 1.97944,3.16092 l -1.67536,-4.59028 c -0.19487,0.4368 -0.30408,0.92018 -0.30408,1.42936 z"
               id="path25" /><path
               style="fill:#1a1a1a"
               d="m 151.43359,123.89063 -0.0352,0.082 c -0.19689,0.44131 -0.3086,0.92896 -0.3086,1.44336 0,1.40433 0.81626,2.62005 2,3.19531 l 0.082,0.0391 z m 0.006,0.22851 1.58399,4.33789 c -1.09379,-0.58542 -1.85938,-1.71321 -1.85938,-3.04101 0,-0.46217 0.11158,-0.89358 0.27539,-1.29688 z"
               id="path26" /></g><g
             id="path2-8-7"><path
               d="m 157.01006,125.23948 c 0,-0.43406 -0.15591,-0.73466 -0.28964,-0.96863 -0.17803,-0.2893 -0.34491,-0.5343 -0.34491,-0.82361 0,-0.32285 0.24487,-0.62339 0.58978,-0.62339 0.0156,0 0.0303,0.002 0.0455,0.003 -0.62486,-0.57246 -1.45736,-0.92198 -2.37173,-0.92198 -1.227,0 -2.3065,0.62954 -2.9345,1.58306 0.0824,0.002 0.16006,0.004 0.22602,0.004 0.36737,0 0.93602,-0.0446 0.93602,-0.0446 0.18933,-0.0112 0.21165,0.26691 0.0225,0.2893 0,0 -0.19026,0.0224 -0.40198,0.0335 l 1.27899,3.80429 0.76861,-2.30516 -0.5472,-1.49926 c -0.18913,-0.0111 -0.3683,-0.0335 -0.3683,-0.0335 -0.18927,-0.0111 -0.16708,-0.30047 0.0222,-0.28931 0,0 0.58001,0.0446 0.92512,0.0446 0.3673,0 0.93602,-0.0446 0.93602,-0.0446 0.18947,-0.0112 0.21172,0.26692 0.0225,0.28931 0,0 -0.19066,0.0224 -0.40198,0.0335 l 1.26923,3.77549 0.35033,-1.17066 c 0.15183,-0.48579 0.26738,-0.83471 0.26738,-1.13537 z"
               id="path23" /><path
               d="m 154.63867,121.86914 c -1.23948,0 -2.33034,0.63621 -2.96484,1.59961 l -0.0352,0.0547 h 0.0645 c 0.0824,0.002 0.15987,0.006 0.22657,0.006 0.37032,0 0.93945,-0.0449 0.93945,-0.0449 0.0384,-0.002 0.0634,0.009 0.082,0.0273 0.0186,0.0179 0.031,0.0429 0.0332,0.0703 0.002,0.0274 -0.006,0.055 -0.0215,0.0762 -0.0157,0.0212 -0.0397,0.0384 -0.0781,0.043 0,0 -0.1901,0.0222 -0.4004,0.0332 l -0.0469,0.002 1.32812,3.95312 0.8086,-2.41992 -0.56055,-1.53515 h -0.0234 c -0.1876,-0.011 -0.36718,-0.0332 -0.36718,-0.0332 v -0.002 h -0.002 c -0.038,-0.002 -0.0608,-0.0167 -0.0762,-0.0371 -0.0154,-0.0204 -0.0217,-0.0479 -0.0195,-0.0762 0.002,-0.0282 0.0125,-0.0555 0.0312,-0.0742 0.0188,-0.0188 0.044,-0.0296 0.082,-0.0273 0,0 0.57948,0.043 0.92774,0.043 0.37025,0 0.93945,-0.043 0.93945,-0.043 0.0371,-0.002 0.0638,0.01 0.082,0.0273 0.0186,0.0179 0.0291,0.0429 0.0312,0.0703 0.002,0.0274 -0.004,0.055 -0.0195,0.0762 -0.0158,0.0212 -0.0397,0.0384 -0.0781,0.043 0,0 -0.19049,0.0222 -0.40039,0.0332 l -0.0488,0.002 1.32226,3.92969 0.38281,-1.28125 c 0.14477,-0.46321 0.2477,-0.79227 0.25782,-1.0918 l 0.0117,0.006 v -0.0586 c 0,-0.44279 -0.16057,-0.75322 -0.29492,-0.98828 -0.17854,-0.29013 -0.33984,-0.52941 -0.33984,-0.80468 0,-0.30441 0.22902,-0.5879 0.55273,-0.58789 0.0125,0 0.0261,0.003 0.043,0.004 l 0.10352,0.006 -0.0762,-0.0684 c -0.63131,-0.57837 -1.47282,-0.93164 -2.39649,-0.93164 z m 0,0.0723 c 0.88109,0 1.67263,0.3486 2.28516,0.88867 -0.32863,0.0377 -0.58399,0.29819 -0.58399,0.61719 0,0.30334 0.1721,0.55333 0.34961,0.84179 0.13311,0.23289 0.28321,0.52585 0.28321,0.95117 0,0.29132 -0.11371,0.63698 -0.26563,1.12305 l -0.31641,1.06055 -1.21679,-3.6211 c 0.18037,-0.0118 0.35547,-0.0293 0.35547,-0.0293 0.0561,-0.007 0.10153,-0.0354 0.1289,-0.0723 0.0274,-0.0369 0.0366,-0.0814 0.0332,-0.125 -0.003,-0.0436 -0.0198,-0.0854 -0.0527,-0.11719 -0.0329,-0.0317 -0.0824,-0.0521 -0.13867,-0.0488 0,0 -0.56925,0.0449 -0.93359,0.0449 -0.34197,0 -0.92188,-0.0449 -0.92188,-0.0449 -0.0566,-0.003 -0.10595,0.0181 -0.13867,0.0508 -0.0327,0.0327 -0.0513,0.0751 -0.0547,0.11914 -0.003,0.0441 0.007,0.0903 0.0352,0.12695 0.0277,0.0367 0.0742,0.0631 0.13086,0.0664 0.002,2.1e-4 0.1692,0.0196 0.34375,0.0312 l 0.53515,1.46484 -0.73047,2.19141 -1.22851,-3.65821 c 0.18057,-0.0118 0.35547,-0.0293 0.35547,-0.0293 0.0561,-0.007 0.10154,-0.0354 0.1289,-0.0723 0.0274,-0.0369 0.0386,-0.0814 0.0352,-0.125 -0.003,-0.0436 -0.0218,-0.0854 -0.0547,-0.11719 -0.0329,-0.0317 -0.0804,-0.0521 -0.13672,-0.0488 h -0.002 c 0,0 -0.56918,0.0449 -0.93359,0.0449 -0.0391,0 -0.0884,-9.5e-4 -0.13477,-0.002 0.6274,-0.90526 1.65881,-1.51172 2.84375,-1.51172 z"
               id="path24" /></g><g
             id="path3-2-8"><path
               d="m 154.70069,125.72394 -1.05377,3.06207 c 0.31463,0.0925 0.64738,0.14308 0.99215,0.14308 0.409,0 0.80123,-0.0707 1.16632,-0.19908 -0.009,-0.015 -0.018,-0.031 -0.025,-0.0484 z"
               id="path21" /><path
               d="m 154.69922,125.61523 -1.09961,3.19532 0.0371,0.01 c 0.31785,0.0934 0.65361,0.14453 1.00195,0.14453 0.41321,0 0.81084,-0.0715 1.17969,-0.20117 l 0.041,-0.0137 -0.0234,-0.0391 c -0.008,-0.0139 -0.0157,-0.027 -0.0215,-0.041 v -0.002 z m 0.002,0.2168 1.04492,2.86328 c 0.001,0.003 0.003,0.005 0.004,0.008 -0.34976,0.11821 -0.72163,0.18946 -1.11133,0.18946 -0.32762,0 -0.64299,-0.05 -0.94336,-0.13477 z"
               id="path22" /></g><g
             id="path4-5-3"><path
               d="m 157.72087,123.73167 c 0.0151,0.11187 0.0237,0.23197 0.0237,0.36115 0,0.3564 -0.0666,0.75705 -0.26706,1.258 l -1.07282,3.10178 c 1.04415,-0.60889 1.74647,-1.74012 1.74647,-3.03582 7e-5,-0.61062 -0.15591,-1.18482 -0.43025,-1.68511 z"
               id="path19" /><path
               d="m 157.67969,123.69531 0.006,0.041 c 0.0149,0.11026 0.0234,0.22986 0.0234,0.35742 0,0.35185 -0.0666,0.74683 -0.26562,1.24414 l -1.10547,3.19531 0.0859,-0.0488 c 1.05499,-0.6152 1.76367,-1.75947 1.76367,-3.06835 7e-5,-0.60703 -0.16066,-1.17404 -0.42969,-1.67383 -6.2e-4,-0.005 6.5e-4,-0.0108 0,-0.0156 l -0.002,0.002 c -0.002,-0.004 -0.002,-0.01 -0.004,-0.0137 l -0.01,-0.0195 z m 0.0996,0.40625 c 0.17388,0.41363 0.33599,0.83759 0.33593,1.31446 0,1.22941 -0.66191,2.28429 -1.625,2.90234 l 1.02149,-2.95313 v -0.002 c 0.19998,-0.50044 0.26674,-0.90298 0.26758,-1.26172 z"
               id="path20" /></g><g
             id="path5-5-5"><path
               d="m 154.63907,121.32272 c -2.25744,0 -4.09413,1.83655 -4.09413,4.094 0,2.25771 1.83669,4.0942 4.09413,4.0942 2.25738,0 4.09434,-1.83649 4.09434,-4.0942 -7e-5,-2.25745 -1.83696,-4.094 -4.09434,-4.094 z m 0,8.00054 c -2.15392,0 -3.9064,-1.75248 -3.9064,-3.90654 0,-2.15393 1.75241,-3.90627 3.9064,-3.90627 2.15386,0 3.90621,1.75234 3.90621,3.90627 0,2.15406 -1.75235,3.90654 -3.90621,3.90654 z"
               id="path17" /><path
               d="m 154.63867,121.28711 c -2.27723,0 -4.13086,1.85166 -4.13086,4.12891 0,2.27749 1.85363,4.13085 4.13086,4.13085 2.27717,0 4.13086,-1.85335 4.13086,-4.13085 -7e-5,-2.27725 -1.85369,-4.12891 -4.13086,-4.12891 z m 0,0.0723 c 2.23759,0 4.05853,1.81898 4.0586,4.05664 0,2.23791 -1.82101,4.05859 -4.0586,4.05859 -2.23765,0 -4.05664,-1.82067 -4.05664,-4.05859 0,-2.23766 1.81899,-4.05664 4.05664,-4.05664 z m 0,0.11523 c -2.17378,0 -3.94336,1.76769 -3.94336,3.94141 0,2.17385 1.76965,3.94335 3.94336,3.94335 2.17365,0 3.94336,-1.76951 3.94336,-3.94335 0,-2.17372 -1.76971,-3.94141 -3.94336,-3.94141 z m 0,0.0723 c 2.13407,0 3.8711,1.73499 3.8711,3.86914 0,2.13427 -1.73703,3.87109 -3.8711,3.87109 -2.13413,0 -3.86914,-1.73682 -3.86914,-3.87109 0,-2.13414 1.73494,-3.86914 3.86914,-3.86914 z"
               id="path18" /></g><g
             id="Livello_1-2-2"
             data-name="Livello 1-2"
             style="fill:#000000"
             transform="matrix(0.06563878,0,0,0.06563878,150.77464,120.46547)"><path
               class="cls-1"
               d="m 237.73274,28.742188 c -9.58,-9.58 -18.72,-18.7 -21.44,-28.9999999 -2.72,10.2899999 -11.86,19.4199999 -21.44,28.9999999 -14.37,14.36 -30.66,30.63 -30.66,55.04 -0.01,28.770002 23.3,52.110002 52.07,52.120002 28.77,0.01 52.11,-23.3 52.12,-52.070002 0,-0.02 0,-0.03 0,-0.05 0,-24.41 -16.29,-40.68 -30.66,-55.04 m -51.38,67.18 c -3.19,-0.11 -14.98,-20.43 6.89,-42.07 l 14.47,15.81 c 0.49,0.48 0.49,1.26 0.01,1.75 -0.03,0.03 -0.07,0.07 -0.11,0.1 -3.45,3.54 -18.17,18.3 -20,23.41 -0.38,1.05 -0.93,1.01 -1.26,1 m 29.96,26.780002 c -9.9,0 -17.92,-8.02 -17.92,-17.92 v 0 c 0.07,-4.34 1.65,-8.530002 4.47,-11.840002 3.23,-3.95 13.45,-15.06 13.45,-15.06 0,0 10.06,11.27 13.43,15.02 2.93,3.26 4.53,7.490002 4.49,11.870002 0,9.9 -8.02,17.92 -17.92,17.92 m 34.3,-29.060002 c -0.39,0.84 -1.26,2.25 -2.44,2.3 -2.11,0.08 -2.33,-1 -3.89,-3.31 -3.42,-5.06 -33.27,-36.25 -38.85,-42.29 -4.91,-5.31 -0.69,-9.05 1.27,-11.01 2.46,-2.46 9.62,-9.62 9.62,-9.62 0,0 21.37,20.28 30.27,34.13 8.9,13.85 5.83,25.84 4.03,29.8"
               id="path2-19-0"
               style="color:#000000;font-style:normal;font-variant:normal;font-weight:normal;font-stretch:normal;font-size:medium;line-height:normal;font-family:sans-serif;font-variant-ligatures:normal;font-variant-position:normal;font-variant-caps:normal;font-variant-numeric:normal;font-variant-alternates:normal;font-variant-east-asian:normal;font-feature-settings:normal;font-variation-settings:normal;text-indent:0;text-align:start;text-decoration-line:none;text-decoration-style:solid;text-decoration-color:#000000;letter-spacing:normal;word-spacing:normal;text-transform:none;writing-mode:lr-tb;direction:ltr;text-orientation:mixed;dominant-baseline:auto;baseline-shift:baseline;text-anchor:start;white-space:normal;shape-padding:0;shape-margin:0;inline-size:0;clip-rule:nonzero;display:inline;overflow:visible;visibility:visible;isolation:auto;mix-blend-mode:normal;color-interpolation:sRGB;color-interpolation-filters:linearRGB;solid-color:#000000;solid-opacity:1;vector-effect:none;fill:#000000;fill-opacity:1;fill-rule:nonzero;stroke:none;stroke-linecap:butt;stroke-linejoin:miter;stroke-miterlimit:4;stroke-dasharray:none;stroke-dashoffset:0;stroke-opacity:1;-inkscape-stroke:none;color-rendering:auto;image-rendering:auto;shape-rendering:auto;text-rendering:auto;enable-background:accumulate;stop-color:#000000;stop-opacity:1" /></g><path
             d="m 166.50221,133.30475 h -0.78085 c -0.21661,0 -0.41903,0.10727 -0.54072,0.28665 l -1.04424,1.54051 c -0.0279,0.0409 -0.0882,0.0409 -0.11596,0 l -1.04432,-1.54051 c -0.12144,-0.17938 -0.32411,-0.28665 -0.54072,-0.28665 h -0.78085 l 1.86032,2.74416 -1.85006,2.72888 h 0.78085 c 0.21661,0 0.41911,-0.10726 0.5408,-0.28665 l 1.03398,-1.52522 c 0.0278,-0.0409 0.0881,-0.0409 0.11596,0 l 1.03398,1.52522 c 0.12143,0.17939 0.3241,0.28665 0.54072,0.28665 h 0.78084 l -1.84997,-2.72888 z"
             fill="#000000"
             id="path1-0-6"
             style="color:#000000;font-style:normal;font-variant:normal;font-weight:normal;font-stretch:normal;font-size:medium;line-height:normal;font-family:sans-serif;font-variant-ligatures:normal;font-variant-position:normal;font-variant-caps:normal;font-variant-numeric:normal;font-variant-alternates:normal;font-variant-east-asian:normal;font-feature-settings:normal;font-variation-settings:normal;text-indent:0;text-align:start;text-decoration-line:none;text-decoration-style:solid;text-decoration-color:#000000;letter-spacing:normal;word-spacing:normal;text-transform:none;writing-mode:lr-tb;direction:ltr;text-orientation:mixed;dominant-baseline:auto;baseline-shift:baseline;text-anchor:start;white-space:normal;shape-padding:0;shape-margin:0;inline-size:0;clip-rule:nonzero;display:inline;overflow:visible;visibility:visible;isolation:auto;mix-blend-mode:normal;color-interpolation:sRGB;color-interpolation-filters:linearRGB;solid-color:#000000;solid-opacity:1;vector-effect:none;fill:#000000;fill-opacity:1;fill-rule:nonzero;stroke:none;stroke-linecap:butt;stroke-linejoin:miter;stroke-miterlimit:4;stroke-dasharray:none;stroke-dashoffset:0;stroke-opacity:1;-inkscape-stroke:none;color-rendering:auto;image-rendering:auto;shape-rendering:auto;text-rendering:auto;enable-background:accumulate;stop-color:#000000;stop-opacity:1" /><path
             d="m 160.04779,133.86458 v 4.91321 h 0.3732 c 0.30928,0 0.55995,-0.25059 0.55995,-0.55983 v -4.91321 h -0.37324 c -0.30929,0 -0.55991,0.25059 -0.55991,0.55983 z"
             fill="#000000"
             id="path2-16-4"
             style="color:#000000;font-style:normal;font-variant:normal;font-weight:normal;font-stretch:normal;font-size:medium;line-height:normal;font-family:sans-serif;font-variant-ligatures:normal;font-variant-position:normal;font-variant-caps:normal;font-variant-numeric:normal;font-variant-alternates:normal;font-variant-east-asian:normal;font-feature-settings:normal;font-variation-settings:normal;text-indent:0;text-align:start;text-decoration-line:none;text-decoration-style:solid;text-decoration-color:#000000;letter-spacing:normal;word-spacing:normal;text-transform:none;writing-mode:lr-tb;direction:ltr;text-orientation:mixed;dominant-baseline:auto;baseline-shift:baseline;text-anchor:start;white-space:normal;shape-padding:0;shape-margin:0;inline-size:0;clip-rule:nonzero;display:inline;overflow:visible;visibility:visible;isolation:auto;mix-blend-mode:normal;color-interpolation:sRGB;color-interpolation-filters:linearRGB;solid-color:#000000;solid-opacity:1;vector-effect:none;fill:#000000;fill-opacity:1;fill-rule:nonzero;stroke:none;stroke-linecap:butt;stroke-linejoin:miter;stroke-miterlimit:4;stroke-dasharray:none;stroke-dashoffset:0;stroke-opacity:1;-inkscape-stroke:none;color-rendering:auto;image-rendering:auto;shape-rendering:auto;text-rendering:auto;enable-background:accumulate;stop-color:#000000;stop-opacity:1" /><path
             d="m 159.36362,133.30475 h -0.33211 c -0.36566,0 -0.68248,0.25287 -0.76351,0.60936 l -0.74296,3.26611 -0.6503,-3.04884 c -0.12029,-0.56349 -0.69846,-0.94348 -1.29009,-0.78007 -0.37686,0.10407 -0.65624,0.42244 -0.73773,0.80472 l -0.64367,3.02008 -0.7416,-3.26177 c -0.0813,-0.35649 -0.39808,-0.60959 -0.76374,-0.60959 h -0.33188 l 1.24467,5.47281 h 0.47157 c 0.42798,0 0.79775,-0.2992 0.887,-0.71776 l 0.7957,-3.73398 c 0.01,-0.0463 0.0513,-0.0799 0.0986,-0.0799 0.0472,0 0.0888,0.0336 0.0986,0.0799 l 0.79637,3.73421 c 0.0892,0.41856 0.45902,0.71753 0.887,0.71753 h 0.47317 z"
             fill="#000000"
             id="path3-5-0"
             style="color:#000000;font-style:normal;font-variant:normal;font-weight:normal;font-stretch:normal;font-size:medium;line-height:normal;font-family:sans-serif;font-variant-ligatures:normal;font-variant-position:normal;font-variant-caps:normal;font-variant-numeric:normal;font-variant-alternates:normal;font-variant-east-asian:normal;font-feature-settings:normal;font-variation-settings:normal;text-indent:0;text-align:start;text-decoration-line:none;text-decoration-style:solid;text-decoration-color:#000000;letter-spacing:normal;word-spacing:normal;text-transform:none;writing-mode:lr-tb;direction:ltr;text-orientation:mixed;dominant-baseline:auto;baseline-shift:baseline;text-anchor:start;white-space:normal;shape-padding:0;shape-margin:0;inline-size:0;clip-rule:nonzero;display:inline;overflow:visible;visibility:visible;isolation:auto;mix-blend-mode:normal;color-interpolation:sRGB;color-interpolation-filters:linearRGB;solid-color:#000000;solid-opacity:1;vector-effect:none;fill:#000000;fill-opacity:1;fill-rule:nonzero;stroke:none;stroke-linecap:butt;stroke-linejoin:miter;stroke-miterlimit:4;stroke-dasharray:none;stroke-dashoffset:0;stroke-opacity:1;-inkscape-stroke:none;color-rendering:auto;image-rendering:auto;shape-rendering:auto;text-rendering:auto;enable-background:accumulate;stop-color:#000000;stop-opacity:1" /><path
             id="rect113-6"
             style="baseline-shift:baseline;display:inline;overflow:visible;vector-effect:none;fill:#ffffff;enable-background:accumulate;stop-color:#000000;stop-opacity:1"
             d="m 149.50063,118.11434 h 20.6375 c 0.87947,0 1.5875,0.70803 1.5875,1.5875 v 20.6375 c 0,0.87947 -0.70803,1.5875 -1.5875,1.5875 h -20.6375 c -0.87947,0 -1.5875,-0.70803 -1.5875,-1.5875 v -20.6375 c 0,-0.87947 0.70803,-1.5875 1.5875,-1.5875 z" /><path
             id="circle113-1"
             style="baseline-shift:baseline;display:inline;overflow:visible;vector-effect:none;fill:#ffffff;enable-background:accumulate;stop-color:#000000;stop-opacity:1"
             transform="rotate(90)"
             d="m 128.62446,-165.09126 a 3.1013269,3.1013269 0 0 1 -3.10133,3.10132 3.1013269,3.1013269 0 0 1 -3.10132,-3.10132 3.1013269,3.1013269 0 0 1 3.10132,-3.10133 3.1013269,3.1013269 0 0 1 3.10133,3.10133 z" /><path
             id="circle114-8"
             style="baseline-shift:baseline;display:inline;overflow:visible;vector-effect:none;fill:#ffffff;enable-background:accumulate;stop-color:#000000;stop-opacity:1"
             d="m 158.70145,125.54943 a 4.1128888,4.1128888 0 0 1 -4.11289,4.11289 4.1128888,4.1128888 0 0 1 -4.11289,-4.11289 4.1128888,4.1128888 0 0 1 4.11289,-4.11289 4.1128888,4.1128888 0 0 1 4.11289,4.11289 z" /><g
             id="path114-9"><path
               d="m 151.12689,125.41672 c 0,1.3902 0.80791,2.5916 1.97944,3.16092 l -1.67536,-4.59028 c -0.19487,0.4368 -0.30408,0.92018 -0.30408,1.42936 z"
               id="path15" /><path
               style="fill:#1a1a1a"
               d="m 151.43359,123.89063 -0.0352,0.082 c -0.19689,0.44131 -0.3086,0.92896 -0.3086,1.44336 0,1.40433 0.81626,2.62005 2,3.19531 l 0.082,0.0391 z m 0.006,0.22851 1.58399,4.33789 c -1.09379,-0.58542 -1.85938,-1.71321 -1.85938,-3.04101 0,-0.46217 0.11158,-0.89358 0.27539,-1.29688 z"
               id="path16" /></g><g
             id="path115-8"><path
               d="m 157.01006,125.23948 c 0,-0.43406 -0.15591,-0.73466 -0.28964,-0.96863 -0.17803,-0.2893 -0.34491,-0.5343 -0.34491,-0.82361 0,-0.32285 0.24487,-0.62339 0.58978,-0.62339 0.0156,0 0.0303,0.002 0.0455,0.003 -0.62486,-0.57246 -1.45736,-0.92198 -2.37173,-0.92198 -1.227,0 -2.3065,0.62954 -2.9345,1.58306 0.0824,0.002 0.16006,0.004 0.22602,0.004 0.36737,0 0.93602,-0.0446 0.93602,-0.0446 0.18933,-0.0112 0.21165,0.26691 0.0225,0.2893 0,0 -0.19026,0.0224 -0.40198,0.0335 l 1.27899,3.80429 0.76861,-2.30516 -0.5472,-1.49926 c -0.18913,-0.0111 -0.3683,-0.0335 -0.3683,-0.0335 -0.18927,-0.0111 -0.16708,-0.30047 0.0222,-0.28931 0,0 0.58001,0.0446 0.92512,0.0446 0.3673,0 0.93602,-0.0446 0.93602,-0.0446 0.18947,-0.0112 0.21172,0.26692 0.0225,0.28931 0,0 -0.19066,0.0224 -0.40198,0.0335 l 1.26923,3.77549 0.35033,-1.17066 c 0.15183,-0.48579 0.26738,-0.83471 0.26738,-1.13537 z"
               id="path13" /><path
               d="m 154.63867,121.86914 c -1.23948,0 -2.33034,0.63621 -2.96484,1.59961 l -0.0352,0.0547 h 0.0645 c 0.0824,0.002 0.15987,0.006 0.22657,0.006 0.37032,0 0.93945,-0.0449 0.93945,-0.0449 0.0384,-0.002 0.0634,0.009 0.082,0.0273 0.0186,0.0179 0.031,0.0429 0.0332,0.0703 0.002,0.0274 -0.006,0.055 -0.0215,0.0762 -0.0157,0.0212 -0.0397,0.0384 -0.0781,0.043 0,0 -0.1901,0.0222 -0.4004,0.0332 l -0.0469,0.002 1.32812,3.95312 0.8086,-2.41992 -0.56055,-1.53515 h -0.0234 c -0.1876,-0.011 -0.36718,-0.0332 -0.36718,-0.0332 v -0.002 h -0.002 c -0.038,-0.002 -0.0608,-0.0167 -0.0762,-0.0371 -0.0154,-0.0204 -0.0217,-0.0479 -0.0195,-0.0762 0.002,-0.0282 0.0125,-0.0555 0.0312,-0.0742 0.0188,-0.0188 0.044,-0.0296 0.082,-0.0273 0,0 0.57948,0.043 0.92774,0.043 0.37025,0 0.93945,-0.043 0.93945,-0.043 0.0371,-0.002 0.0638,0.01 0.082,0.0273 0.0186,0.0179 0.0291,0.0429 0.0312,0.0703 0.002,0.0274 -0.004,0.055 -0.0195,0.0762 -0.0158,0.0212 -0.0397,0.0384 -0.0781,0.043 0,0 -0.19049,0.0222 -0.40039,0.0332 l -0.0488,0.002 1.32226,3.92969 0.38281,-1.28125 c 0.14477,-0.46321 0.2477,-0.79227 0.25782,-1.0918 l 0.0117,0.006 v -0.0586 c 0,-0.44279 -0.16057,-0.75322 -0.29492,-0.98828 -0.17854,-0.29013 -0.33984,-0.52941 -0.33984,-0.80468 0,-0.30441 0.22902,-0.5879 0.55273,-0.58789 0.0125,0 0.0261,0.003 0.043,0.004 l 0.10352,0.006 -0.0762,-0.0684 c -0.63131,-0.57837 -1.47282,-0.93164 -2.39649,-0.93164 z m 0,0.0723 c 0.88109,0 1.67263,0.3486 2.28516,0.88867 -0.32863,0.0377 -0.58399,0.29819 -0.58399,0.61719 0,0.30334 0.1721,0.55333 0.34961,0.84179 0.13311,0.23289 0.28321,0.52585 0.28321,0.95117 0,0.29132 -0.11371,0.63698 -0.26563,1.12305 l -0.31641,1.06055 -1.21679,-3.6211 c 0.18037,-0.0118 0.35547,-0.0293 0.35547,-0.0293 0.0561,-0.007 0.10153,-0.0354 0.1289,-0.0723 0.0274,-0.0369 0.0366,-0.0814 0.0332,-0.125 -0.003,-0.0436 -0.0198,-0.0854 -0.0527,-0.11719 -0.0329,-0.0317 -0.0824,-0.0521 -0.13867,-0.0488 0,0 -0.56925,0.0449 -0.93359,0.0449 -0.34197,0 -0.92188,-0.0449 -0.92188,-0.0449 -0.0566,-0.003 -0.10595,0.0181 -0.13867,0.0508 -0.0327,0.0327 -0.0513,0.0751 -0.0547,0.11914 -0.003,0.0441 0.007,0.0903 0.0352,0.12695 0.0277,0.0367 0.0742,0.0631 0.13086,0.0664 0.002,2.1e-4 0.1692,0.0196 0.34375,0.0312 l 0.53515,1.46484 -0.73047,2.19141 -1.22851,-3.65821 c 0.18057,-0.0118 0.35547,-0.0293 0.35547,-0.0293 0.0561,-0.007 0.10154,-0.0354 0.1289,-0.0723 0.0274,-0.0369 0.0386,-0.0814 0.0352,-0.125 -0.003,-0.0436 -0.0218,-0.0854 -0.0547,-0.11719 -0.0329,-0.0317 -0.0804,-0.0521 -0.13672,-0.0488 h -0.002 c 0,0 -0.56918,0.0449 -0.93359,0.0449 -0.0391,0 -0.0884,-9.5e-4 -0.13477,-0.002 0.6274,-0.90526 1.65881,-1.51172 2.84375,-1.51172 z"
               id="path14" /></g><g
             id="path116-4"><path
               d="m 154.70069,125.72394 -1.05377,3.06207 c 0.31463,0.0925 0.64738,0.14308 0.99215,0.14308 0.409,0 0.80123,-0.0707 1.16632,-0.19908 -0.009,-0.015 -0.018,-0.031 -0.025,-0.0484 z"
               id="path11" /><path
               d="m 154.69922,125.61523 -1.09961,3.19532 0.0371,0.01 c 0.31785,0.0934 0.65361,0.14453 1.00195,0.14453 0.41321,0 0.81084,-0.0715 1.17969,-0.20117 l 0.041,-0.0137 -0.0234,-0.0391 c -0.008,-0.0139 -0.0157,-0.027 -0.0215,-0.041 v -0.002 z m 0.002,0.2168 1.04492,2.86328 c 0.001,0.003 0.003,0.005 0.004,0.008 -0.34976,0.11821 -0.72163,0.18946 -1.11133,0.18946 -0.32762,0 -0.64299,-0.05 -0.94336,-0.13477 z"
               id="path12" /></g><g
             id="path117-1"><path
               d="m 157.72087,123.73167 c 0.0151,0.11187 0.0237,0.23197 0.0237,0.36115 0,0.3564 -0.0666,0.75705 -0.26706,1.258 l -1.07282,3.10178 c 1.04415,-0.60889 1.74647,-1.74012 1.74647,-3.03582 7e-5,-0.61062 -0.15591,-1.18482 -0.43025,-1.68511 z"
               id="path9" /><path
               d="m 157.67969,123.69531 0.006,0.041 c 0.0149,0.11026 0.0234,0.22986 0.0234,0.35742 0,0.35185 -0.0666,0.74683 -0.26562,1.24414 l -1.10547,3.19531 0.0859,-0.0488 c 1.05499,-0.6152 1.76367,-1.75947 1.76367,-3.06835 7e-5,-0.60703 -0.16066,-1.17404 -0.42969,-1.67383 -6.2e-4,-0.005 6.5e-4,-0.0108 0,-0.0156 l -0.002,0.002 c -0.002,-0.004 -0.002,-0.01 -0.004,-0.0137 l -0.01,-0.0195 z m 0.0996,0.40625 c 0.17388,0.41363 0.33599,0.83759 0.33593,1.31446 0,1.22941 -0.66191,2.28429 -1.625,2.90234 l 1.02149,-2.95313 v -0.002 c 0.19998,-0.50044 0.26674,-0.90298 0.26758,-1.26172 z"
               id="path10" /></g><g
             id="path118-4"><path
               d="m 154.63907,121.32272 c -2.25744,0 -4.09413,1.83655 -4.09413,4.094 0,2.25771 1.83669,4.0942 4.09413,4.0942 2.25738,0 4.09434,-1.83649 4.09434,-4.0942 -7e-5,-2.25745 -1.83696,-4.094 -4.09434,-4.094 z m 0,8.00054 c -2.15392,0 -3.9064,-1.75248 -3.9064,-3.90654 0,-2.15393 1.75241,-3.90627 3.9064,-3.90627 2.15386,0 3.90621,1.75234 3.90621,3.90627 0,2.15406 -1.75235,3.90654 -3.90621,3.90654 z"
               id="path7" /><path
               d="m 154.63867,121.28711 c -2.27723,0 -4.13086,1.85166 -4.13086,4.12891 0,2.27749 1.85363,4.13085 4.13086,4.13085 2.27717,0 4.13086,-1.85335 4.13086,-4.13085 -7e-5,-2.27725 -1.85369,-4.12891 -4.13086,-4.12891 z m 0,0.0723 c 2.23759,0 4.05853,1.81898 4.0586,4.05664 0,2.23791 -1.82101,4.05859 -4.0586,4.05859 -2.23765,0 -4.05664,-1.82067 -4.05664,-4.05859 0,-2.23766 1.81899,-4.05664 4.05664,-4.05664 z m 0,0.11523 c -2.17378,0 -3.94336,1.76769 -3.94336,3.94141 0,2.17385 1.76965,3.94335 3.94336,3.94335 2.17365,0 3.94336,-1.76951 3.94336,-3.94335 0,-2.17372 -1.76971,-3.94141 -3.94336,-3.94141 z m 0,0.0723 c 2.13407,0 3.8711,1.73499 3.8711,3.86914 0,2.13427 -1.73703,3.87109 -3.8711,3.87109 -2.13413,0 -3.86914,-1.73682 -3.86914,-3.87109 0,-2.13414 1.73494,-3.86914 3.86914,-3.86914 z"
               id="path8" /></g><path
             class="cls-1"
             d="m 166.37913,122.35207 c -0.62882,-0.62882 -1.22876,-1.22744 -1.4073,-1.90352 -0.17854,0.67542 -0.77847,1.2747 -1.40729,1.90352 -0.94323,0.94258 -2.01249,2.01052 -2.01249,3.61276 -6.6e-4,1.88843 1.52938,3.42044 3.41781,3.42109 1.88843,6.6e-4 3.42044,-1.52938 3.4211,-3.41781 0,-10e-4 0,-0.002 0,-0.003 0,-1.60224 -1.06926,-2.67018 -2.01249,-3.61276 m -3.37252,4.40962 c -0.20939,-0.007 -0.98327,-1.341 0.45225,-2.76143 l 0.94979,1.03775 c 0.0322,0.0315 0.0322,0.0827 6.6e-4,0.11487 -0.002,0.002 -0.005,0.005 -0.007,0.007 -0.22645,0.23236 -1.19266,1.20119 -1.31278,1.53661 -0.0249,0.0689 -0.061,0.0663 -0.0827,0.0656 m 1.96654,1.7578 c -0.64983,0 -1.17625,-0.52642 -1.17625,-1.17624 v 0 c 0.005,-0.28488 0.10831,-0.5599 0.29341,-0.77717 0.21201,-0.25927 0.88284,-0.98852 0.88284,-0.98852 0,0 0.66032,0.73975 0.88153,0.9859 0.19232,0.21398 0.29734,0.49163 0.29471,0.77913 0,0.64982 -0.52642,1.17625 -1.17624,1.17625 m 2.25141,-1.90747 c -0.0256,0.0551 -0.0827,0.14769 -0.16016,0.15097 -0.1385,0.005 -0.15294,-0.0656 -0.25534,-0.21726 -0.22448,-0.33213 -2.1838,-2.37941 -2.55006,-2.77587 -0.32229,-0.34854 -0.0453,-0.59403 0.0834,-0.72268 0.16147,-0.16147 0.63144,-0.63144 0.63144,-0.63144 0,0 1.40271,1.33115 1.98689,2.24025 0.58419,0.90909 0.38267,1.6961 0.26452,1.95603"
             id="path119-9"
             style="color:#000000;font-style:normal;font-variant:normal;font-weight:normal;font-stretch:normal;font-size:medium;line-height:normal;font-family:sans-serif;font-variant-ligatures:normal;font-variant-position:normal;font-variant-caps:normal;font-variant-numeric:normal;font-variant-alternates:normal;font-variant-east-asian:normal;font-feature-settings:normal;font-variation-settings:normal;text-indent:0;text-align:start;text-decoration-line:none;text-decoration-style:solid;text-decoration-color:#000000;letter-spacing:normal;word-spacing:normal;text-transform:none;writing-mode:lr-tb;direction:ltr;text-orientation:mixed;dominant-baseline:auto;baseline-shift:baseline;text-anchor:start;white-space:normal;shape-padding:0;shape-margin:0;inline-size:0;clip-rule:nonzero;display:inline;overflow:visible;visibility:visible;isolation:auto;mix-blend-mode:normal;color-interpolation:sRGB;color-interpolation-filters:linearRGB;solid-color:#000000;solid-opacity:1;vector-effect:none;fill:#000000;fill-opacity:1;fill-rule:nonzero;stroke:none;stroke-linecap:butt;stroke-linejoin:miter;stroke-miterlimit:4;stroke-dasharray:none;stroke-dashoffset:0;stroke-opacity:1;-inkscape-stroke:none;color-rendering:auto;image-rendering:auto;shape-rendering:auto;text-rendering:auto;enable-background:accumulate;stop-color:#000000;stop-opacity:1" /><path
             d="m 166.50221,133.30475 h -0.78085 c -0.21662,0 -0.41903,0.10727 -0.54072,0.28665 l -1.04424,1.54051 c -0.0279,0.0409 -0.0882,0.0409 -0.11596,0 l -1.04433,-1.54051 c -0.12143,-0.17938 -0.3241,-0.28665 -0.54072,-0.28665 h -0.78084 l 1.86032,2.74416 -1.85006,2.72888 h 0.78085 c 0.21661,0 0.41911,-0.10726 0.5408,-0.28665 l 1.03398,-1.52522 c 0.0278,-0.0409 0.0881,-0.0409 0.11596,0 l 1.03398,1.52522 c 0.12143,0.17939 0.3241,0.28665 0.54071,0.28665 h 0.78085 l -1.84997,-2.72888 z"
             fill="#000000"
             id="path120-8"
             style="color:#000000;font-style:normal;font-variant:normal;font-weight:normal;font-stretch:normal;font-size:medium;line-height:normal;font-family:sans-serif;font-variant-ligatures:normal;font-variant-position:normal;font-variant-caps:normal;font-variant-numeric:normal;font-variant-alternates:normal;font-variant-east-asian:normal;font-feature-settings:normal;font-variation-settings:normal;text-indent:0;text-align:start;text-decoration-line:none;text-decoration-style:solid;text-decoration-color:#000000;letter-spacing:normal;word-spacing:normal;text-transform:none;writing-mode:lr-tb;direction:ltr;text-orientation:mixed;dominant-baseline:auto;baseline-shift:baseline;text-anchor:start;white-space:normal;shape-padding:0;shape-margin:0;inline-size:0;clip-rule:nonzero;display:inline;overflow:visible;visibility:visible;isolation:auto;mix-blend-mode:normal;color-interpolation:sRGB;color-interpolation-filters:linearRGB;solid-color:#000000;solid-opacity:1;vector-effect:none;fill:#000000;fill-opacity:1;fill-rule:nonzero;stroke:none;stroke-linecap:butt;stroke-linejoin:miter;stroke-miterlimit:4;stroke-dasharray:none;stroke-dashoffset:0;stroke-opacity:1;-inkscape-stroke:none;color-rendering:auto;image-rendering:auto;shape-rendering:auto;text-rendering:auto;enable-background:accumulate;stop-color:#000000;stop-opacity:1" /><path
             d="m 160.04779,133.86458 v 4.91321 h 0.3732 c 0.30928,0 0.55994,-0.25059 0.55994,-0.55983 v -4.91321 h -0.37323 c -0.30929,0 -0.55991,0.25059 -0.55991,0.55983 z"
             fill="#000000"
             id="path121-8"
             style="color:#000000;font-style:normal;font-variant:normal;font-weight:normal;font-stretch:normal;font-size:medium;line-height:normal;font-family:sans-serif;font-variant-ligatures:normal;font-variant-position:normal;font-variant-caps:normal;font-variant-numeric:normal;font-variant-alternates:normal;font-variant-east-asian:normal;font-feature-settings:normal;font-variation-settings:normal;text-indent:0;text-align:start;text-decoration-line:none;text-decoration-style:solid;text-decoration-color:#000000;letter-spacing:normal;word-spacing:normal;text-transform:none;writing-mode:lr-tb;direction:ltr;text-orientation:mixed;dominant-baseline:auto;baseline-shift:baseline;text-anchor:start;white-space:normal;shape-padding:0;shape-margin:0;inline-size:0;clip-rule:nonzero;display:inline;overflow:visible;visibility:visible;isolation:auto;mix-blend-mode:normal;color-interpolation:sRGB;color-interpolation-filters:linearRGB;solid-color:#000000;solid-opacity:1;vector-effect:none;fill:#000000;fill-opacity:1;fill-rule:nonzero;stroke:none;stroke-linecap:butt;stroke-linejoin:miter;stroke-miterlimit:4;stroke-dasharray:none;stroke-dashoffset:0;stroke-opacity:1;-inkscape-stroke:none;color-rendering:auto;image-rendering:auto;shape-rendering:auto;text-rendering:auto;enable-background:accumulate;stop-color:#000000;stop-opacity:1" /><path
             d="m 159.36362,133.30475 h -0.33211 c -0.36566,0 -0.68248,0.25287 -0.76351,0.60936 l -0.74296,3.26611 -0.6503,-3.04884 c -0.12029,-0.56349 -0.69846,-0.94348 -1.29009,-0.78007 -0.37686,0.10407 -0.65624,0.42244 -0.73773,0.80472 l -0.64367,3.02008 -0.7416,-3.26177 c -0.0813,-0.35649 -0.39808,-0.60959 -0.76374,-0.60959 h -0.33188 l 1.24467,5.47281 h 0.47157 c 0.42798,0 0.79775,-0.2992 0.887,-0.71776 l 0.7957,-3.73398 c 0.01,-0.0463 0.0514,-0.0799 0.0986,-0.0799 0.0473,0 0.0888,0.0336 0.0986,0.0799 l 0.79637,3.73421 c 0.0892,0.41856 0.45902,0.71753 0.88701,0.71753 h 0.47317 z"
             fill="#000000"
             id="path122-0"
             style="color:#000000;font-style:normal;font-variant:normal;font-weight:normal;font-stretch:normal;font-size:medium;line-height:normal;font-family:sans-serif;font-variant-ligatures:normal;font-variant-position:normal;font-variant-caps:normal;font-variant-numeric:normal;font-variant-alternates:normal;font-variant-east-asian:normal;font-feature-settings:normal;font-variation-settings:normal;text-indent:0;text-align:start;text-decoration-line:none;text-decoration-style:solid;text-decoration-color:#000000;letter-spacing:normal;word-spacing:normal;text-transform:none;writing-mode:lr-tb;direction:ltr;text-orientation:mixed;dominant-baseline:auto;baseline-shift:baseline;text-anchor:start;white-space:normal;shape-padding:0;shape-margin:0;inline-size:0;clip-rule:nonzero;display:inline;overflow:visible;visibility:visible;isolation:auto;mix-blend-mode:normal;color-interpolation:sRGB;color-interpolation-filters:linearRGB;solid-color:#000000;solid-opacity:1;vector-effect:none;fill:#000000;fill-opacity:1;fill-rule:nonzero;stroke:none;stroke-linecap:butt;stroke-linejoin:miter;stroke-miterlimit:4;stroke-dasharray:none;stroke-dashoffset:0;stroke-opacity:1;-inkscape-stroke:none;color-rendering:auto;image-rendering:auto;shape-rendering:auto;text-rendering:auto;enable-background:accumulate;stop-color:#000000;stop-opacity:1" /></g></g></g></g></svg>
