<?xml version="1.0" encoding="UTF-8" standalone="no"?>
<!-- Created with Inkscape (http://www.inkscape.org/) -->

<svg
   width="90"
   height="89.999992"
   viewBox="0 0 23.812499 23.812498"
   version="1.1"
   id="svg1"
   xml:space="preserve"
   inkscape:version="1.4 (86a8ad7, 2024-10-11)"
   sodipodi:docname="one.svg"
   xmlns:inkscape="http://www.inkscape.org/namespaces/inkscape"
   xmlns:sodipodi="http://sodipodi.sourceforge.net/DTD/sodipodi-0.dtd"
   xmlns:xlink="http://www.w3.org/1999/xlink"
   xmlns="http://www.w3.org/2000/svg"
   xmlns:svg="http://www.w3.org/2000/svg"><sodipodi:namedview
     id="namedview1"
     pagecolor="#ffffff"
     bordercolor="#000000"
     borderopacity="0.25"
     inkscape:showpageshadow="2"
     inkscape:pageopacity="0.0"
     inkscape:pagecheckerboard="0"
     inkscape:deskcolor="#d1d1d1"
     inkscape:document-units="mm"
     inkscape:antialias-rendering="false"
     inkscape:zoom="4.1776837"
     inkscape:cx="40.812089"
     inkscape:cy="84.3769"
     inkscape:window-width="1920"
     inkscape:window-height="1009"
     inkscape:window-x="-8"
     inkscape:window-y="-8"
     inkscape:window-maximized="1"
     inkscape:current-layer="g76" /><defs
     id="defs1"><linearGradient
       id="linearGradient4"
       inkscape:collect="always"><stop
         style="stop-color:#00ffff;stop-opacity:1;"
         offset="0"
         id="stop4" /><stop
         style="stop-color:#00ffff;stop-opacity:0;"
         offset="1"
         id="stop5" /></linearGradient><style
       id="style1">
      .cls-1 {
        fill: #0678be;
      }

      .cls-2 {
        fill: none;
      }
    </style><style
       id="style1-1">
      .cls-1 {
        fill: #0678be;
      }

      .cls-2 {
        fill: none;
      }
    </style><linearGradient
       inkscape:collect="always"
       xlink:href="#linearGradient4"
       id="linearGradient5"
       x1="121.98396"
       y1="104.75288"
       x2="145.79646"
       y2="104.75288"
       gradientUnits="userSpaceOnUse" /></defs><g
     inkscape:label="Layer 1"
     inkscape:groupmode="layer"
     id="layer1"
     transform="translate(-333.375,-486.03958)"><g
       id="g76"
       transform="translate(211.39104,393.19295)"><path
         id="rect11-77"
         style="fill:#f9f9f9;stroke-width:0.604789;stroke-opacity:0.8"
         d="m 123.57146,92.846633 h 20.63749 c 0.87948,0 1.5875,0.708025 1.5875,1.5875 v 20.637497 c 0,0.87948 -0.70802,1.5875 -1.5875,1.5875 h -20.63749 c -0.87948,0 -1.5875,-0.70802 -1.5875,-1.5875 V 94.434133 c 0,-0.879475 0.70802,-1.5875 1.5875,-1.5875 z" /><path
         id="rect131-3"
         style="baseline-shift:baseline;display:inline;overflow:visible;vector-effect:none;fill:url(#linearGradient5);enable-background:accumulate;stop-color:#000000"
         d="m 123.57146,92.846634 h 20.6375 c 0.87948,0 1.5875,0.708025 1.5875,1.5875 v 20.637496 c 0,0.87948 -0.70802,1.5875 -1.5875,1.5875 h -20.6375 c -0.87947,0 -1.5875,-0.70802 -1.5875,-1.5875 V 94.434134 c 0,-0.879475 0.70803,-1.5875 1.5875,-1.5875 z" /><g
         id="g77"><path
           style="fill:#ffffff"
           d="m 140.29594,95.058493 h -12.3089 c -0.0248,0 -0.0447,0.01994 -0.0447,0.04471 v 18.479037 c 0,0.0248 0.0199,0.0447 0.0447,0.0447 h 12.3089 c 0.0248,0 0.0447,-0.0199 0.0447,-0.0447 V 95.103199 c 0,-0.02477 -0.0199,-0.04471 -0.0447,-0.04471 z"
           id="path65" /><path
           d="m 140.29514,94.760611 c 0.18452,0 0.34375,0.157277 0.34375,0.341797 v 18.480472 c 0,0.18452 -0.15923,0.3418 -0.34375,0.3418 h -12.30859 c -0.18452,0 -0.3418,-0.15728 -0.3418,-0.3418 V 95.102408 c 0,-0.18452 0.15728,-0.341797 0.3418,-0.341797 z m -0.25195,0.595703 h -11.80273 v 17.972656 h 11.80273 z"
           id="path66" /><path
           style="fill:#ffffff"
           d="m 137.96123,98.807883 h -7.63948 c -0.009,0 -0.0159,0.0071 -0.0159,0.01592 v 4.139107 c 0,0.009 0.007,0.0159 0.0159,0.0159 h 7.63948 c 0.009,0 0.0159,-0.007 0.0159,-0.0159 v -4.139107 c 0,-0.0088 -0.007,-0.01592 -0.0159,-0.01592 z"
           id="path67" /><path
           d="m 137.96116,98.543814 c 0.15082,0 0.28125,0.128476 0.28125,0.279297 v 4.140629 c 0,0.15082 -0.13043,0.2793 -0.28125,0.2793 h -7.63867 c -0.15082,0 -0.28125,-0.12848 -0.28125,-0.2793 v -4.140629 c 0,-0.150821 0.13043,-0.279297 0.28125,-0.279297 z m -0.24805,0.529297 h -7.14258 v 3.640629 h 7.14258 z"
           id="path68" /><path
           style="fill:#222b00;stroke-linecap:round;paint-order:fill markers stroke"
           d="m 134.14085,99.411002 c -0.81324,0 -1.47657,0.663328 -1.47657,1.476568 0,0.81323 0.66333,1.47656 1.47657,1.47656 0.81323,0 1.47656,-0.66333 1.47656,-1.47656 0,-0.81324 -0.66333,-1.476568 -1.47656,-1.476568 z m 0,0.396486 c 0.59874,0 1.08007,0.481332 1.08007,1.080082 0,0.59874 -0.48133,1.08007 -1.08007,1.08007 -0.59875,0 -1.08008,-0.48133 -1.08008,-1.08007 0,-0.59875 0.48133,-1.080082 1.08008,-1.080082 z"
           id="path3-8-3-8" /><path
           d="m 134.78342,100.50866 -0.7539,0.72266 -0.32227,-0.24805 -0.64648,0.49414 0.24023,0.31445 0.4043,-0.30859 0.35156,0.27148 0.70117,-0.67187 0.38868,0.44726 0.29882,-0.25976 z"
           id="path1-1-3" /><path
           d="m 133.89085,99.914908 c -0.25999,0 -0.47461,0.214622 -0.47461,0.474612 0,0.25999 0.21462,0.47461 0.47461,0.47461 0.25998,0 0.47461,-0.21462 0.47461,-0.47461 0,-0.25999 -0.21463,-0.474612 -0.47461,-0.474612 z m 0,0.343752 c 0.0741,0 0.13086,0.0568 0.13086,0.13086 0,0.0741 -0.0568,0.13086 -0.13086,0.13086 -0.0741,0 -0.13086,-0.0568 -0.13086,-0.13086 0,-0.0741 0.0568,-0.13086 0.13086,-0.13086 z"
           id="path2-2-7" /><path
           id="rect5-8-96-2-8-4-4-1"
           style="fill:#1a1a1a;stroke-width:0.408491"
           d="m 130.91302,105.21537 h 6.45695 c 0.0592,0 0.10688,0.0477 0.10688,0.10689 v 0.38154 c 0,0.0592 -0.0477,0.10688 -0.10688,0.10688 h -6.45695 c -0.0592,0 -0.10689,-0.0477 -0.10689,-0.10688 v -0.38154 c 0,-0.0592 0.0477,-0.10689 0.10689,-0.10689 z" /><path
           id="rect5-8-96-2-8-4-4-5-0"
           style="fill:#1a1a1a;stroke-width:0.408491"
           d="m 130.91302,107.29791 h 6.45695 c 0.0592,0 0.10688,0.0477 0.10688,0.10689 v 0.38154 c 0,0.0592 -0.0477,0.10689 -0.10688,0.10689 h -6.45695 c -0.0592,0 -0.10689,-0.0477 -0.10689,-0.10689 v -0.38154 c 0,-0.0592 0.0477,-0.10689 0.10689,-0.10689 z" /><path
           id="rect5-8-96-2-8-4-4-5-9-7"
           style="fill:#1a1a1a;stroke-width:0.408491"
           d="m 130.91302,109.38045 h 6.45695 c 0.0592,0 0.10688,0.0477 0.10688,0.10689 v 0.38153 c 0,0.0592 -0.0477,0.10689 -0.10688,0.10689 h -6.45695 c -0.0592,0 -0.10689,-0.0477 -0.10689,-0.10689 v -0.38153 c 0,-0.0592 0.0477,-0.10689 0.10689,-0.10689 z" /><path
           style="fill:#ffffff"
           d="m 140.29595,95.058495 h -12.30891 c -0.0248,0 -0.0447,0.01994 -0.0447,0.04471 v 18.479035 c 0,0.0248 0.0199,0.0447 0.0447,0.0447 h 12.30891 c 0.0248,0 0.0447,-0.0199 0.0447,-0.0447 V 95.1032 c 0,-0.02477 -0.0199,-0.04471 -0.0447,-0.04471 z"
           id="path63" /><rect
           style="fill:#f9f9f9;fill-opacity:1;stroke-width:0.251509"
           id="rect1"
           width="11.934635"
           height="18.310726"
           x="128.13029"
           y="95.20903"
           ry="0" /><path
           d="m 140.29687,94.761719 c 0.18452,0 0.3418,0.157277 0.3418,0.341797 v 18.478514 c 0,0.18452 -0.15728,0.3418 -0.3418,0.3418 h -12.31054 c -0.18452,0 -0.3418,-0.15728 -0.3418,-0.3418 V 95.103516 c 0,-0.18452 0.15728,-0.341797 0.3418,-0.341797 z m -0.2539,0.59375 h -11.80274 v 17.974611 h 11.80274 z"
           id="path64"
           style="fill:#000000;fill-opacity:1" /><path
           style="fill:#e6e6e6;stroke-width:0.988693"
           d="m 137.78906,98.807884 h -7.46769 c -0.01,0 -0.0155,0.0071 -0.0155,0.01592 v 4.139106 c 0,0.009 0.008,0.0159 0.0155,0.0159 h 7.46769 c 0.01,0 0.0155,-0.007 0.0155,-0.0159 v -4.139106 c 0,-0.0088 -0.008,-0.01592 -0.0155,-0.01592 z"
           id="path61" /><rect
           style="fill:#80e5ff;fill-opacity:1;stroke:none;stroke-width:0.0623582"
           id="rect3"
           width="2.3393955"
           height="2.5896561"
           x="133.03783"
           y="99.637383"
           ry="1.2948281" /><path
           style="fill:#ffb380;fill-opacity:1;stroke:none;stroke-width:0.132292"
           d="m 133.68338,101.3107 -0.49263,0.35827 0.32467,0.40304 c 0,0 0.72774,0.0896 0.79492,0.0784 0.0672,-0.0111 0.7389,-0.34708 0.7389,-0.34708 l 0.25752,-0.41423 -0.5374,-0.60457 -0.63817,0.58219 z"
           id="path3" /><path
           d="m 137.96094,98.542969 c 0.15082,0 0.28125,0.130429 0.28125,0.28125 v 4.138671 c 0,0.15082 -0.13043,0.28125 -0.28125,0.28125 h -7.63867 c -0.15083,0 -0.28125,-0.13043 -0.28125,-0.28125 v -4.138671 c 0,-0.150821 0.13042,-0.28125 0.28125,-0.28125 z m -0.24805,0.529297 h -7.14258 v 3.642574 h 7.14258 z"
           id="path62" /><rect
           style="fill:#ffff00;fill-opacity:1;stroke:none;stroke-width:0.132292"
           id="rect2"
           width="0.3958284"
           height="0.3958284"
           x="133.67633"
           y="100.17153"
           ry="0.1979142" /><path
           style="stroke-linecap:round;paint-order:fill markers stroke"
           d="m 134.14062,99.410156 c -0.81323,0 -1.47656,0.665284 -1.47656,1.478514 0,0.81324 0.66333,1.47656 1.47656,1.47656 0.81324,0 1.47852,-0.66332 1.47852,-1.47656 0,-0.81323 -0.66528,-1.478514 -1.47852,-1.478514 z m 0,0.398438 c 0.59875,0 1.08008,0.481326 1.08008,1.080076 0,0.59875 -0.48133,1.07813 -1.08008,1.07813 -0.59874,0 -1.07812,-0.47938 -1.07812,-1.07813 0,-0.59875 0.47938,-1.080076 1.07812,-1.080076 z"
           id="circle133-6" /><path
           d="m 134.78516,100.50781 -0.75586,0.72461 -0.32227,-0.25 -0.64648,0.49414 0.24023,0.31641 0.4043,-0.30859 0.35156,0.26953 0.70117,-0.66993 0.38867,0.44532 0.30079,-0.25977 z"
           id="path133-5" /><path
           d="m 133.89062,99.914062 c -0.25998,0 -0.4746,0.214628 -0.4746,0.474608 0,0.25999 0.21462,0.47461 0.4746,0.47461 0.25999,0 0.47461,-0.21462 0.47461,-0.47461 0,-0.25998 -0.21462,-0.474607 -0.47461,-0.474608 z m 0,0.343748 c 0.0741,0 0.13086,0.0568 0.13086,0.13086 0,0.0741 -0.0568,0.13086 -0.13086,0.13086 -0.0741,0 -0.1289,-0.0568 -0.1289,-0.13086 0,-0.0741 0.0548,-0.13086 0.1289,-0.13086 z"
           id="circle134-1" /><path
           id="rect134-0"
           style="baseline-shift:baseline;display:inline;overflow:visible;vector-effect:none;fill:#1a1a1a;enable-background:accumulate;stop-color:#000000;stop-opacity:1"
           d="m 130.91301,105.21537 h 6.45695 c 0.0592,0 0.10689,0.0477 0.10689,0.10689 v 0.38154 c 0,0.0592 -0.0477,0.10688 -0.10689,0.10688 h -6.45695 c -0.0592,0 -0.10689,-0.0477 -0.10689,-0.10688 v -0.38154 c 0,-0.0592 0.0477,-0.10689 0.10689,-0.10689 z" /><path
           id="rect135-9"
           style="baseline-shift:baseline;display:inline;overflow:visible;vector-effect:none;fill:#1a1a1a;enable-background:accumulate;stop-color:#000000;stop-opacity:1"
           d="m 130.91301,107.29791 h 6.45695 c 0.0592,0 0.10689,0.0477 0.10689,0.10689 v 0.38154 c 0,0.0592 -0.0477,0.10689 -0.10689,0.10689 h -6.45695 c -0.0592,0 -0.10689,-0.0477 -0.10689,-0.10689 v -0.38154 c 0,-0.0592 0.0477,-0.10689 0.10689,-0.10689 z" /><path
           id="rect136-9"
           style="baseline-shift:baseline;display:inline;overflow:visible;vector-effect:none;fill:#1a1a1a;enable-background:accumulate;stop-color:#000000;stop-opacity:1"
           d="m 130.91301,109.38045 h 6.45695 c 0.0592,0 0.10689,0.0477 0.10689,0.10688 v 0.38154 c 0,0.0592 -0.0477,0.10689 -0.10689,0.10689 h -6.45695 c -0.0592,0 -0.10689,-0.0477 -0.10689,-0.10689 v -0.38154 c 0,-0.0592 0.0477,-0.10688 0.10689,-0.10688 z" /></g></g></g></svg>
