<?xml version="1.0" encoding="UTF-8" standalone="no"?>
<!-- Created with Inkscape (http://www.inkscape.org/) -->

<svg
   width="51.099636"
   height="78.84063"
   viewBox="0 0 13.520112 20.859916"
   version="1.1"
   id="svg1"
   xml:space="preserve"
   inkscape:version="1.4 (86a8ad7, 2024-10-11)"
   sodipodi:docname="local.svg"
   xmlns:inkscape="http://www.inkscape.org/namespaces/inkscape"
   xmlns:sodipodi="http://sodipodi.sourceforge.net/DTD/sodipodi-0.dtd"
   xmlns="http://www.w3.org/2000/svg"
   xmlns:svg="http://www.w3.org/2000/svg"><sodipodi:namedview
     id="namedview1"
     pagecolor="#ffffff"
     bordercolor="#000000"
     borderopacity="0.25"
     inkscape:showpageshadow="2"
     inkscape:pageopacity="0.0"
     inkscape:pagecheckerboard="0"
     inkscape:deskcolor="#d1d1d1"
     inkscape:document-units="px"
     inkscape:zoom="2.8756734"
     inkscape:cx="54.595908"
     inkscape:cy="47.467143"
     inkscape:window-width="1920"
     inkscape:window-height="1009"
     inkscape:window-x="-8"
     inkscape:window-y="-8"
     inkscape:window-maximized="1"
     inkscape:current-layer="layer1" /><defs
     id="defs1" /><g
     inkscape:label="Layer 1"
     inkscape:groupmode="layer"
     id="layer1"
     transform="translate(-98.023812,-75.628251)"><g
       id="g3"><path
         style="fill:none;stroke:#000000;stroke-width:0.529167;stroke-dasharray:none"
         d="m 104.01,94.987068 c -3.08715,-5.10032 -5.211938,-9.511083 -5.635944,-11.699431 -0.175632,-0.906463 -0.07017,-2.109897 0.267172,-3.048684 0.785332,-2.185508 2.597872,-3.756 4.880462,-4.228727 1.05094,-0.217651 2.40682,-0.121874 3.41787,0.241432 2.58663,0.929473 4.32369,3.347415 4.33968,6.04074 0.004,0.689621 -0.10465,1.243738 -0.4489,2.287191 -0.79734,2.416858 -2.78016,6.314662 -5.42404,10.662542 -0.32821,0.539732 -0.60822,0.981389 -0.62226,0.981457 -0.014,6.9e-5 -0.36235,-0.556365 -0.77404,-1.23652 z m 2.04298,-7.842094 c 0.56474,-0.1647 0.9567,-0.342808 1.42508,-0.647556 0.96985,-0.631028 1.67543,-1.586135 2.03486,-2.754467 0.13005,-0.422756 0.14007,-0.519183 0.14007,-1.348478 0,-0.826308 -0.0103,-0.926739 -0.13811,-1.341703 -0.51802,-1.682397 -1.70863,-2.872947 -3.38876,-3.388584 -0.41018,-0.125887 -0.52377,-0.138033 -1.31656,-0.140805 -0.67628,-0.0024 -0.93887,0.01665 -1.19057,0.08624 -1.84626,0.510381 -3.11037,1.774534 -3.619664,3.619808 -0.06812,0.24683 -0.08916,0.521357 -0.08927,1.165049 -1.21e-4,0.723801 0.0161,0.898174 0.115454,1.241022 0.16994,0.586408 0.34684,0.978482 0.65559,1.452997 0.70783,1.087895 1.79578,1.826058 3.13899,2.129778 0.49253,0.11137 1.7401,0.07042 2.23289,-0.0733 z"
         id="path1" /><path
         style="-inkscape-font-specification:'suse Bold';stroke-width:0.192923"
         d="m 102.93904,82.902008 q -0.21776,0 -0.37836,-0.08166 -0.1606,-0.08166 -0.27492,-0.212318 l 0.23681,-0.236815 q 0.11433,0.111602 0.21504,0.160599 0.10344,0.049 0.21776,0.049 0.14427,0 0.22321,-0.06533 0.0817,-0.06805 0.0817,-0.168766 0,-0.0871 -0.0517,-0.138823 -0.049,-0.05444 -0.13338,-0.0871 -0.0817,-0.03539 -0.18237,-0.06533 -0.098,-0.02994 -0.19871,-0.06533 -0.098,-0.03811 -0.18237,-0.09527 -0.0817,-0.05988 -0.13338,-0.152433 -0.049,-0.09255 -0.049,-0.234094 0,-0.179653 0.0844,-0.31031 0.0844,-0.133379 0.23682,-0.204151 0.15243,-0.07349 0.35658,-0.07349 0.19054,0 0.3457,0.06805 0.15788,0.06805 0.25587,0.182375 l -0.24498,0.244982 q -0.0844,-0.0871 -0.16877,-0.130657 -0.0844,-0.04355 -0.18782,-0.04355 -0.13338,0 -0.21504,0.06533 -0.0817,0.06261 -0.0817,0.166043 0,0.08166 0.0517,0.130657 0.0517,0.049 0.13338,0.07894 0.0844,0.02722 0.1851,0.05444 0.10343,0.02722 0.20415,0.06261 0.10071,0.03539 0.18237,0.09527 0.0844,0.05716 0.13611,0.152433 0.0517,0.09527 0.0517,0.24226 0,0.185097 -0.0925,0.32392 -0.0898,0.136101 -0.25043,0.212318 -0.1606,0.07622 -0.37292,0.07622 z m 1.31474,-0.03811 q -0.14155,0 -0.2341,-0.09255 -0.0925,-0.09255 -0.0925,-0.231372 v -1.257573 q 0,-0.138823 0.0925,-0.231372 0.0926,-0.09255 0.2341,-0.09255 h 0.94998 V 81.3069 h -0.81933 q -0.0327,0 -0.0544,0.0245 -0.0218,0.02178 -0.0218,0.05444 v 1.0507 q 0,0.03266 0.0218,0.05716 0.0218,0.02178 0.0544,0.02178 h 0.81933 v 0.348418 z m -0.14155,-0.792108 v -0.332086 h 1.03437 v 0.332086 z m 2.25383,0.830217 q -0.26948,0 -0.48452,-0.122491 -0.21504,-0.125213 -0.34025,-0.345697 -0.12249,-0.220484 -0.12249,-0.514462 v -0.01905 q 0,-0.293978 0.12249,-0.514462 0.12521,-0.220483 0.34025,-0.342974 0.21504,-0.122491 0.48452,-0.122491 0.27221,0 0.48452,0.122491 0.21232,0.122491 0.33481,0.342974 0.12521,0.220484 0.12521,0.514462 v 0.01905 q 0,0.293978 -0.12521,0.514462 -0.12249,0.220484 -0.33481,0.345697 -0.21231,0.122491 -0.48452,0.122491 z m 0,-0.375639 q 0.1606,0 0.28309,-0.07077 0.12522,-0.07349 0.19599,-0.209595 0.0708,-0.136101 0.0708,-0.326643 v -0.01905 q 0,-0.187819 -0.0708,-0.32392 -0.0708,-0.136101 -0.19599,-0.206874 -0.12249,-0.07349 -0.28309,-0.07349 -0.1606,0 -0.28581,0.07349 -0.12521,0.07077 -0.19598,0.206874 -0.0708,0.136101 -0.0708,0.32392 v 0.01905 q 0,0.190542 0.0708,0.326643 0.0708,0.136101 0.19598,0.209595 0.12521,0.07077 0.28581,0.07077 z"
         id="text1"
         aria-label="SEO" /></g><path
       style="fill:none;stroke:#000000;stroke-width:0.529167;stroke-dasharray:none"
       d="m 167.40092,96.37552 c -0.80689,-0.07414 -1.45362,-0.563854 -1.75155,-1.326297 -0.0854,-0.218521 -0.11034,-0.380305 -0.11061,-0.717184 -2.3e-4,-0.275952 0.007,-0.349373 0.0535,-0.521909 0.0636,-0.237299 0.18767,-0.499529 0.31905,-0.674202 0.0846,-0.112444 1.82247,-1.860893 5.66297,-5.697361 l 1.2858,-1.284446 1.44509,1.444968 1.44508,1.444968 -3.44143,3.441898 c -2.43977,2.440101 -3.48354,3.470238 -3.58611,3.539266 -0.27864,0.187529 -0.62808,0.316758 -0.92575,0.342359 -0.0707,0.0061 -0.15253,0.01367 -0.18197,0.01687 -0.0294,0.0032 -0.12578,-8.16e-4 -0.21409,-0.0089 z m 15.32124,-0.05396 c -1.49182,-0.232052 -2.70809,-1.218496 -3.23175,-2.621073 -0.22495,-0.602527 -0.32282,-1.391083 -0.24179,-1.948172 0.0348,-0.239101 0.1254,-0.618323 0.19423,-0.812814 l 0.0338,-0.09563 -4.20979,-4.209832 -4.20979,-4.209832 -0.21741,0.0705 c -0.72021,0.233541 -1.42111,0.245848 -2.24825,0.03948 -0.42677,-0.106478 -0.95235,-0.35249 -1.34545,-0.629774 -0.2235,-0.157654 -0.60439,-0.515328 -0.78654,-0.738593 -0.87232,-1.069267 -1.14451,-2.509244 -0.71953,-3.806597 0.0923,-0.28175 0.18833,-0.506673 0.21647,-0.506977 0.0121,-1.31e-4 0.6552,0.633866 1.42917,1.408882 1.51461,1.516642 1.51147,1.51388 1.84578,1.624351 0.24075,0.07955 0.59334,0.08372 0.81352,0.0096 0.42274,-0.142275 0.76355,-0.478903 0.89144,-0.8805 0.0258,-0.08089 0.0491,-0.226049 0.0556,-0.345579 0.0141,-0.260616 -0.0293,-0.46824 -0.14855,-0.709905 -0.0852,-0.172774 -0.11169,-0.200846 -1.52264,-1.614844 -0.78976,-0.791457 -1.43159,-1.442983 -1.42629,-1.447836 0.0309,-0.02832 0.30081,-0.137359 0.5139,-0.207605 1.30945,-0.431677 2.7615,-0.151112 3.82968,0.739973 0.95813,0.799276 1.49151,1.970925 1.48606,3.264342 -0.002,0.392559 -0.053,0.706232 -0.18113,1.106169 l -0.0661,0.206303 4.21251,4.212549 4.21251,4.212548 0.0766,-0.02981 c 0.15858,-0.06171 0.54718,-0.159337 0.75756,-0.190321 0.40845,-0.06015 0.89123,-0.0411 1.37426,0.05425 1.53413,0.302823 2.76327,1.455215 3.15959,2.962294 0.0881,0.334921 0.13143,0.678273 0.13256,1.049705 0.001,0.366712 -0.0248,0.580858 -0.11304,0.932245 -0.0819,0.326476 -0.25542,0.791138 -0.29538,0.791138 -0.008,0 -0.64129,-0.626692 -1.40661,-1.392648 -1.50234,-1.503592 -1.52662,-1.524947 -1.86248,-1.637919 -0.34327,-0.115467 -0.70098,-0.08878 -1.03006,0.07685 -0.31111,0.156582 -0.54803,0.424065 -0.66925,0.755576 -0.0507,0.138488 -0.0562,0.183172 -0.0562,0.453349 0,0.271702 0.005,0.314397 0.0574,0.456742 0.11494,0.314659 0.12046,0.320881 1.61758,1.823829 l 1.4187,1.42423 -0.13386,0.05828 c -0.30847,0.13431 -0.69721,0.247357 -1.04371,0.303512 -0.25414,0.04119 -0.89725,0.04094 -1.16331,-4.48e-4 z m -4.08181,-13.079157 -0.71698,-0.717221 1.79167,-1.792925 1.79166,-1.792925 0.19924,-0.386052 c 0.10958,-0.212328 0.44802,-0.867438 0.75208,-1.4558 l 0.55285,-1.06975 0.24997,-0.13105 c 0.86181,-0.451802 2.7007,-1.399611 2.71546,-1.399611 0.0282,0 1.42016,1.399278 1.42016,1.427631 0,0.03136 -1.49422,2.919271 -1.52801,2.953211 -0.0245,0.02465 -1.23013,0.653365 -2.31481,1.207171 l -0.59944,0.306055 -1.78778,1.784243 c -0.98328,0.981334 -1.79258,1.784243 -1.79844,1.784243 -0.006,0 -0.33329,-0.322749 -0.72763,-0.71722 z"
       id="path2" /><g
       id="g2"
       transform="matrix(0.66690057,0,0,0.66690057,47.693873,28.661236)"
       style="stroke-width:1;stroke-dasharray:none"><rect
         style="fill:none;stroke:#000000;stroke-width:1;stroke-dasharray:none"
         id="rect1"
         width="21.469496"
         height="31.488596"
         x="132.44734"
         y="70.299789"
         ry="0.23001859" /><rect
         style="fill:none;stroke:#000000;stroke-width:1;stroke-dasharray:none"
         id="rect1-2"
         width="14.761359"
         height="7.0193286"
         x="135.80141"
         y="73.089142"
         ry="0.053241957" /><rect
         style="fill:#000000;stroke:none;stroke-width:1;stroke-dasharray:none"
         id="rect2"
         width="13.141934"
         height="0.78070897"
         x="136.61113"
         y="82.98822"
         ry="0.07077495" /><rect
         style="fill:#000000;stroke:none;stroke-width:1;stroke-dasharray:none"
         id="rect2-6"
         width="13.141934"
         height="0.78070897"
         x="136.61113"
         y="85.7733"
         ry="0.07077495" /><rect
         style="fill:#000000;stroke:none;stroke-width:1;stroke-dasharray:none"
         id="rect2-6-7"
         width="13.141934"
         height="0.78070897"
         x="136.61113"
         y="88.688065"
         ry="0.07077495" /><rect
         style="fill:#000000;stroke:none;stroke-width:1;stroke-dasharray:none"
         id="rect2-6-7-1"
         width="13.141934"
         height="0.78070897"
         x="136.61113"
         y="91.524727"
         ry="0.07077495" /></g></g></svg>
