<?xml version="1.0" encoding="UTF-8" standalone="no"?>
<!-- Created with Inkscape (http://www.inkscape.org/) -->

<svg
   width="23.8125mm"
   height="23.8125mm"
   viewBox="0 0 23.8125 23.812501"
   version="1.1"
   id="svg1"
   xml:space="preserve"
   inkscape:export-filename="html-css-js.svg"
   inkscape:export-xdpi="96"
   inkscape:export-ydpi="96"
   inkscape:version="1.4 (86a8ad7, 2024-10-11)"
   sodipodi:docname="cms.svg"
   xmlns:inkscape="http://www.inkscape.org/namespaces/inkscape"
   xmlns:sodipodi="http://sodipodi.sourceforge.net/DTD/sodipodi-0.dtd"
   xmlns="http://www.w3.org/2000/svg"
   xmlns:svg="http://www.w3.org/2000/svg"><sodipodi:namedview
     id="namedview1"
     pagecolor="#000000"
     bordercolor="#000000"
     borderopacity="1"
     inkscape:showpageshadow="2"
     inkscape:pageopacity="0.0"
     inkscape:pagecheckerboard="0"
     inkscape:deskcolor="#d1d1d1"
     inkscape:document-units="px"
     showborder="false"
     inkscape:zoom="2.9540685"
     inkscape:cx="127.6206"
     inkscape:cy="152.84006"
     inkscape:window-width="1920"
     inkscape:window-height="1009"
     inkscape:window-x="-8"
     inkscape:window-y="-8"
     inkscape:window-maximized="1"
     inkscape:current-layer="g136"><inkscape:page
       x="0"
       y="0"
       width="23.8125"
       height="23.812502"
       id="page2"
       margin="0"
       bleed="0" /></sodipodi:namedview><defs
     id="defs1"><style
       id="style1">
      .cls-1 {
        fill: #0678be;
      }

      .cls-2 {
        fill: none;
      }
    </style><style
       id="style1-1">
      .cls-1 {
        fill: #0678be;
      }

      .cls-2 {
        fill: none;
      }
    </style></defs><g
     inkscape:label="Layer 1"
     inkscape:groupmode="layer"
     id="layer1"
     transform="translate(-149.38132,-94.830076)"><g
       inkscape:label="Layer 1"
       id="layer1-8"
       transform="translate(28.52184,-50.139464)"><g
         id="g136"><path
           id="rect113-7-0"
           style="baseline-shift:baseline;display:inline;overflow:visible;vector-effect:none;fill:#ffffff;enable-background:accumulate;stop-color:#000000;stop-opacity:1"
           d="m 122.44698,144.96954 h 20.6375 c 0.87947,0 1.5875,0.70803 1.5875,1.5875 v 20.6375 c 0,0.87948 -0.70803,1.5875 -1.5875,1.5875 h -20.6375 c -0.87947,0 -1.5875,-0.70802 -1.5875,-1.5875 v -20.6375 c 0,-0.87947 0.70803,-1.5875 1.5875,-1.5875 z" /><g
           id="rect21-3"
           transform="scale(-1,1)"><path
             style="fill:#ffffff;stroke-linecap:round;stroke-linejoin:bevel"
             d="m -135.70359,147.59586 h 5.88157 c 0.98155,0 1.77175,0.7902 1.77175,1.77175 v 15.20575 c 0,0.98156 -0.7902,1.77176 -1.77175,1.77176 h -5.88157 c -0.98155,0 -1.77175,-0.7902 -1.77175,-1.77176 v -15.20575 c 0,-0.98155 0.7902,-1.77175 1.77175,-1.77175 z"
             id="path27" /><path
             style="stroke-linecap:round;stroke-linejoin:bevel"
             d="m -135.70312,147.33203 c -1.12285,0 -2.03516,0.91231 -2.03516,2.03516 v 15.20703 c 0,1.12284 0.91231,2.0332 2.03516,2.0332 h 5.88085 c 1.12285,0 2.03516,-0.91036 2.03516,-2.0332 v -15.20703 c 0,-1.12285 -0.91231,-2.03516 -2.03516,-2.03516 z m 0,0.52734 h 5.88085 c 0.84026,0 1.50782,0.66756 1.50782,1.50782 v 15.20703 c 0,0.84026 -0.66756,1.50781 -1.50782,1.50781 h -5.88085 c -0.84026,0 -1.50977,-0.66755 -1.50977,-1.50781 v -15.20703 c 0,-0.84026 0.66951,-1.50782 1.50977,-1.50782 z"
             id="path28" /></g><path
           id="rect22-8"
           style="baseline-shift:baseline;display:inline;overflow:visible;vector-effect:none;enable-background:accumulate;stop-color:#000000;stop-opacity:1"
           transform="scale(-1,1)"
           d="m -133.79719,148.54594 h 2.06876 c 0.21182,0 0.38235,0.17053 0.38235,0.38235 0,0.21182 -0.17053,0.38235 -0.38235,0.38235 h -2.06876 c -0.21182,0 -0.38234,-0.17053 -0.38234,-0.38235 0,-0.21182 0.17052,-0.38235 0.38234,-0.38235 z" /><path
           id="rect23-0"
           style="baseline-shift:baseline;display:inline;overflow:visible;vector-effect:none;enable-background:accumulate;stop-color:#000000;stop-opacity:1"
           transform="matrix(0,-1,-1,0,0,0)"
           d="m -154.0467,-138.00641 h 1.6723 c 0.14844,0 0.26795,0.11951 0.26795,0.26795 0,0.14845 -0.11951,0.26795 -0.26795,0.26795 h -1.6723 c -0.14845,0 -0.26795,-0.1195 -0.26795,-0.26795 0,-0.14844 0.1195,-0.26795 0.26795,-0.26795 z" /><path
           id="rect24-1"
           style="baseline-shift:baseline;display:inline;overflow:visible;vector-effect:none;enable-background:accumulate;stop-color:#000000;stop-opacity:1"
           transform="matrix(0,-1,-1,0,0,0)"
           d="m -153.00591,-128.06038 h 1.6723 c 0.14844,0 0.26795,0.11951 0.26795,0.26795 0,0.14845 -0.11951,0.26795 -0.26795,0.26795 h -1.6723 c -0.14845,0 -0.26795,-0.1195 -0.26795,-0.26795 0,-0.14844 0.1195,-0.26795 0.26795,-0.26795 z" /><path
           id="rect25-2"
           style="baseline-shift:baseline;display:inline;overflow:visible;vector-effect:none;enable-background:accumulate;stop-color:#000000;stop-opacity:1"
           transform="matrix(0,-1,-1,0,0,0)"
           d="m -155.69676,-128.08417 h 1.6723 c 0.14845,0 0.26795,0.11951 0.26795,0.26795 0,0.14845 -0.1195,0.26795 -0.26795,0.26795 h -1.6723 c -0.14844,0 -0.26795,-0.1195 -0.26795,-0.26795 0,-0.14844 0.11951,-0.26795 0.26795,-0.26795 z" /></g></g></g></svg>
