<?xml version="1.0" encoding="UTF-8" standalone="no"?>
<!-- Created with Inkscape (http://www.inkscape.org/) -->

<svg
   width="23.8125mm"
   height="23.8125mm"
   viewBox="0 0 23.8125 23.812501"
   version="1.1"
   id="svg1"
   xml:space="preserve"
   xmlns="http://www.w3.org/2000/svg"
   xmlns:svg="http://www.w3.org/2000/svg"><defs
     id="defs1"><style
       id="style1">
      .cls-1 {
        fill: #0678be;
      }

      .cls-2 {
        fill: none;
      }
    </style><style
       id="style1-1">
      .cls-1 {
        fill: #0678be;
      }

      .cls-2 {
        fill: none;
      }
    </style></defs><g
     id="layer1"
     transform="translate(-177.01436,-122.84348)"><g
       id="layer1-8"
       transform="translate(28.52184,-50.139464)"><g
         id="g136"><g
           id="g82"><path
             id="rect113-7-4-6-5"
             style="baseline-shift:baseline;display:inline;overflow:visible;vector-effect:none;fill:#ffffff;enable-background:accumulate;stop-color:#000000;stop-opacity:1"
             d="m 150.08002,172.98294 h 20.6375 c 0.87948,0 1.5875,0.70803 1.5875,1.5875 v 20.6375 c 0,0.87947 -0.70802,1.5875 -1.5875,1.5875 h -20.6375 c -0.87947,0 -1.5875,-0.70803 -1.5875,-1.5875 v -20.6375 c 0,-0.87947 0.70803,-1.5875 1.5875,-1.5875 z" /><path
             id="path4-2-4"
             style="baseline-shift:baseline;display:inline;overflow:visible;vector-effect:none;enable-background:accumulate;stop-color:#000000;stop-opacity:1"
             d="m 152.64321,174.34764 a 0.46834823,0.46834823 0 0 1 -0.46834,0.46835 0.46834823,0.46834823 0 0 1 -0.46835,-0.46835 0.46834823,0.46834823 0 0 1 0.46835,-0.46835 0.46834823,0.46834823 0 0 1 0.46834,0.46835 z" /><path
             id="rect5-8-96-2-8-4-4-8-1-2-0-3-5-2"
             style="baseline-shift:baseline;display:inline;overflow:visible;vector-effect:none;fill:#1a1a1a;enable-background:accumulate;stop-color:#000000;stop-opacity:1"
             d="m 166.54146,174.04999 h 0.85366 c 0.0592,0 0.10688,0.0477 0.10688,0.10689 v 0.38153 c 0,0.0592 -0.0477,0.10689 -0.10688,0.10689 h -0.85366 c -0.0592,0 -0.10689,-0.0477 -0.10689,-0.10689 v -0.38153 c 0,-0.0592 0.0477,-0.10689 0.10689,-0.10689 z" /><path
             id="rect5-8-96-2-8-4-4-8-1-2-0-5-5-3-0"
             style="baseline-shift:baseline;display:inline;overflow:visible;vector-effect:none;fill:#1a1a1a;enable-background:accumulate;stop-color:#000000;stop-opacity:1"
             d="m 164.90909,174.04999 h 0.85366 c 0.0592,0 0.10688,0.0477 0.10688,0.10689 v 0.38153 c 0,0.0592 -0.0477,0.10689 -0.10688,0.10689 h -0.85366 c -0.0592,0 -0.10689,-0.0477 -0.10689,-0.10689 v -0.38153 c 0,-0.0592 0.0477,-0.10689 0.10689,-0.10689 z" /><path
             id="rect5-8-96-2-8-4-4-8-1-2-2-9-9-6-9"
             style="baseline-shift:baseline;display:inline;overflow:visible;vector-effect:none;fill:#1a1a1a;enable-background:accumulate;stop-color:#000000;stop-opacity:1"
             d="m 168.24936,174.04999 h 0.85366 c 0.0592,0 0.10688,0.0477 0.10688,0.10689 v 0.38153 c 0,0.0592 -0.0477,0.10689 -0.10688,0.10689 h -0.85366 c -0.0592,0 -0.10689,-0.0477 -0.10689,-0.10689 v -0.38153 c 0,-0.0592 0.0477,-0.10689 0.10689,-0.10689 z" /><path
             id="rect5-8-96-2-8-4-4-8-7"
             style="baseline-shift:baseline;display:inline;overflow:visible;vector-effect:none;fill:#1a1a1a;enable-background:accumulate;stop-color:#000000;stop-opacity:1"
             d="m 160.53978,177.54224 h 6.52507 c 0.0592,0 0.10688,0.0477 0.10688,0.10688 v 0.38154 c 0,0.0592 -0.0477,0.10689 -0.10688,0.10689 h -6.52507 c -0.0592,0 -0.10689,-0.0477 -0.10689,-0.10689 v -0.38154 c 0,-0.0592 0.0477,-0.10688 0.10689,-0.10688 z" /><path
             id="rect5-8-96-2-8-4-4-8-0-3"
             style="baseline-shift:baseline;display:inline;overflow:visible;vector-effect:none;fill:#1a1a1a;enable-background:accumulate;stop-color:#000000;stop-opacity:1"
             d="m 151.93777,184.5509 h 13.81092 c 0.0518,0 0.0935,0.0417 0.0935,0.0935 v 0.33361 c 0,0.0518 -0.0417,0.0935 -0.0935,0.0935 h -13.81092 c -0.0518,0 -0.0935,-0.0417 -0.0935,-0.0935 v -0.33361 c 0,-0.0518 0.0417,-0.0935 0.0935,-0.0935 z" /><path
             id="rect5-8-96-2-8-4-4-8-0-5-7"
             style="baseline-shift:baseline;display:inline;overflow:visible;vector-effect:none;fill:#1a1a1a;enable-background:accumulate;stop-color:#000000;stop-opacity:1"
             d="m 151.94405,185.76959 h 11.7342 c 0.0553,0 0.0997,0.0445 0.0997,0.0997 v 0.356 c 0,0.0553 -0.0445,0.0997 -0.0997,0.0997 h -11.7342 c -0.0553,0 -0.0997,-0.0445 -0.0997,-0.0997 v -0.356 c 0,-0.0553 0.0445,-0.0997 0.0997,-0.0997 z" /><path
             id="rect5-8-96-2-8-4-4-8-0-5-6-2"
             style="baseline-shift:baseline;display:inline;overflow:visible;vector-effect:none;fill:#1a1a1a;enable-background:accumulate;stop-color:#000000;stop-opacity:1"
             d="m 151.84716,186.94977 h 9.96702 c 0.0588,0 0.10605,0.0473 0.10605,0.10605 v 0.37856 c 0,0.0588 -0.0473,0.10605 -0.10605,0.10605 h -9.96702 c -0.0588,0 -0.10606,-0.0473 -0.10606,-0.10605 v -0.37856 c 0,-0.0588 0.0473,-0.10605 0.10606,-0.10605 z" /><path
             id="rect5-8-96-2-8-4-4-8-0-5-6-3-60"
             style="baseline-shift:baseline;display:inline;overflow:visible;vector-effect:none;fill:#1a1a1a;enable-background:accumulate;stop-color:#000000;stop-opacity:1"
             d="m 162.64965,186.94511 h 6.45793 c 0.0587,0 0.10605,0.0473 0.10605,0.10606 v 0.37856 c 0,0.0588 -0.0473,0.10605 -0.10605,0.10605 h -6.45793 c -0.0588,0 -0.10606,-0.0473 -0.10606,-0.10605 v -0.37856 c 0,-0.0588 0.0473,-0.10606 0.10606,-0.10606 z" /><path
             id="rect5-8-96-2-8-4-4-8-0-5-6-3-6-1"
             style="baseline-shift:baseline;display:inline;overflow:visible;vector-effect:none;fill:#1a1a1a;enable-background:accumulate;stop-color:#000000;stop-opacity:1"
             d="m 164.39786,185.72974 h 4.75043 c 0.0553,0 0.0997,0.0445 0.0997,0.0997 v 0.35599 c 0,0.0553 -0.0445,0.0997 -0.0997,0.0997 h -4.75043 c -0.0553,0 -0.0997,-0.0445 -0.0997,-0.0997 v -0.35599 c 0,-0.0552 0.0445,-0.0997 0.0997,-0.0997 z" /><path
             id="rect5-8-96-2-8-4-4-8-0-5-6-3-6-9-6"
             style="baseline-shift:baseline;display:inline;overflow:visible;vector-effect:none;fill:#1a1a1a;enable-background:accumulate;stop-color:#000000;stop-opacity:1"
             d="m 166.66217,184.47612 h 2.5956 c 0.0518,0 0.0935,0.0417 0.0935,0.0935 v 0.3336 c 0,0.0518 -0.0417,0.0935 -0.0935,0.0935 h -2.5956 c -0.0518,0 -0.0935,-0.0417 -0.0935,-0.0935 v -0.3336 c 0,-0.0518 0.0417,-0.0935 0.0935,-0.0935 z" /><path
             id="rect5-8-96-2-8-4-4-8-1-5"
             style="baseline-shift:baseline;display:inline;overflow:visible;vector-effect:none;fill:#1a1a1a;enable-background:accumulate;stop-color:#000000;stop-opacity:1"
             d="m 160.51515,178.56552 h 3.31925 c 0.0592,0 0.10688,0.0477 0.10688,0.10689 v 0.38154 c 0,0.0592 -0.0477,0.10688 -0.10688,0.10688 h -3.31925 c -0.0592,0 -0.10689,-0.0477 -0.10689,-0.10688 v -0.38154 c 0,-0.0592 0.0477,-0.10689 0.10689,-0.10689 z" /><path
             id="rect5-8-96-2-8-4-4-8-1-2-7"
             style="baseline-shift:baseline;display:inline;overflow:visible;vector-effect:none;fill:#1a1a1a;enable-background:accumulate;stop-color:#000000;stop-opacity:1"
             d="m 160.52551,181.23476 h 1.33626 c 0.0592,0 0.10689,0.0477 0.10689,0.10688 v 0.38154 c 0,0.0592 -0.0477,0.10689 -0.10689,0.10689 h -1.33626 c -0.0592,0 -0.10689,-0.0477 -0.10689,-0.10689 v -0.38154 c 0,-0.0592 0.0477,-0.10688 0.10689,-0.10688 z" /><path
             id="rect5-8-96-2-8-4-4-8-1-2-2-5"
             style="baseline-shift:baseline;display:inline;overflow:visible;vector-effect:none;fill:#1a1a1a;enable-background:accumulate;stop-color:#000000;stop-opacity:1"
             d="m 162.48926,181.2541 h 1.35014 c 0.0554,0 0.0999,0.0446 0.0999,0.1 v 0.35675 c 0,0.0554 -0.0446,0.0999 -0.0999,0.0999 h -1.35014 c -0.0554,0 -0.1,-0.0446 -0.1,-0.0999 v -0.35675 c 0,-0.0554 0.0446,-0.1 0.1,-0.1 z" /><g
             id="rect1-3-9-4-8-9-7-6-4"
             transform="scale(-1,1)"><path
               style="fill:#ffffff"
               d="m -158.55357,175.76761 h 6.51125 c 0.0356,0 0.0642,0.0286 0.0642,0.0643 v 7.19759 c 0,0.0356 -0.0287,0.0642 -0.0642,0.0642 h -6.51125 c -0.0356,0 -0.0642,-0.0286 -0.0642,-0.0642 v -7.19759 c 0,-0.0356 0.0286,-0.0643 0.0642,-0.0643 z"
               id="path29" /><path
               d="m -158.55273,175.50391 c -0.1776,0 -0.33008,0.15053 -0.33008,0.32812 v 7.19727 c 0,0.17759 0.15248,0.32812 0.33008,0.32812 h 6.50976 c 0.1776,0 0.33008,-0.15053 0.33008,-0.32812 v -7.19727 c 0,-0.17759 -0.15248,-0.32812 -0.33008,-0.32812 z m 0.19921,0.52734 h 6.11133 v 6.79883 h -6.11133 z"
               id="path30" /></g><path
             style="fill:#1a1a1a;stroke-linecap:round;paint-order:fill markers stroke"
             d="m 155.23047,177.72461 c -0.88702,0 -1.60938,0.72431 -1.60938,1.61133 0,0.88702 0.72236,1.60937 1.60938,1.60937 0.88702,0 1.61133,-0.72235 1.61133,-1.60937 0,-0.88702 -0.72431,-1.61133 -1.61133,-1.61133 z m 0,0.39648 c 0.67253,0 1.21484,0.54232 1.21484,1.21485 0,0.67253 -0.54231,1.21289 -1.21484,1.21289 -0.67253,0 -1.21289,-0.54036 -1.21289,-1.21289 0,-0.67253 0.54036,-1.21485 1.21289,-1.21485 z"
             id="path3-8-0-1" /><path
             style="fill:#1a1a1a"
             d="m 155.93945,178.94531 -0.83203,0.79688 -0.35742,-0.27539 -0.70117,0.53515 0.24219,0.31641 0.45898,-0.35156 0.38672,0.29882 0.77734,-0.74414 0.44336,0.50977 0.29883,-0.26172 z"
             id="path1-6-2" /><path
             style="fill:#1a1a1a"
             d="m 154.95508,178.28516 c -0.27387,0 -0.5,0.22613 -0.5,0.5 0,0.27387 0.22613,0.49804 0.5,0.49804 0.27387,0 0.5,-0.22417 0.5,-0.49804 0,-0.27387 -0.22613,-0.5 -0.5,-0.5 z m 0,0.33007 c 0.0951,0 0.16797,0.0748 0.16797,0.16993 0,0.0951 -0.0728,0.16796 -0.16797,0.16796 -0.0951,0 -0.16797,-0.0728 -0.16797,-0.16796 0,-0.0951 0.0728,-0.16993 0.16797,-0.16993 z"
             id="path2-1-0" /><g
             id="rect1-3-9-4-8-9-7-6-9-3-6-1-1-8-0-1"
             transform="scale(-1,1)"><path
               style="fill:#ffffff"
               d="m -153.72474,188.81441 c 1.04618,0 1.88841,0.84223 1.88841,1.88841 0,1.04617 -0.84223,1.88841 -1.88841,1.88841 -1.04617,0 -1.8884,-0.84224 -1.8884,-1.88841 0,-1.04618 0.84223,-1.88841 1.8884,-1.88841 z"
               id="path69" /><path
               d="m -153.72461,188.62305 c -1.149,0 -2.08008,0.93108 -2.08008,2.08007 0,1.149 0.93108,2.08008 2.08008,2.08008 1.149,0 2.08008,-0.93108 2.08008,-2.08008 0,-1.14899 -0.93108,-2.08007 -2.08008,-2.08007 z m 0,0.38281 c 0.94336,0 1.69727,0.75391 1.69727,1.69726 0,0.94336 -0.75391,1.69727 -1.69727,1.69727 -0.94336,0 -1.69726,-0.75391 -1.69726,-1.69727 0,-0.94335 0.7539,-1.69726 1.69726,-1.69726 z"
               id="path70" /></g><path
             style="stroke-linecap:round;paint-order:fill markers stroke"
             d="m 153.72461,189.80469 c -0.49401,0 -0.89649,0.40443 -0.89649,0.89843 0,0.49401 0.40248,0.89649 0.89649,0.89649 0.49401,0 0.89648,-0.40248 0.89648,-0.89649 0,-0.494 -0.40247,-0.89843 -0.89648,-0.89843 z m 0,0.26562 c 0.35102,0 0.63281,0.2818 0.63281,0.63281 0,0.35102 -0.28179,0.63282 -0.63281,0.63282 -0.35102,0 -0.63281,-0.2818 -0.63281,-0.63282 0,-0.35101 0.28179,-0.63281 0.63281,-0.63281 z"
             id="path3-8-0-4-9-3-8-3-9-6-4" /><path
             d="m 154.10937,190.47461 -0.45117,0.43359 -0.19336,-0.14843 -0.38672,0.29492 0.14454,0.18945 0.24218,-0.18359 0.20899,0.16211 0.41992,-0.40235 0.23242,0.26758 0.17969,-0.15625 z"
             id="path1-6-0-9-8-4-8-1-3-6" /><path
             d="m 153.57422,190.13086 c -0.15002,0 -0.27344,0.12342 -0.27344,0.27344 0,0.15001 0.12342,0.27343 0.27344,0.27343 0.15001,0 0.27539,-0.12342 0.27539,-0.27343 0,-0.15002 -0.12538,-0.27344 -0.27539,-0.27344 z m 0,0.18555 c 0.0499,0 0.0898,0.038 0.0898,0.0879 0,0.0499 -0.0399,0.0879 -0.0898,0.0879 -0.0499,0 -0.0879,-0.038 -0.0879,-0.0879 0,-0.0499 0.038,-0.0879 0.0879,-0.0879 z"
             id="path2-1-7-8-0-1-7-3-6-0" /><path
             id="rect5-8-96-2-8-4-4-8-1-2-9-3-9-7"
             style="baseline-shift:baseline;display:inline;overflow:visible;vector-effect:none;fill:#1a1a1a;enable-background:accumulate;stop-color:#000000;stop-opacity:1"
             d="m 152.60455,193.86777 h 1.87688 c 0.0477,0 0.086,0.0383 0.086,0.086 v 0.30696 c 0,0.0476 -0.0384,0.086 -0.086,0.086 h -1.87688 c -0.0476,0 -0.086,-0.0384 -0.086,-0.086 v -0.30696 c 0,-0.0476 0.0384,-0.086 0.086,-0.086 z" /><path
             id="rect5-8-96-2-8-4-4-8-1-2-9-4-4-3-1"
             style="baseline-shift:baseline;display:inline;overflow:visible;vector-effect:none;fill:#1a1a1a;enable-background:accumulate;stop-color:#000000;stop-opacity:1"
             d="m 153.069,194.86169 h 0.94801 c 0.0476,0 0.086,0.0384 0.086,0.086 v 0.30696 c 0,0.0476 -0.0384,0.086 -0.086,0.086 H 153.069 c -0.0476,0 -0.086,-0.0384 -0.086,-0.086 v -0.30696 c 0,-0.0476 0.0384,-0.086 0.086,-0.086 z" /><g
             id="rect1-3-9-4-8-9-7-6-9-3-6-1-1-8-0-2-7"
             transform="scale(-1,1)"><path
               style="fill:#ffffff"
               d="m -160.588,188.81441 c 1.04618,0 1.88841,0.84223 1.88841,1.88841 0,1.04617 -0.84223,1.88841 -1.88841,1.88841 -1.04618,0 -1.88841,-0.84224 -1.88841,-1.88841 0,-1.04618 0.84223,-1.88841 1.88841,-1.88841 z"
               id="path71" /><path
               d="m -160.58789,188.62305 c -1.149,0 -2.08008,0.93108 -2.08008,2.08007 0,1.149 0.93108,2.08008 2.08008,2.08008 1.149,0 2.08008,-0.93108 2.08008,-2.08008 0,-1.14899 -0.93108,-2.08007 -2.08008,-2.08007 z m 0,0.38281 c 0.94336,0 1.69727,0.75391 1.69727,1.69726 0,0.94336 -0.75391,1.69727 -1.69727,1.69727 -0.94336,0 -1.69727,-0.75391 -1.69727,-1.69727 0,-0.94335 0.75391,-1.69726 1.69727,-1.69726 z"
               id="path72" /></g><path
             style="stroke-linecap:round;paint-order:fill markers stroke"
             d="m 160.58789,189.80469 c -0.49401,0 -0.89648,0.40443 -0.89648,0.89843 0,0.49401 0.40247,0.89649 0.89648,0.89649 0.49401,0 0.89648,-0.40248 0.89648,-0.89649 0,-0.494 -0.40247,-0.89843 -0.89648,-0.89843 z m 0,0.26562 c 0.35102,0 0.63281,0.2818 0.63281,0.63281 0,0.35102 -0.28179,0.63282 -0.63281,0.63282 -0.35102,0 -0.63281,-0.2818 -0.63281,-0.63282 0,-0.35101 0.28179,-0.63281 0.63281,-0.63281 z"
             id="path3-8-0-4-9-3-8-3-9-6-9-7" /><path
             d="m 160.97266,190.47461 -0.45118,0.43359 -0.19336,-0.14843 -0.38671,0.29492 0.14453,0.18945 0.24218,-0.18359 0.20899,0.16211 0.41992,-0.4043 0.23242,0.26953 0.17969,-0.15625 z"
             id="path1-6-0-9-8-4-8-1-3-1-7" /><path
             d="m 160.4375,190.13086 c -0.15002,0 -0.27344,0.12342 -0.27344,0.27344 0,0.15001 0.12342,0.27343 0.27344,0.27343 0.15002,0 0.27539,-0.12342 0.27539,-0.27343 0,-0.15002 -0.12537,-0.27344 -0.27539,-0.27344 z m 0,0.18555 c 0.0499,0 0.0898,0.038 0.0898,0.0879 0,0.0499 -0.0399,0.0879 -0.0898,0.0879 -0.0499,0 -0.0879,-0.038 -0.0879,-0.0879 0,-0.0499 0.038,-0.0879 0.0879,-0.0879 z"
             id="path2-1-7-8-0-1-7-3-6-5-3" /><path
             id="rect5-8-96-2-8-4-4-8-1-2-9-3-9-0-3"
             style="baseline-shift:baseline;display:inline;overflow:visible;vector-effect:none;fill:#1a1a1a;enable-background:accumulate;stop-color:#000000;stop-opacity:1"
             d="m 159.4678,193.86777 h 1.87689 c 0.0476,0 0.086,0.0383 0.086,0.086 v 0.30696 c 0,0.0476 -0.0384,0.086 -0.086,0.086 h -1.87689 c -0.0476,0 -0.086,-0.0384 -0.086,-0.086 v -0.30696 c 0,-0.0476 0.0384,-0.086 0.086,-0.086 z" /><path
             id="rect5-8-96-2-8-4-4-8-1-2-9-4-4-3-3-59"
             style="baseline-shift:baseline;display:inline;overflow:visible;vector-effect:none;fill:#1a1a1a;enable-background:accumulate;stop-color:#000000;stop-opacity:1"
             d="m 159.93225,194.86169 h 0.94801 c 0.0476,0 0.086,0.0384 0.086,0.086 v 0.30696 c 0,0.0476 -0.0384,0.086 -0.086,0.086 h -0.94801 c -0.0476,0 -0.086,-0.0384 -0.086,-0.086 v -0.30696 c 0,-0.0476 0.0384,-0.086 0.086,-0.086 z" /><g
             id="rect1-3-9-4-8-9-7-6-9-3-6-1-1-8-0-2-9-8"
             transform="scale(-1,1)"><path
               style="fill:#ffffff"
               d="m -167.45125,188.81441 c 1.04618,0 1.88841,0.84223 1.88841,1.88841 0,1.04617 -0.84223,1.88841 -1.88841,1.88841 -1.04618,0 -1.88841,-0.84224 -1.88841,-1.88841 0,-1.04618 0.84223,-1.88841 1.88841,-1.88841 z"
               id="path73" /><path
               d="m -167.45117,188.62305 c -1.149,0 -2.08008,0.93108 -2.08008,2.08007 0,1.149 0.93108,2.08008 2.08008,2.08008 1.149,0 2.08008,-0.93108 2.08008,-2.08008 0,-1.14899 -0.93108,-2.08007 -2.08008,-2.08007 z m 0,0.38281 c 0.94336,0 1.69726,0.75391 1.69726,1.69726 0,0.94336 -0.7539,1.69727 -1.69726,1.69727 -0.94336,0 -1.69727,-0.75391 -1.69727,-1.69727 0,-0.94335 0.75391,-1.69726 1.69727,-1.69726 z"
               id="path74" /></g><path
             style="stroke-linecap:round;paint-order:fill markers stroke"
             d="m 167.45117,189.80469 c -0.49401,0 -0.89648,0.40443 -0.89648,0.89843 0,0.49401 0.40247,0.89649 0.89648,0.89649 0.49401,0 0.89649,-0.40248 0.89649,-0.89649 0,-0.494 -0.40248,-0.89843 -0.89649,-0.89843 z m 0,0.26562 c 0.35102,0 0.63281,0.2818 0.63281,0.63281 0,0.35102 -0.28179,0.63282 -0.63281,0.63282 -0.35101,0 -0.63281,-0.2818 -0.63281,-0.63282 0,-0.35101 0.2818,-0.63281 0.63281,-0.63281 z"
             id="path3-8-0-4-9-3-8-3-9-6-9-3-1" /><path
             d="m 167.83594,190.47461 -0.45117,0.43359 -0.19336,-0.14843 -0.38672,0.29492 0.14453,0.18945 0.24023,-0.18359 0.21094,0.16211 0.41992,-0.4043 0.23242,0.26953 0.17969,-0.15625 z"
             id="path1-6-0-9-8-4-8-1-3-1-4-8" /><path
             d="m 167.30078,190.13086 c -0.15001,0 -0.27344,0.12342 -0.27344,0.27344 0,0.15001 0.12343,0.27343 0.27344,0.27343 0.15002,0 0.27344,-0.12342 0.27344,-0.27343 0,-0.15002 -0.12342,-0.27344 -0.27344,-0.27344 z m 0,0.18555 c 0.0499,0 0.0898,0.038 0.0898,0.0879 0,0.0499 -0.0399,0.0879 -0.0898,0.0879 -0.0499,0 -0.0879,-0.038 -0.0879,-0.0879 0,-0.0499 0.038,-0.0879 0.0879,-0.0879 z"
             id="path2-1-7-8-0-1-7-3-6-5-4-2" /><path
             id="rect5-8-96-2-8-4-4-8-1-2-9-3-9-0-0-6"
             style="baseline-shift:baseline;display:inline;overflow:visible;vector-effect:none;fill:#1a1a1a;enable-background:accumulate;stop-color:#000000;stop-opacity:1"
             d="m 166.33105,193.86777 h 1.87689 c 0.0476,0 0.086,0.0383 0.086,0.086 v 0.30696 c 0,0.0476 -0.0383,0.086 -0.086,0.086 h -1.87689 c -0.0476,0 -0.086,-0.0384 -0.086,-0.086 v -0.30696 c 0,-0.0476 0.0384,-0.086 0.086,-0.086 z" /><path
             id="rect5-8-96-2-8-4-4-8-1-2-9-4-4-3-3-5-6"
             style="baseline-shift:baseline;display:inline;overflow:visible;vector-effect:none;fill:#1a1a1a;enable-background:accumulate;stop-color:#000000;stop-opacity:1"
             d="m 166.7955,194.86169 h 0.94801 c 0.0476,0 0.086,0.0384 0.086,0.086 v 0.30696 c 0,0.0476 -0.0384,0.086 -0.086,0.086 h -0.94801 c -0.0476,0 -0.086,-0.0384 -0.086,-0.086 v -0.30696 c 0,-0.0476 0.0384,-0.086 0.086,-0.086 z" /></g></g></g></g></svg>
