<?xml version="1.0" encoding="UTF-8" standalone="no"?>
<!-- Created with Inkscape (http://www.inkscape.org/) -->

<svg
   width="23.8125mm"
   height="23.812494mm"
   viewBox="0 0 23.8125 23.812495"
   version="1.1"
   id="svg1"
   xml:space="preserve"
   xmlns="http://www.w3.org/2000/svg"
   xmlns:svg="http://www.w3.org/2000/svg"><defs
     id="defs1"><style
       id="style1">
      .cls-1 {
        fill: #0678be;
      }

      .cls-2 {
        fill: none;
      }
    </style><style
       id="style1-1">
      .cls-1 {
        fill: #0678be;
      }

      .cls-2 {
        fill: none;
      }
    </style></defs><g
     id="layer1"
     transform="translate(-177.09642,-42.97175)"><g
       id="layer1-8"
       transform="translate(28.52184,-50.139464)"><g
         id="g136"><g
           id="g78"><path
             id="rect11-7-4"
             style="baseline-shift:baseline;display:inline;overflow:visible;vector-effect:none;fill:#ffffff;enable-background:accumulate;stop-color:#000000;stop-opacity:1"
             d="m 150.16209,93.111214 h 20.63749 c 0.87948,0 1.5875,0.708025 1.5875,1.5875 v 20.637496 c 0,0.87948 -0.70802,1.5875 -1.5875,1.5875 h -20.63749 c -0.87948,0 -1.58751,-0.70802 -1.58751,-1.5875 V 94.698714 c 0,-0.879475 0.70803,-1.5875 1.58751,-1.5875 z" /><g
             id="rect1-3-9-4-8-9-6-4-5-2"
             transform="scale(-1,1)"><path
               style="fill:#ffffff"
               d="m -159.64925,94.784248 h 9.20041 c 0.0185,0 0.0334,0.0149 0.0334,0.03342 v 13.812342 c 0,0.0185 -0.0149,0.0334 -0.0334,0.0334 h -9.20041 c -0.0185,0 -0.0334,-0.0149 -0.0334,-0.0334 V 94.817664 c 0,-0.01851 0.0149,-0.03342 0.0334,-0.03342 z"
               id="path47" /><path
               d="m -159.64844,94.519531 c -0.16051,0 -0.29883,0.138313 -0.29883,0.298828 v 13.812501 c 0,0.16051 0.13832,0.29687 0.29883,0.29687 h 9.19922 c 0.16052,0 0.29883,-0.13636 0.29883,-0.29687 V 94.818359 c 0,-0.160515 -0.13831,-0.298828 -0.29883,-0.298828 z m 0.23047,0.529297 h 8.73828 v 13.349612 h -8.73828 z"
               id="path48" /></g><g
             id="rect1-3-9-4-8-1-8-3-8-2-7"
             transform="scale(-1,1)"><path
               style="fill:#ffffff"
               d="m -157.90413,97.5867 h 5.7102 c 0.007,0 0.0119,0.0053 0.0119,0.0119 v 3.09381 c 0,0.007 -0.005,0.0119 -0.0119,0.0119 h -5.7102 c -0.007,0 -0.0119,-0.005 -0.0119,-0.0119 V 97.5986 c 0,-0.0066 0.005,-0.0119 0.0119,-0.0119 z"
               id="path45" /><path
               d="m -157.9043,97.388672 c -0.11309,0 -0.21093,0.09589 -0.21093,0.208984 v 3.095704 c 0,0.11309 0.0978,0.20898 0.21093,0.20898 h 5.71094 c 0.11309,0 0.20899,-0.0959 0.20899,-0.20898 v -3.095704 c 0,-0.113093 -0.0959,-0.208984 -0.20899,-0.208984 z m 0.1875,0.396484 h 5.33594 v 2.720704 h -5.33594 z"
               id="path46" /></g><path
             style="stroke-linecap:round;paint-order:fill markers stroke"
             d="m 155.11133,98.146484 c -0.5618,0 -1.01953,0.457729 -1.01953,1.019532 0,0.561802 0.45773,1.021484 1.01953,1.021484 0.5618,0 1.02148,-0.459682 1.02148,-1.021484 0,-0.561803 -0.45968,-1.019532 -1.02148,-1.019532 z m 0,0.265625 c 0.41881,0 0.75586,0.335095 0.75586,0.753907 0,0.418811 -0.33705,0.755859 -0.75586,0.755859 -0.41881,0 -0.75586,-0.337048 -0.75586,-0.755859 0,-0.418812 0.33705,-0.753907 0.75586,-0.753907 z"
             id="path3-8-3-3-6-0-7" /><path
             d="m 155.55859,98.910156 -0.52539,0.501953 -0.22265,-0.171875 -0.44532,0.339844 0.16016,0.210938 0.2832,-0.216797 0.24414,0.1875 0.48633,-0.46875 0.27539,0.316406 0.19922,-0.173828 z"
             id="path1-1-8-5-0-9" /><path
             d="m 154.9375,98.492187 c -0.18005,0 -0.32812,0.148073 -0.32813,0.328125 0,0.180053 0.14808,0.328125 0.32813,0.328125 0.18005,0 0.33008,-0.148072 0.33008,-0.328125 0,-0.180052 -0.15003,-0.328125 -0.33008,-0.328125 z m 0,0.236329 c 0.052,0 0.0918,0.03983 0.0918,0.0918 0,0.05197 -0.0398,0.0918 -0.0918,0.0918 -0.052,0 -0.0918,-0.03983 -0.0918,-0.0918 0,-0.05196 0.0398,-0.0918 0.0918,-0.0918 z"
             id="path2-2-7-0-3-3" /><path
             id="rect5-8-96-2-8-4-4-7-9-9-1"
             style="baseline-shift:baseline;display:inline;overflow:visible;vector-effect:none;fill:#1a1a1a;enable-background:accumulate;stop-color:#000000;stop-opacity:1"
             d="m 152.651,102.33051 h 4.79607 c 0.0526,0 0.095,0.0424 0.095,0.095 v 0.33915 c 0,0.0526 -0.0424,0.095 -0.095,0.095 H 152.651 c -0.0526,0 -0.095,-0.0424 -0.095,-0.095 v -0.33915 c 0,-0.0526 0.0424,-0.095 0.095,-0.095 z" /><path
             id="rect5-8-96-2-8-4-4-1-8-0-1-9"
             style="baseline-shift:baseline;display:inline;overflow:visible;vector-effect:none;fill:#1a1a1a;enable-background:accumulate;stop-color:#000000;stop-opacity:1"
             d="m 157.31637,95.712044 h 0.6822 c 0.0461,0 0.0831,0.03708 0.0831,0.08313 v 0.296752 c 0,0.04606 -0.0371,0.08313 -0.0831,0.08313 h -0.6822 c -0.0461,0 -0.0831,-0.03708 -0.0831,-0.08313 v -0.296752 c 0,-0.04606 0.0371,-0.08313 0.0831,-0.08313 z" /><path
             id="rect5-8-96-2-8-4-4-1-2-8-0-8-8"
             style="baseline-shift:baseline;display:inline;overflow:visible;vector-effect:none;fill:#1a1a1a;enable-background:accumulate;stop-color:#000000;stop-opacity:1"
             d="m 152.07206,95.712044 h 0.74835 c 0.046,0 0.0831,0.03708 0.0831,0.08313 v 0.296752 c 0,0.04606 -0.0371,0.08313 -0.0831,0.08313 h -0.74835 c -0.0461,0 -0.0831,-0.03708 -0.0831,-0.08313 v -0.296752 c 0,-0.04606 0.0371,-0.08313 0.0831,-0.08313 z" /><path
             id="rect5-8-96-2-8-4-4-9-29-6-1-6"
             style="baseline-shift:baseline;display:inline;overflow:visible;vector-effect:none;fill:#1a1a1a;enable-background:accumulate;stop-color:#000000;stop-opacity:1"
             d="m 152.651,103.87001 h 4.79607 c 0.0526,0 0.095,0.0424 0.095,0.095 v 0.33915 c 0,0.0526 -0.0424,0.095 -0.095,0.095 H 152.651 c -0.0526,0 -0.095,-0.0424 -0.095,-0.095 v -0.33915 c 0,-0.0526 0.0424,-0.095 0.095,-0.095 z" /><path
             id="rect5-8-96-2-8-4-4-9-29-2-1-9-50"
             style="baseline-shift:baseline;display:inline;overflow:visible;vector-effect:none;fill:#1a1a1a;enable-background:accumulate;stop-color:#000000;stop-opacity:1"
             d="m 152.651,105.4095 h 4.79607 c 0.0526,0 0.095,0.0424 0.095,0.095 v 0.33915 c 0,0.0526 -0.0424,0.095 -0.095,0.095 H 152.651 c -0.0526,0 -0.095,-0.0424 -0.095,-0.095 v -0.33915 c 0,-0.0526 0.0424,-0.095 0.095,-0.095 z" /><g
             id="rect1-3-9-4-8-9-6-4-5-4-2"
             transform="scale(-1,1)"><path
               style="fill:#ffffff"
               d="m -170.57356,101.31022 h 9.20041 c 0.0185,0 0.0334,0.0149 0.0334,0.0334 v 13.81235 c 0,0.0185 -0.0149,0.0334 -0.0334,0.0334 h -9.20041 c -0.0185,0 -0.0334,-0.0149 -0.0334,-0.0334 v -13.81235 c 0,-0.0185 0.0149,-0.0334 0.0334,-0.0334 z"
               id="path43" /><path
               d="m -170.57422,101.04492 c -0.16051,0 -0.29687,0.13831 -0.29687,0.29883 v 13.8125 c 0,0.16052 0.13636,0.29687 0.29687,0.29688 h 9.20117 c 0.16052,0 0.29883,-0.13636 0.29883,-0.29688 v -13.8125 c 0,-0.16052 -0.13831,-0.29883 -0.29883,-0.29883 z m 0.23242,0.5293 h 8.73828 v 13.35156 h -8.73828 z"
               id="path44" /></g><g
             id="rect1-3-9-4-8-1-8-3-8-2-2-8"
             transform="scale(-1,1)"><path
               style="fill:#ffffff"
               d="m -168.82843,104.11268 h 5.7102 c 0.007,0 0.0119,0.005 0.0119,0.0119 v 3.09381 c 0,0.007 -0.005,0.0119 -0.0119,0.0119 h -5.7102 c -0.007,0 -0.0119,-0.005 -0.0119,-0.0119 v -3.09381 c 0,-0.007 0.005,-0.0119 0.0119,-0.0119 z"
               id="path41" /><path
               d="m -168.82812,103.91406 c -0.1131,0 -0.21094,0.0978 -0.21094,0.21094 v 3.09375 c 0,0.11309 0.0978,0.21094 0.21094,0.21094 h 5.70898 c 0.11309,0 0.21094,-0.0978 0.21094,-0.21094 V 104.125 c 0,-0.11309 -0.0978,-0.21094 -0.21094,-0.21094 z m 0.18554,0.39649 h 5.33789 v 2.7207 h -5.33789 z"
               id="path42" /></g><path
             style="stroke-linecap:round;paint-order:fill markers stroke"
             d="m 166.03711,104.67188 c -0.5618,0 -1.02149,0.45968 -1.02149,1.02148 0,0.5618 0.45969,1.01953 1.02149,1.01953 0.5618,0 1.01953,-0.45773 1.01953,-1.01953 0,-0.5618 -0.45773,-1.02148 -1.01953,-1.02148 z m 0,0.26562 c 0.41881,0 0.75391,0.33705 0.75391,0.75586 0,0.41881 -0.3351,0.75391 -0.75391,0.75391 -0.41881,0 -0.75586,-0.3351 -0.75586,-0.75391 0,-0.41881 0.33705,-0.75586 0.75586,-0.75586 z"
             id="path3-8-3-3-6-0-8-6" /><path
             d="m 166.48242,105.4375 -0.52344,0.50195 -0.22461,-0.17382 -0.44531,0.34179 0.16016,0.20899 0.28515,-0.2168 0.24219,0.1875 0.48828,-0.4668 0.27344,0.31446 0.19922,-0.17383 z"
             id="path1-1-8-5-0-8-0" /><path
             d="m 165.86328,105.01758 c -0.18005,0 -0.33008,0.14807 -0.33008,0.32812 0,0.18006 0.15003,0.33008 0.33008,0.33008 0.18005,0 0.32813,-0.15002 0.32813,-0.33008 0,-0.18005 -0.14808,-0.32812 -0.32813,-0.32812 z m 0,0.23633 c 0.052,0 0.0898,0.0398 0.0898,0.0918 0,0.052 -0.0379,0.0918 -0.0898,0.0918 -0.052,0 -0.0918,-0.0398 -0.0918,-0.0918 0,-0.052 0.0398,-0.0918 0.0918,-0.0918 z"
             id="path2-2-7-0-3-7-2" /><path
             id="rect5-8-96-2-8-4-4-7-9-9-5-4"
             style="baseline-shift:baseline;display:inline;overflow:visible;vector-effect:none;fill:#1a1a1a;enable-background:accumulate;stop-color:#000000;stop-opacity:1"
             d="m 163.57531,108.85648 h 4.79608 c 0.0526,0 0.095,0.0424 0.095,0.095 v 0.33915 c 0,0.0526 -0.0424,0.095 -0.095,0.095 h -4.79608 c -0.0526,0 -0.095,-0.0424 -0.095,-0.095 v -0.33915 c 0,-0.0526 0.0424,-0.095 0.095,-0.095 z" /><path
             id="rect5-8-96-2-8-4-4-1-8-0-1-8-8"
             style="baseline-shift:baseline;display:inline;overflow:visible;vector-effect:none;fill:#1a1a1a;enable-background:accumulate;stop-color:#000000;stop-opacity:1"
             d="m 168.24067,102.23801 h 0.6822 c 0.0461,0 0.0831,0.0371 0.0831,0.0831 v 0.29675 c 0,0.0461 -0.0371,0.0831 -0.0831,0.0831 h -0.6822 c -0.0461,0 -0.0831,-0.0371 -0.0831,-0.0831 v -0.29675 c 0,-0.0461 0.0371,-0.0831 0.0831,-0.0831 z" /><path
             id="rect5-8-96-2-8-4-4-1-2-8-0-8-1-6"
             style="baseline-shift:baseline;display:inline;overflow:visible;vector-effect:none;fill:#1a1a1a;enable-background:accumulate;stop-color:#000000;stop-opacity:1"
             d="m 162.99636,102.23801 h 0.74835 c 0.0461,0 0.0831,0.0371 0.0831,0.0831 v 0.29675 c 0,0.0461 -0.0371,0.0831 -0.0831,0.0831 h -0.74835 c -0.0461,0 -0.0831,-0.0371 -0.0831,-0.0831 v -0.29675 c 0,-0.0461 0.0371,-0.0831 0.0831,-0.0831 z" /><path
             id="rect5-8-96-2-8-4-4-9-29-6-1-2-5"
             style="baseline-shift:baseline;display:inline;overflow:visible;vector-effect:none;fill:#1a1a1a;enable-background:accumulate;stop-color:#000000;stop-opacity:1"
             d="m 163.57531,110.39598 h 4.79608 c 0.0526,0 0.095,0.0424 0.095,0.095 v 0.33915 c 0,0.0526 -0.0424,0.095 -0.095,0.095 h -4.79608 c -0.0526,0 -0.095,-0.0424 -0.095,-0.095 v -0.33915 c 0,-0.0526 0.0424,-0.095 0.095,-0.095 z" /><path
             id="rect5-8-96-2-8-4-4-9-29-2-1-9-5-0"
             style="baseline-shift:baseline;display:inline;overflow:visible;vector-effect:none;fill:#1a1a1a;enable-background:accumulate;stop-color:#000000;stop-opacity:1"
             d="m 163.57531,111.93547 h 4.79608 c 0.0526,0 0.095,0.0424 0.095,0.095 v 0.33915 c 0,0.0526 -0.0424,0.095 -0.095,0.095 h -4.79608 c -0.0526,0 -0.095,-0.0424 -0.095,-0.095 v -0.33915 c 0,-0.0526 0.0424,-0.095 0.095,-0.095 z" /></g></g></g></g></svg>
