<?xml version="1.0" encoding="UTF-8" standalone="no"?>
<!-- Created with Inkscape (http://www.inkscape.org/) -->

<svg
   width="35.792095mm"
   height="14.57782mm"
   viewBox="0 0 35.792094 14.57782"
   version="1.1"
   id="svg1"
   xmlns="http://www.w3.org/2000/svg"
   xmlns:svg="http://www.w3.org/2000/svg">
  <defs
     id="defs1" />
  <g
     id="layer1"
     transform="translate(-97.457822,-90.548591)">
    <g
       id="g2"
       transform="matrix(2.7764539,0,0,2.7764539,-204.92083,-173.80381)">
      <text
         xml:space="preserve"
         style="font-weight:bold;font-size:6.72319px;font-family:sans-serif;-inkscape-font-specification:'sans-serif Bold';text-align:start;writing-mode:lr-tb;direction:ltr;text-anchor:start;fill:#000000;stroke:#000000;stroke-width:0;stroke-linecap:round;stroke-opacity:0;paint-order:fill markers stroke"
         x="112.50589"
         y="100.36099"
         id="text1"><tspan
           id="tspan1"
           style="fill:#000000;stroke:#000000;stroke-width:0"
           x="112.50589"
           y="100.36099">34</tspan></text>
      <path
         d="m 110.12189,95.8579 q 0,0.333543 -0.15405,0.494287 -0.15405,0.160753 -0.44875,0.160753 -0.30397,0 -0.45809,-0.162087 -0.15278,-0.163421 -0.15278,-0.487592 0,-0.330863 0.15659,-0.490266 0.1566,-0.160753 0.45409,-0.160753 0.30016,0 0.45142,0.160753 0.15151,0.159387 0.15151,0.484908 z m 1.04485,-0.606808 -1.04485,1.994564 h -0.36035 l 1.04484,-1.994564 z m 0.84791,1.381057 q 0,0.333544 -0.15405,0.494288 -0.15405,0.160752 -0.44875,0.160752 -0.30397,0 -0.45812,-0.162086 -0.15246,-0.163421 -0.15246,-0.487592 0,-0.330863 0.15659,-0.490269 0.15659,-0.160753 0.45412,-0.160753 0.30016,0 0.45141,0.160753 0.1512,0.159387 0.1512,0.484914 z m -2.28792,-0.770231 q 0,-0.214338 -0.0496,-0.28933 -0.0496,-0.07499 -0.1623,-0.07499 -0.11245,0 -0.162,0.07499 -0.0495,0.07499 -0.0495,0.290695 0,0.215672 0.0495,0.290664 0.0496,0.07499 0.162,0.07499 0.11244,0 0.1623,-0.07499 0.0496,-0.07499 0.0496,-0.292029 z m 1.89276,0.774249 q 0,-0.214337 -0.0495,-0.289329 -0.0495,-0.07499 -0.16231,-0.07499 -0.11244,0 -0.162,0.07499 -0.0496,0.07499 -0.0496,0.290695 0,0.215671 0.0496,0.290696 0.0496,0.07499 0.162,0.07499 0.11244,0 0.16231,-0.07499 0.0495,-0.07499 0.0495,-0.29203 z"
         id="text2"
         style="-inkscape-font-specification:'sans-serif Bold';stroke:#000000;stroke-width:0;stroke-linecap:round;stroke-opacity:0;paint-order:fill markers stroke"
         aria-label="%" />
    </g>
  </g>
</svg>
