<?xml version="1.0" encoding="UTF-8" standalone="no"?>
<!-- Created with Inkscape (http://www.inkscape.org/) -->

<svg
   width="78.358871mm"
   height="78.37709mm"
   viewBox="0 0 78.358869 78.377091"
   version="1.1"
   id="svg1"
   inkscape:version="1.4 (86a8ad7, 2024-10-11)"
   sodipodi:docname="h3.svg"
   xml:space="preserve"
   xmlns:inkscape="http://www.inkscape.org/namespaces/inkscape"
   xmlns:sodipodi="http://sodipodi.sourceforge.net/DTD/sodipodi-0.dtd"
   xmlns="http://www.w3.org/2000/svg"
   xmlns:svg="http://www.w3.org/2000/svg"><sodipodi:namedview
     id="namedview1"
     pagecolor="#ffffff"
     bordercolor="#000000"
     borderopacity="0.25"
     inkscape:showpageshadow="2"
     inkscape:pageopacity="0.0"
     inkscape:pagecheckerboard="0"
     inkscape:deskcolor="#d1d1d1"
     inkscape:document-units="mm"
     inkscape:zoom="1.4378367"
     inkscape:cx="204.47385"
     inkscape:cy="63.637268"
     inkscape:window-width="1920"
     inkscape:window-height="1009"
     inkscape:window-x="-8"
     inkscape:window-y="-8"
     inkscape:window-maximized="1"
     inkscape:current-layer="layer1" /><defs
     id="defs1" /><g
     inkscape:label="Layer 1"
     inkscape:groupmode="layer"
     id="layer1"
     transform="translate(-60.55121,-122.98314)"><path
       style="fill:#000000;stroke-width:1.29885"
       d="m 98.10194,201.34538 c -2.70638,-0.13439 -5.299292,-0.51281 -7.8399,-1.14418 -5.91323,-1.4695 -11.389853,-4.30709 -16.102573,-8.34319 -0.941768,-0.80654 -3.305758,-3.17053 -4.112303,-4.1123 -5.119077,-5.97725 -8.274883,-13.11579 -9.22647,-20.87052 -0.359312,-2.9282 -0.359312,-6.48375 0,-9.41195 0.987305,-8.04579 4.316676,-15.36771 9.763127,-21.47097 0.819325,-0.91812 2.632008,-2.69698 3.575646,-3.50893 5.919607,-5.09346 13.228214,-8.32116 20.903212,-9.23151 3.022597,-0.3585 6.384201,-0.35824 9.379251,7.3e-4 7.68409,0.921 14.91479,4.11846 20.87052,9.22908 1.58003,1.35581 3.71875,3.57728 5.07888,5.27537 4.28455,5.34915 7.1583,11.97046 8.13332,18.73971 0.29476,2.04653 0.38543,3.38083 0.38543,5.67249 0,3.61048 -0.35175,6.42282 -1.23032,9.83678 -2.13148,8.28263 -7.06245,15.77166 -13.88348,21.0859 -6.00168,4.6759 -13.07362,7.45793 -20.66157,8.12807 -1.12655,0.0995 -4.075118,0.17297 -5.03277,0.12547 z m 4.60793,-1.85705 c 3.32077,-0.28164 6.56523,-0.97441 9.5216,-2.03308 10.44943,-3.74191 18.70066,-11.86951 22.587,-22.24851 2.95643,-7.89558 3.12172,-16.72468 0.46364,-24.7665 -0.98368,-2.97602 -2.47651,-6.06171 -4.22298,-8.72891 -5.55539,-8.48418 -14.33517,-14.38994 -24.23155,-16.29949 -4.05514,-0.78245 -8.494744,-0.87495 -12.614593,-0.26282 -8.740299,1.29864 -16.74332,5.68042 -22.622547,12.38624 -6.906198,7.87715 -10.170588,18.16014 -9.075505,28.58827 0.613796,5.84506 2.657335,11.56433 5.896839,16.50357 3.233659,4.93033 7.560531,9.01971 12.690882,11.99425 1.211421,0.70237 3.549824,1.83351 4.842202,2.34228 4.004758,1.57655 7.692441,2.36236 12.287811,2.61842 0.700727,0.0391 3.636301,-0.0225 4.477201,-0.0938 z m -5.94782,-3.81856 c -1.876923,-0.17861 -3.677293,-0.49395 -5.454815,-0.95541 -0.55566,-0.14425 -1.018789,-0.27079 -1.02918,-0.28117 -0.02857,-0.0286 10.008335,-29.18996 10.047065,-29.19107 0.0184,-5.2e-4 2.33844,6.31534 5.15548,14.03524 2.81703,7.71991 5.17696,14.15202 5.24428,14.29358 0.0673,0.14156 0.12235,0.28025 0.12235,0.30821 0,0.0735 -1.48195,0.53157 -2.81051,0.86885 -1.52272,0.38655 -2.89835,0.6413 -4.64061,0.85936 -1.13649,0.14224 -5.376062,0.18213 -6.634099,0.0624 z m -12.747485,-3.77343 c -4.203923,-2.27023 -7.659633,-5.13236 -10.524719,-8.71693 -4.275905,-5.3497 -6.762156,-11.6736 -7.287669,-18.53655 -0.10131,-1.32251 -0.04637,-4.86529 0.09352,-6.03698 0.302475,-2.5328 0.742563,-4.58906 1.452539,-6.78677 0.387419,-1.1992 1.208342,-3.26678 1.270271,-3.19929 0.05208,0.0568 16.0112,43.76789 15.98821,43.79086 -0.0078,0.008 -0.454141,-0.22379 -0.992188,-0.51434 z m 32.715165,-0.76879 c 0,-0.0929 10.08828,-29.25132 10.43739,-30.16751 0.88512,-2.32276 1.56183,-4.7024 1.90891,-6.71264 0.31669,-1.83419 0.36531,-2.47452 0.36371,-4.79084 -9e-4,-1.32056 -0.0321,-2.43401 -0.0768,-2.74412 -0.0413,-0.28704 -0.0674,-0.5297 -0.0578,-0.53926 0.0335,-0.0335 1.07383,2.11421 1.40114,2.89247 1.33136,3.16549 2.06895,6.06645 2.50906,9.86821 0.13236,1.14327 0.10937,5.56328 -0.0353,6.79751 -0.22037,1.87969 -0.52396,3.49466 -0.97065,5.1635 -2.05792,7.6883 -6.82586,14.422 -13.45355,19.00023 -0.88984,0.61468 -2.02617,1.30588 -2.02617,1.23245 z M 85.247988,164.57062 c -3.349023,-9.96636 -6.081093,-18.12881 -6.071287,-18.1388 0.01039,-0.0104 0.441062,-0.0474 0.958328,-0.083 1.337811,-0.0923 2.856811,-0.2524 3.161612,-0.33322 0.156537,-0.0416 0.368508,-0.17721 0.531695,-0.3404 0.558387,-0.55838 0.558387,-1.42145 0,-1.97983 -0.432425,-0.43244 -0.530864,-0.44261 -2.805637,-0.29013 -1.085355,0.0727 -2.635164,0.16544 -3.443994,0.20598 -1.654678,0.083 -5.784424,0.11547 -5.853769,0.0461 -0.02481,-0.0248 0.234078,-0.43612 0.575427,-0.91388 5.918413,-8.28374 14.884841,-13.34084 25.015879,-14.10903 1.33885,-0.10157 4.817408,-0.0438 6.047228,0.10053 7.02685,0.82392 13.0526,3.45053 18.36513,8.0053 l 0.65239,0.55934 -0.65239,0.0401 c -1.49009,0.0917 -2.69836,0.66731 -3.73058,1.77713 -0.72675,0.78141 -1.25704,1.79942 -1.50473,2.88867 -0.15442,0.67911 -0.15242,2.00723 0.004,2.74514 0.33399,1.57428 0.85919,2.66762 2.89822,6.03336 2.13872,3.53028 3.02047,6.34241 3.02047,9.63311 0,2.24245 -0.41493,4.09924 -2.1881,9.79151 -0.26316,0.8448 -1.18993,3.91837 -2.05948,6.83019 -0.86956,2.91182 -1.60049,5.31472 -1.62428,5.33979 -0.0365,0.0385 -12.16368,-35.89438 -12.13179,-35.94658 0.006,-0.0104 0.41957,-0.0462 0.91895,-0.0808 1.63266,-0.11286 2.99445,-0.26327 3.26092,-0.3602 0.53804,-0.19571 0.88237,-0.70113 0.88237,-1.29519 0,-0.62996 -0.31477,-1.10451 -0.87439,-1.31822 -0.27108,-0.10352 -0.40342,-0.10209 -2.33725,0.0265 -5.6997,0.37898 -8.465901,0.38467 -13.847488,0.0286 -0.880734,-0.0583 -1.870741,-0.1091 -2.200011,-0.113 -0.566856,-0.006 -0.61377,0.004 -0.882371,0.19197 -0.954237,0.66931 -0.791517,2.16677 0.271874,2.50211 0.190424,0.06 1.533106,0.20471 3.496792,0.37676 l 0.392174,0.0344 2.567286,7.03883 c 1.412015,3.87134 2.584132,7.10328 2.604719,7.18208 0.02416,0.0926 -1.253348,4.01588 -3.612909,11.09498 -2.007692,6.02343 -3.665123,10.95143 -3.683177,10.95109 -0.01805,-3.2e-4 -2.772932,-8.15488 -6.121955,-18.12124 z"
       id="path2" /></g></svg>
