<?xml version="1.0" encoding="UTF-8" standalone="no"?>
<!-- Created with Inkscape (http://www.inkscape.org/) -->

<svg
   width="259.18933mm"
   height="176.82526mm"
   viewBox="0 0 259.18934 176.82526"
   version="1.1"
   id="svg1"
   inkscape:version="1.4 (86a8ad7, 2024-10-11)"
   sodipodi:docname="jan.svg"
   xml:space="preserve"
   xmlns:inkscape="http://www.inkscape.org/namespaces/inkscape"
   xmlns:sodipodi="http://sodipodi.sourceforge.net/DTD/sodipodi-0.dtd"
   xmlns="http://www.w3.org/2000/svg"
   xmlns:svg="http://www.w3.org/2000/svg"><sodipodi:namedview
     id="namedview1"
     pagecolor="#ffffff"
     bordercolor="#000000"
     borderopacity="0.25"
     inkscape:showpageshadow="2"
     inkscape:pageopacity="0.0"
     inkscape:pagecheckerboard="0"
     inkscape:deskcolor="#d1d1d1"
     inkscape:document-units="mm"
     inkscape:zoom="0.88833429"
     inkscape:cx="632.64472"
     inkscape:cy="608.44212"
     inkscape:window-width="1920"
     inkscape:window-height="1009"
     inkscape:window-x="-8"
     inkscape:window-y="-8"
     inkscape:window-maximized="1"
     inkscape:current-layer="layer1" /><defs
     id="defs1"><linearGradient
       id="swatch1"
       inkscape:swatch="solid"><stop
         style="stop-color:#000000;stop-opacity:1;"
         offset="0"
         id="stop1" /></linearGradient></defs><g
     inkscape:label="Layer 1"
     inkscape:groupmode="layer"
     id="layer1"
     transform="translate(85.437363,48.659821)"><path
       id="rect6-4-8"
       style="stroke-width:2.30323"
       d="M -58.690335,84.747621 H 143.30868 c 0.61477,0 1.10969,0.421535 1.10969,0.945147 0,0.523612 -0.49492,0.945147 -1.10969,0.945147 H -58.690335 c -0.614765,0 -1.109683,-0.421535 -1.109683,-0.945147 0,-0.523612 0.494918,-0.945147 1.109683,-0.945147 z" /><path
       id="rect6-4-8-7"
       style="stroke-width:1.21823"
       d="m -59.025148,20.181572 c 0.451414,0 0.814826,0.52779 0.814826,1.183387 v 63.902757 c 0,0.655597 -0.363412,1.183387 -0.814826,1.183387 -0.451413,0 -0.814825,-0.52779 -0.814825,-1.183387 V 21.364959 c 0,-0.655597 0.363412,-1.183387 0.814825,-1.183387 z" /><path
       id="rect6-4-8-7-3"
       style="stroke-width:0.146836"
       d="m -57.020276,85.782382 h 0.445283 c 0.04056,0 0.07321,0.02112 0.07321,0.04735 v 2.556961 c 0,0.02623 -0.03265,0.04735 -0.07321,0.04735 h -0.445283 c -0.04056,0 -0.07321,-0.02112 -0.07321,-0.04735 v -2.556961 c 0,-0.02623 0.03265,-0.04735 0.07321,-0.04735 z" /><path
       id="rect6-4-8-7-3-9"
       style="stroke-width:0.146836"
       d="m -59.11799,71.63697 v 0.445283 c 0,0.04056 -0.02112,0.07321 -0.04735,0.07321 h -2.556961 c -0.02623,0 -0.04735,-0.03265 -0.04735,-0.07321 V 71.63697 c 0,-0.04056 0.02112,-0.07321 0.04735,-0.07321 h 2.556961 c 0.02623,0 0.04735,0.03265 0.04735,0.07321 z" /><path
       id="rect6-4-8-7-3-9-3"
       style="stroke-width:0.146836"
       d="M -59.451043,57.634217 V 58.0795 c 0,0.04056 -0.02112,0.07321 -0.04735,0.07321 h -2.556961 c -0.02623,0 -0.04735,-0.03265 -0.04735,-0.07321 v -0.445283 c 0,-0.04056 0.02112,-0.07321 0.04735,-0.07321 h 2.556961 c 0.02623,0 0.04735,0.03265 0.04735,0.07321 z" /><path
       id="rect6-4-8-7-3-9-8-9"
       style="stroke-width:0.146836"
       d="m -59.055604,45.006912 v 0.445283 c 0,0.04056 -0.02112,0.07321 -0.04735,0.07321 h -2.556961 c -0.02623,0 -0.04735,-0.03265 -0.04735,-0.07321 v -0.445283 c 0,-0.04056 0.02112,-0.07321 0.04735,-0.07321 h 2.556961 c 0.02623,0 0.04735,0.03265 0.04735,0.07321 z" /><path
       id="rect6-4-8-7-3-2"
       style="stroke-width:0.155337"
       d="m -26.238483,85.366493 h 0.485712 c 0.02936,0 0.05299,0.02363 0.05299,0.05299 v 2.861586 c 0,0.02936 -0.02363,0.05299 -0.05299,0.05299 h -0.485712 c -0.02936,0 -0.05299,-0.02363 -0.05299,-0.05299 v -2.861586 c 0,-0.02936 0.02363,-0.05299 0.05299,-0.05299 z" /><path
       id="rect6-4-8-7-3-2-5"
       style="stroke-width:0.160087"
       d="M 5.4747907,84.936043 H 5.953921 c 0.031181,0 0.056283,0.0251 0.056283,0.05628 v 3.039285 c 0,0.03118 -0.025102,0.05628 -0.056283,0.05628 H 5.4747907 c -0.031181,0 -0.056283,-0.0251 -0.056283,-0.05628 v -3.039285 c 0,-0.03118 0.025102,-0.05628 0.056283,-0.05628 z" /><path
       id="rect6-4-8-7-3-2-5-0"
       style="stroke-width:0.182576"
       d="m 34.315219,84.808578 h 0.445283 c 0.04056,0 0.07321,0.03265 0.07321,0.07321 v 3.953165 c 0,0.04056 -0.03265,0.07321 -0.07321,0.07321 h -0.445283 c -0.04056,0 -0.07321,-0.03265 -0.07321,-0.07321 v -3.953165 c 0,-0.04056 0.03265,-0.07321 0.07321,-0.07321 z" /><path
       id="rect6-4-8-7-3-2-5-0-6"
       style="stroke-width:0.161419"
       d="m 64.160373,84.874963 h 0.445283 c 0.04056,0 0.07321,0.02552 0.07321,0.05723 v 3.090057 c 0,0.03171 -0.03265,0.05723 -0.07321,0.05723 h -0.445283 c -0.04056,0 -0.07321,-0.02552 -0.07321,-0.05723 v -3.090057 c 0,-0.0317 0.03265,-0.05723 0.07321,-0.05723 z" /><path
       id="path6"
       style="stroke:#000000;stroke-width:1.28433"
       d="m -23.745843,71.383095 a 2.704879,2.704879 0 0 1 -2.704879,2.704879 2.704879,2.704879 0 0 1 -2.704879,-2.704879 2.704879,2.704879 0 0 1 2.704879,-2.704879 2.704879,2.704879 0 0 1 2.704879,2.704879 z" /><path
       id="path6-5"
       style="stroke-width:1.28433"
       d="m 36.617201,64.405129 a 2.704879,2.704879 0 0 1 -2.704879,2.704879 2.704879,2.704879 0 0 1 -2.704879,-2.704879 2.704879,2.704879 0 0 1 2.704879,-2.704879 2.704879,2.704879 0 0 1 2.704879,2.704879 z" /><path
       id="path6-5-9"
       style="stroke-width:1.28433"
       d="m 67.621995,41.093363 a 2.704879,2.704879 0 0 1 -2.704879,2.704879 2.704879,2.704879 0 0 1 -2.704879,-2.704879 2.704879,2.704879 0 0 1 2.704879,-2.704879 2.704879,2.704879 0 0 1 2.704879,2.704879 z" /><path
       id="path6-5-6"
       style="stroke-width:1.28433"
       d="m 100.78919,41.092312 a 2.704879,2.704879 0 0 1 -2.704878,2.704879 2.704879,2.704879 0 0 1 -2.704879,-2.704879 2.704879,2.704879 0 0 1 2.704879,-2.704879 2.704879,2.704879 0 0 1 2.704878,2.704879 z" /><path
       id="path6-5-6-8"
       style="stroke-width:1.28433"
       d="m 129.64886,20.504673 a 2.704879,2.704879 0 0 1 -2.70488,2.704879 2.704879,2.704879 0 0 1 -2.70488,-2.704879 2.704879,2.704879 0 0 1 2.70488,-2.704879 2.704879,2.704879 0 0 1 2.70488,2.704879 z" /><path
       style="fill:none;fill-opacity:1;stroke:#000000;stroke-width:1.28433;stroke-dasharray:none"
       d="M -58.828263,85.775999 C -25.467599,72.312591 -25.467599,72.312591 -25.467599,72.312591"
       id="path7" /><path
       style="fill:none;fill-opacity:1;stroke:#000000;stroke-width:1.28433;stroke-dasharray:none"
       d="M 5.1664146,85.461342 C -27.943208,71.391851 -27.943208,71.391851 -27.943208,71.391851"
       id="path7-1" /><path
       style="fill:none;fill-opacity:1;stroke:#000000;stroke-width:1.28433;stroke-dasharray:none"
       d="M 34.552705,64.20707 C 5.8133569,85.846096 5.8133569,85.846096 5.8133569,85.846096"
       id="path7-1-8" /><path
       style="fill:none;fill-opacity:1;stroke:#000000;stroke-width:1.28433;stroke-dasharray:none"
       d="M 64.031568,41.675269 C 35.29222,63.314296 35.29222,63.314296 35.29222,63.314296"
       id="path7-1-8-1" /><path
       style="fill:none;fill-opacity:1;stroke:#000000;stroke-width:1.28433;stroke-dasharray:none"
       d="M 126.36213,20.315549 C 97.622776,41.954575 97.622776,41.954575 97.622776,41.954575"
       id="path7-1-8-1-0" /><path
       style="fill:none;fill-opacity:1;stroke:#000000;stroke-width:1.28433;stroke-dasharray:none"
       d="m 63.197874,41.190091 c 35.974889,-0.07125 35.974889,-0.07125 35.974889,-0.07125"
       id="path7-1-8-1-3" /><path
       style="font-weight:800;font-size:4.23333px;line-height:150%;font-family:suse;-inkscape-font-specification:'suse Ultra-Bold';stroke-width:1.28433"
       d="m -59.826494,92.82917 v -0.613833 h 0.550333 q 0.09313,0 0.1524,-0.05927 0.0635,-0.0635 0.0635,-0.156633 v -1.803399 l 0.283633,0.283633 h -0.922866 v -0.613833 h 1.320799 V 91.9317 q 0,0.448733 -0.2413,0.6731 -0.237067,0.224366 -0.719666,0.224366 z m 1.680637,0 1.041399,-2.963331 h 0.842432 l 1.037166,2.963331 h -0.694266 l -0.808566,-2.451098 h 0.0889 l -0.812799,2.451098 z m 0.486833,-0.647699 0.215899,-0.567266 h 1.528232 l 0.220134,0.567266 z m 2.738967,0.647699 v -2.963331 h 0.605367 l 1.507065,2.188632 -0.2921,0.04657 v -2.235199 h 0.677333 v 2.963331 h -0.588433 l -1.498599,-2.158998 0.2667,-0.04657 v 2.205565 z"
       id="text7"
       aria-label="JAN" /><path
       style="font-weight:800;font-size:4.23333px;line-height:150%;font-family:suse;-inkscape-font-specification:'suse Ultra-Bold';stroke-width:1.28433"
       d="m -29.530029,92.299141 v -2.446865 q 0,-0.224366 0.143933,-0.368299 0.148166,-0.148167 0.372533,-0.148167 h 1.481665 v 0.613833 h -1.236132 q -0.03387,0 -0.05927,0.0254 -0.0254,0.0254 -0.0254,0.05927 v 2.264831 z m 0.347133,-1.062566 v -0.605366 h 1.545165 v 0.605366 z m 2.565396,1.062566 q -0.224366,0 -0.372533,-0.143933 -0.143933,-0.148167 -0.143933,-0.372533 v -1.930399 q 0,-0.224366 0.143933,-0.368299 0.148167,-0.148167 0.372533,-0.148167 h 1.519766 v 0.613833 h -1.282699 q -0.03387,0 -0.05927,0.0254 -0.0254,0.0254 -0.0254,0.05927 v 1.566332 q 0,0.03387 0.0254,0.05927 0.0254,0.0254 0.05927,0.0254 h 1.282699 v 0.613833 z m -0.194733,-1.198032 v -0.5842 h 1.625599 v 0.5842 z m 2.222495,1.198032 V 89.33581 h 1.159933 q 0.457199,0 0.723899,0.207433 0.2667,0.207433 0.2667,0.563033 0,0.169333 -0.06773,0.338666 -0.0635,0.1651 -0.211667,0.275167 -0.143933,0.110066 -0.385233,0.110066 l 0.0127,-0.09313 q 0.258233,0 0.427566,0.105833 0.173567,0.1016 0.258234,0.270934 0.0889,0.165099 0.0889,0.355599 0,0.381 -0.279399,0.605366 -0.275167,0.224367 -0.753533,0.224367 z m 0.664633,-0.321733 -0.2667,-0.232833 h 0.728133 q 0.207433,0 0.325966,-0.0889 0.118534,-0.09313 0.118534,-0.249767 0,-0.09737 -0.04657,-0.1778 -0.04233,-0.08043 -0.127,-0.126999 -0.08467,-0.0508 -0.2159,-0.0508 h -0.736599 v -0.529167 h 0.643466 q 0.173567,0 0.275167,-0.08467 0.101599,-0.08467 0.101599,-0.237067 0,-0.143933 -0.105833,-0.224366 -0.1016,-0.08467 -0.283633,-0.08467 h -0.677333 l 0.2667,-0.232833 z"
       id="text7-2"
       aria-label="FEB" /><path
       style="font-weight:800;font-size:4.23333px;line-height:150%;font-family:suse;-inkscape-font-specification:'suse Ultra-Bold';stroke-width:1.28433"
       d="m 1.0308033,92.277519 v -2.963331 h 0.9101659 l 0.7577661,1.824566 H 2.3812355 l 0.7577661,-1.824566 h 0.9101659 v 2.963331 H 3.388768 V 89.623221 H 3.6343011 L 2.7876352,91.727186 H 2.2923356 L 1.4456697,89.623221 h 0.2455331 v 2.654298 z m 3.3189332,0 1.0413992,-2.963331 h 0.8424326 l 1.0371658,2.963331 H 6.576468 L 5.767902,89.826421 h 0.0889 l -0.8127993,2.451098 z m 0.486833,-0.647699 0.2158998,-0.567266 h 1.528232 l 0.2201332,0.567266 z m 2.7389678,0.647699 v -2.963331 h 1.1683991 q 0.4868329,0 0.7789326,0.254 0.2963331,0.249767 0.2963331,0.719666 0,0.478366 -0.2963331,0.732366 -0.2920997,0.254 -0.7789326,0.254 h -0.859366 v -0.563033 h 0.8254993 q 0.1862665,0 0.3005664,-0.1143 0.1142999,-0.1143 0.1142999,-0.296333 0,-0.182033 -0.1142999,-0.300566 Q 8.8963362,89.881455 8.7100697,89.881455 H 7.9734703 l 0.2793998,-0.254 v 2.650064 z m 1.5620987,0 -0.6476994,-1.295399 h 0.7281327 l 0.6900327,1.295399 z"
       id="text7-2-7"
       aria-label="MAR" /><path
       style="font-weight:800;font-size:4.23333px;line-height:150%;font-family:suse;-inkscape-font-specification:'suse Ultra-Bold';stroke-width:1.28433"
       d="m 30.385545,92.704147 1.041399,-2.963331 h 0.842432 l 1.037166,2.963331 H 32.612276 L 31.80371,90.253049 h 0.0889 l -0.812799,2.451098 z m 0.486833,-0.647699 0.215899,-0.567266 h 1.528233 l 0.220133,0.567266 z m 2.738967,0.647699 v -2.963331 h 1.071033 q 0.334433,0 0.575733,0.118534 0.245533,0.1143 0.380999,0.330199 0.135467,0.2159 0.135467,0.5207 0,0.300566 -0.135467,0.516466 -0.135466,0.2159 -0.380999,0.3302 -0.2413,0.1143 -0.575733,0.1143 h -0.757766 v -0.5588 h 0.791632 q 0.186267,0 0.287867,-0.1143 0.1016,-0.118533 0.1016,-0.287866 0,-0.169333 -0.1016,-0.283633 -0.1016,-0.1143 -0.287867,-0.1143 h -0.706966 l 0.2794,-0.258233 v 2.650064 z m 2.544231,0 v -2.963331 h 1.168399 q 0.486832,0 0.778932,0.254 0.296333,0.249767 0.296333,0.719666 0,0.478367 -0.296333,0.732366 -0.2921,0.254 -0.778932,0.254 h -0.859366 v -0.563033 h 0.825499 q 0.186266,0 0.300566,-0.1143 0.1143,-0.114299 0.1143,-0.296333 0,-0.182033 -0.1143,-0.300566 -0.1143,-0.118533 -0.300566,-0.118533 h -0.736599 l 0.279399,-0.254 v 2.650064 z m 1.562098,0 -0.647699,-1.295399 h 0.728132 l 0.690033,1.295399 z"
       id="text7-2-7-6"
       aria-label="APR" /><path
       style="font-weight:800;font-size:4.23333px;line-height:150%;font-family:suse;-inkscape-font-specification:'suse Ultra-Bold';stroke-width:1.29771"
       d="m 60.361625,91.743782 v -2.963331 h 0.910166 l 0.757766,1.824565 h -0.317499 l 0.757766,-1.824565 h 0.910166 v 2.963331 h -0.6604 v -2.654298 h 0.245533 l -0.846666,2.103965 h -0.495299 l -0.846666,-2.103965 h 0.245533 v 2.654298 z m 3.318934,0 1.041399,-2.963331 h 0.842432 l 1.037166,2.963331 H 65.90729 l -0.808566,-2.451098 h 0.0889 l -0.812799,2.451098 z m 0.486833,-0.647699 0.215899,-0.567267 h 1.528232 l 0.220134,0.567267 z m 3.594103,-0.986366 h -0.266699 l 0.761999,-1.329266 h 0.732366 l -1.020232,1.761065 v 1.202266 H 67.287362 V 90.541516 L 66.26713,88.780451 h 0.732366 z"
       id="text7-2-7-6-1"
       transform="scale(0.98969177,1.0104156)"
       aria-label="MAY" /><path
       id="rect6-4-8-7-3-2-5-0-6-4"
       style="stroke-width:0.182576"
       d="m 96.713862,84.565819 h 0.445283 c 0.04056,0 0.07321,0.03265 0.07321,0.07321 v 3.953165 c 0,0.04056 -0.03265,0.07321 -0.07321,0.07321 h -0.445283 c -0.04056,0 -0.07321,-0.03265 -0.07321,-0.07321 v -3.953165 c 0,-0.04056 0.03265,-0.07321 0.07321,-0.07321 z" /><path
       style="font-weight:800;font-size:4.23333px;line-height:150%;font-family:suse;-inkscape-font-specification:'suse Ultra-Bold';stroke-width:1.28433"
       d="m 93.024668,92.35743 v -0.613833 h 0.550333 q 0.09313,0 0.1524,-0.05927 0.0635,-0.0635 0.0635,-0.156633 v -1.803399 l 0.283634,0.283633 h -0.922866 v -0.613832 h 1.320799 v 2.065865 q 0,0.448733 -0.2413,0.673099 -0.237067,0.224367 -0.719666,0.224367 z m 3.191932,0.0635 q -0.541867,0 -0.867833,-0.266699 -0.325966,-0.270933 -0.325966,-0.846666 v -1.913465 h 0.681566 v 1.858431 q 0,0.287867 0.1397,0.414867 0.139699,0.127 0.372533,0.127 0.232833,0 0.372533,-0.127 0.1397,-0.127 0.1397,-0.414867 v -1.858431 h 0.681566 v 1.913465 q 0,0.380999 -0.1524,0.630766 -0.148167,0.245533 -0.414867,0.364066 -0.266699,0.118533 -0.626532,0.118533 z m 1.761062,-0.0635 v -2.963331 h 0.605366 l 1.507062,2.188631 -0.292096,0.04657 v -2.235198 h 0.677336 v 2.963331 h -0.588436 l -1.498599,-2.158999 0.2667,-0.04657 v 2.205565 z"
       id="text7-2-7-6-1-6"
       aria-label="JUN" /><path
       id="rect6-4-8-7-3-2-5-0-6-4-7"
       style="stroke-width:0.182576"
       d="m 128.58288,85.15139 h 0.44528 c 0.0406,0 0.0732,0.03265 0.0732,0.07321 v 3.953165 c 0,0.04056 -0.0326,0.07321 -0.0732,0.07321 h -0.44528 c -0.0406,0 -0.0732,-0.03265 -0.0732,-0.07321 v -3.953165 c 0,-0.04056 0.0326,-0.07321 0.0732,-0.07321 z" /><path
       style="font-weight:800;font-size:4.23333px;line-height:150%;font-family:suse;-inkscape-font-specification:'suse Ultra-Bold';stroke-width:1.28433"
       d="m 124.81045,92.666328 v -0.613832 h 0.55033 q 0.0931,0 0.1524,-0.05927 0.0635,-0.0635 0.0635,-0.156633 v -1.803399 l 0.28364,0.283633 h -0.92287 v -0.613832 h 1.3208 v 2.065865 q 0,0.448732 -0.2413,0.673099 -0.23707,0.224366 -0.71967,0.224366 z m 3.19193,0.0635 q -0.54186,0 -0.86783,-0.266699 -0.32597,-0.270934 -0.32597,-0.846666 v -1.913465 h 0.68157 v 1.858431 q 0,0.287867 0.1397,0.414867 0.1397,0.127 0.37253,0.127 0.23283,0 0.37253,-0.127 0.1397,-0.127 0.1397,-0.414867 v -1.858431 h 0.68157 v 1.913465 q 0,0.380999 -0.1524,0.630766 -0.14817,0.245533 -0.41487,0.364066 -0.2667,0.118533 -0.62653,0.118533 z m 2.26906,-0.0635 q -0.22436,0 -0.37253,-0.143933 -0.14393,-0.148166 -0.14393,-0.372533 v -2.446864 h 0.67733 v 2.243664 q 0,0.03387 0.0254,0.05927 0.0254,0.0254 0.0593,0.0254 h 1.20226 v 0.634999 z"
       id="text7-2-7-6-1-6-7"
       aria-label="JUL" /></g></svg>
